<svg width="37" height="37" viewBox="0 0 37 37" fill="none" xmlns="http://www.w3.org/2000/svg">
<path d="M6.78284 24.7893L11.7143 32.4148C12.7641 33.1645 13.5819 34.4357 15.6734 34.4357M31.7087 9.88477C32.0457 10.455 34.2755 14.4207 34.2755 14.4207C34.2755 14.4207 35.7021 16.935 35.8041 17.5336C36.0269 18.8408 36.0202 20.5194 35.3035 22.3112C32.6892 28.847 29.3304 31.7971 23.2672 33.426" stroke="#FF5919" stroke-width="1.80771" stroke-linecap="round" stroke-linejoin="round"/>
<path d="M23.4647 18.636C24.6153 17.5858 25.675 16.4741 26.49 14.9421C26.8435 15.5893 27.235 16.4402 27.5267 17.4397C28.207 19.7707 28.347 22.8993 26.1823 26.2051L26.1823 26.2051L26.1793 26.2097C25.4927 27.2723 23.3355 29.986 20.0325 30.1695C19.766 30.1843 19.5197 30.3162 19.3596 30.5297C19.0414 30.9539 18.8839 31.5331 18.795 32.0375C18.7216 32.4536 18.6809 32.9055 18.6647 33.3499C16.9494 30.9376 16.7881 28.7106 17.0915 26.9943C17.2904 25.8692 17.6964 24.9296 18.0554 24.2697C18.2342 23.941 18.3991 23.6856 18.5166 23.5158C18.5753 23.4311 18.6219 23.368 18.6522 23.3281C18.6673 23.3082 18.6783 23.2942 18.6847 23.2861L18.6904 23.279L18.6907 23.2786L18.6909 23.2783L18.691 23.2782L18.6927 23.2761C19.9481 21.7311 21.1806 20.6509 22.3728 19.6061C22.7408 19.2836 23.1049 18.9644 23.4647 18.636Z" stroke="#FF5919" stroke-width="1.80771" stroke-linecap="round" stroke-linejoin="round"/>
<path d="M16.676 20.9909C11.3411 23.3375 6.50021 23.5036 5.09617 21.1307C3.41148 18.2835 7.31283 12.8589 13.8101 9.01448C20.3073 5.17011 26.9401 4.36176 28.6248 7.20899C29.3734 8.47428 29.551 9.52789 28.3557 11.4463" stroke="#FF5919" stroke-width="1.80771" stroke-linecap="round" stroke-linejoin="round"/>
</svg>
