<svg width="36" height="33" viewBox="0 0 36 33" fill="none" xmlns="http://www.w3.org/2000/svg">
<path d="M4.69031 22.9914V13.0389C4.69031 12.3733 5.22987 11.8337 5.89545 11.8337H10.373C11.0386 11.8337 11.5781 12.3733 11.5781 13.0389V22.9914" stroke="#FF5919" stroke-width="1.80771" stroke-linecap="round" stroke-linejoin="round"/>
<path d="M11.5815 15.2422L10.9583 15.2422C10.1568 15.2422 9.50708 15.8919 9.50708 16.6934V16.6934C9.50708 17.4949 10.1568 18.1447 10.9583 18.1447L11.5815 18.1447" stroke="#FF5919" stroke-width="1.80771" stroke-linecap="round" stroke-linejoin="round"/>
<path d="M1.53955 27.305V27.305C1.53955 24.8148 3.55824 22.7961 6.04842 22.7961H9.76812C12.2583 22.7961 14.277 24.8148 14.277 27.305V27.305" stroke="#FF5919" stroke-width="1.80771" stroke-linecap="round" stroke-linejoin="round"/>
<path d="M17.4379 11.4219L27.88 1.77075" stroke="#FF5919" stroke-width="1.80771" stroke-linecap="round" stroke-linejoin="round"/>
<path d="M18.8369 14.2577L32.7324 8.59058" stroke="#FF5919" stroke-width="1.80771" stroke-linecap="round" stroke-linejoin="round"/>
<path d="M17.4379 21.9665L27.88 31.6177" stroke="#FF5919" stroke-width="1.80771" stroke-linecap="round" stroke-linejoin="round"/>
<path d="M18.8369 19.1295L32.7324 24.7966" stroke="#FF5919" stroke-width="1.80771" stroke-linecap="round" stroke-linejoin="round"/>
<path d="M19.274 16.6958L34.4393 16.6958" stroke="#FF5919" stroke-width="1.80771" stroke-linecap="round" stroke-linejoin="round"/>
</svg>
