<svg width="70" height="70" viewBox="0 0 70 70" fill="none" xmlns="http://www.w3.org/2000/svg">
<path d="M34.39 2.55444V9.268" stroke="white" stroke-width="2.5" stroke-linecap="round" stroke-linejoin="round"/>
<path d="M67.2477 35.1765L60.6595 35.1765" stroke="white" stroke-width="2.5" stroke-linecap="round" stroke-linejoin="round"/>
<path d="M9.8158 35.1738L3.22766 35.1738" stroke="white" stroke-width="2.5" stroke-linecap="round" stroke-linejoin="round"/>
<path d="M57.8718 58.2356L53.2133 53.4884" stroke="white" stroke-width="2.5" stroke-linecap="round" stroke-linejoin="round"/>
<path d="M17.2662 16.853L12.6077 12.1059" stroke="white" stroke-width="2.5" stroke-linecap="round" stroke-linejoin="round"/>
<path d="M12.6083 58.2336L17.2668 53.4864" stroke="white" stroke-width="2.5" stroke-linecap="round" stroke-linejoin="round"/>
<path d="M53.2184 16.853L57.8769 12.1059" stroke="white" stroke-width="2.5" stroke-linecap="round" stroke-linejoin="round"/>
<ellipse cx="34.8522" cy="35.0409" rx="32.992" ry="32.7508" stroke="white" stroke-width="2.5" stroke-linecap="round" stroke-linejoin="round"/>
<path d="M34.3888 3.73022L34.3888 11.0895" stroke="white" stroke-width="2.5" stroke-linecap="round" stroke-linejoin="round"/>
<path d="M34.8513 60.429L34.8513 67.7899" stroke="white" stroke-width="2.5" stroke-linecap="round" stroke-linejoin="round"/>
<path d="M37.9308 38.2971C38.9905 39.5825 40.5185 41.2267 43.7897 41.2267C47.7308 41.2267 49.2679 37.5156 49.2679 34.8578C49.2679 31.7954 47.6186 28.6035 43.3167 28.6035C35.9432 28.6035 32.4393 41.4765 26.4093 41.4765C22.0645 41.4765 20.5107 37.4789 20.4368 35.4801C20.4368 32.0327 22.3106 28.6035 26.0893 28.6035C29.2854 28.6035 29.9591 29.9323 30.8012 30.8867" stroke="white" stroke-width="2.5" stroke-linecap="round" stroke-linejoin="round"/>
</svg>
