<svg width="42" height="67" viewBox="0 0 42 67" fill="none" xmlns="http://www.w3.org/2000/svg">
<path d="M18.3025 65.639C16.7645 62.3173 16.3338 57.2206 18.0333 53.0515M18.0333 53.0515C14.0056 52.5745 1.26953 50.1453 1.26953 37.3601C1.26953 23.3394 9.61709 15.7757 8.05804 1.57593C22.4191 3.56445 45.5071 17.163 39.8005 37.3601C35.9881 50.8531 22.5383 54.3102 18.0333 53.0515ZM18.0333 53.0515C18.835 49.0049 20.6362 44.401 21.849 40.4585M21.849 40.4585C22.7564 38.7337 29.823 34.0423 31.7161 33.5758M21.849 40.4585C22.9319 36.6056 23.7611 32.2155 23.4605 28.2227M23.4605 28.2227C23.1184 23.6783 20.5194 18.8292 16.341 14.589M23.4605 28.2227C22.507 26.5278 17.561 24.7556 14.0695 25.2019" stroke="white" stroke-width="2.5" stroke-linecap="round" stroke-linejoin="round"/>
</svg>
