<svg width="60" height="70" viewBox="0 0 60 70" fill="none" xmlns="http://www.w3.org/2000/svg">
<path d="M52.0695 29.04L36.1196 7.62402L23.0771 17.3376L39.0269 38.7536L52.0695 29.04Z" stroke="white" stroke-width="2.5" stroke-linecap="round" stroke-linejoin="round"/>
<path d="M33.6321 9.51672L28.0281 1.99219L21.1209 7.13637L26.7249 14.6609L33.6321 9.51672Z" stroke="white" stroke-width="2.5" stroke-linecap="round" stroke-linejoin="round"/>
<path d="M54.8894 39.2311L49.2854 31.7065L42.3783 36.8507L47.9823 44.3753L54.8894 39.2311Z" stroke="white" stroke-width="2.5" stroke-linecap="round" stroke-linejoin="round"/>
<path d="M25.7635 20.9414C25.7635 20.9414 -0.217963 25.6085 1.32168 48.0776C2.18773 60.1061 20.1342 63.2335 20.1342 63.2335" stroke="white" stroke-width="2.5" stroke-linecap="round" stroke-linejoin="round"/>
<path d="M32.5961 30.083C32.5961 30.083 11.4741 31.8151 11.4741 44.5653C11.4741 48.9918 14.9864 51.3012 18.0657 52.5041C20.1827 53.322 22.4441 53.7069 24.7054 53.7069H58.6608" stroke="white" stroke-width="2.5" stroke-linecap="round" stroke-linejoin="round"/>
<path d="M48.666 53.7085V63.235H37.5999" stroke="white" stroke-width="2.5" stroke-linecap="round" stroke-linejoin="round"/>
<path d="M20.2178 63.2329V68.0494H53.68V63.2329H44.2496" stroke="white" stroke-width="2.5" stroke-linecap="round" stroke-linejoin="round"/>
</svg>
