<svg width="74" height="62" viewBox="0 0 74 62" fill="none" xmlns="http://www.w3.org/2000/svg">
<circle cx="37.0698" cy="39.0495" r="8.22162" stroke="white" stroke-width="2.5" stroke-linecap="round" stroke-linejoin="round"/>
<path d="M1.40674 48.6305C1.40674 37.969 9.30166 30.5461 18.5463 30.5461C25.9419 30.5461 27.9486 33.5152 29.3657 35.2022M24.4168 60.1018C24.4168 60.1018 26.0974 47.734 36.1922 47.734C46.2871 47.734 49.8386 55.1984 49.8972 60.1018M72.7318 48.6305C72.7993 40.8704 67.8733 30.5461 54.58 30.5461C48.156 30.5461 45.5454 32.8819 44.1958 34.4339" stroke="white" stroke-width="2.5" stroke-linecap="round" stroke-linejoin="round"/>
<path d="M27.5399 16.8283L27.5315 22.1291C27.2785 24.9354 25.0611 30.5479 18.2157 30.5479C11.3703 30.5479 9.14456 24.9354 8.89154 22.1291V16.8283M27.5399 16.8283C23.9761 16.8283 21.2265 14.4796 21.2265 12.0737C18.8206 15.568 12.462 16.8283 8.89154 16.8283M27.5399 16.8283C27.5399 16.8283 28.8453 15.969 28.8453 15.0771C28.7848 11.8275 26.9011 5.32837 18.2157 5.32837C9.53036 5.32837 7.52636 11.8275 7.46582 15.0771C7.46582 16.8283 8.89154 16.8283 8.89154 16.8283" stroke="white" stroke-width="2.5" stroke-linecap="round" stroke-linejoin="round"/>
<path d="M37.6835 30.1124C37.3574 29.2558 37.6834 30.1598 37.6832 21.2379C37.6828 8.3766 45.0177 5.56949 47.2203 5.61028C47.9545 3.71357 49.9124 1.93994 54.6197 1.93994C63.476 1.93994 71.534 8.75906 70.6306 17.8755C70.6306 29.43 70.6306 37.7763 70.6306 35.7454M63.5155 17.8755V21.2379C63.2085 23.9686 60.9994 29.43 54.6197 29.43C53.3861 29.43 52.3147 29.2729 51.3849 29.0013C46.304 27.517 45.4502 22.6133 45.4502 21.2379C45.4502 19.9363 45.4502 16.4644 45.4502 14.8912C46.8426 14.7102 49.812 13.8383 50.5498 11.7986C52.557 13.8052 55.1071 18.3653 63.5155 17.8755Z" stroke="white" stroke-width="2.5" stroke-linecap="round" stroke-linejoin="round"/>
</svg>
