<svg width="7" height="13" viewBox="0 0 7 13" version="1.1" xmlns="http://www.w3.org/2000/svg" xmlns:xlink="http://www.w3.org/1999/xlink">
<title>Group 4</title>
<desc>Created using Figma</desc>
<g id="Canvas" transform="translate(-13476 -44874)">
<g id="Group 4">
<g id="Canvas">
<g id="Layer 1 3">
<g id="Vector">
<g id="Vector">
<use xlink:href="#path0_fill" transform="translate(13476.1 44874.1)" fill="#FFFFFF"/>
</g>
</g>
</g>
</g>
</g>
</g>
<defs>
<path id="path0_fill" d="M 6.02642 4.17708L 3.97403 4.17708L 3.97403 2.83821C 3.97403 2.33541 4.30907 2.21818 4.54505 2.21818C 4.78049 2.21818 5.9934 2.21818 5.9934 2.21818L 5.9934 0.00774367L 3.99874 -2.30748e-16C 1.78446 -2.30748e-16 1.28056 1.64861 1.28056 2.70364L 1.28056 4.17708L 4.58403e-15 4.17708L 4.58403e-15 6.4548L 1.28056 6.4548C 1.28056 9.37792 1.28056 12.9 1.28056 12.9L 3.97403 12.9C 3.97403 12.9 3.97403 9.34324 3.97403 6.4548L 5.79152 6.4548L 6.02642 4.17708Z"/>
</defs>
</svg>
