<svg width="14" height="14" viewBox="0 0 14 14" version="1.1" xmlns="http://www.w3.org/2000/svg" xmlns:xlink="http://www.w3.org/1999/xlink">
<title>Vector</title>
<desc>Created using Figma</desc>
<g id="Canvas" transform="translate(-7343 -35488)">
<g id="Vector">
<use xlink:href="#path0_fill" transform="translate(7343 35488)" fill="#353535"/>
<use xlink:href="#path1_fill" transform="translate(7343 35488)" fill="#353535"/>
<use xlink:href="#path2_fill" transform="translate(7343 35488)" fill="#353535"/>
</g>
</g>
<defs>
<path id="path0_fill" d="M 7.00011 3.35938C 5.0243 3.35938 3.38721 4.96825 3.38721 6.97228C 3.38721 8.97631 4.99608 10.5852 7.00011 10.5852C 9.00414 10.5852 10.613 8.94809 10.613 6.97228C 10.613 4.99647 8.97592 3.35938 7.00011 3.35938ZM 7.00011 9.28679C 5.72995 9.28679 4.68559 8.24244 4.68559 6.97228C 4.68559 5.70212 5.72995 4.65776 7.00011 4.65776C 8.27027 4.65776 9.31463 5.70212 9.31463 6.97228C 9.31463 8.24244 8.27027 9.28679 7.00011 9.28679Z"/>
<path id="path1_fill" d="M 10.7541 4.09022C 11.2062 4.09022 11.5726 3.72375 11.5726 3.27167C 11.5726 2.8196 11.2062 2.45312 10.7541 2.45312C 10.302 2.45312 9.93555 2.8196 9.93555 3.27167C 9.93555 3.72375 10.302 4.09022 10.7541 4.09022Z"/>
<path id="path2_fill" d="M 12.871 1.15726C 12.1371 0.395161 11.0927 0 9.90726 0L 4.09274 0C 1.6371 0 0 1.6371 0 4.09274L 0 9.87903C 0 11.0927 0.395161 12.1371 1.18548 12.8992C 1.94758 13.6331 2.96371 14 4.12097 14L 9.87903 14C 11.0927 14 12.1089 13.6048 12.8427 12.8992C 13.6048 12.1653 14 11.121 14 9.90726L 14 4.09274C 14 2.90726 13.6048 1.89113 12.871 1.15726ZM 12.7581 9.90726C 12.7581 10.7823 12.4476 11.4879 11.9395 11.9677C 11.4315 12.4476 10.7258 12.7016 9.87903 12.7016L 4.12097 12.7016C 3.27419 12.7016 2.56855 12.4476 2.06048 11.9677C 1.55242 11.4597 1.29839 10.754 1.29839 9.87903L 1.29839 4.09274C 1.29839 3.24597 1.55242 2.54032 2.06048 2.03226C 2.54032 1.55242 3.27419 1.29839 4.12097 1.29839L 9.93548 1.29839C 10.7823 1.29839 11.4879 1.55242 11.996 2.06048C 12.4758 2.56855 12.7581 3.27419 12.7581 4.09274L 12.7581 9.90726Z"/>
</defs>
</svg>
