<svg width="18" height="19" viewBox="0 0 18 19" version="1.1" xmlns="http://www.w3.org/2000/svg" xmlns:xlink="http://www.w3.org/1999/xlink">
<title>if_Instagram_logo_2258498 (1)</title>
<desc>Created using Figma</desc>
<g id="Canvas" transform="translate(-13629 -44871)">
<g id="if_Instagram_logo_2258498 (1)">
<g id="Vector">
<use xlink:href="#path0_fill" transform="translate(13629.2 44871.9)" fill="#FFFFFF"/>
</g>
<g id="Vector">
<use xlink:href="#path1_fill" transform="translate(13641.3 44874.8)" fill="#FFFFFF"/>
</g>
<g id="Vector">
<use xlink:href="#path2_fill" transform="translate(13633.5 44876.2)" fill="#FFFFFF"/>
</g>
</g>
</g>
<defs>
<path id="path0_fill" d="M 12.7618 -8.69348e-08L 4.25395 -8.69348e-08C 1.91449 -8.69348e-08 0 1.93517 0 4.29989L 0 12.9001C 0 15.2642 1.91449 17.2 4.25395 17.2L 12.7618 17.2C 15.1013 17.2 17.0158 15.2642 17.0158 12.9001L 17.0158 4.29989C 17.0158 1.93517 15.1013 -8.69348e-08 12.7618 -8.69348e-08ZM 15.5977 12.9001C 15.5977 14.4803 14.326 15.7666 12.7618 15.7666L 4.25395 15.7666C 2.69041 15.7666 1.41805 14.4803 1.41805 12.9001L 1.41805 4.29989C 1.41805 2.71925 2.69041 1.43337 4.25395 1.43337L 12.7618 1.43337C 14.326 1.43337 15.5977 2.71925 15.5977 4.29989L 15.5977 12.9001Z"/>
<path id="path1_fill" d="M 1.06354 2.14995C 1.65091 2.14995 2.12708 1.66867 2.12708 1.07497C 2.12708 0.481282 1.65091 0 1.06354 0C 0.476162 0 0 0.481282 0 1.07497C 0 1.66867 0.476162 2.14995 1.06354 2.14995Z"/>
<path id="path2_fill" d="M 4.25395 1.181e-07C 1.90407 1.181e-07 0 1.92485 0 4.29989C 0 6.67408 1.90407 8.60021 4.25395 8.60021C 6.60319 8.60021 8.50789 6.67408 8.50789 4.29989C 8.50789 1.92485 6.60319 1.181e-07 4.25395 1.181e-07ZM 4.25395 7.16685C 2.68786 7.16685 1.41805 5.88333 1.41805 4.29989C 1.41805 2.71646 2.68786 1.43337 4.25395 1.43337C 5.82004 1.43337 7.08984 2.71646 7.08984 4.29989C 7.08984 5.88333 5.82004 7.16685 4.25395 7.16685Z"/>
</defs>
</svg>
