<svg width="9" height="14" viewBox="0 0 9 14" version="1.1" xmlns="http://www.w3.org/2000/svg" xmlns:xlink="http://www.w3.org/1999/xlink">
<title>odnoklass</title>
<desc>Created using Figma</desc>
<g id="Canvas" transform="translate(-4155 -44783)">
<g id="odnoklass">
<g id="Vector">
<use xlink:href="#path0_fill" transform="translate(4156.12 44783)" fill="#353535"/>
</g>
<g id="Vector">
<use xlink:href="#path1_fill" transform="translate(4155 44789.6)" fill="#353535"/>
</g>
</g>
</g>
<defs>
<path id="path0_fill" d="M 3.3746 6.99704C 4.04203 6.99704 4.69447 6.79186 5.24942 6.40743C 5.80437 6.02301 6.2369 5.47662 6.49232 4.83735C 6.74773 4.19808 6.81456 3.49464 6.68435 2.81599C 6.55414 2.13735 6.23274 1.51397 5.7608 1.02469C 5.28885 0.535417 4.68755 0.202216 4.03295 0.0672246C 3.37834 -0.0677665 2.69982 0.00151586 2.08319 0.266311C 1.46657 0.531105 0.939527 0.979519 0.568722 1.55485C 0.197917 2.13018 9.99081e-16 2.80658 4.99541e-16 3.49852C 1.99816e-15 4.42639 0.355537 5.31625 0.988396 5.97235C 1.62126 6.62845 2.4796 6.99704 3.3746 6.99704ZM 3.3746 1.74926C 3.70831 1.74926 4.03453 1.85185 4.31201 2.04406C 4.58948 2.23628 4.80575 2.50947 4.93346 2.82911C 5.06116 3.14874 5.09458 3.50046 5.02947 3.83978C 4.96437 4.17911 4.80367 4.4908 4.5677 4.73543C 4.33172 4.98007 4.03108 5.14667 3.70377 5.21417C 3.37647 5.28166 3.03721 5.24702 2.72889 5.11463C 2.42058 4.98223 2.15706 4.75802 1.97166 4.47036C 1.78626 4.18269 1.6873 3.84449 1.6873 3.49852C 1.6873 3.03459 1.86507 2.58966 2.1815 2.26161C 2.49793 1.93356 2.9271 1.74926 3.3746 1.74926L 3.3746 1.74926Z"/>
<path id="path1_fill" d="M 8.32454 2.46118C 8.53162 2.32022 8.70169 2.12815 8.81949 1.90222C 8.93729 1.67628 8.99913 1.42356 8.99946 1.16673C 9.00414 1.01227 8.97825 0.858458 8.92338 0.714775C 8.86851 0.571093 8.78582 0.44059 8.68042 0.331317C 8.57502 0.222045 8.44914 0.136321 8.31054 0.079434C 8.17195 0.0225469 8.02358 -0.00429702 7.8746 0.000558707C 7.62864 0.00096953 7.38959 0.0849441 7.19405 0.239624C 6.41049 0.846718 5.45852 1.17476 4.48031 1.17476C 3.50211 1.17476 2.55014 0.846718 1.76658 0.239624C 1.57849 0.103519 1.35477 0.0302761 1.1254 0.0297131C 0.976417 0.0248574 0.82805 0.0517007 0.689457 0.108588C 0.550864 0.165475 0.424983 0.251199 0.319582 0.360471C 0.21418 0.469744 0.131492 0.600247 0.0766202 0.74393C 0.0217481 0.887613 -0.00414492 1.04143 0.000538809 1.19589C 0.000865912 1.45271 0.062705 1.70544 0.180505 1.93137C 0.298305 2.1573 0.468378 2.34937 0.675458 2.49034C 1.22171 2.85236 1.8143 3.13304 2.43587 3.32415L 2.79583 3.42911L 0.95105 5.30665C 0.839497 5.42106 0.750937 5.55727 0.690498 5.7074C 0.630058 5.85753 0.598937 6.0186 0.598937 6.18128C 0.598937 6.34396 0.630058 6.50502 0.690498 6.65515C 0.750937 6.80528 0.839497 6.94149 0.95105 7.05591C 1.17683 7.28386 1.47954 7.41142 1.7947 7.41142C 2.10986 7.41142 2.41256 7.28386 2.63835 7.05591L 4.5 5.0326L 6.3729 7.04424C 6.59665 7.27621 6.90012 7.40653 7.21655 7.40653C 7.53298 7.40653 7.83645 7.27621 8.0602 7.04424C 8.28395 6.81228 8.40965 6.49766 8.40965 6.16961C 8.40965 5.84156 8.28395 5.52695 8.0602 5.29498L 6.1873 3.43494L 6.55288 3.32998C 7.18024 3.12909 7.77679 2.83655 8.32454 2.46118L 8.32454 2.46118Z"/>
</defs>
</svg>
