<svg width="16" height="12" viewBox="0 0 16 12" version="1.1" xmlns="http://www.w3.org/2000/svg" xmlns:xlink="http://www.w3.org/1999/xlink">
<title>1499302455_twitter</title>
<desc>Created using Figma</desc>
<g id="Canvas" transform="translate(-13579 -44874)">
<g id="1499302455_twitter">
<g id="Vector">
<use xlink:href="#path0_fill" transform="translate(13579.2 44874.1)" fill="#FFFFFF"/>
</g>
</g>
</g>
<defs>
<path id="path0_fill" d="M 14.8888 1.39944C 14.341 1.63731 13.7528 1.79785 13.1343 1.86926C 13.7649 1.49996 14.2494 0.915073 14.4779 0.218308C 13.8873 0.559868 13.2339 0.809103 12.5381 0.942362C 11.9806 0.362482 11.1866 0 10.3075 0C 8.62045 0 7.25359 1.33622 7.25359 2.9849C 7.25359 3.21867 7.28012 3.44699 7.33225 3.6653C 4.79353 3.54068 2.5429 2.35227 1.03596 0.546224C 0.773481 0.987388 0.622694 1.49996 0.622694 2.04709C 0.622694 3.08314 1.16208 3.9964 1.98117 4.53216C 1.48088 4.51624 1.0099 4.38253 0.598028 4.15876C 0.597563 4.17104 0.597563 4.18423 0.597563 4.19606C 0.597563 5.6428 1.65028 6.8494 3.04785 7.12365C 2.79188 7.19142 2.52196 7.22826 2.24319 7.22826C 2.04586 7.22826 1.85505 7.20961 1.66889 7.17505C 2.05703 8.36027 3.18561 9.2235 4.52175 9.24806C 3.47694 10.0485 2.15988 10.5265 0.728803 10.5265C 0.482146 10.5265 0.238746 10.5124 2.21057e-11 10.4847C 1.3515 11.3306 2.9571 11.825 4.68231 11.825C 10.3005 11.825 13.3735 7.27647 13.3735 3.33147C 13.3735 3.2023 13.3698 3.07314 13.3642 2.94488C 13.9613 2.52418 14.4788 1.99888 14.8888 1.39944Z"/>
</defs>
</svg>
