<svg width="18" height="10" viewBox="0 0 18 10" version="1.1" xmlns="http://www.w3.org/2000/svg" xmlns:xlink="http://www.w3.org/1999/xlink">
<title>Group</title>
<desc>Created using Figma</desc>
<g id="Canvas" transform="translate(-13523 -44876)">
<g id="Group">
<g id="Vector">
<use xlink:href="#path0_fill" transform="translate(13523.9 44876.2)" fill="#27AE60"/>
</g>
</g>
</g>
<defs>
<path id="path0_fill" d="M 3.9983 7.26782C 5.92327 9.19972 8.1069 9.0731 8.1069 9.0731L 9.09907 9.0731C 9.09907 9.0731 9.40011 9.04043 9.55275 8.88114C 9.69267 8.7341 9.68843 8.46045 9.68843 8.46045C 9.68843 8.46045 9.66723 7.18205 10.2863 6.99009C 10.8926 6.80629 11.677 8.22764 12.5038 8.77495C 13.1313 9.18746 13.6062 9.09761 13.6062 9.09761L 15.8153 9.06902C 15.8153 9.06902 16.9728 8.99958 16.4259 8.12554C 16.3792 8.05202 16.1079 7.47613 14.7807 6.29167C 13.3942 5.05003 13.5808 5.25016 15.2514 3.10588C 16.269 1.79889 16.676 1.00245 16.5488 0.659361C 16.4259 0.332614 15.6796 0.418385 15.6796 0.418385L 13.1865 0.434723C 13.1865 0.434723 12.9999 0.410217 12.8642 0.487819C 12.7285 0.565422 12.6437 0.745133 12.6437 0.745133C 12.6437 0.745133 12.2494 1.75805 11.7237 2.61576C 10.6128 4.42921 10.1718 4.52723 9.98948 4.41287C 9.56971 4.15147 9.67147 3.35911 9.67147 2.79547C 9.67147 1.03512 9.94707 0.304024 9.13299 0.11206C 8.86162 0.0507946 8.66234 0.00586686 7.97121 0.00178252C 7.08081 -0.00638617 6.33032 0.00586685 5.90207 0.206C 5.61799 0.340783 5.40175 0.63894 5.53319 0.655277C 5.69855 0.675699 6.07168 0.753301 6.26672 1.01061C 6.52112 1.34553 6.51264 2.09705 6.51264 2.09705C 6.51264 2.09705 6.66104 4.16781 6.1692 4.42512C 5.83423 4.60075 5.37207 4.24133 4.38414 2.59534C 3.87533 1.75396 3.49373 0.818651 3.49373 0.818651C 3.49373 0.818651 3.42165 0.643024 3.29021 0.553168C 3.12909 0.438807 2.9086 0.406132 2.9086 0.406132L 0.542662 0.42247C 0.542662 0.42247 0.186498 0.430638 0.0550569 0.581759C -0.0636642 0.708373 0.0465769 0.982024 0.0465769 0.982024C 0.0465769 0.982024 1.89948 5.1603 3.9983 7.26782Z"/>
</defs>
</svg>
