<svg width="15" height="8" viewBox="0 0 15 8" version="1.1" xmlns="http://www.w3.org/2000/svg" xmlns:xlink="http://www.w3.org/1999/xlink">
<title>vk</title>
<desc>Created using Figma</desc>
<g id="Canvas" transform="translate(-4100 -44787)">
<g id="vk">
<g id="Vector">
<use xlink:href="#path0_fill" transform="translate(4100 44787)" fill="#353535"/>
</g>
</g>
</g>
<defs>
<path id="path0_fill" d="M 3.61888 6.38517C 5.36118 8.08244 7.33759 7.9712 7.33759 7.9712L 8.23561 7.9712C 8.23561 7.9712 8.50808 7.94249 8.64624 7.80255C 8.77288 7.67337 8.76905 7.43295 8.76905 7.43295C 8.76905 7.43295 8.74986 6.30981 9.31016 6.14116C 9.85895 5.97969 10.5689 7.22842 11.3173 7.70925C 11.8852 8.07167 12.3151 7.99273 12.3151 7.99273L 14.3145 7.96761C 14.3145 7.96761 15.3622 7.90661 14.8671 7.13871C 14.8249 7.07412 14.5793 6.56817 13.3781 5.52756C 12.1232 4.43672 12.292 4.61254 13.8041 2.72868C 14.7251 1.58042 15.0935 0.880702 14.9784 0.579284C 14.8671 0.292219 14.1917 0.367574 14.1917 0.367574L 11.9351 0.381927C 11.9351 0.381927 11.7663 0.360397 11.6435 0.428575C 11.5207 0.496753 11.4439 0.654638 11.4439 0.654638C 11.4439 0.654638 11.087 1.54454 10.6111 2.29808C 9.60566 3.89129 9.20654 3.97741 9.04152 3.87694C 8.66159 3.64729 8.7537 2.95116 8.7537 2.45597C 8.7537 0.909408 9.00314 0.267101 8.26631 0.0984504C 8.0207 0.0446257 7.84033 0.00515434 7.21478 0.00156603C 6.40887 -0.00561058 5.7296 0.00515433 5.342 0.180981C 5.08487 0.299396 4.88915 0.561342 5.00812 0.575695C 5.15779 0.593637 5.4955 0.661815 5.67204 0.887878C 5.9023 1.18212 5.89462 1.84237 5.89462 1.84237C 5.89462 1.84237 6.02894 3.66164 5.58377 3.8877C 5.28059 4.042 4.86229 3.72623 3.96811 2.28014C 3.50758 1.54095 3.16219 0.719228 3.16219 0.719228C 3.16219 0.719228 3.09695 0.564931 2.97798 0.485988C 2.83215 0.385515 2.63259 0.356809 2.63259 0.356809L 0.491166 0.371162C 0.491166 0.371162 0.1688 0.378338 0.0498323 0.511106C -0.0576228 0.622344 0.0421569 0.86276 0.0421569 0.86276C 0.0421569 0.86276 1.71922 4.5336 3.61888 6.38517Z"/>
</defs>
</svg>
