<svg width="134" height="31" viewBox="0 0 134 31" version="1.1" xmlns="http://www.w3.org/2000/svg" xmlns:xlink="http://www.w3.org/1999/xlink">
<title>Group 6</title>
<desc>Created using Figma</desc>
<g id="Canvas" transform="translate(-9184 -45185)">
<g id="Group 6">
<g id="Group">
<g id="Vector">
<use xlink:href="#path0_fill" transform="translate(9302.3 45191.4)" fill="#FFFFFF"/>
</g>
<g id="Vector">
<use xlink:href="#path1_fill" transform="translate(9208.5 45191.4)" fill="#FFFFFF"/>
</g>
<g id="Vector">
<use xlink:href="#path2_fill" transform="translate(9246.2 45191.5)" fill="#FFFFFF"/>
</g>
<g id="Vector">
<use xlink:href="#path3_fill" transform="translate(9228.1 45191.3)" fill="#FFFFFF"/>
</g>
<g id="Vector">
<use xlink:href="#path4_fill" transform="translate(9264.3 45191.5)" fill="#FFFFFF"/>
</g>
<g id="Vector">
<use xlink:href="#path5_fill" transform="translate(9282.4 45190.8)" fill="#FFFFFF"/>
</g>
<g id="Vector">
<use xlink:href="#path6_fill" transform="translate(9184 45185)" fill="#FFFFFF"/>
</g>
<g id="Vector">
<use xlink:href="#path7_fill" transform="translate(9228 45210.9)" fill="#FFFFFF"/>
</g>
<g id="Vector">
<use xlink:href="#path8_fill" transform="translate(9232.1 45211.1)" fill="#FFFFFF"/>
</g>
<g id="Vector">
<use xlink:href="#path9_fill" transform="translate(9235.9 45211.1)" fill="#FFFFFF"/>
</g>
<g id="Vector">
<use xlink:href="#path10_fill" transform="translate(9239.2 45211.1)" fill="#FFFFFF"/>
</g>
<g id="Vector">
<use xlink:href="#path11_fill" transform="translate(9244.3 45211.1)" fill="#FFFFFF"/>
</g>
<g id="Vector">
<use xlink:href="#path12_fill" transform="translate(9248.1 45211.1)" fill="#FFFFFF"/>
</g>
<g id="Vector">
<use xlink:href="#path13_fill" transform="translate(9252.2 45211)" fill="#FFFFFF"/>
</g>
<g id="Vector">
<use xlink:href="#path14_fill" transform="translate(9255 45211.1)" fill="#FFFFFF"/>
</g>
<g id="Vector">
<use xlink:href="#path15_fill" transform="translate(9258 45211)" fill="#FFFFFF"/>
</g>
<g id="Vector">
<use xlink:href="#path16_fill" transform="translate(9261.2 45211.1)" fill="#FFFFFF"/>
</g>
<g id="Vector">
<use xlink:href="#path17_fill" transform="translate(9265.2 45210.9)" fill="#FFFFFF"/>
</g>
<g id="Vector">
<use xlink:href="#path18_fill" transform="translate(9268.8 45211)" fill="#FFFFFF"/>
</g>
<g id="Vector">
<use xlink:href="#path19_fill" transform="translate(9271.7 45211.1)" fill="#FFFFFF"/>
</g>
<g id="Vector">
<use xlink:href="#path20_fill" transform="translate(9274.9 45211.1)" fill="#FFFFFF"/>
</g>
<g id="Vector">
<use xlink:href="#path21_fill" transform="translate(9278.1 45211.1)" fill="#FFFFFF"/>
</g>
<g id="Vector">
<use xlink:href="#path22_fill" transform="translate(9281.7 45211.1)" fill="#FFFFFF"/>
</g>
<g id="Vector">
<use xlink:href="#path23_fill" transform="translate(9286.8 45211.1)" fill="#FFFFFF"/>
</g>
<g id="Vector">
<use xlink:href="#path24_fill" transform="translate(9289.8 45211)" fill="#FFFFFF"/>
</g>
<g id="Vector">
<use xlink:href="#path25_fill" transform="translate(9294 45211.1)" fill="#FFFFFF"/>
</g>
<g id="Vector">
<use xlink:href="#path26_fill" transform="translate(9299.4 45211)" fill="#FFFFFF"/>
</g>
<g id="Vector">
<use xlink:href="#path27_fill" transform="translate(9303.1 45211.1)" fill="#FFFFFF"/>
</g>
<g id="Vector">
<use xlink:href="#path28_fill" transform="translate(9306.9 45211.1)" fill="#FFFFFF"/>
</g>
<g id="Vector">
<use xlink:href="#path29_fill" transform="translate(9310.7 45211.1)" fill="#FFFFFF"/>
</g>
<g id="Vector">
<use xlink:href="#path30_fill" transform="translate(9314.5 45211.1)" fill="#FFFFFF"/>
</g>
</g>
</g>
</g>
<defs>
<path id="path0_fill" d="M 11.8 9.53674e-08L 11.8 6L 3.6 6L 3.6 9.53674e-08L 3.05176e-06 9.53674e-08L 3.05176e-06 15.8L 3.6 15.8L 3.6 9.3L 11.8 9.3L 11.8 15.8L 15.4 15.8L 15.4 9.53674e-08L 11.8 9.53674e-08Z"/>
<path id="path1_fill" d="M 14.7 9.53674e-08C 13.1 9.53674e-08 9.6 9.53674e-08 9 9.53674e-08C 5.8 0.2 3.8 1.8 3 5L 0 15.7L 3.8 15.7L 4.6 12.8L 12.6 12.8L 12.6 15.8L 16.3 15.8L 16.3 9.53674e-08L 16 9.53674e-08C 15.9 9.53674e-08 15.4 9.53674e-08 14.7 9.53674e-08ZM 12.6 9.6L 5.5 9.6L 6.7 5.2C 7.1 4 8 3.3 9.4 3.3L 12.5 3.3L 12.5 9.6L 12.6 9.6Z"/>
<path id="path2_fill" d="M 13.5 7.8C 13.1 7.6 12.7 7.4 12.4 7.3C 12.6 7.2 12.8 7.1 13 7C 13.9 6.4 14.4 5.5 14.4 4.4C 14.4 3.1 13.9 2 12.9 1.2C 11.8 0.3 10.5 0 8.7 0L 7.62939e-07 0L 7.62939e-07 15.7L 9.2 15.7C 11.1 15.7 12.7 15.2 13.8 14.3C 14.9 13.5 15.4 12.3 15.4 11C 15.4 9.7 14.8 8.5 13.5 7.8ZM 3.6 3.1L 8.6 3.1C 9.9 3.1 10.5 3.6 10.5 4.6C 10.5 5.2 10.3 6 8.6 6L 3.6 6L 3.6 3.1ZM 9.2 12.4L 3.7 12.4L 3.7 9.2L 9.2 9.2C 10.1 9.2 11.7 9.4 11.7 10.9C 11.7 12.1 10.3 12.4 9.2 12.4Z"/>
<path id="path3_fill" d="M 10.6 6.4L 15.4 0.3L 15.6 1.90735e-07L 11.2 1.90735e-07L 6.4 6.1L 3.7 6.1L 3.7 0.1L -1.52588e-06 0.1L -1.52588e-06 15.9L 3.7 15.9L 3.7 9.4L 8.4 9.4C 9.5 9.5 10.2 10.1 10.5 11.1L 11.8 15.9L 15.6 15.9L 14.2 10.9C 13.6 8.6 12.4 7.1 10.6 6.4Z"/>
<path id="path4_fill" d="M 3.6 10.5L 3.6 0L 3.05176e-06 0L 3.05176e-06 15.8L 3.8 15.8L 11.8 5.2L 11.8 15.8L 15.4 15.8L 15.4 0L 11.6 0L 3.6 10.5Z"/>
<path id="path5_fill" d="M 8.6 1.90735e-07C 6.2 1.90735e-07 4 0.9 2.4 2.4C 0.800003 3.9 1.52588e-06 6.1 1.52588e-06 8.5C 1.52588e-06 10.9 0.900003 13 2.4 14.6C 4 16.1 6.2 17 8.6 17C 11 17 13.2 16.2 14.8 14.6C 16.4 13.1 17.2 10.9 17.2 8.5C 17.2 6.1 16.3 4 14.8 2.4C 13.2 0.9 11 1.90735e-07 8.6 1.90735e-07ZM 8.6 13.7C 5.6 13.7 3.6 11.6 3.6 8.5C 3.6 5.4 5.6 3.3 8.6 3.3C 11.6 3.3 13.6 5.4 13.6 8.5C 13.6 11.6 11.6 13.7 8.6 13.7Z"/>
<path id="path6_fill" d="M 20.3 0C 20.3 0 10.3 3.1 5.5 5.7C 2.3 7.3 0 10.7 0 14.5C 0 20 4.5 24.4 10.2 24.4C 15.1 24.4 19.1 21.1 20.1 16.6C 20.1 16.6 20.1 16.6 20.1 16.5C 21.2 11.3 20.3 0 20.3 0ZM 14.8 19.1C 13.6 20.3 11.9 20.9 10.1 20.9C 8.2 20.9 6.6 20.3 5.4 19.1C 4.2 18 3.6 16.4 3.6 14.6L 5.6 14.6C 5.6 17 7.7 19 10.2 19C 12.7 19 14.7 17 14.8 14.6L 16.7 14.6C 16.6 16.3 15.9 17.9 14.8 19.1Z"/>
<path id="path7_fill" d="M 4 2C 4 2.2 4 2.4 3.9 2.6C 3.8 2.8 3.7 2.9 3.6 3.1C 3.5 3.2 3.3 3.3 3.1 3.4C 2.9 3.5 2.7 3.5 2.4 3.5L 2.4 3.9C 2.4 3.9 2.4 3.9 2.4 4C 2.4 4 2.4 4 2.3 4L 2.2 4C 2.1 4 2.1 4 2 4C 1.9 4 1.9 4 1.8 4L 1.7 4C 1.7 4 1.7 4 1.6 4C 1.6 4 1.6 4 1.6 3.9L 1.6 3.5C 1.3 3.5 1.1 3.4 0.900002 3.4C 0.700002 3.3 0.500002 3.2 0.400002 3.1C 0.300002 3 0.199998 2.8 0.0999985 2.7C -1.52737e-06 2.5 1.42109e-14 2.3 1.42109e-14 2.1C 1.42109e-14 1.9 -1.52737e-06 1.7 0.0999985 1.5C 0.199998 1.3 0.300002 1.2 0.400002 1.1C 0.500002 1 0.700002 0.900001 0.900002 0.800001C 1.1 0.700001 1.3 0.7 1.6 0.6L 1.6 0.1C 1.6 0.1 1.6 0.0999996 1.6 -3.8147e-07C 1.6 -3.8147e-07 1.6 -3.8147e-07 1.7 -3.8147e-07L 1.8 -3.8147e-07C 1.8 -3.8147e-07 1.9 -3.8147e-07 2 -3.8147e-07C 2.1 -3.8147e-07 2.1 -3.8147e-07 2.2 -3.8147e-07L 2.3 -3.8147e-07C 2.3 -3.8147e-07 2.3 -3.8147e-07 2.4 -3.8147e-07C 2.4 -3.8147e-07 2.4 0 2.4 0.1L 2.4 0.5C 2.7 0.5 2.9 0.6 3.1 0.6C 3.3 0.7 3.5 0.799999 3.6 0.899999C 3.7 0.999999 3.8 1.2 3.9 1.3C 3.9 1.6 4 1.8 4 2ZM 1.6 1.1C 1.5 1.1 1.3 1.2 1.2 1.2C 1.1 1.3 1 1.3 0.900002 1.4C 0.800002 1.5 0.799999 1.6 0.799999 1.7C 0.799999 1.8 0.799999 1.9 0.799999 2C 0.799999 2.1 0.799999 2.2 0.799999 2.3C 0.799999 2.4 0.900002 2.5 0.900002 2.6C 1 2.7 1 2.7 1.2 2.8C 1.3 2.8 1.4 2.9 1.6 2.9L 1.6 1.1ZM 3.2 2C 3.2 1.9 3.2 1.8 3.2 1.7C 3.2 1.6 3.1 1.5 3.1 1.4C 3 1.3 3 1.3 2.8 1.2C 2.7 1.2 2.6 1.1 2.4 1.1L 2.4 2.9C 2.5 2.9 2.7 2.8 2.8 2.8C 2.9 2.7 3 2.7 3.1 2.6C 3.2 2.5 3.2 2.4 3.2 2.3C 3.2 2.2 3.2 2.1 3.2 2Z"/>
<path id="path8_fill" d="M 3.4 3.5C 3.4 3.6 3.4 3.6 3.4 3.7L 3.4 3.8L 3.3 3.8C 3.2 3.8 3.2 3.8 3.1 3.8C 3 3.8 2.9 3.8 2.9 3.8C 2.8 3.8 2.8 3.8 2.8 3.8C 2.8 3.8 2.8 3.8 2.7 3.8C 2.7 3.8 2.7 3.8 2.7 3.7L 2.3 2.9L 0.9 2.9L 0.699999 3.7L 0.699999 3.8C 0.699999 3.8 0.700001 3.8 0.600001 3.8L 0.499998 3.8C 0.399998 3.8 0.400002 3.8 0.300002 3.8C 0.200002 3.8 0.100001 3.8 0.100001 3.8C 7.59959e-07 3.8 -1.52588e-06 3.8 -1.52588e-06 3.8L -1.52588e-06 3.7C -1.52588e-06 3.7 -1.52588e-06 3.6 -1.52588e-06 3.5L 1.2 0.100001L 1.2 3.8147e-07C 1.2 3.8147e-07 1.2 3.8147e-07 1.3 3.8147e-07L 1.4 3.8147e-07C 1.5 3.8147e-07 1.5 3.8147e-07 1.6 3.8147e-07C 1.7 3.8147e-07 1.8 3.8147e-07 1.9 3.8147e-07C 2 3.8147e-07 2 3.8147e-07 2.1 3.8147e-07C 2.1 3.8147e-07 2.2 7.59959e-07 2.2 0.100001L 2.2 0.199999L 3.4 3.5ZM 1.6 0.699999L 1.1 2.3L 2.2 2.3L 1.6 0.699999Z"/>
<path id="path9_fill" d="M 2.7 1.1C 2.7 1.3 2.7 1.5 2.6 1.7C 2.5 1.9 2.4 2 2.3 2.1C 2.2 2.2 2 2.3 1.8 2.4C 1.6 2.5 1.4 2.5 1.1 2.5L 0.800001 2.5L 0.800001 3.7C 0.800001 3.7 0.800001 3.7 0.800001 3.8C 0.800001 3.8 0.799998 3.8 0.699998 3.8L 0.6 3.8C 0.6 3.8 0.499999 3.8 0.399999 3.8C 0.299999 3.8 0.299998 3.8 0.199998 3.8L 0.1 3.8L 1.52588e-06 3.8C 1.52588e-06 3.8 1.52588e-06 3.8 1.52588e-06 3.7L 1.52588e-06 0.3C 1.52588e-06 0.2 0 0.100001 0.1 0.100001C 0.1 0.100001 0.200001 3.8147e-07 0.300001 3.8147e-07L 1.2 3.8147e-07C 1.3 3.8147e-07 1.4 3.8147e-07 1.5 3.8147e-07C 1.6 3.8147e-07 1.7 3.8147e-07 1.8 3.8147e-07C 1.9 3.8147e-07 2 0.100001 2.1 0.100001C 2.2 0.200001 2.3 0.2 2.4 0.3C 2.5 0.4 2.5 0.500001 2.6 0.600001C 2.7 0.900001 2.7 1 2.7 1.1ZM 1.9 1.2C 1.9 1.1 1.9 1 1.8 0.9C 1.8 0.8 1.7 0.699999 1.6 0.699999C 1.5 0.699999 1.5 0.600001 1.4 0.600001C 1.3 0.600001 1.2 0.600001 1.2 0.600001L 0.899999 0.600001L 0.899999 1.9L 1.2 1.9C 1.3 1.9 1.4 1.9 1.5 1.8C 1.6 1.8 1.7 1.7 1.7 1.7C 1.8 1.6 1.8 1.6 1.8 1.5C 1.9 1.4 1.9 1.3 1.9 1.2Z"/>
<path id="path10_fill" d="M 4.5 3.7C 4.5 3.8 4.5 3.8 4.5 3.7C 4.4 3.8 4.4 3.8 4.3 3.8C 4.3 3.8 4.2 3.8 4.1 3.8C 4 3.8 4 3.8 3.9 3.8L 3.8 3.8C 3.8 3.8 3.8 3.8 3.7 3.8C 3.7 3.8 3.7 3.8 3.7 3.7L 3.7 0.600001L 2.6 3.7C 2.6 3.7 2.6 3.7 2.6 3.8C 2.6 3.8 2.6 3.8 2.5 3.8L 2.4 3.8C 2.4 3.8 2.3 3.8 2.2 3.8C 2.1 3.8 2.1 3.8 2 3.8L 1.9 3.8L 1.8 3.8C 1.8 3.8 1.8 3.8 1.8 3.7L 0.8 0.600001L 0.8 3.7C 0.8 3.7 0.8 3.7 0.8 3.8C 0.8 3.8 0.800002 3.8 0.700002 3.8L 0.599999 3.8C 0.599999 3.8 0.499998 3.8 0.399998 3.8C 0.299998 3.8 0.300002 3.8 0.200002 3.8C 0.100002 3.8 0.0999992 3.8 0.0999992 3.8C 0.0999992 3.8 0.100001 3.8 7.62939e-07 3.8C 7.62939e-07 3.8 7.62939e-07 3.8 7.62939e-07 3.7L 7.62939e-07 0.3C 7.62939e-07 0.2 -7.6741e-07 0.100001 0.0999992 0.100001C 0.199999 7.59959e-07 0.2 3.8147e-07 0.3 3.8147e-07L 0.8 3.8147e-07C 0.9 3.8147e-07 1 3.8147e-07 1 3.8147e-07C 1.1 3.8147e-07 1.1 7.59959e-07 1.2 0.100001L 1.3 0.199999C 1.3 0.299999 1.4 0.3 1.4 0.4L 2.2 2.7L 3.1 0.4C 3.1 0.3 3.2 0.199999 3.2 0.199999C 3.2 0.0999992 3.3 0.100001 3.3 0.100001L 3.4 3.8147e-07C 3.5 3.8147e-07 3.5 3.8147e-07 3.6 3.8147e-07L 4.1 3.8147e-07C 4.2 3.8147e-07 4.2 3.8147e-07 4.2 3.8147e-07C 4.2 3.8147e-07 4.3 7.59959e-07 4.3 0.100001C 4.3 0.100001 4.3 0.199999 4.4 0.199999L 4.4 0.3L 4.4 3.7L 4.5 3.7Z"/>
<path id="path11_fill" d="M 3.4 3.5C 3.4 3.6 3.4 3.6 3.4 3.7L 3.4 3.8L 3.3 3.8C 3.2 3.8 3.2 3.8 3.1 3.8C 3 3.8 2.9 3.8 2.9 3.8C 2.8 3.8 2.8 3.8 2.8 3.8C 2.8 3.8 2.8 3.8 2.7 3.8C 2.7 3.8 2.7 3.8 2.7 3.7L 2.3 2.9L 0.900001 2.9L 0.7 3.7L 0.7 3.8C 0.7 3.8 0.700002 3.8 0.600002 3.8L 0.499999 3.8C 0.399999 3.8 0.399998 3.8 0.299998 3.8C 0.199998 3.8 0.100002 3.8 0.100002 3.8C 1.52737e-06 3.8 -7.62939e-07 3.8 -7.62939e-07 3.8L -7.62939e-07 3.7C -7.62939e-07 3.7 -7.62939e-07 3.6 -7.62939e-07 3.5L 1.2 0.100001L 1.2 3.8147e-07C 1.2 3.8147e-07 1.2 3.8147e-07 1.3 3.8147e-07L 1.4 3.8147e-07C 1.5 3.8147e-07 1.5 3.8147e-07 1.6 3.8147e-07C 1.7 3.8147e-07 1.8 3.8147e-07 1.9 3.8147e-07C 2 3.8147e-07 2 3.8147e-07 2.1 3.8147e-07C 2.1 3.8147e-07 2.2 7.59959e-07 2.2 0.100001L 2.2 0.199999L 3.4 3.5ZM 1.6 0.699999L 1.1 2.3L 2.2 2.3L 1.6 0.699999Z"/>
<path id="path12_fill" d="M 3.6 4.7C 3.6 4.7 3.6 4.8 3.6 4.7C 3.5 4.8 3.5 4.8 3.6 4.7C 3.5 4.8 3.5 4.8 3.4 4.8C 3.4 4.8 3.3 4.8 3.2 4.8C 3.1 4.8 3.1 4.8 3 4.8L 2.9 4.8C 2.9 4.8 2.9 4.8 2.8 4.8C 2.8 4.8 2.8 4.8 2.8 4.7L 2.8 3.8L 0.300002 3.8C 0.200002 3.8 0.199997 3.8 0.0999969 3.7C 0.0999969 3.7 -1.52588e-06 3.6 -1.52588e-06 3.5L -1.52588e-06 3.8147e-07C -1.52588e-06 3.8147e-07 -3.05474e-06 3.8147e-07 0.0999969 3.8147e-07L 0.200003 3.8147e-07C 0.300003 3.8147e-07 0.3 3.8147e-07 0.4 3.8147e-07C 0.5 3.8147e-07 0.499997 3.8147e-07 0.599997 3.8147e-07L 0.700003 3.8147e-07L 0.800002 3.8147e-07L 0.800002 3.1L 2.2 3.1L 2.2 3.8147e-07C 2.2 3.8147e-07 2.2 3.8147e-07 2.3 3.8147e-07L 2.4 3.8147e-07C 2.4 3.8147e-07 2.5 3.8147e-07 2.6 3.8147e-07C 2.7 3.8147e-07 2.7 3.8147e-07 2.8 3.8147e-07C 2.9 3.8147e-07 2.9 3.8147e-07 2.9 3.8147e-07C 2.9 3.8147e-07 2.9 3.8147e-07 3 3.8147e-07L 3 3.1L 3.3 3.1L 3.4 3.1L 3.4 3.2L 3.4 4.7L 3.6 4.7Z"/>
<path id="path13_fill" d="M 2.3 3.6C 2.3 3.7 2.3 3.7 2.3 3.7L 2.3 3.8C 2.3 3.8 2.3 3.8 2.3 3.9C 2.3 3.9 2.3 3.9 2.2 3.9L 0.3 3.9C 0.2 3.9 0.200003 3.9 0.100003 3.8C 0.100003 3.8 -3.05176e-06 3.7 -3.05176e-06 3.6L -3.05176e-06 0.299999C -3.05176e-06 0.199999 3.04729e-06 0.2 0.100003 0.1C 0.100003 0.1 0.2 -3.55271e-15 0.3 -3.55271e-15L 2.2 -3.55271e-15L 2.2 0.1L 2.2 0.200001C 2.2 0.300001 2.2 0.299999 2.2 0.299999L 2.2 0.4C 2.2 0.4 2.2 0.4 2.2 0.5L 0.8 0.5L 0.8 1.4L 2 1.4L 2 1.5L 2 1.6C 2 1.7 2 1.7 2 1.7L 2 1.8C 2 1.8 2 1.8 2 1.9L 0.8 1.9L 0.8 3L 2.2 3C 2.2 3 2.2 3 2.3 3C 2.3 3 2.3 3 2.3 3.1L 2.3 3.2C 2.3 3.5 2.3 3.6 2.3 3.6Z"/>
<path id="path14_fill" d="M 2.9 2.7C 2.9 2.8 2.9 3 2.8 3.1C 2.8 3.2 2.7 3.3 2.6 3.4C 2.5 3.5 2.5 3.6 2.4 3.6C 2.3 3.7 2.2 3.7 2.1 3.8C 2 3.8 1.9 3.9 1.7 3.9C 1.6 3.9 1.4 3.9 1.3 3.9L 0.300003 3.9C 0.200003 3.9 0.199998 3.9 0.0999985 3.8C 0.0999985 3.8 0 3.7 0 3.6L 0 0.3C 0 0.2 -1.52737e-06 0.200001 0.0999985 0.100001C 0.0999985 0.100001 0.200003 3.8147e-07 0.300003 3.8147e-07L 1.3 3.8147e-07C 1.5 3.8147e-07 1.7 7.59959e-07 1.9 0.100001C 2.1 0.100001 2.2 0.2 2.3 0.3C 2.4 0.4 2.5 0.500001 2.6 0.600001C 2.7 0.700001 2.7 0.9 2.7 1C 2.7 1.1 2.7 1.2 2.7 1.3C 2.7 1.4 2.6 1.5 2.6 1.5C 2.6 1.6 2.5 1.6 2.4 1.7C 2.3 1.8 2.3 1.8 2.2 1.8C 2.3 1.8 2.4 1.9 2.5 1.9C 2.6 2 2.7 2 2.7 2.1C 2.8 2.2 2.8 2.3 2.9 2.4C 2.9 2.4 2.9 2.5 2.9 2.7ZM 1.9 1.1C 1.9 1 1.9 1 1.9 0.9C 1.9 0.8 1.8 0.799999 1.8 0.699999C 1.8 0.699999 1.7 0.600001 1.6 0.600001C 1.5 0.600001 1.4 0.600001 1.3 0.600001L 0.900002 0.600001L 0.900002 1.6L 1.3 1.6C 1.4 1.6 1.5 1.6 1.6 1.6C 1.7 1.6 1.7 1.5 1.8 1.5C 1.8 1.5 1.9 1.4 1.9 1.3C 1.9 1.2 1.9 1.1 1.9 1.1ZM 2.1 2.7C 2.1 2.6 2.1 2.5 2.1 2.5C 2.1 2.4 2 2.4 2 2.3C 1.9 2.3 1.9 2.2 1.8 2.2C 1.7 2.2 1.6 2.2 1.5 2.2L 1 2.2L 1 3.3L 1.6 3.3C 1.7 3.3 1.8 3.3 1.9 3.3C 2 3.3 2 3.2 2.1 3.2C 2.2 3.2 2.2 3.1 2.2 3C 2.1 2.9 2.1 2.8 2.1 2.7Z"/>
<path id="path15_fill" d="M 3 0.4C 3 0.5 3 0.5 3 0.5L 3 0.6C 3 0.6 3 0.600001 3 0.700001C 3 0.700001 3 0.700001 2.9 0.700001L 1.9 0.700001L 1.9 3.8C 1.9 3.8 1.9 3.8 1.9 3.9C 1.9 3.9 1.9 3.9 1.8 3.9L 1.7 3.9C 1.6 3.9 1.6 3.9 1.5 3.9C 1.4 3.9 1.4 3.9 1.3 3.9C 1.2 3.9 1.2 3.9 1.2 3.9L 1.1 3.9C 1.1 3.9 1.1 3.9 1.1 3.8L 1.1 0.700001L 0.0999985 0.700001C 0.0999985 0.700001 0.1 0.700001 -2.84217e-14 0.700001C -2.84217e-14 0.700001 -2.84217e-14 0.7 -2.84217e-14 0.6L -2.84217e-14 0.5L -2.84217e-14 0.4C -2.84217e-14 0.3 -2.84217e-14 0.300001 -2.84217e-14 0.200001L -2.84217e-14 0.1C -2.84217e-14 0.1 -2.84217e-14 0.1 -2.84217e-14 3.55271e-15C -2.84217e-14 3.55271e-15 -1.52737e-06 3.55271e-15 0.0999985 3.55271e-15L 2.8 3.55271e-15C 2.8 3.55271e-15 2.8 3.55271e-15 2.9 3.55271e-15C 2.9 3.55271e-15 2.9 3.7998e-07 2.9 0.1L 2.9 0.200001C 3 0.300001 3 0.3 3 0.4Z"/>
<path id="path16_fill" d="M 3.4 3.7C 3.4 3.7 3.4 3.8 3.4 3.7C 3.3 3.8 3.3 3.8 3.4 3.7C 3.3 3.8 3.2 3.8 3.2 3.8C 3.1 3.8 3.1 3.8 3 3.8C 2.9 3.8 2.9 3.8 2.8 3.8C 2.7 3.8 2.7 3.8 2.7 3.8L 2.6 3.8C 2.6 3.8 2.6 3.8 2.6 3.7L 2.6 1.7C 2.6 1.6 2.6 1.5 2.6 1.5C 2.6 1.4 2.6 1.4 2.6 1.3C 2.6 1.3 2.6 1.4 2.5 1.4C 2.4 1.4 2.5 1.5 2.4 1.5C 2.4 1.5 2.4 1.6 2.3 1.6L 2.2 1.7L 0.899998 3.7C 0.899998 3.7 0.9 3.7 0.8 3.8C 0.8 3.8 0.800002 3.8 0.700002 3.8L 0.600003 3.8C 0.600003 3.8 0.499998 3.8 0.399998 3.8C 0.299998 3.8 0.300002 3.8 0.200002 3.8L 0.100003 3.8C 0.100003 3.8 0.0999969 3.8 -3.05176e-06 3.8C -3.05176e-06 3.8 -3.05176e-06 3.8 -3.05176e-06 3.7L -3.05176e-06 0.100001C -3.05176e-06 0.100001 3.04729e-06 0.100001 0.100003 0.100001L 0.200002 0.100001C 0.200002 0.100001 0.299998 0.100001 0.399998 0.100001C 0.499998 0.100001 0.500003 0.100001 0.600003 0.100001L 0.700002 0.100001C 0.700002 0.100001 0.7 0.100001 0.8 0.100001L 0.8 2.1C 0.8 2.2 0.8 2.2 0.8 2.3C 0.8 2.4 0.8 2.4 0.8 2.5C 0.8 2.4 0.899998 2.4 0.899998 2.3C 0.899998 2.2 1 2.1 1.1 2.1L 2.4 0.100001C 2.4 0.100001 2.4 0.1 2.4 3.8147e-07C 2.4 3.8147e-07 2.4 3.8147e-07 2.5 3.8147e-07L 2.6 3.8147e-07C 2.6 3.8147e-07 2.7 3.8147e-07 2.8 3.8147e-07C 2.9 3.8147e-07 2.9 3.8147e-07 3 3.8147e-07L 3.1 3.8147e-07C 3.1 3.8147e-07 3.1 3.8147e-07 3.2 3.8147e-07C 3.2 3.8147e-07 3.2 7.59959e-07 3.2 0.100001L 3.2 3.7L 3.4 3.7Z"/>
<path id="path17_fill" d="M 2.8 3.9C 2.8 4 2.8 4 2.8 3.9C 2.7 4 2.7 4 2.6 4C 2.6 4 2.5 4 2.4 4C 2.3 4 2.3 4 2.2 4C 2.1 4 2.1 4 2.1 4L 2 4C 2 4 2 4 2 3.9L 2 2.6C 1.9 2.6 1.8 2.6 1.7 2.6C 1.6 2.6 1.5 2.6 1.4 2.6C 1.2 2.6 1 2.6 0.8 2.5C 0.6 2.5 0.499998 2.4 0.399998 2.3C 0.299998 2.2 0.200003 2.1 0.100003 1.9C 3.04729e-06 1.7 -3.05176e-06 1.5 -3.05176e-06 1.3L -3.05176e-06 0.2C -3.05176e-06 0.2 -3.05176e-06 0.2 -3.05176e-06 0.1C -3.05176e-06 0.1 3.04729e-06 0.1 0.100003 0.1L 0.200002 0.1C 0.200002 0.1 0.299998 0.1 0.399998 0.1C 0.499998 0.1 0.500003 0.1 0.600003 0.1C 0.700003 0.1 0.700002 0.1 0.700002 0.1L 0.8 0.1C 0.8 0.1 0.8 0.1 0.8 0.2L 0.8 1.2C 0.8 1.3 0.8 1.4 0.8 1.5C 0.8 1.6 0.899998 1.7 0.899998 1.7C 0.999998 1.8 1 1.8 1.1 1.8C 1.2 1.8 1.3 1.8 1.5 1.8C 1.6 1.8 1.7 1.8 1.8 1.8C 1.9 1.8 2 1.8 2.1 1.8L 2.1 0.1C 2.1 0.1 2.1 0.0999996 2.1 -3.8147e-07C 2.1 -3.8147e-07 2.1 -3.8147e-07 2.2 -3.8147e-07L 2.3 -3.8147e-07C 2.3 -3.8147e-07 2.4 -3.8147e-07 2.5 -3.8147e-07C 2.6 -3.8147e-07 2.6 -3.8147e-07 2.7 -3.8147e-07L 2.8 -3.8147e-07C 2.8 -3.8147e-07 2.8 -3.8147e-07 2.9 -3.8147e-07C 2.9 -3.8147e-07 2.9 0 2.9 0.1L 2.9 3.9L 2.8 3.9Z"/>
<path id="path18_fill" d="M 2.3 3.6C 2.3 3.7 2.3 3.7 2.3 3.7L 2.3 3.8C 2.3 3.8 2.3 3.8 2.3 3.9C 2.3 3.9 2.3 3.9 2.2 3.9L 0.299998 3.9C 0.199998 3.9 0.200002 3.9 0.100002 3.8C 0.100002 3.8 3.05176e-06 3.7 3.05176e-06 3.6L 3.05176e-06 0.299999C 3.05176e-06 0.199999 1.52737e-06 0.2 0.100002 0.1C 0.100002 0.1 0.199998 -3.55271e-15 0.299998 -3.55271e-15L 2.2 -3.55271e-15L 2.2 0.1L 2.2 0.200001C 2.2 0.300001 2.2 0.299999 2.2 0.299999L 2.2 0.4C 2.2 0.4 2.2 0.4 2.2 0.5L 0.799998 0.5L 0.799998 1.4L 2 1.4L 2 1.5L 2 1.6C 2 1.7 2 1.7 2 1.7L 2 1.8C 2 1.8 2 1.8 2 1.9L 0.799998 1.9L 0.799998 3L 2.2 3C 2.2 3 2.2 3 2.3 3C 2.3 3 2.3 3 2.3 3.1L 2.3 3.2C 2.3 3.5 2.3 3.6 2.3 3.6Z"/>
<path id="path19_fill" d="M 2.6 3.2L 2.6 3.3L 2.6 3.4C 2.6 3.4 2.6 3.4 2.6 3.5C 2.6 3.5 2.6 3.5 2.6 3.6L 2.5 3.7C 2.4 3.7 2.4 3.8 2.3 3.8C 2.2 3.8 2.1 3.9 2 3.9C 1.9 3.9 1.8 3.9 1.6 3.9C 1.3 3.9 1.1 3.9 0.899998 3.8C 0.699998 3.7 0.499998 3.6 0.399998 3.4C 0.299998 3.2 0.100003 3 0.100003 2.8C 3.04729e-06 2.6 -3.05176e-06 2.3 -3.05176e-06 2C -3.05176e-06 1.7 3.04729e-06 1.4 0.100003 1.1C 0.200003 0.800001 0.299997 0.6 0.499997 0.5C 0.699997 0.3 0.800003 0.200001 1.1 0.100001C 1.3 7.59959e-07 1.6 3.8147e-07 1.8 3.8147e-07C 1.9 3.8147e-07 2 3.8147e-07 2.1 3.8147e-07C 2.2 3.8147e-07 2.3 7.59959e-07 2.4 0.100001C 2.5 0.100001 2.6 0.199999 2.6 0.199999C 2.7 0.199999 2.7 0.3 2.7 0.3C 2.7 0.3 2.7 0.3 2.8 0.4C 2.8 0.4 2.8 0.4 2.8 0.5L 2.8 0.600001L 2.8 0.699999C 2.8 0.799999 2.8 0.8 2.8 0.9L 2.8 1C 2.8 1 2.8 1 2.8 1.1C 2.8 1.1 2.7 1.1 2.7 1C 2.7 1 2.6 0.9 2.5 0.9C 2.4 0.9 2.3 0.8 2.2 0.8C 2.1 0.8 2 0.699999 1.8 0.699999C 1.6 0.699999 1.5 0.7 1.4 0.8C 1.3 0.9 1.2 1 1.1 1.1C 1 1.2 0.999998 1.4 0.899998 1.5C 0.899998 1.7 0.8 1.8 0.8 2.1C 0.8 2.3 0.799998 2.5 0.899998 2.7C 0.899998 2.9 1 3 1.1 3.1C 1.2 3.2 1.3 3.3 1.4 3.3C 1.5 3.4 1.7 3.4 1.8 3.4C 1.9 3.4 2.1 3.4 2.2 3.4C 2.3 3.4 2.4 3.3 2.5 3.3C 2.6 3.3 2.6 3.2 2.7 3.2L 2.8 3.2L 2.8 3.3C 2.6 3.1 2.6 3.2 2.6 3.2Z"/>
<path id="path20_fill" d="M 2.8 3.7C 2.8 3.7 2.8 3.8 2.8 3.7C 2.8 3.8 2.8 3.8 2.8 3.7C 2.7 3.8 2.6 3.8 2.6 3.8C 2.6 3.8 2.5 3.8 2.4 3.8C 2.3 3.8 2.2 3.8 2.2 3.8C 2.1 3.8 2.1 3.8 2.1 3.8L 2 3.8C 2 3.8 2 3.8 2 3.7L 1.7 2.8C 1.7 2.7 1.6 2.6 1.6 2.5C 1.6 2.4 1.5 2.3 1.4 2.3C 1.3 2.2 1.3 2.2 1.2 2.2C 1.1 2.2 1 2.2 1 2.2L 0.799997 2.2L 0.799997 3.7C 0.799997 3.7 0.799997 3.7 0.799997 3.8C 0.799997 3.8 0.799998 3.8 0.699998 3.8L 0.6 3.8C 0.6 3.8 0.500003 3.8 0.400003 3.8C 0.300003 3.8 0.299998 3.8 0.199998 3.8L 0.1 3.8L 1.52588e-06 3.8C 1.52588e-06 3.8 1.52588e-06 3.8 1.52588e-06 3.7L 1.52588e-06 0.100001C 1.52588e-06 0.100001 1.52588e-06 0.1 1.52588e-06 3.8147e-07C 1.52588e-06 3.8147e-07 0 3.8147e-07 0.1 3.8147e-07L 0.199998 3.8147e-07C 0.299998 3.8147e-07 0.300003 3.8147e-07 0.400003 3.8147e-07C 0.500003 3.8147e-07 0.5 3.8147e-07 0.6 3.8147e-07L 0.699998 3.8147e-07L 0.799997 3.8147e-07C 0.799997 3.8147e-07 0.799997 7.59959e-07 0.799997 0.100001L 0.799997 1.5L 1 1.5C 1.1 1.5 1.2 1.5 1.2 1.5C 1.3 1.5 1.3 1.4 1.4 1.4C 1.5 1.3 1.5 1.3 1.5 1.2C 1.5 1.1 1.6 1 1.6 0.9L 1.9 0.100001L 1.9 3.8147e-07C 1.9 3.8147e-07 1.9 3.8147e-07 2 3.8147e-07L 2.1 3.8147e-07C 2.2 3.8147e-07 2.2 3.8147e-07 2.3 3.8147e-07C 2.4 3.8147e-07 2.4 3.8147e-07 2.5 3.8147e-07L 2.6 3.8147e-07C 2.6 3.8147e-07 2.6 3.8147e-07 2.7 3.8147e-07C 2.7 3.8147e-07 2.7 7.59959e-07 2.7 0.100001L 2.7 0.199999L 2.7 0.3L 2.4 1C 2.4 1.1 2.3 1.2 2.3 1.3C 2.3 1.4 2.2 1.5 2.2 1.5C 2.1 1.6 2.1 1.6 2 1.7C 1.9 1.7 1.9 1.8 1.8 1.8C 1.9 1.8 2 1.9 2 1.9C 2.1 1.9 2.1 2 2.2 2.1C 2.3 2.2 2.3 2.2 2.4 2.3C 2.5 2.4 2.5 2.5 2.6 2.6L 2.9 3.4C 2.8 3.5 2.8 3.6 2.8 3.7Z"/>
<path id="path21_fill" d="M 3.3 3.5C 3.3 3.6 3.3 3.6 3.3 3.7L 3.3 3.8L 3.2 3.8C 3.1 3.8 3.1 3.8 3 3.8C 2.9 3.8 2.8 3.8 2.8 3.8C 2.7 3.8 2.7 3.8 2.7 3.8C 2.7 3.8 2.7 3.8 2.6 3.8C 2.6 3.8 2.6 3.8 2.6 3.7L 2.3 2.9L 0.9 2.9L 0.700003 3.7L 0.700003 3.8C 0.700003 3.8 0.699997 3.8 0.599997 3.8L 0.499998 3.8C 0.399998 3.8 0.400002 3.8 0.300002 3.8C 0.200002 3.8 0.0999969 3.8 0.0999969 3.8C -3.05474e-06 3.8 -1.52588e-06 3.8 -1.52588e-06 3.8L -1.52588e-06 3.7C -1.52588e-06 3.7 -1.52588e-06 3.6 -1.52588e-06 3.5L 1.2 0.100001L 1.2 3.8147e-07C 1.2 3.8147e-07 1.2 3.8147e-07 1.3 3.8147e-07L 1.4 3.8147e-07C 1.5 3.8147e-07 1.5 3.8147e-07 1.6 3.8147e-07C 1.7 3.8147e-07 1.8 3.8147e-07 1.9 3.8147e-07C 2 3.8147e-07 2 3.8147e-07 2.1 3.8147e-07C 2.1 3.8147e-07 2.2 7.59959e-07 2.2 0.100001L 2.2 0.199999L 3.3 3.5ZM 1.6 0.699999L 1.1 2.3L 2.2 2.3L 1.6 0.699999Z"/>
<path id="path22_fill" d="M 2.9 3.7C 2.9 3.7 2.9 3.8 2.9 3.7C 2.9 3.8 2.9 3.8 2.9 3.7C 2.8 3.8 2.8 3.8 2.7 3.8C 2.6 3.8 2.6 3.8 2.5 3.8C 2.4 3.8 2.4 3.8 2.3 3.8C 2.2 3.8 2.2 3.8 2.2 3.8L 2.1 3.8C 2.1 3.8 2.1 3.8 2.1 3.7L 2.1 2.3L 1.8 2.3C 1.7 2.3 1.6 2.3 1.5 2.3C 1.4 2.3 1.4 2.4 1.3 2.4C 1.3 2.5 1.2 2.5 1.2 2.6C 1.2 2.7 1.1 2.8 1.1 2.9L 0.8 3.7C 0.8 3.7 0.8 3.7 0.8 3.8C 0.8 3.8 0.800002 3.8 0.700002 3.8L 0.600003 3.8C 0.500003 3.8 0.499998 3.8 0.399998 3.8C 0.299998 3.8 0.200002 3.8 0.200002 3.8C 0.100002 3.8 0.100003 3.8 0.100003 3.8C 0.100003 3.8 0.0999969 3.8 -3.05176e-06 3.8C -3.05176e-06 3.8 -3.05176e-06 3.8 -3.05176e-06 3.7L -3.05176e-06 3.6L 0.3 2.8C 0.3 2.7 0.399998 2.6 0.399998 2.5C 0.399998 2.4 0.499997 2.4 0.499997 2.3C 0.499997 2.2 0.600002 2.2 0.700002 2.2C 0.800002 2.2 0.799998 2.1 0.899998 2.1C 0.799998 2.1 0.700003 2 0.600003 2C 0.500003 1.9 0.399998 1.9 0.399998 1.8C 0.299998 1.7 0.3 1.6 0.3 1.5C 0.3 1.4 0.3 1.3 0.3 1.2C 0.3 0.999999 0.299998 0.899999 0.399998 0.699999C 0.499998 0.599999 0.600002 0.4 0.700002 0.3C 0.800002 0.2 1 0.100001 1.1 0.100001C 1.3 7.59959e-07 1.5 3.8147e-07 1.8 3.8147e-07L 2.7 3.8147e-07C 2.8 3.8147e-07 2.8 7.59959e-07 2.9 0.100001C 2.9 0.100001 3 0.2 3 0.3L 3 3.7L 2.9 3.7ZM 2.1 0.600001L 1.7 0.600001C 1.5 0.600001 1.4 0.600001 1.3 0.600001C 1.2 0.600001 1.2 0.699999 1.1 0.699999C 1 0.699999 0.999997 0.8 0.999997 0.9C 0.999997 1 0.999997 1 0.999997 1.1C 0.999997 1.2 0.999997 1.3 0.999997 1.3C 0.999997 1.4 1.1 1.4 1.1 1.5C 1.2 1.6 1.2 1.6 1.3 1.6C 1.4 1.6 1.5 1.6 1.7 1.6L 2.1 1.6L 2.1 0.600001Z"/>
<path id="path23_fill" d="M 2.8 3.7C 2.8 3.7 2.8 3.8 2.8 3.7C 2.8 3.8 2.8 3.8 2.8 3.7C 2.7 3.8 2.6 3.8 2.6 3.8C 2.6 3.8 2.5 3.8 2.4 3.8C 2.3 3.8 2.2 3.8 2.2 3.8C 2.1 3.8 2.1 3.8 2.1 3.8L 2 3.8C 2 3.8 2 3.8 2 3.7L 1.7 2.8C 1.7 2.7 1.6 2.6 1.6 2.5C 1.6 2.4 1.5 2.3 1.4 2.3C 1.3 2.2 1.3 2.2 1.2 2.2C 1.1 2.2 1 2.2 1 2.2L 0.799998 2.2L 0.799998 3.7C 0.799998 3.7 0.799998 3.7 0.799998 3.8C 0.799998 3.8 0.8 3.8 0.7 3.8L 0.600002 3.8C 0.500002 3.8 0.499997 3.8 0.399997 3.8C 0.299997 3.8 0.3 3.8 0.2 3.8C 0.1 3.8 0.100002 3.8 0.100002 3.8L 3.05176e-06 3.8C 3.05176e-06 3.8 3.05176e-06 3.8 3.05176e-06 3.7L 3.05176e-06 0.100001C 3.05176e-06 0.100001 3.05176e-06 0.1 3.05176e-06 3.8147e-07C 3.05176e-06 3.8147e-07 1.52737e-06 3.8147e-07 0.100002 3.8147e-07L 0.2 3.8147e-07C 0.3 3.8147e-07 0.299997 3.8147e-07 0.399997 3.8147e-07C 0.499997 3.8147e-07 0.500002 3.8147e-07 0.600002 3.8147e-07L 0.7 3.8147e-07C 0.7 3.8147e-07 0.699998 3.8147e-07 0.799998 3.8147e-07C 0.799998 3.8147e-07 0.799998 7.59959e-07 0.799998 0.100001L 0.799998 1.5L 1 1.5C 1.1 1.5 1.2 1.5 1.2 1.5C 1.3 1.5 1.3 1.4 1.4 1.4C 1.5 1.3 1.5 1.3 1.5 1.2C 1.5 1.1 1.6 1 1.6 0.9L 1.9 0.100001L 1.9 3.8147e-07C 1.9 3.8147e-07 1.9 3.8147e-07 2 3.8147e-07L 2.1 3.8147e-07C 2.1 3.8147e-07 2.2 3.8147e-07 2.3 3.8147e-07C 2.4 3.8147e-07 2.4 3.8147e-07 2.5 3.8147e-07L 2.6 3.8147e-07C 2.6 3.8147e-07 2.6 3.8147e-07 2.7 3.8147e-07C 2.7 3.8147e-07 2.7 7.59959e-07 2.7 0.100001L 2.7 0.199999L 2.7 0.3L 2.4 1C 2.4 1.1 2.3 1.2 2.3 1.3C 2.3 1.4 2.2 1.5 2.2 1.5C 2.1 1.6 2.1 1.6 2 1.7C 1.9 1.7 1.9 1.8 1.8 1.8C 1.9 1.8 1.9 1.9 2 1.9C 2.1 1.9 2.1 2 2.2 2.1C 2.3 2.2 2.3 2.2 2.4 2.3C 2.5 2.4 2.5 2.5 2.6 2.6L 2.9 3.4C 2.8 3.5 2.8 3.6 2.8 3.7Z"/>
<path id="path24_fill" d="M 3.7 2C 3.7 2.3 3.7 2.6 3.6 2.8C 3.5 3.1 3.4 3.3 3.2 3.4C 3 3.6 2.9 3.7 2.6 3.8C 2.4 3.9 2.1 3.9 1.8 3.9C 1.5 3.9 1.2 3.9 1 3.8C 0.800003 3.7 0.599997 3.6 0.399997 3.4C 0.299997 3.2 0.100002 3 0.100002 2.8C 1.52737e-06 2.6 3.05176e-06 2.3 3.05176e-06 1.9C 3.05176e-06 1.6 1.52737e-06 1.3 0.100002 1.1C 0.200002 0.8 0.300003 0.6 0.500003 0.5C 0.700003 0.3 0.900002 0.2 1.1 0.1C 1.3 3.7998e-07 1.6 0 1.9 0C 2.2 0 2.4 3.7998e-07 2.7 0.1C 2.9 0.2 3.1 0.3 3.3 0.5C 3.4 0.7 3.6 0.9 3.6 1.1C 3.7 1.3 3.7 1.6 3.7 2ZM 2.9 2C 2.9 1.8 2.9 1.6 2.9 1.5C 2.9 1.3 2.8 1.2 2.7 1.1C 2.6 1 2.5 0.899999 2.4 0.799999C 2.3 0.699999 2.1 0.700001 1.9 0.700001C 1.7 0.700001 1.5 0.699999 1.4 0.799999C 1.3 0.899999 1.2 1 1.1 1.1C 1 1.2 0.999997 1.4 0.899997 1.5C 0.899997 1.7 0.899997 1.8 0.899997 2C 0.899997 2.2 0.899997 2.4 0.899997 2.6C 0.899997 2.8 1 2.9 1.1 3C 1.2 3.1 1.3 3.2 1.4 3.3C 1.5 3.4 1.7 3.4 1.9 3.4C 2.1 3.4 2.3 3.4 2.4 3.3C 2.5 3.2 2.6 3.1 2.7 3C 2.8 2.9 2.8 2.7 2.9 2.6C 2.9 2.4 2.9 2.2 2.9 2Z"/>
<path id="path25_fill" d="M 4.6 3.7C 4.6 3.8 4.6 3.8 4.6 3.7C 4.5 3.8 4.5 3.8 4.4 3.8C 4.4 3.8 4.3 3.8 4.2 3.8C 4.1 3.8 4.1 3.8 4 3.8L 3.9 3.8C 3.9 3.8 3.9 3.8 3.8 3.8C 3.8 3.8 3.8 3.8 3.8 3.7L 3.8 0.600001L 2.7 3.7C 2.7 3.7 2.7 3.7 2.7 3.8C 2.7 3.8 2.7 3.8 2.6 3.8L 2.5 3.8C 2.5 3.8 2.4 3.8 2.3 3.8C 2.2 3.8 2.2 3.8 2.1 3.8L 2 3.8L 1.9 3.8C 1.9 3.8 1.9 3.8 1.9 3.7L 0.800003 0.600001L 0.800003 3.7C 0.800003 3.7 0.800003 3.7 0.800003 3.8C 0.800003 3.8 0.799997 3.8 0.699997 3.8L 0.599998 3.8C 0.599998 3.8 0.500002 3.8 0.400002 3.8C 0.300002 3.8 0.299997 3.8 0.199997 3.8L 0.0999985 3.8C 0.0999985 3.8 0.1 3.8 -4.26326e-14 3.8C -4.26326e-14 3.8 -4.26326e-14 3.8 -4.26326e-14 3.7L -4.26326e-14 0.3C -4.26326e-14 0.2 -1.52737e-06 0.100001 0.0999985 0.100001C 0.199998 7.59959e-07 0.200003 3.8147e-07 0.300003 3.8147e-07L 0.800003 3.8147e-07C 0.900003 3.8147e-07 1 3.8147e-07 1 3.8147e-07C 1.1 3.8147e-07 1.1 7.59959e-07 1.2 0.100001L 1.3 0.199999C 1.3 0.299999 1.4 0.3 1.4 0.4L 2.2 2.7L 3.1 0.4C 3.1 0.3 3.2 0.199999 3.2 0.199999C 3.2 0.0999992 3.3 0.100001 3.3 0.100001L 3.4 3.8147e-07C 3.5 3.8147e-07 3.5 3.8147e-07 3.6 3.8147e-07L 4.1 3.8147e-07C 4.2 3.8147e-07 4.2 3.8147e-07 4.2 3.8147e-07C 4.2 3.8147e-07 4.3 7.59959e-07 4.3 0.100001C 4.3 0.100001 4.3 0.199999 4.4 0.199999L 4.4 0.3L 4.4 3.7L 4.6 3.7Z"/>
<path id="path26_fill" d="M 3 3.8C 3 3.8 3 3.9 3 3.8C 3 3.9 3 3.9 3 3.8C 2.9 3.9 2.9 3.9 2.8 3.9C 2.7 3.9 2.7 3.9 2.6 3.9C 2.5 3.9 2.5 3.9 2.4 3.9C 2.3 3.9 2.3 3.9 2.3 3.9L 2.2 3.9C 2.2 3.9 2.2 3.9 2.2 3.8L 2.2 0.700001L 0.799997 0.700001L 0.799997 3.8C 0.799997 3.8 0.799997 3.8 0.799997 3.9C 0.799997 3.9 0.799998 3.9 0.699998 3.9L 0.6 3.9C 0.5 3.9 0.500003 3.9 0.400003 3.9C 0.300003 3.9 0.299998 3.9 0.199998 3.9C 0.0999985 3.9 0.1 3.9 0.1 3.9L 1.52588e-06 3.9C 1.52588e-06 3.9 1.52588e-06 3.9 1.52588e-06 3.8L 1.52588e-06 0.299999C 1.52588e-06 0.199999 0 0.2 0.1 0.1C 0.1 0.1 0.199997 0 0.299997 0L 2.8 0C 2.9 0 2.9 3.7998e-07 3 0.1C 3 0.1 3.1 0.199999 3.1 0.299999L 3.1 3.8L 3 3.8Z"/>
<path id="path27_fill" d="M 3.3 3.5C 3.3 3.6 3.3 3.6 3.3 3.7L 3.3 3.8L 3.2 3.8C 3.1 3.8 3.1 3.8 3 3.8C 2.9 3.8 2.8 3.8 2.8 3.8C 2.7 3.8 2.7 3.8 2.7 3.8L 2.6 3.8C 2.6 3.8 2.6 3.8 2.6 3.7L 2.3 2.9L 0.9 2.9L 0.700003 3.7L 0.700003 3.8C 0.700003 3.8 0.699997 3.8 0.599997 3.8L 0.499998 3.8C 0.399998 3.8 0.400002 3.8 0.300002 3.8C 0.200002 3.8 0.0999969 3.8 0.0999969 3.8C -3.05474e-06 3.8 -1.52588e-06 3.8 -1.52588e-06 3.8L -1.52588e-06 3.7C -1.52588e-06 3.7 -1.52588e-06 3.6 -1.52588e-06 3.5L 1.2 0.100001L 1.2 3.8147e-07C 1.2 3.8147e-07 1.2 3.8147e-07 1.3 3.8147e-07L 1.4 3.8147e-07C 1.5 3.8147e-07 1.5 3.8147e-07 1.6 3.8147e-07C 1.7 3.8147e-07 1.8 3.8147e-07 1.9 3.8147e-07C 2 3.8147e-07 2 3.8147e-07 2.1 3.8147e-07C 2.1 3.8147e-07 2.2 7.59959e-07 2.2 0.100001L 2.2 0.199999L 3.3 3.5ZM 1.6 0.699999L 1.1 2.3L 2.2 2.3L 1.6 0.699999Z"/>
<path id="path28_fill" d="M 3 3.7C 3 3.8 3 3.8 3 3.7C 2.9 3.8 2.8 3.8 2.8 3.8C 2.8 3.8 2.7 3.8 2.6 3.8C 2.5 3.8 2.5 3.8 2.4 3.8C 2.3 3.8 2.3 3.8 2.3 3.8C 2.3 3.8 2.3 3.8 2.2 3.8C 2.2 3.8 2.2 3.8 2.2 3.7L 2.2 2.2L 0.799997 2.2L 0.799997 3.7C 0.799997 3.7 0.799997 3.7 0.799997 3.8C 0.799997 3.8 0.799998 3.8 0.699998 3.8L 0.6 3.8C 0.6 3.8 0.500003 3.8 0.400003 3.8C 0.300003 3.8 0.299998 3.8 0.199998 3.8C 0.0999985 3.8 0.1 3.8 0.1 3.8C 0.1 3.8 0.100002 3.8 1.52588e-06 3.8C 1.52588e-06 3.8 1.52588e-06 3.8 1.52588e-06 3.7L 1.52588e-06 0.100001C 1.52588e-06 0.100001 1.52588e-06 0.1 1.52588e-06 3.8147e-07C 1.52588e-06 3.8147e-07 0 3.8147e-07 0.1 3.8147e-07L 0.199998 3.8147e-07C 0.299998 3.8147e-07 0.300003 3.8147e-07 0.400003 3.8147e-07C 0.500003 3.8147e-07 0.5 3.8147e-07 0.6 3.8147e-07C 0.7 3.8147e-07 0.699998 3.8147e-07 0.699998 3.8147e-07C 0.699998 3.8147e-07 0.699997 3.8147e-07 0.799997 3.8147e-07C 0.799997 3.8147e-07 0.799997 7.59959e-07 0.799997 0.100001L 0.799997 1.5L 2.2 1.5L 2.2 0.100001C 2.2 0.100001 2.2 0.1 2.2 3.8147e-07C 2.2 3.8147e-07 2.2 3.8147e-07 2.3 3.8147e-07L 2.4 3.8147e-07C 2.4 3.8147e-07 2.5 3.8147e-07 2.6 3.8147e-07C 2.7 3.8147e-07 2.7 3.8147e-07 2.8 3.8147e-07L 2.9 3.8147e-07C 2.9 3.8147e-07 2.9 3.8147e-07 3 3.8147e-07C 3 3.8147e-07 3 7.59959e-07 3 0.100001L 3 3.7L 3 3.7Z"/>
<path id="path29_fill" d="M 3.19999 3.7C 3.19999 3.7 3.19999 3.8 3.19999 3.7C 3.19999 3.8 3.09999 3.8 3.19999 3.7C 3.09999 3.8 3 3.8 3 3.8C 3 3.8 2.9 3.8 2.8 3.8C 2.7 3.8 2.7 3.8 2.6 3.8L 2.5 3.8C 2.5 3.8 2.50001 3.8 2.40001 3.8C 2.40001 3.8 2.40001 3.8 2.40001 3.7L 2.40001 1.7L 2.40001 1.5C 2.40001 1.4 2.40001 1.4 2.40001 1.3C 2.40001 1.3 2.4 1.4 2.3 1.4C 2.3 1.4 2.29999 1.5 2.19999 1.5C 2.19999 1.5 2.2 1.6 2.1 1.6L 2 1.7L 0.700002 3.7C 0.700002 3.7 0.700002 3.7 0.700002 3.8C 0.700002 3.8 0.700003 3.8 0.600003 3.8L 0.499997 3.8L 0.399998 3.8C 0.299998 3.8 0.300002 3.8 0.200002 3.8L 0.100003 3.8C 0.100003 3.8 0.0999969 3.8 -3.05176e-06 3.8C -3.05176e-06 3.8 -3.05176e-06 3.8 -3.05176e-06 3.7L -3.05176e-06 0.100001C -3.05176e-06 0.100001 3.04729e-06 0.100001 0.100003 0.100001L 0.200002 0.100001C 0.200002 0.100001 0.299998 0.100001 0.399998 0.100001C 0.499998 0.100001 0.500003 0.100001 0.600003 0.100001L 0.700002 0.100001L 0.8 0.100001L 0.8 2.1C 0.8 2.2 0.8 2.2 0.8 2.3C 0.8 2.4 0.8 2.4 0.8 2.5C 0.8 2.4 0.899998 2.4 0.899998 2.3C 0.899998 2.2 1 2.1 1.1 2.1L 2.40001 0.100001C 2.40001 0.100001 2.40001 0.1 2.40001 3.8147e-07C 2.40001 3.8147e-07 2.4 3.8147e-07 2.5 3.8147e-07L 2.6 3.8147e-07C 2.6 3.8147e-07 2.7 3.8147e-07 2.8 3.8147e-07C 2.9 3.8147e-07 2.9 3.8147e-07 3 3.8147e-07L 3.1 3.8147e-07C 3.1 3.8147e-07 3.09999 3.8147e-07 3.19999 3.8147e-07C 3.19999 3.8147e-07 3.19999 7.59959e-07 3.19999 0.100001L 3.19999 3.7L 3.19999 3.7Z"/>
<path id="path30_fill" d="M 2.89999 3.7C 2.89999 3.7 2.89999 3.8 2.89999 3.7C 2.79999 3.8 2.79999 3.8 2.89999 3.7C 2.79999 3.8 2.8 3.8 2.7 3.8C 2.7 3.8 2.6 3.8 2.5 3.8C 2.4 3.8 2.4 3.8 2.3 3.8L 2.2 3.8L 2.10001 3.8C 2.10001 3.8 2.10001 3.8 2.10001 3.7L 2.10001 2.3L 1.8 2.3C 1.7 2.3 1.6 2.3 1.5 2.3C 1.4 2.3 1.4 2.4 1.3 2.4C 1.3 2.5 1.2 2.5 1.2 2.6C 1.2 2.7 1.10001 2.8 1.10001 2.9L 0.800003 3.7C 0.800003 3.7 0.800003 3.7 0.800003 3.8C 0.800003 3.8 0.799997 3.8 0.699997 3.8L 0.600006 3.8C 0.500006 3.8 0.499994 3.8 0.399994 3.8C 0.299994 3.8 0.199997 3.8 0.199997 3.8C 0.0999969 3.8 0.100006 3.8 0.100006 3.8C 0.100006 3.8 0.1 3.8 -8.52651e-14 3.8C -8.52651e-14 3.8 -8.52651e-14 3.8 -8.52651e-14 3.7L -8.52651e-14 3.6L 0.300003 2.8C 0.300003 2.7 0.399994 2.6 0.399994 2.5C 0.399994 2.4 0.5 2.4 0.5 2.3C 0.5 2.2 0.599997 2.2 0.699997 2.2C 0.799997 2.2 0.799994 2.1 0.899994 2.1C 0.799994 2.1 0.700006 2 0.600006 2C 0.500006 1.9 0.399994 1.9 0.399994 1.8C 0.299994 1.7 0.300003 1.6 0.300003 1.5C 0.300003 1.4 0.300003 1.3 0.300003 1.2C 0.300003 0.999999 0.299994 0.899999 0.399994 0.699999C 0.499994 0.599999 0.499997 0.4 0.699997 0.3C 0.799997 0.2 1.00001 0.100001 1.10001 0.100001C 1.30001 7.59959e-07 1.5 3.8147e-07 1.8 3.8147e-07L 2.7 3.8147e-07C 2.8 3.8147e-07 2.79999 7.59959e-07 2.89999 0.100001C 2.89999 0.100001 3 0.2 3 0.3L 3 3.7L 2.89999 3.7ZM 2.10001 0.600001L 1.7 0.600001C 1.5 0.600001 1.4 0.600001 1.3 0.600001C 1.2 0.600001 1.10001 0.699999 1.10001 0.699999C 1.00001 0.699999 1 0.8 1 0.9C 1 1 1 1 1 1.1C 1 1.2 1 1.3 1 1.3C 1 1.4 1.10001 1.4 1.10001 1.5C 1.20001 1.6 1.2 1.6 1.3 1.6C 1.4 1.6 1.5 1.6 1.7 1.6L 2.10001 1.6L 2.10001 0.600001Z"/>
</defs>
</svg>
