<svg width="83" height="84" viewBox="0 0 83 84" version="1.1" xmlns="http://www.w3.org/2000/svg" xmlns:xlink="http://www.w3.org/1999/xlink">
<title>Group 7</title>
<desc>Created using Figma</desc>
<g id="Canvas" transform="translate(-23120 -45512)">
<g id="Group 7">
<g id="Ellipse">
<use xlink:href="#path0_fill" transform="translate(23120 45512)" fill="#FFFFFF" fill-opacity="0.6"/>
</g>
<g id="Vector">
<use xlink:href="#path1_stroke" transform="translate(23154 45542)" fill="#353535"/>
</g>
</g>
</g>
<defs>
<path id="path0_fill" d="M 83 41.7083C 83 64.7432 64.4198 83.4167 41.5 83.4167C 18.5802 83.4167 0 64.7432 0 41.7083C 0 18.6735 18.5802 0 41.5 0C 64.4198 0 83 18.6735 83 41.7083Z"/>
<path id="path1_stroke" d="M 0 13.5L -1.06066 12.4393L -2.12132 13.5L -1.06066 14.5607L 0 13.5ZM 12.4393 -1.06066L -1.06066 12.4393L 1.06066 14.5607L 14.5607 1.06066L 12.4393 -1.06066ZM -1.06066 14.5607L 12.4393 28.0607L 14.5607 25.9393L 1.06066 12.4393L -1.06066 14.5607Z"/>
</defs>
</svg>
