<svg width="34" height="33" viewBox="0 0 34 33" version="1.1" xmlns="http://www.w3.org/2000/svg" xmlns:xlink="http://www.w3.org/1999/xlink">
<title>if_Arrow_Back_Down_1063895</title>
<desc>Created using Figma</desc>
<g id="Canvas" transform="translate(-28707 -47343)">
<g id="if_Arrow_Back_Down_1063895">
<g id="Vector">
<use xlink:href="#path0_fill" transform="matrix(4.37114e-08 -1 -1 -4.37114e-08 28741 47376)" fill="#848483"/>
</g>
</g>
</g>
<defs>
<path id="path0_fill" fill-rule="evenodd" d="M 2.06587 32.9375L 2.06587 29.75L 2.06587 21.8291L 2.06587 13.8125L 2.0917 13.8125C 2.36439 7.31319 7.55903 2.125 13.9446 2.125C 20.3303 2.125 25.5249 7.31319 25.7976 13.8125L 25.8234 13.8125L 25.8234 21.8291L 25.8234 29.75L 25.8234 30.4279L 22.4209 26.928C 22.0191 26.5147 21.3622 26.5147 20.9603 26.928C 20.5585 27.3413 20.5585 28.0171 20.9603 28.4304L 26.0734 33.6898C 26.281 33.9033 26.5558 34.0011 26.8295 33.9947C 27.1032 34.0021 27.378 33.9033 27.5856 33.6898L 32.6986 28.4304C 33.1005 28.0171 33.1005 27.3413 32.6986 26.928C 32.2968 26.5147 31.6399 26.5147 31.2381 26.928L 27.8893 30.3726L 27.8893 13.8125C 27.8893 13.7498 27.8645 13.6967 27.8542 13.6372C 27.4937 6.04563 21.4138 0 13.9446 0C 6.24307 0 0 6.42175 0 14.3438C 0 14.4872 0.016527 14.6264 0.0206587 14.7698C 0.0175599 14.8059 0 14.8378 0 14.875L 0 32.9375C 0 33.5219 0.464821 34 1.03294 34C 1.60105 34 2.06587 33.5219 2.06587 32.9375Z"/>
</defs>
</svg>
