<svg width="99" height="281" viewBox="0 0 99 281" fill="none" xmlns="http://www.w3.org/2000/svg">
<mask id="mask0" mask-type="alpha" maskUnits="userSpaceOnUse" x="0" y="0" width="100" height="281">
<rect x="0.778076" width="98.7905" height="281" fill="#C4C4C4"/>
</mask>
<g mask="url(#mask0)">
<g filter="url(#filter0_d)">
<rect x="42.5086" y="17.6121" width="167.567" height="245.776" rx="37.892" fill="white"/>
</g>
</g>
<path d="M81.3125 184.653C81.3125 184.539 81.3575 184.44 81.4475 184.356L82.3565 183.519C82.9925 184.047 83.4845 184.695 83.8325 185.463C84.1745 186.231 84.3455 187.149 84.3455 188.217C84.3455 189.165 84.1835 190.023 83.8595 190.791C83.5295 191.553 83.0735 192.204 82.4915 192.744C81.9035 193.284 81.2045 193.701 80.3945 193.995C79.5845 194.283 78.6935 194.427 77.7215 194.427C76.7495 194.427 75.8585 194.274 75.0485 193.968C74.2325 193.656 73.5335 193.221 72.9515 192.663C72.3635 192.099 71.9075 191.427 71.5835 190.647C71.2595 189.861 71.0975 188.997 71.0975 188.055C71.0975 187.119 71.2505 186.294 71.5565 185.58C71.8565 184.86 72.2585 184.236 72.7625 183.708L73.7435 184.401C73.8095 184.449 73.8665 184.506 73.9145 184.572C73.9625 184.638 73.9865 184.728 73.9865 184.842C73.9865 184.962 73.9325 185.1 73.8245 185.256C73.7105 185.406 73.5875 185.601 73.4555 185.841C73.3175 186.075 73.1945 186.372 73.0865 186.732C72.9725 187.086 72.9155 187.53 72.9155 188.064C72.9155 188.682 73.0235 189.249 73.2395 189.765C73.4555 190.281 73.7705 190.725 74.1845 191.097C74.5985 191.469 75.1025 191.76 75.6965 191.97C76.2905 192.174 76.9655 192.276 77.7215 192.276C78.4835 192.276 79.1645 192.168 79.7645 191.952C80.3585 191.736 80.8625 191.439 81.2765 191.061C81.6845 190.683 81.9965 190.239 82.2125 189.729C82.4285 189.219 82.5365 188.67 82.5365 188.082C82.5365 187.722 82.5185 187.401 82.4825 187.119C82.4405 186.831 82.3775 186.567 82.2935 186.327C82.2035 186.087 82.0925 185.862 81.9605 185.652C81.8285 185.436 81.6665 185.223 81.4745 185.013C81.3665 184.893 81.3125 184.773 81.3125 184.653ZM82.8605 178.451C82.8605 177.923 82.7345 177.506 82.4825 177.2C82.2245 176.888 81.8795 176.732 81.4475 176.732C81.2615 176.732 81.0875 176.759 80.9255 176.813C80.7635 176.867 80.6255 176.96 80.5115 177.092C80.3915 177.224 80.2985 177.401 80.2325 177.623C80.1665 177.839 80.1335 178.112 80.1335 178.442L80.1335 180.251L82.8605 180.251L82.8605 178.451ZM76.2995 180.251L78.9185 180.251L78.9185 178.658C78.9185 178.418 78.8855 178.199 78.8195 178.001C78.7475 177.797 78.6515 177.623 78.5315 177.479C78.4055 177.329 78.2585 177.215 78.0905 177.137C77.9165 177.053 77.7245 177.011 77.5145 177.011C77.3645 177.011 77.2175 177.038 77.0735 177.092C76.9235 177.146 76.7915 177.239 76.6775 177.371C76.5635 177.497 76.4735 177.665 76.4075 177.875C76.3355 178.085 76.2995 178.346 76.2995 178.658L76.2995 180.251ZM75.0215 178.595C75.0215 178.025 75.0785 177.533 75.1925 177.119C75.3005 176.705 75.4535 176.366 75.6515 176.102C75.8495 175.832 76.0835 175.634 76.3535 175.508C76.6235 175.382 76.9145 175.319 77.2265 175.319C77.4245 175.319 77.6315 175.346 77.8475 175.4C78.0635 175.454 78.2705 175.547 78.4685 175.679C78.6605 175.811 78.8375 175.991 78.9995 176.219C79.1615 176.441 79.2875 176.726 79.3775 177.074C79.4975 176.42 79.7375 175.904 80.0975 175.526C80.4515 175.142 80.9255 174.95 81.5195 174.95C81.9755 174.95 82.3715 175.043 82.7075 175.229C83.0435 175.415 83.3225 175.67 83.5445 175.994C83.7665 176.312 83.9315 176.684 84.0395 177.11C84.1475 177.53 84.2015 177.974 84.2015 178.442L84.2015 182.096L75.0215 182.096L75.0215 178.595ZM79.2155 168.377L76.2995 168.377L76.2995 169.736C76.2995 170.048 76.3445 170.309 76.4345 170.519C76.5245 170.729 76.6415 170.897 76.7855 171.023C76.9235 171.149 77.0795 171.239 77.2535 171.293C77.4275 171.347 77.5985 171.374 77.7665 171.374C78.2165 171.374 78.5705 171.215 78.8285 170.897C79.0865 170.573 79.2155 170.138 79.2155 169.592L79.2155 168.377ZM75.0215 166.532L84.2015 166.532L84.2015 168.377L80.4395 168.377L80.4395 168.908C80.4395 169.082 80.4545 169.226 80.4845 169.34C80.5145 169.454 80.5565 169.553 80.6105 169.637C80.6645 169.715 80.7305 169.787 80.8085 169.853C80.8865 169.913 80.9735 169.973 81.0695 170.033L83.5265 171.752C83.7545 171.878 83.9255 172.028 84.0395 172.202C84.1475 172.37 84.2015 172.625 84.2015 172.967L84.2015 174.299L80.8625 171.824C80.4665 171.596 80.1965 171.278 80.0525 170.87C79.9865 171.314 79.8725 171.692 79.7105 172.004C79.5485 172.316 79.3595 172.568 79.1435 172.76C78.9275 172.952 78.6935 173.093 78.4415 173.183C78.1835 173.267 77.9285 173.309 77.6765 173.309C77.3465 173.309 77.0225 173.246 76.7045 173.12C76.3865 172.988 76.1045 172.781 75.8585 172.499C75.6065 172.217 75.4055 171.854 75.2555 171.41C75.0995 170.96 75.0215 170.42 75.0215 169.79L75.0215 166.532ZM75.9935 164.724C75.6635 164.376 75.3965 163.95 75.1925 163.446C74.9825 162.942 74.8775 162.339 74.8775 161.637C74.8775 161.073 74.9465 160.575 75.0845 160.143C75.2165 159.711 75.3965 159.348 75.6245 159.054C75.8465 158.76 76.1045 158.538 76.3985 158.388C76.6925 158.232 76.9985 158.154 77.3165 158.154C77.4965 158.154 77.6825 158.181 77.8745 158.235C78.0605 158.289 78.2435 158.379 78.4235 158.505C78.6035 158.625 78.7715 158.787 78.9275 158.991C79.0835 159.189 79.2125 159.435 79.3145 159.729C79.4945 159.183 79.7735 158.751 80.1515 158.433C80.5235 158.115 80.9885 157.956 81.5465 157.956C81.9845 157.956 82.3775 158.058 82.7255 158.262C83.0675 158.46 83.3585 158.727 83.5985 159.063C83.8385 159.393 84.0215 159.777 84.1475 160.215C84.2735 160.647 84.3365 161.097 84.3365 161.565C84.3365 161.847 84.3095 162.141 84.2555 162.447C84.2075 162.747 84.1265 163.047 84.0125 163.347C83.8925 163.641 83.7395 163.926 83.5535 164.202C83.3675 164.478 83.1395 164.727 82.8695 164.949L82.1585 164.391C82.0385 164.319 81.9785 164.199 81.9785 164.031C81.9785 163.911 82.0235 163.788 82.1135 163.662C82.2035 163.536 82.3025 163.389 82.4105 163.221C82.5185 163.047 82.6175 162.84 82.7075 162.6C82.7975 162.354 82.8425 162.051 82.8425 161.691C82.8425 161.391 82.8065 161.124 82.7345 160.89C82.6625 160.656 82.5605 160.458 82.4285 160.296C82.2965 160.134 82.1435 160.011 81.9695 159.927C81.7895 159.843 81.5945 159.801 81.3845 159.801C80.9765 159.801 80.6555 159.969 80.4215 160.305C80.1815 160.635 80.0615 161.157 80.0615 161.871L80.0615 162.906L78.7835 162.906L78.7835 161.871C78.7835 161.247 78.6695 160.764 78.4415 160.422C78.2135 160.08 77.9165 159.909 77.5505 159.909C77.2205 159.909 76.9415 160.059 76.7135 160.359C76.4855 160.653 76.3715 161.097 76.3715 161.691C76.3715 162.027 76.4075 162.315 76.4795 162.555C76.5455 162.789 76.6205 162.987 76.7045 163.149C76.7825 163.311 76.8545 163.449 76.9205 163.563C76.9865 163.671 77.0195 163.767 77.0195 163.851C77.0195 163.941 77.0015 164.019 76.9655 164.085C76.9295 164.145 76.8545 164.211 76.7405 164.283L75.9935 164.724ZM80.1875 151.175C80.2115 151.865 80.2685 152.447 80.3585 152.921C80.4425 153.395 80.5535 153.779 80.6915 154.073C80.8235 154.367 80.9825 154.58 81.1685 154.712C81.3545 154.838 81.5585 154.901 81.7805 154.901C81.9965 154.901 82.1825 154.868 82.3385 154.802C82.4885 154.73 82.6145 154.634 82.7165 154.514C82.8125 154.388 82.8845 154.244 82.9325 154.082C82.9745 153.914 82.9955 153.731 82.9955 153.533C82.9955 153.029 82.9025 152.597 82.7165 152.237C82.5245 151.871 82.2485 151.517 81.8885 151.175L80.1875 151.175ZM76.2995 156.305C75.3335 155.267 74.8505 154.031 74.8505 152.597C74.8505 152.069 74.9375 151.601 75.1115 151.193C75.2795 150.779 75.5195 150.434 75.8315 150.158C76.1435 149.876 76.5155 149.663 76.9475 149.519C77.3735 149.369 77.8475 149.294 78.3695 149.294L84.2015 149.294L84.2015 150.158C84.2015 150.344 84.1745 150.485 84.1205 150.581C84.0605 150.677 83.9435 150.758 83.7695 150.824L83.0225 151.013C83.2325 151.247 83.4215 151.478 83.5895 151.706C83.7515 151.934 83.8895 152.171 84.0035 152.417C84.1175 152.657 84.2015 152.918 84.2555 153.2C84.3155 153.476 84.3455 153.782 84.3455 154.118C84.3455 154.49 84.2945 154.838 84.1925 155.162C84.0905 155.48 83.9375 155.756 83.7335 155.99C83.5235 156.224 83.2655 156.41 82.9595 156.548C82.6535 156.68 82.2935 156.746 81.8795 156.746C81.5255 156.746 81.1805 156.653 80.8445 156.467C80.5085 156.275 80.2085 155.963 79.9445 155.531C79.6745 155.093 79.4525 154.52 79.2785 153.812C79.1045 153.098 79.0055 152.219 78.9815 151.175L78.3695 151.175C77.7095 151.175 77.2175 151.316 76.8935 151.598C76.5695 151.88 76.4075 152.294 76.4075 152.84C76.4075 153.212 76.4555 153.524 76.5515 153.776C76.6415 154.028 76.7405 154.247 76.8485 154.433C76.9565 154.619 77.0585 154.784 77.1545 154.928C77.2445 155.072 77.2895 155.225 77.2895 155.387C77.2895 155.519 77.2565 155.633 77.1905 155.729C77.1185 155.819 77.0315 155.894 76.9295 155.954L76.2995 156.305ZM76.4795 139.463L76.4795 142.847L84.2015 142.847L84.2015 144.782L76.4795 144.782L76.4795 148.175L75.0215 148.175L75.0215 139.463L76.4795 139.463ZM82.7975 134.4C82.7975 134.118 82.7615 133.872 82.6895 133.662C82.6115 133.446 82.5095 133.269 82.3835 133.131C82.2515 132.987 82.0955 132.882 81.9155 132.816C81.7355 132.744 81.5375 132.708 81.3215 132.708C81.1295 132.708 80.9495 132.741 80.7815 132.807C80.6075 132.867 80.4575 132.966 80.3315 133.104C80.1995 133.236 80.0975 133.41 80.0255 133.626C79.9475 133.842 79.9085 134.106 79.9085 134.418L79.9085 136.2L82.7975 136.2L82.7975 134.4ZM78.5135 134.427C78.5135 133.791 78.5915 133.254 78.7475 132.816C78.8975 132.378 79.1015 132.024 79.3595 131.754C79.6175 131.484 79.9175 131.289 80.2595 131.169C80.5955 131.049 80.9465 130.989 81.3125 130.989C81.7385 130.989 82.1285 131.064 82.4825 131.214C82.8305 131.364 83.1335 131.586 83.3915 131.88C83.6495 132.168 83.8505 132.525 83.9945 132.951C84.1325 133.371 84.2015 133.854 84.2015 134.4L84.2015 138.045L75.0215 138.045L75.0215 136.2L78.5135 136.2L78.5135 134.427ZM76.8215 122.872C76.8995 122.932 76.9595 122.989 77.0015 123.043C77.0435 123.097 77.0645 123.175 77.0645 123.277C77.0645 123.379 77.0285 123.487 76.9565 123.601C76.8845 123.709 76.8065 123.841 76.7225 123.997C76.6325 124.147 76.5515 124.33 76.4795 124.546C76.4075 124.762 76.3715 125.032 76.3715 125.356C76.3715 125.776 76.4465 126.145 76.5965 126.463C76.7465 126.775 76.9625 127.039 77.2445 127.255C77.5205 127.465 77.8595 127.624 78.2615 127.732C78.6575 127.834 79.1045 127.885 79.6025 127.885C80.1185 127.885 80.5775 127.828 80.9795 127.714C81.3815 127.6 81.7205 127.438 81.9965 127.228C82.2725 127.012 82.4825 126.754 82.6265 126.454C82.7705 126.148 82.8425 125.806 82.8425 125.428C82.8425 125.056 82.7975 124.753 82.7075 124.519C82.6175 124.285 82.5185 124.09 82.4105 123.934C82.3025 123.778 82.2035 123.646 82.1135 123.538C82.0235 123.424 81.9785 123.304 81.9785 123.178C81.9785 123.022 82.0385 122.902 82.1585 122.818L82.8695 122.269C83.1395 122.491 83.3675 122.737 83.5535 123.007C83.7395 123.277 83.8925 123.562 84.0125 123.862C84.1265 124.162 84.2075 124.474 84.2555 124.798C84.3095 125.122 84.3365 125.449 84.3365 125.779C84.3365 126.349 84.2315 126.883 84.0215 127.381C83.8055 127.873 83.4965 128.305 83.0945 128.677C82.6865 129.043 82.1915 129.334 81.6095 129.55C81.0215 129.76 80.3525 129.865 79.6025 129.865C78.9245 129.865 78.2975 129.769 77.7215 129.577C77.1395 129.385 76.6385 129.106 76.2185 128.74C75.7985 128.368 75.4715 127.909 75.2375 127.363C74.9975 126.817 74.8775 126.187 74.8775 125.473C74.8775 124.807 74.9855 124.222 75.2015 123.718C75.4175 123.208 75.7235 122.755 76.1195 122.359L76.8215 122.872ZM79.2155 115.907L76.2995 115.907L76.2995 117.266C76.2995 117.578 76.3445 117.839 76.4345 118.049C76.5245 118.259 76.6415 118.427 76.7855 118.553C76.9235 118.679 77.0795 118.769 77.2535 118.823C77.4275 118.877 77.5985 118.904 77.7665 118.904C78.2165 118.904 78.5705 118.745 78.8285 118.427C79.0865 118.103 79.2155 117.668 79.2155 117.122L79.2155 115.907ZM75.0215 114.062L84.2015 114.062L84.2015 115.907L80.4395 115.907L80.4395 116.438C80.4395 116.612 80.4545 116.756 80.4845 116.87C80.5145 116.984 80.5565 117.083 80.6105 117.167C80.6645 117.245 80.7305 117.317 80.8085 117.383C80.8865 117.443 80.9735 117.503 81.0695 117.563L83.5265 119.282C83.7545 119.408 83.9255 119.558 84.0395 119.732C84.1475 119.9 84.2015 120.155 84.2015 120.497L84.2015 121.829L80.8625 119.354C80.4665 119.126 80.1965 118.808 80.0525 118.4C79.9865 118.844 79.8725 119.222 79.7105 119.534C79.5485 119.846 79.3595 120.098 79.1435 120.29C78.9275 120.482 78.6935 120.623 78.4415 120.713C78.1835 120.797 77.9285 120.839 77.6765 120.839C77.3465 120.839 77.0225 120.776 76.7045 120.65C76.3865 120.518 76.1045 120.311 75.8585 120.029C75.6065 119.747 75.4055 119.384 75.2555 118.94C75.0995 118.49 75.0215 117.95 75.0215 117.32L75.0215 114.062ZM76.8215 100.724C76.8995 100.784 76.9595 100.841 77.0015 100.895C77.0435 100.949 77.0645 101.027 77.0645 101.129C77.0645 101.231 77.0285 101.339 76.9565 101.453C76.8845 101.561 76.8065 101.693 76.7225 101.849C76.6325 101.999 76.5515 102.182 76.4795 102.398C76.4075 102.614 76.3715 102.884 76.3715 103.208C76.3715 103.628 76.4465 103.997 76.5965 104.315C76.7465 104.627 76.9625 104.891 77.2445 105.107C77.5205 105.317 77.8595 105.476 78.2615 105.584C78.6575 105.686 79.1045 105.737 79.6025 105.737C80.1185 105.737 80.5775 105.68 80.9795 105.566C81.3815 105.452 81.7205 105.29 81.9965 105.08C82.2725 104.864 82.4825 104.606 82.6265 104.306C82.7705 104 82.8425 103.658 82.8425 103.28C82.8425 102.908 82.7975 102.605 82.7075 102.371C82.6175 102.137 82.5185 101.942 82.4105 101.786C82.3025 101.63 82.2035 101.498 82.1135 101.39C82.0235 101.276 81.9785 101.156 81.9785 101.03C81.9785 100.874 82.0385 100.754 82.1585 100.67L82.8695 100.121C83.1395 100.343 83.3675 100.589 83.5535 100.859C83.7395 101.129 83.8925 101.414 84.0125 101.714C84.1265 102.014 84.2075 102.326 84.2555 102.65C84.3095 102.974 84.3365 103.301 84.3365 103.631C84.3365 104.201 84.2315 104.735 84.0215 105.233C83.8055 105.725 83.4965 106.157 83.0945 106.529C82.6865 106.895 82.1915 107.186 81.6095 107.402C81.0215 107.612 80.3525 107.717 79.6025 107.717C78.9245 107.717 78.2975 107.621 77.7215 107.429C77.1395 107.237 76.6385 106.958 76.2185 106.592C75.7985 106.22 75.4715 105.761 75.2375 105.215C74.9975 104.669 74.8775 104.039 74.8775 103.325C74.8775 102.659 74.9855 102.074 75.2015 101.57C75.4175 101.06 75.7235 100.607 76.1195 100.211L76.8215 100.724ZM75.0215 86.2518L84.2015 86.2518L84.2015 88.1778L80.0345 88.1778L80.0345 92.1468L84.2015 92.1468L84.2015 94.0818L75.0215 94.0818L75.0215 92.1468L78.5765 92.1468L78.5765 88.1778L75.0215 88.1778L75.0215 86.2518ZM80.1875 78.9815C80.2115 79.6715 80.2685 80.2535 80.3585 80.7275C80.4425 81.2015 80.5535 81.5855 80.6915 81.8795C80.8235 82.1735 80.9825 82.3865 81.1685 82.5185C81.3545 82.6445 81.5585 82.7075 81.7805 82.7075C81.9965 82.7075 82.1825 82.6745 82.3385 82.6085C82.4885 82.5365 82.6145 82.4405 82.7165 82.3205C82.8125 82.1945 82.8845 82.0505 82.9325 81.8885C82.9745 81.7205 82.9955 81.5375 82.9955 81.3395C82.9955 80.8355 82.9025 80.4035 82.7165 80.0435C82.5245 79.6775 82.2485 79.3235 81.8885 78.9815L80.1875 78.9815ZM76.2995 84.1115C75.3335 83.0735 74.8505 81.8375 74.8505 80.4035C74.8505 79.8755 74.9375 79.4075 75.1115 78.9995C75.2795 78.5855 75.5195 78.2405 75.8315 77.9645C76.1435 77.6825 76.5155 77.4695 76.9475 77.3255C77.3735 77.1755 77.8475 77.1005 78.3695 77.1005L84.2015 77.1005L84.2015 77.9645C84.2015 78.1505 84.1745 78.2915 84.1205 78.3875C84.0605 78.4835 83.9435 78.5645 83.7695 78.6305L83.0225 78.8195C83.2325 79.0535 83.4215 79.2845 83.5895 79.5125C83.7515 79.7405 83.8895 79.9775 84.0035 80.2235C84.1175 80.4635 84.2015 80.7245 84.2555 81.0065C84.3155 81.2825 84.3455 81.5885 84.3455 81.9245C84.3455 82.2965 84.2945 82.6445 84.1925 82.9685C84.0905 83.2865 83.9375 83.5625 83.7335 83.7965C83.5235 84.0305 83.2655 84.2165 82.9595 84.3545C82.6535 84.4865 82.2935 84.5525 81.8795 84.5525C81.5255 84.5525 81.1805 84.4595 80.8445 84.2735C80.5085 84.0815 80.2085 83.7695 79.9445 83.3375C79.6745 82.8995 79.4525 82.3265 79.2785 81.6185C79.1045 80.9045 79.0055 80.0255 78.9815 78.9815L78.3695 78.9815C77.7095 78.9815 77.2175 79.1225 76.8935 79.4045C76.5695 79.6865 76.4075 80.1005 76.4075 80.6465C76.4075 81.0185 76.4555 81.3305 76.5515 81.5825C76.6415 81.8345 76.7405 82.0535 76.8485 82.2395C76.9565 82.4255 77.0585 82.5905 77.1545 82.7345C77.2445 82.8785 77.2895 83.0315 77.2895 83.1935C77.2895 83.3255 77.2565 83.4395 77.1905 83.5355C77.1185 83.6255 77.0315 83.7005 76.9295 83.7605L76.2995 84.1115ZM74.9945 64.3938L84.2015 64.3938L84.2015 66.1308L78.6485 66.1308C78.4565 66.1308 78.2405 66.1188 78.0005 66.0948C77.7545 66.0708 77.5265 66.0408 77.3165 66.0048L82.5725 68.9298C82.6805 68.9898 82.7675 69.0678 82.8335 69.1638C82.8935 69.2598 82.9235 69.3678 82.9235 69.4878L82.9235 69.6948C82.9235 69.8148 82.8935 69.9228 82.8335 70.0188C82.7675 70.1088 82.6805 70.1838 82.5725 70.2438L77.2895 73.2228C77.4995 73.1868 77.7305 73.1568 77.9825 73.1328C78.2285 73.1028 78.4505 73.0878 78.6485 73.0878L84.2015 73.0878L84.2015 74.8338L74.9945 74.8338L74.9945 73.2498C74.9945 73.1178 75.0245 72.9888 75.0845 72.8628C75.1445 72.7308 75.2615 72.6168 75.4355 72.5208L79.7015 70.0278C79.8575 69.9438 80.0255 69.8688 80.2055 69.8028C80.3855 69.7308 80.5655 69.6618 80.7455 69.5958C80.5655 69.5298 80.3855 69.4608 80.2055 69.3888C80.0255 69.3168 79.8575 69.2388 79.7015 69.1548L75.4355 66.6978C75.2555 66.6078 75.1385 66.4968 75.0845 66.3648C75.0245 66.2328 74.9945 66.1008 74.9945 65.9688L74.9945 64.3938ZM75.0215 53.9463L84.2015 53.9463L84.2015 55.8813L78.4505 55.8813C78.3245 55.8813 78.1865 55.8753 78.0365 55.8633C77.8865 55.8513 77.7335 55.8333 77.5775 55.8093C77.7095 55.8693 77.8325 55.9293 77.9465 55.9893C78.0545 56.0433 78.1535 56.1033 78.2435 56.1693L83.7245 60.1563C83.8385 60.2283 83.9495 60.3243 84.0575 60.4443C84.1595 60.5643 84.2105 60.6993 84.2105 60.8493L84.2105 62.0193L75.0215 62.0193L75.0215 60.0843L80.7725 60.0843C80.8985 60.0843 81.0395 60.0933 81.1955 60.1113C81.3515 60.1233 81.5075 60.1413 81.6635 60.1653C81.3875 60.0453 81.1595 59.9223 80.9795 59.7963L75.5075 55.8093C75.3875 55.7373 75.2765 55.6413 75.1745 55.5213C75.0725 55.4013 75.0215 55.2663 75.0215 55.1163L75.0215 53.9463Z" fill="#272727"/>
<path d="M71.6794 228.302L71.6794 213.563C71.6794 211.781 73.1238 210.336 74.9056 210.336L78.2727 210.336L80.119 210.336L84.3114 210.336C85.9404 210.336 87.2609 211.657 87.2609 213.286L87.2609 228.302C87.2609 230.083 85.8165 231.528 84.0347 231.528L74.9056 231.528C73.1238 231.528 71.6794 230.083 71.6794 228.302Z" stroke="#353535" stroke-width="1.61313"/>
<path d="M75.8177 228.396L81.2039 221.073L75.8177 213.469" stroke="#353535" stroke-width="1.61313" stroke-linecap="round"/>
<defs>
<filter id="filter0_d" x="25.6677" y="1.61322" width="201.249" height="279.457" filterUnits="userSpaceOnUse" color-interpolation-filters="sRGB">
<feFlood flood-opacity="0" result="BackgroundImageFix"/>
<feColorMatrix in="SourceAlpha" type="matrix" values="0 0 0 0 0 0 0 0 0 0 0 0 0 0 0 0 0 0 127 0"/>
<feOffset dy="0.842044"/>
<feGaussianBlur stdDeviation="8.42044"/>
<feColorMatrix type="matrix" values="0 0 0 0 0 0 0 0 0 0 0 0 0 0 0 0 0 0 0.08 0"/>
<feBlend mode="normal" in2="BackgroundImageFix" result="effect1_dropShadow"/>
<feBlend mode="normal" in="SourceGraphic" in2="effect1_dropShadow" result="shape"/>
</filter>
</defs>
</svg>
