<svg width="128" height="128" viewBox="0 0 128 128" version="1.1" xmlns="http://www.w3.org/2000/svg" xmlns:xlink="http://www.w3.org/1999/xlink">
<title>Group 3</title>
<desc>Created using Figma</desc>
<g id="Canvas" transform="translate(-15501 -33487)">
<g id="Group 3">
<g id="Group">
<g id="Group">
<g id="Vector">
<use xlink:href="#path0_fill" transform="translate(15501 33487)" fill="#E8F0D5"/>
</g>
</g>
</g>
<g id="Group">
<g id="Group">
<g id="Vector">
<use xlink:href="#path1_fill" transform="translate(15518 33553.4)" fill="#E8F0D5"/>
</g>
<g id="Vector">
<use xlink:href="#path2_fill" transform="translate(15536.1 33553.2)" fill="#E8F0D5"/>
</g>
<g id="Vector">
<use xlink:href="#path3_fill" transform="translate(15556.4 33553)" fill="#E8F0D5"/>
</g>
</g>
</g>
</g>
</g>
<defs>
<path id="path0_fill" d="M 122.815 32.4948L 97.2425 4.94845L 92.6907 0L 31.0348 0L 31.0348 48.6598L 0 48.6598L 0 103.67L 31.0348 103.67L 31.0348 128L 127.781 128L 127.781 37.9381L 127.781 37.8557L 122.815 32.4948ZM 91.3666 6.35052L 116.36 32.9897L 91.3666 32.9897L 91.3666 6.35052ZM 4.96557 98.7216L 4.96557 53.6082L 82.7596 53.6082L 82.7596 98.7216L 4.96557 98.7216ZM 122.815 123.052L 36.0004 123.052L 36.0004 103.67L 87.7251 103.67L 87.7251 48.6598L 36.0004 48.6598L 36.0004 4.94845L 86.401 4.94845L 86.401 37.9381L 122.815 37.9381L 122.815 123.052Z"/>
<path id="path1_fill" d="M 16.2193 9.18333C 16.2193 10.5292 15.9842 11.7958 15.5141 12.9042C 15.044 14.0125 14.4171 15.0417 13.6336 15.8333C 12.85 16.625 11.8314 17.2583 10.7345 17.7333C 9.63753 18.2083 8.30552 18.4458 6.9735 18.4458L 0 18.4458L 0 9.4374e-09L 6.9735 9.4374e-09C 8.38387 9.4374e-09 9.63753 0.2375 10.7345 0.7125C 11.8314 1.1875 12.85 1.82083 13.6336 2.6125C 14.4171 3.40417 15.044 4.43333 15.5141 5.54167C 15.9842 6.57083 16.2193 7.8375 16.2193 9.18333ZM 12.6933 9.18333C 12.6933 8.15417 12.5366 7.28333 12.3016 6.49167C 12.0665 5.7 11.6747 4.9875 11.1263 4.43333C 10.6561 3.87917 10.0293 3.48333 9.32412 3.16667C 8.61893 2.85 7.83539 2.69167 6.9735 2.69167L 3.36922 2.69167L 3.36922 15.675L 6.89515 15.675C 7.75704 15.675 8.61893 15.5167 9.32412 15.2C 10.0293 14.8833 10.6561 14.4875 11.1263 13.9333C 11.5964 13.3792 11.9882 12.6667 12.3016 11.875C 12.615 11.0833 12.6933 10.2125 12.6933 9.18333Z"/>
<path id="path2_fill" d="M 18.4132 9.42083C 18.4132 10.7667 18.1781 12.0333 17.7863 13.1417C 17.3946 14.25 16.6894 15.2792 15.9058 16.15C 15.1223 17.0208 14.1037 17.6542 13.0068 18.1292C 11.9098 18.6042 10.5778 18.8417 9.24577 18.8417C 7.83539 18.8417 6.58173 18.6042 5.48478 18.1292C 4.38782 17.6542 3.36922 17.0208 2.58568 16.15C 1.80214 15.2792 1.17531 14.3292 0.705186 13.1417C 0.235062 11.9542 5.97793e-07 10.7667 5.97793e-07 9.42083C 5.97793e-07 8.075 0.235062 6.80833 0.705186 5.7C 1.17531 4.59167 1.80214 3.5625 2.58568 2.69167C 3.36922 1.82083 4.38782 1.1875 5.48478 0.7125C 6.50338 0.2375 7.75704 0 9.16741 0C 10.1077 0 10.9696 0.0791667 11.7531 0.316667C 12.5366 0.554167 13.3202 0.870833 14.0254 1.26667C 14.7305 1.6625 15.279 2.1375 15.8275 2.69167C 16.376 3.24583 16.8461 3.87917 17.2379 4.59167C 17.6296 5.30417 17.9431 6.01667 18.0998 6.8875C 18.2565 7.75833 18.4132 8.55 18.4132 9.42083ZM 14.8872 9.42083C 14.8872 8.39167 14.7305 7.52083 14.4955 6.72917C 14.2604 5.9375 13.8686 5.225 13.3202 4.67083C 12.7717 4.11667 12.2232 3.72083 11.518 3.40417C 10.8128 3.0875 10.0293 2.92917 9.16741 2.92917C 8.30552 2.92917 7.44362 3.0875 6.73844 3.40417C 6.03325 3.72083 5.40642 4.11667 4.9363 4.67083C 4.46617 5.225 4.07441 5.9375 3.76099 6.72917C 3.52593 7.52083 3.36922 8.47083 3.36922 9.42083C 3.36922 10.3708 3.52593 11.3208 3.76099 12.1125C 3.99605 12.9042 4.38782 13.6167 4.9363 14.1708C 5.40642 14.725 6.03325 15.1208 6.73844 15.4375C 7.44362 15.7542 8.22717 15.9125 9.16741 15.9125C 10.1077 15.9125 10.8912 15.7542 11.5964 15.4375C 12.3016 15.1208 12.9284 14.725 13.3985 14.1708C 13.8686 13.6167 14.2604 12.9042 14.5738 12.1125C 14.8089 11.3208 14.8872 10.45 14.8872 9.42083Z"/>
<path id="path3_fill" d="M 13.6336 14.4083C 13.7903 14.4083 13.947 14.4875 14.1037 14.6458L 15.4357 16.15C 14.7305 17.1 13.7903 17.8125 12.6933 18.2875C 11.5964 18.7625 10.3427 19 8.77564 19C 7.44362 19 6.18996 18.7625 5.093 18.2875C 3.99605 17.8125 3.0558 17.1792 2.35062 16.3083C 1.56708 15.4375 1.0186 14.4875 0.626833 13.3C 0.235063 12.1125 -1.19559e-06 10.8458 -1.19559e-06 9.5C -1.19559e-06 8.15417 0.235063 6.8875 0.626833 5.7C 1.09696 4.5125 1.64543 3.5625 2.50733 2.69167C 3.36922 1.82083 4.23111 1.1875 5.32807 0.7125C 6.42502 0.2375 7.67868 -2.35935e-09 9.0107 -2.35935e-09C 10.3427 -2.35935e-09 11.518 0.2375 12.5366 0.633333C 13.5552 1.10833 14.4171 1.6625 15.2007 2.375L 14.0254 4.11667C 13.947 4.19583 13.8686 4.275 13.7903 4.35417C 13.7119 4.43333 13.5552 4.43333 13.3202 4.43333C 13.1635 4.43333 13.0851 4.43333 12.9284 4.35417C 12.7717 4.275 12.615 4.19583 12.4583 4.11667C 12.3016 4.0375 12.1449 3.87917 11.9098 3.8C 11.6747 3.64167 11.4397 3.5625 11.2046 3.48333C 10.8912 3.40417 10.5778 3.325 10.2644 3.24583C 9.8726 3.16667 9.48082 3.16667 9.0107 3.16667C 8.22716 3.16667 7.44362 3.325 6.73844 3.64167C 6.03325 3.95833 5.48478 4.35417 5.01465 4.90833C 4.54453 5.4625 4.15276 6.175 3.9177 6.96667C 3.68263 7.75833 3.52593 8.70833 3.52593 9.7375C 3.52593 10.7667 3.68264 11.7167 3.99605 12.5083C 4.30947 13.3 4.70124 14.0125 5.17136 14.5667C 5.64148 15.1208 6.26832 15.5167 6.89515 15.8333C 7.52198 16.15 8.30552 16.3083 9.08906 16.3083C 9.55918 16.3083 9.95095 16.3083 10.3427 16.2292C 10.7345 16.15 11.0479 16.0708 11.3613 15.9917C 11.6747 15.9125 11.9881 15.7542 12.2232 15.5958C 12.5366 15.4375 12.7717 15.2 13.0851 14.9625C 13.1635 14.8833 13.2418 14.8042 13.3202 14.8042C 13.3985 14.4875 13.4769 14.4083 13.6336 14.4083Z"/>
</defs>
</svg>
