<svg width="128" height="128" viewBox="0 0 128 128" version="1.1" xmlns="http://www.w3.org/2000/svg" xmlns:xlink="http://www.w3.org/1999/xlink">
<title>Group 3</title>
<desc>Created using Figma</desc>
<g id="Canvas" transform="translate(-15643 -33797)">
<g id="Group 3">
<g id="docx">
<use xlink:href="#path0_fill" transform="translate(15656 33864)" fill="#E8F0D5"/>
<use xlink:href="#path1_fill" transform="translate(15656 33864)" fill="#E8F0D5"/>
<use xlink:href="#path2_fill" transform="translate(15656 33864)" fill="#E8F0D5"/>
<use xlink:href="#path3_fill" transform="translate(15656 33864)" fill="#E8F0D5"/>
</g>
<g id="Group 3.6">
<g id="Group 3.5">
<g id="Group">
<g id="Group">
<g id="Vector">
<use xlink:href="#path4_fill" transform="translate(15643 33797)" fill="#E8F0D5"/>
</g>
</g>
</g>
</g>
</g>
</g>
</g>
<defs>
<path id="path0_fill" d="M 0 17.2969L 0 0.234375L 5.03906 0.234375C 6.54688 0.234375 7.88281 0.570312 9.04688 1.24219C 10.2188 1.91406 11.125 2.86719 11.7656 4.10156C 12.4062 5.33594 12.7266 6.75 12.7266 8.34375L 12.7266 9.19922C 12.7266 10.8164 12.4023 12.2383 11.7539 13.4648C 11.1133 14.6914 10.1953 15.6367 9 16.3008C 7.8125 16.9648 6.44922 17.2969 4.91016 17.2969L 0 17.2969ZM 2.96484 2.625L 2.96484 14.9297L 4.89844 14.9297C 6.45312 14.9297 7.64453 14.4453 8.47266 13.4766C 9.30859 12.5 9.73438 11.1016 9.75 9.28125L 9.75 8.33203C 9.75 6.48047 9.34766 5.06641 8.54297 4.08984C 7.73828 3.11328 6.57031 2.625 5.03906 2.625L 2.96484 2.625Z"/>
<path id="path1_fill" d="M 29.2969 9.21094C 29.2969 10.8828 29.0078 12.3516 28.4297 13.6172C 27.8516 14.875 27.0234 15.8438 25.9453 16.5234C 24.875 17.1953 23.6406 17.5312 22.2422 17.5312C 20.8594 17.5312 19.625 17.1953 18.5391 16.5234C 17.4609 15.8438 16.625 14.8789 16.0312 13.6289C 15.4453 12.3789 15.1484 10.9375 15.1406 9.30469L 15.1406 8.34375C 15.1406 6.67969 15.4336 5.21094 16.0195 3.9375C 16.6133 2.66406 17.4453 1.69141 18.5156 1.01953C 19.5938 0.339844 20.8281 0 22.2188 0C 23.6094 0 24.8398 0.335938 25.9102 1.00781C 26.9883 1.67188 27.8203 2.63281 28.4062 3.89062C 28.9922 5.14062 29.2891 6.59766 29.2969 8.26172L 29.2969 9.21094ZM 26.332 8.32031C 26.332 6.42969 25.9727 4.98047 25.2539 3.97266C 24.543 2.96484 23.5312 2.46094 22.2188 2.46094C 20.9375 2.46094 19.9336 2.96484 19.207 3.97266C 18.4883 4.97266 18.1211 6.39062 18.1055 8.22656L 18.1055 9.21094C 18.1055 11.0859 18.4688 12.5352 19.1953 13.5586C 19.9297 14.582 20.9453 15.0938 22.2422 15.0938C 23.5547 15.0938 24.5625 14.5938 25.2656 13.5938C 25.9766 12.5938 26.332 11.1328 26.332 9.21094L 26.332 8.32031Z"/>
<path id="path2_fill" d="M 45.2695 11.7422C 45.0977 13.5625 44.4258 14.9844 43.2539 16.0078C 42.082 17.0234 40.5234 17.5312 38.5781 17.5312C 37.2188 17.5312 36.0195 17.2109 34.9805 16.5703C 33.9492 15.9219 33.1523 15.0039 32.5898 13.8164C 32.0273 12.6289 31.7344 11.25 31.7109 9.67969L 31.7109 8.08594C 31.7109 6.47656 31.9961 5.05859 32.5664 3.83203C 33.1367 2.60547 33.9531 1.66016 35.0156 0.996094C 36.0859 0.332031 37.3203 0 38.7188 0C 40.6016 0 42.1172 0.511719 43.2656 1.53516C 44.4141 2.55859 45.082 4.00391 45.2695 5.87109L 42.3164 5.87109C 42.1758 4.64453 41.8164 3.76172 41.2383 3.22266C 40.668 2.67578 39.8281 2.40234 38.7188 2.40234C 37.4297 2.40234 36.4375 2.875 35.7422 3.82031C 35.0547 4.75781 34.7031 6.13672 34.6875 7.95703L 34.6875 9.46875C 34.6875 11.3125 35.0156 12.7188 35.6719 13.6875C 36.3359 14.6562 37.3047 15.1406 38.5781 15.1406C 39.7422 15.1406 40.6172 14.8789 41.2031 14.3555C 41.7891 13.832 42.1602 12.9609 42.3164 11.7422L 45.2695 11.7422Z"/>
<path id="path3_fill" d="M 53.8008 6.39844L 57.3867 0.234375L 60.8086 0.234375L 55.6523 8.69531L 60.9258 17.2969L 57.4688 17.2969L 53.8008 11.0391L 50.1211 17.2969L 46.6758 17.2969L 51.9609 8.69531L 46.793 0.234375L 50.2148 0.234375L 53.8008 6.39844Z"/>
<path id="path4_fill" d="M 122.815 32.4948L 97.2425 4.94845L 92.6907 0L 31.0348 0L 31.0348 48.6598L 0 48.6598L 0 103.67L 31.0348 103.67L 31.0348 128L 127.781 128L 127.781 37.9381L 127.781 37.8557L 122.815 32.4948ZM 91.3666 6.35052L 116.36 32.9897L 91.3666 32.9897L 91.3666 6.35052L 91.3666 6.35052ZM 4.96557 98.7216L 4.96557 53.6082L 82.7596 53.6082L 82.7596 98.7216L 4.96557 98.7216ZM 122.815 123.052L 36.0004 123.052L 36.0004 103.67L 87.7251 103.67L 87.7251 48.6598L 36.0004 48.6598L 36.0004 4.94845L 86.401 4.94845L 86.401 37.9381L 122.815 37.9381L 122.815 123.052Z"/>
</defs>
</svg>
