<svg width="17" height="21" viewBox="0 0 17 21" version="1.1" xmlns="http://www.w3.org/2000/svg" xmlns:xlink="http://www.w3.org/1999/xlink">
<title>Group</title>
<desc>Created using Figma</desc>
<g id="Canvas" transform="translate(-17697 -38658)">
<g id="Group">
<g id="Arrow">
<use xlink:href="#path0_stroke" transform="matrix(-4.37114e-08 1 -1 -4.37114e-08 17705 38658)" fill="#ffffff"/>
</g>
<g id="Line">
<use xlink:href="#path1_stroke" transform="translate(17697 38679)" fill="#ffffff"/>
</g>
</g>
</g>
<defs>
<path id="path0_stroke" d="M 18.7071 0.707107C 19.0976 0.316582 19.0976 -0.316582 18.7071 -0.707107L 12.3431 -7.07107C 11.9526 -7.46159 11.3195 -7.46159 10.9289 -7.07107C 10.5384 -6.68054 10.5384 -6.04738 10.9289 -5.65685L 16.5858 0L 10.9289 5.65685C 10.5384 6.04738 10.5384 6.68054 10.9289 7.07107C 11.3195 7.46159 11.9526 7.46159 12.3431 7.07107L 18.7071 0.707107ZM 0 1L 18 1L 18 -1L 0 -1L 0 1Z"/>
<path id="path1_stroke" d="M 0 0L 17 0L 17 -2L 0 -2L 0 0Z"/>
</defs>
</svg>
