<svg width="16" height="29" viewBox="0 0 16 29" version="1.1" xmlns="http://www.w3.org/2000/svg" xmlns:xlink="http://www.w3.org/1999/xlink">
<title>Arrow</title>
<desc>Created using Figma</desc>
<g id="Canvas" transform="translate(-20423 -47152)">
<g id="Arrow">
<use xlink:href="#path0_stroke" transform="matrix(5.13727e-08 1 -1 5.13727e-08 20431 47152)" fill="#FF5919"/>
</g>
</g>
<defs>
<path id="path0_stroke" d="M 28.7071 0.707107C 29.0976 0.316582 29.0976 -0.316582 28.7071 -0.707107L 22.3431 -7.07107C 21.9526 -7.46159 21.3195 -7.46159 20.9289 -7.07107C 20.5384 -6.68054 20.5384 -6.04738 20.9289 -5.65685L 26.5858 0L 20.9289 5.65685C 20.5384 6.04738 20.5384 6.68054 20.9289 7.07107C 21.3195 7.46159 21.9526 7.46159 22.3431 7.07107L 28.7071 0.707107ZM 0 1L 28 1L 28 -1L 0 -1L 0 1Z"/>
</defs>
</svg>
