<svg width="1054" height="309" viewBox="0 0 1054 309" version="1.1" xmlns="http://www.w3.org/2000/svg" xmlns:xlink="http://www.w3.org/1999/xlink">
<title>Ellipse 2</title>
<desc>Created using Figma</desc>
<g id="Canvas" transform="translate(-12376 -35764)">
<g id="Ellipse 2">
<use xlink:href="#path0_stroke" transform="translate(12377.2 35765)" fill="#000000" fill-opacity="0.1"/>
</g>
</g>
<defs>
<path id="path0_stroke" d="M 521.65 0.303775L 521.635 0.803559L 521.65 0.303775ZM 0.45348 304.211C 0.952867 303.135 1.45577 302.062 1.96291 300.99L 1.05887 300.562C 0.550992 301.636 0.0466314 302.713 -0.45348 303.789L 0.45348 304.211ZM 5.0481 294.579C 6.09069 292.45 7.14789 290.329 8.22121 288.211L 7.32927 287.759C 6.2544 289.879 5.19413 292.007 4.15002 294.139L 5.0481 294.579ZM 11.4816 281.888C 12.5823 279.788 13.6975 277.696 14.8286 275.609L 13.9494 275.133C 12.8167 277.223 11.6983 279.321 10.5959 281.423L 11.4816 281.888ZM 18.2614 269.378C 19.4193 267.309 20.5914 265.249 21.7793 263.194L 20.9136 262.693C 19.7239 264.752 18.5484 266.818 17.3888 268.889L 18.2614 269.378ZM 25.3819 257.059C 26.5962 255.023 27.8245 252.996 29.0685 250.974L 28.2168 250.45C 26.971 252.475 25.7391 254.508 24.5231 256.547L 25.3819 257.059ZM 32.8383 244.94C 34.1079 242.938 35.3913 240.945 36.6903 238.958L 35.8533 238.411C 34.5524 240.401 33.2653 242.4 31.9939 244.404L 32.8383 244.94ZM 40.6242 233.03C 41.9483 231.065 43.286 229.108 44.6392 227.157L 43.8176 226.587C 42.4624 228.541 41.1208 230.503 39.7948 232.472L 40.6242 233.03ZM 48.7348 221.339C 50.1124 219.41 51.5033 217.491 52.9097 215.578L 52.104 214.986C 50.6956 216.902 49.3006 218.826 47.921 220.758L 48.7348 221.339ZM 57.1634 209.876C 58.5935 207.986 60.0368 206.105 61.4953 204.232L 60.7063 203.618C 59.2456 205.494 57.7981 207.38 56.366 209.272L 57.1634 209.876ZM 65.9047 198.648C 66.6459 197.723 67.39 196.8 68.1382 195.879L 67.362 195.249C 66.6127 196.171 65.8664 197.096 65.1242 198.023L 65.9047 198.648ZM 194.515 84.1519C 195.505 83.5324 196.496 82.9162 197.491 82.3025L 196.966 81.4514C 195.97 82.066 194.975 82.6839 193.985 83.3043L 194.515 84.1519ZM 203.481 78.6642C 205.482 77.4665 207.494 76.2813 209.518 75.1069L 209.017 74.2419C 206.989 75.418 204.972 76.6067 202.967 77.806L 203.481 78.6642ZM 215.604 71.6311C 217.637 70.4878 219.68 69.357 221.736 68.2373L 221.257 67.3591C 219.199 68.4804 217.15 69.6145 215.114 70.7595L 215.604 71.6311ZM 227.913 64.9257C 229.976 63.8375 232.048 62.7619 234.132 61.6976L 233.678 60.8069C 231.59 61.8728 229.512 62.9515 227.446 64.0412L 227.913 64.9257ZM 240.395 58.5525C 242.486 57.5196 244.586 56.4994 246.699 55.4907L 246.268 54.5883C 244.153 55.5985 242.046 56.6215 239.952 57.6559L 240.395 58.5525ZM 253.043 52.5125C 255.161 51.5354 257.288 50.5711 259.426 49.6184L 259.02 48.705C 256.878 49.659 254.745 50.626 252.624 51.6045L 253.043 52.5125ZM 265.846 46.8089C 267.989 45.8879 270.14 44.9798 272.303 44.0835L 271.92 43.1597C 269.754 44.0573 267.597 44.9679 265.451 45.8901L 265.846 46.8089ZM 278.795 41.4423C 280.96 40.5776 283.135 39.7257 285.321 38.8857L 284.962 37.9523C 282.773 38.7935 280.593 39.6477 278.424 40.5136L 278.795 41.4423ZM 291.878 36.4142C 294.065 35.6059 296.26 34.8105 298.467 34.0271L 298.132 33.0847C 295.923 33.8692 293.721 34.6668 291.531 35.4762L 291.878 36.4142ZM 305.087 31.7243C 306.192 31.3478 307.299 30.9747 308.408 30.6045L 308.092 29.6559C 306.981 30.0267 305.871 30.4008 304.765 30.7777L 305.087 31.7243ZM 477.767 0.89878C 478.984 0.85692 480.201 0.818351 481.421 0.783041L 481.392 -0.21654C 480.171 -0.18119 478.951 -0.142534 477.733 -0.100629L 477.767 0.89878ZM 488.732 0.611264C 491.162 0.56733 493.598 0.536367 496.044 0.518439L 496.036 -0.481534C 493.588 -0.463583 491.147 -0.432552 488.714 -0.388573L 488.732 0.611264ZM 503.356 0.503757C 505.787 0.511773 508.223 0.532616 510.668 0.566404L 510.682 -0.4335C 508.235 -0.467321 505.793 -0.48821 503.359 -0.496237L 503.356 0.503757ZM 517.98 0.705551C 519.196 0.735033 520.414 0.767687 521.635 0.803559L 521.664 -0.19601C 520.443 -0.231918 519.222 -0.264642 518.004 -0.294156L 517.98 0.705551ZM 521.635 0.803559C 522.817 0.838313 523.997 0.875275 525.176 0.914469L 525.209 -0.0849788C 524.03 -0.124204 522.848 -0.161227 521.664 -0.19601L 521.635 0.803559ZM 532.257 1.17744C 534.624 1.27459 536.983 1.38071 539.335 1.49582L 539.384 0.497019C 537.03 0.381812 534.667 0.275518 532.298 0.178278L 532.257 1.17744ZM 546.411 1.8703C 548.776 2.00497 551.133 2.1487 553.483 2.30155L 553.548 1.30366C 551.196 1.15068 548.835 1.00671 546.468 0.871918L 546.411 1.8703ZM 560.552 2.79024C 562.915 2.96333 565.269 3.14557 567.616 3.33706L 567.697 2.34038C 565.348 2.14872 562.99 1.96616 560.625 1.79291L 560.552 2.79024ZM 574.675 3.9427C 575.853 4.04876 577.029 4.15709 578.203 4.2678L 578.297 3.27221C 577.122 3.16141 575.944 3.05288 574.765 2.94673L 574.675 3.9427ZM 745.087 39.3462C 746.153 39.7132 747.216 40.0825 748.277 40.4543L 748.608 39.5105C 747.545 39.1383 746.48 38.7682 745.413 38.4007L 745.087 39.3462ZM 754.639 42.7222C 756.761 43.4919 758.872 44.2707 760.975 45.0594L 761.326 44.1231C 759.221 43.3334 757.104 42.5528 754.979 41.7821L 754.639 42.7222ZM 767.285 47.4663C 769.389 48.2826 771.483 49.1079 773.567 49.9433L 773.939 49.015C 771.852 48.1786 769.754 47.3512 767.646 46.534L 767.285 47.4663ZM 779.821 52.4907C 781.907 53.354 783.981 54.2264 786.046 55.1089L 786.439 54.1893C 784.372 53.3057 782.292 52.4311 780.204 51.5667L 779.821 52.4907ZM 792.241 57.7982C 794.306 58.709 796.359 59.6289 798.404 60.5589L 798.818 59.6487C 796.771 58.7175 794.712 57.7952 792.644 56.8832L 792.241 57.7982ZM 804.534 63.3914C 806.577 64.3501 808.608 65.3178 810.63 66.2958L 811.065 65.3955C 809.041 64.4163 807.004 63.446 804.958 62.4861L 804.534 63.3914ZM 816.691 69.2723C 818.711 70.2792 820.719 71.2951 822.717 72.3212L 823.173 71.4317C 821.173 70.4042 819.16 69.3856 817.138 68.3774L 816.691 69.2723ZM 828.704 75.4426C 830.699 76.4979 832.681 77.5621 834.654 78.6367L 835.132 77.7585C 833.157 76.6825 831.169 75.6154 829.172 74.5587L 828.704 75.4426ZM 840.563 81.9034C 841.546 82.4547 842.526 83.008 843.503 83.5641L 843.997 82.695C 843.019 82.1381 842.037 81.5833 841.052 81.0312L 840.563 81.9034ZM 972.376 187.382C 973.171 188.277 973.961 189.175 974.748 190.075L 975.501 189.417C 974.713 188.515 973.92 187.615 973.124 186.718L 972.376 187.382ZM 979.431 195.514C 980.981 197.341 982.514 199.176 984.033 201.022L 984.805 200.386C 983.284 198.538 981.746 196.697 980.194 194.868L 979.431 195.514ZM 988.553 206.597C 990.048 208.469 991.526 210.349 992.989 212.239L 993.78 211.626C 992.314 209.733 990.831 207.848 989.335 205.973L 988.553 206.597ZM 997.342 217.946C 998.78 219.861 1000.2 221.784 1001.61 223.717L 1002.42 223.128C 1001.01 221.192 999.582 219.264 998.142 217.345L 997.342 217.946ZM 1005.79 229.55C 1007.17 231.507 1008.53 233.471 1009.88 235.446L 1010.71 234.881C 1009.36 232.904 1007.99 230.934 1006.61 228.974L 1005.79 229.55ZM 1013.89 241.401C 1015.21 243.398 1016.52 245.401 1017.81 247.415L 1018.65 246.875C 1017.36 244.859 1016.05 242.849 1014.72 240.849L 1013.89 241.401ZM 1021.63 253.486C 1022.9 255.521 1024.14 257.563 1025.37 259.614L 1026.23 259.099C 1025 257.045 1023.75 254.997 1022.48 252.959L 1021.63 253.486ZM 1029.02 265.796C 1030.22 267.867 1031.4 269.944 1032.57 272.031L 1033.44 271.542C 1032.27 269.452 1031.09 267.368 1029.88 265.294L 1029.02 265.796ZM 1036.03 278.318C 1037.17 280.423 1038.3 282.534 1039.4 284.655L 1040.29 284.192C 1039.18 282.068 1038.06 279.95 1036.91 277.842L 1036.03 278.318ZM 1042.68 291.04C 1043.76 293.178 1044.82 295.322 1045.86 297.474L 1046.76 297.037C 1045.72 294.881 1044.65 292.732 1043.57 290.59L 1042.68 291.04ZM 1048.95 303.952C 1049.46 305.036 1049.96 306.121 1050.46 307.209L 1051.37 306.791C 1050.87 305.702 1050.37 304.614 1049.86 303.529L 1048.95 303.952ZM 521.65 0.303775L 521.62 1.30334L 521.65 0.303775ZM 0.906961 304.421C 1.40598 303.347 1.90815 302.275 2.41493 301.203L 0.606846 300.348C 0.0986042 301.423 -0.406486 302.501 -0.906961 303.579L 0.906961 304.421ZM 5.49714 294.799C 6.53897 292.672 7.59464 290.553 8.66718 288.437L 6.88329 287.533C 5.80765 289.655 4.74585 291.786 3.70099 293.919L 5.49714 294.799ZM 11.9244 282.12C 13.0244 280.022 14.1379 277.933 15.2682 275.847L 13.5098 274.895C 12.3762 276.986 11.2563 279.087 10.1531 281.191L 11.9244 282.12ZM 18.6977 269.622C 19.8547 267.555 21.0251 265.498 22.2122 263.444L 20.4807 262.443C 19.2902 264.503 18.113 266.572 16.9526 268.645L 18.6977 269.622ZM 25.8113 257.315C 27.0247 255.281 28.2512 253.256 29.4943 251.236L 27.7909 250.188C 26.5442 252.214 25.3106 254.25 24.0937 256.29L 25.8113 257.315ZM 33.2605 245.207C 34.5292 243.207 35.8107 241.218 37.1088 239.232L 35.4348 238.138C 34.133 240.129 32.844 242.13 31.5717 244.136L 33.2605 245.207ZM 41.0389 233.31C 42.3621 231.345 43.6978 229.391 45.0501 227.442L 43.4068 226.302C 42.0506 228.257 40.7071 230.222 39.3801 232.193L 41.0389 233.31ZM 49.1416 221.63C 50.5182 219.703 51.9072 217.786 53.3125 215.875L 51.7012 214.69C 50.2918 216.607 48.8948 218.534 47.5142 220.467L 49.1416 221.63ZM 57.5621 210.177C 58.9912 208.289 60.4324 206.411 61.8898 204.539L 60.3117 203.311C 58.85 205.188 57.4005 207.077 55.9672 208.971L 57.5621 210.177ZM 66.295 198.961C 67.0356 198.036 67.7786 197.115 68.5263 196.195L 66.9739 194.934C 66.2241 195.857 65.4767 196.783 64.7339 197.711L 66.295 198.961ZM 194.781 84.5757C 195.769 83.9566 196.759 83.3413 197.754 82.7281L 196.704 81.0258C 195.707 81.6409 194.711 82.2597 193.719 82.8805L 194.781 84.5757ZM 203.737 79.0933C 205.738 77.8965 207.746 76.7129 209.769 75.5394L 208.766 73.8094C 206.737 74.9863 204.717 76.1767 202.71 77.377L 203.737 79.0933ZM 215.849 72.0669C 217.881 70.9244 219.921 69.7952 221.975 68.6763L 221.018 66.92C 218.958 68.0422 216.906 69.1778 214.869 70.3236L 215.849 72.0669ZM 228.146 65.368C 230.207 64.2805 232.277 63.2064 234.36 62.1429L 233.45 60.3616C 231.361 61.4282 229.28 62.5084 227.213 63.599L 228.146 65.368ZM 240.616 59.0008C 242.706 57.9686 244.803 56.9499 246.914 55.9419L 246.053 54.1371C 243.936 55.148 241.826 56.1725 239.731 57.2076L 240.616 59.0008ZM 253.253 52.9665C 255.369 51.9901 257.493 51.0272 259.63 50.0751L 258.816 48.2482C 256.673 49.203 254.537 50.1714 252.415 51.1505L 253.253 52.9665ZM 266.044 47.2682C 268.185 46.3479 270.333 45.4411 272.494 44.5454L 271.728 42.6978C 269.561 43.596 267.401 44.5079 265.254 45.4308L 266.044 47.2682ZM 278.98 41.9067C 281.144 41.0426 283.316 40.1919 285.5 39.3524L 284.783 37.4856C 282.592 38.3273 280.409 39.1827 278.238 40.0493L 278.98 41.9067ZM 292.051 36.8832C 294.237 36.0755 296.429 35.2812 298.634 34.4983L 297.965 32.6135C 295.754 33.3986 293.55 34.1973 291.358 35.0072L 292.051 36.8832ZM 305.248 32.1976C 306.352 31.8214 307.458 31.4488 308.566 31.0788L 307.934 29.1816C 306.822 29.5526 305.71 29.9272 304.603 30.3045L 305.248 32.1976ZM 477.784 1.39848C 479 1.35665 480.216 1.31812 481.436 1.28283L 481.378 -0.716331C 480.156 -0.68096 478.934 -0.642261 477.716 -0.600333L 477.784 1.39848ZM 488.741 1.11118C 491.17 1.06727 493.603 1.03634 496.047 1.01843L 496.033 -0.98152C 493.583 -0.963558 491.139 -0.932493 488.705 -0.888491L 488.741 1.11118ZM 503.354 1.00375C 505.784 1.01176 508.218 1.03258 510.662 1.06636L 510.689 -0.933452C 508.24 -0.96729 505.796 -0.988201 503.361 -0.996234L 503.354 1.00375ZM 517.968 1.2054C 519.184 1.23487 520.4 1.26749 521.62 1.30334L 521.679 -0.695794C 520.457 -0.731721 519.235 -0.764479 518.016 -0.794009L 517.968 1.2054ZM 521.62 1.30334C 522.802 1.33808 523.981 1.37501 525.159 1.41419L 525.226 -0.584703C 524.046 -0.623944 522.863 -0.660996 521.679 -0.695794L 521.62 1.30334ZM 532.236 1.67702C 534.603 1.77413 536.96 1.88016 539.311 1.99523L 539.409 -0.00238376C 537.053 -0.117638 534.689 -0.22402 532.318 -0.321302L 532.236 1.67702ZM 546.383 2.36949C 548.747 2.50411 551.102 2.64771 553.451 2.80049L 553.581 0.804709C 551.228 0.651667 548.865 0.507573 546.496 0.372727L 546.383 2.36949ZM 560.515 3.2889C 562.877 3.46192 565.229 3.644 567.575 3.83541L 567.738 1.84203C 565.388 1.65029 563.027 1.46757 560.661 1.29425L 560.515 3.2889ZM 574.631 4.44069C 575.808 4.5467 576.983 4.65493 578.156 4.76559L 578.344 2.77442C 577.168 2.66357 575.99 2.55494 574.81 2.44875L 574.631 4.44069ZM 744.924 39.8189C 745.99 40.1858 747.051 40.5546 748.112 40.9262L 748.773 39.0387C 747.71 38.6662 746.643 38.2956 745.576 37.9279L 744.924 39.8189ZM 754.468 43.1923C 756.589 43.9615 758.698 44.7393 760.799 45.5276L 761.502 43.655C 759.395 42.8648 757.276 42.0832 755.15 41.3121L 754.468 43.1923ZM 767.104 47.9325C 769.207 48.7482 771.298 49.5725 773.381 50.4074L 774.125 48.5509C 772.037 47.714 769.936 46.8856 767.827 46.0678L 767.104 47.9325ZM 779.63 52.9526C 781.715 53.8154 783.786 54.6867 785.85 55.5686L 786.636 53.7295C 784.567 52.8454 782.485 51.9697 780.395 51.1047L 779.63 52.9526ZM 792.039 58.2557C 794.103 59.1659 796.154 60.0846 798.197 61.014L 799.025 59.1936C 796.977 58.2618 794.915 57.3383 792.846 56.4257L 792.039 58.2557ZM 804.321 63.844C 806.363 64.8021 808.392 65.7686 810.412 66.7459L 811.283 64.9454C 809.257 63.9656 807.218 62.994 805.171 62.0334L 804.321 63.844ZM 816.468 69.7198C 818.487 70.726 820.492 71.7405 822.488 72.766L 823.402 70.9869C 821.4 69.9587 819.384 68.9388 817.361 67.9299L 816.468 69.7198ZM 828.471 75.8846C 830.464 76.9391 832.443 78.0019 834.414 79.0757L 835.371 77.3195C 833.395 76.2427 831.405 75.1742 829.406 74.1167L 828.471 75.8846ZM 840.319 82.3395C 841.301 82.8904 842.279 83.443 843.255 83.9987L 844.245 82.2604C 843.265 81.7032 842.282 81.1476 841.297 80.5952L 840.319 82.3395ZM 972.002 187.714C 972.796 188.609 973.585 189.505 974.372 190.404L 975.877 189.088C 975.089 188.186 974.295 187.284 973.498 186.386L 972.002 187.714ZM 979.05 195.838C 980.598 197.663 982.129 199.495 983.647 201.339L 985.191 200.068C 983.669 198.219 982.128 196.375 980.575 194.544L 979.05 195.838ZM 988.162 206.909C 989.656 208.78 991.132 210.656 992.594 212.545L 994.175 211.32C 992.708 209.426 991.223 207.537 989.725 205.661L 988.162 206.909ZM 996.942 218.246C 998.379 220.16 999.799 222.08 1001.2 224.011L 1002.82 222.834C 1001.41 220.896 999.983 218.965 998.541 217.045L 996.942 218.246ZM 1005.38 229.838C 1006.76 231.794 1008.12 233.755 1009.47 235.728L 1011.12 234.599C 1009.77 232.62 1008.4 230.647 1007.02 228.686L 1005.38 229.838ZM 1013.47 241.677C 1014.79 243.672 1016.1 245.673 1017.39 247.685L 1019.07 246.606C 1017.78 244.587 1016.47 242.574 1015.14 240.573L 1013.47 241.677ZM 1021.21 253.75C 1022.47 255.783 1023.71 257.821 1024.94 259.871L 1026.66 258.842C 1025.42 256.786 1024.17 254.735 1022.91 252.696L 1021.21 253.75ZM 1028.59 266.047C 1029.79 268.116 1030.97 270.19 1032.14 272.275L 1033.88 271.297C 1032.71 269.206 1031.52 267.119 1030.32 265.043L 1028.59 266.047ZM 1035.6 278.556C 1036.73 280.659 1037.85 282.768 1038.96 284.886L 1040.73 283.96C 1039.62 281.835 1038.5 279.714 1037.35 277.604L 1035.6 278.556ZM 1042.23 291.265C 1043.31 293.402 1044.37 295.542 1045.41 297.692L 1047.21 296.818C 1046.17 294.661 1045.1 292.508 1044.02 290.365L 1042.23 291.265ZM 1048.5 304.164C 1049.01 305.247 1049.51 306.331 1050.01 307.417L 1051.82 306.583C 1051.32 305.493 1050.82 304.403 1050.31 303.317L 1048.5 304.164Z"/>
</defs>
</svg>
