<svg width="120" height="28" viewBox="0 0 120 28" version="1.1" xmlns="http://www.w3.org/2000/svg" xmlns:xlink="http://www.w3.org/1999/xlink">
<title>made</title>
<desc>Created using Figma</desc>
<g id="Canvas" transform="translate(-13539 -45646)">
<g id="made" opacity="0.4">
<g id="Group">
<g id="Group">
<g id="Vector">
<use xlink:href="#path0_fill" transform="translate(13539 45646.2)" fill="#353535"/>
</g>
</g>
<g id="Group">
<g id="Vector">
<use xlink:href="#path1_fill" transform="translate(13561 45646.1)" fill="#353535"/>
</g>
<g id="Vector">
<use xlink:href="#path2_fill" transform="translate(13615.8 45646.1)" fill="#353535"/>
</g>
<g id="Vector">
<use xlink:href="#path3_fill" transform="translate(13598 45646.1)" fill="#353535"/>
</g>
<g id="Vector">
<use xlink:href="#path4_fill" transform="translate(13624 45646.1)" fill="#353535"/>
</g>
<g id="Vector">
<use xlink:href="#path5_fill" transform="translate(13649.8 45646)" fill="#353535"/>
</g>
<g id="Vector">
<use xlink:href="#path6_fill" transform="translate(13570 45651.3)" fill="#353535"/>
</g>
</g>
</g>
</g>
</g>
<defs>
<path id="path0_fill" d="M 21.486 2.96406e-09L 0 2.96406e-09L 0 27.4502L 5.62858 27.4502L 5.62858 20.3888L 16.7234 20.3888L 16.7234 15.217L 5.62858 15.217L 5.62858 5.12206L 16.6151 5.12206L 16.7234 5.07233L 21.486 0.646473L 22.2437 2.96406e-09L 21.486 2.96406e-09Z"/>
<path id="path1_fill" d="M 1.73187 3.53074L -8.25821e-07 5.17178L -8.25821e-07 27.5L 5.62858 27.5L 5.62858 5.92812e-09L 1.73187 3.53074Z"/>
<path id="path2_fill" d="M -3.30328e-06 5.12206L -3.30328e-06 27.5L 5.62858 27.5L 5.62858 1.48203e-09L -3.30328e-06 5.12206Z"/>
<path id="path3_fill" d="M 5.62858 16.2613L 5.62858 10.3436L 8.92996 10.3436L 14.5585 5.17179L 5.62858 5.17179L 5.62858 1.48203e-09L 0 1.48203e-09L 0 16.2613C 0 19.792 1.0283 22.5271 3.03077 24.3671C 6.06155 27.1519 10.6618 27.5 13.9091 27.5L 13.9091 22.3282C 10.4453 22.3282 8.17227 21.7812 7.03573 20.7369C 6.06155 19.8418 5.62858 18.3996 5.62858 16.2613Z"/>
<path id="path4_fill" d="M 19.1588 17.5045C 22.0272 14.8689 22.4602 12.6311 22.4602 10.2938C 22.4602 4.62477 17.427 7.41016e-10 11.2572 7.41016e-10C 5.08738 7.41016e-10 0.0541243 4.62477 0.0541243 10.2938C 0.0541243 13.7748 1.89423 16.9078 4.97913 18.8472L 9.09233 15.0678C 6.76513 14.2721 5.62858 12.2333 5.62858 10.2938C 5.62858 7.4593 8.17227 5.12206 11.2572 5.12206C 14.3421 5.12206 16.7775 7.4593 16.8857 10.2938C 16.9399 11.9349 16.2904 13.1781 10.0124 18.698L -1.53821e-14 27.6989L 22.352 27.6989L 22.352 22.5768L 13.4761 22.5768L 19.1588 17.5045Z"/>
<path id="path5_fill" d="M 4.60028 8.65279C 7.14095 8.65279 9.20057 6.7158 9.20057 4.3264C 9.20057 1.93699 7.14095 0 4.60028 0C 2.05961 0 -3.30328e-06 1.93699 -3.30328e-06 4.3264C -3.30328e-06 6.7158 2.05961 8.65279 4.60028 8.65279Z"/>
<path id="path6_fill" d="M 24.6792 11.3381C 24.6792 5.07233 19.1588 -9.485e-08 12.3396 -9.485e-08C 5.52034 -9.485e-08 8.25821e-07 5.07233 8.25821e-07 11.3381C 8.25821e-07 17.604 5.52034 22.6763 12.3396 22.6763C 14.8292 22.6763 17.1564 21.9801 19.0506 20.8363L 19.0506 22.3282L 24.6792 22.3282L 24.6792 11.5868C 24.6792 11.4873 24.6792 11.4376 24.6792 11.3381ZM 12.3396 17.5045C 8.60524 17.5045 5.62858 14.7197 5.62858 11.3381C 5.62858 7.95659 8.60524 5.12206 12.3396 5.12206C 16.0739 5.12206 19.0506 7.90686 19.0506 11.2884C 19.0506 14.67 16.0198 17.5045 12.3396 17.5045Z"/>
</defs>
</svg>
