<svg width="36" height="30" viewBox="0 0 36 30" version="1.1" xmlns="http://www.w3.org/2000/svg" xmlns:xlink="http://www.w3.org/1999/xlink">
<title>&#226;&#128;&#156;</title>
<desc>Created using Figma</desc>
<g id="Canvas" transform="translate(-29963 -38799)">
<g id="&#226;&#128;&#156;">
<use xlink:href="#path0_fill" transform="translate(29963 38799)" fill="#27AE60"/>
</g>
</g>
<defs>
<path id="path0_fill" d="M 7.67213 30C 5.31148 30 3.42295 29.2941 2.00656 27.8823C 0.668852 26.3922 0 24.3529 0 21.7647C 0 12.1176 4.32787 4.86274 12.9836 0L 14.1639 1.76471C 11.0164 3.88235 8.65574 6.23529 7.08197 8.82353C 5.5082 11.3333 4.72131 14.2745 4.72131 17.6471L 8.2623 16.4706C 10.0721 16.4706 11.6066 17.098 12.8656 18.3529C 14.1246 19.6078 14.7541 21.1373 14.7541 22.9412C 14.7541 24.9804 14.0852 26.6667 12.7475 28C 11.4098 29.3333 9.71803 30 7.67213 30ZM 28.918 30C 26.5574 30 24.6689 29.2941 23.2525 27.8823C 21.9148 26.3922 21.2459 24.3529 21.2459 21.7647C 21.2459 12.1176 25.5738 4.86274 34.2295 0L 35.4098 1.76471C 32.2623 3.88235 29.9016 6.23529 28.3279 8.82353C 26.7541 11.3333 25.9672 14.2745 25.9672 17.6471L 29.5082 16.4706C 31.318 16.4706 32.8525 17.098 34.1115 18.3529C 35.3705 19.6078 36 21.1373 36 22.9412C 36 24.9804 35.3312 26.6667 33.9934 28C 32.6557 29.3333 30.9639 30 28.918 30Z"/>
</defs>
</svg>
