<svg width="80" height="80" viewBox="0 0 80 80" version="1.1" xmlns="http://www.w3.org/2000/svg" xmlns:xlink="http://www.w3.org/1999/xlink">
<title>&#208;&#176;&#208;&#178;&#208;&#176;&#209;&#130;&#208;&#176;&#209;&#128;&#208;&#186;&#208;&#176; &#208;&#182;&#208;&#181;&#208;&#189;&#209;&#137;&#208;&#184;&#208;&#189;&#208;&#176;</title>
<desc>Created using Figma</desc>
<g id="Canvas" transform="translate(-29940 -39121)">
<g id="&#208;&#176;&#208;&#178;&#208;&#176;&#209;&#130;&#208;&#176;&#209;&#128;&#208;&#186;&#208;&#176; &#208;&#182;&#208;&#181;&#208;&#189;&#209;&#137;&#208;&#184;&#208;&#189;&#208;&#176;">
<g id="Ellipse">
<use xlink:href="#path0_fill" transform="translate(29940 39121)" fill="#F7FAF0"/>
</g>
<g id="Group">
<g id="Group">
<g id="Vector">
<use xlink:href="#path1_fill" transform="translate(29977.2 39163.1)" fill="#27AE60"/>
</g>
<g id="Vector">
<use xlink:href="#path2_fill" transform="translate(29974.7 39154.8)" fill="#27AE60"/>
</g>
<g id="Vector">
<use xlink:href="#path3_fill" transform="translate(29983.8 39154.8)" fill="#27AE60"/>
</g>
<g id="Vector">
<use xlink:href="#path4_fill" transform="translate(29972.6 39151.6)" fill="#27AE60"/>
</g>
<g id="Vector">
<use xlink:href="#path5_fill" transform="translate(29984 39151.6)" fill="#27AE60"/>
</g>
<g id="Vector">
<use xlink:href="#path6_fill" transform="translate(29962 39135.7)" fill="#27AE60"/>
</g>
</g>
</g>
</g>
</g>
<defs>
<path id="path0_fill" d="M 80 40C 80 62.0914 62.0914 80 40 80C 17.9086 80 0 62.0914 0 40C 0 17.9086 17.9086 0 40 0C 62.0914 0 80 17.9086 80 40Z"/>
<path id="path1_fill" d="M 6.3187 -1.24696e-06L 4.69852 -1.24696e-06C 4.69852 0.572042 3.96944 1.06237 3.15935 1.06237C 2.34926 1.06237 1.62018 0.572042 1.62018 -1.24696e-06L 6.18049e-07 -1.24696e-06C 6.18049e-07 1.47097 1.37715 2.69678 3.15935 2.69678C 4.94154 2.69678 6.3187 1.47097 6.3187 -1.24696e-06Z"/>
<path id="path2_fill" d="M 1.13412 2.28817C 1.76048 2.28817 2.26825 1.77595 2.26825 1.14409C 2.26825 0.512224 1.76048 0 1.13412 0C 0.507765 0 0 0.512224 0 1.14409C 0 1.77595 0.507765 2.28817 1.13412 2.28817Z"/>
<path id="path3_fill" d="M 1.13412 2.28817C 1.76048 2.28817 2.26825 1.77595 2.26825 1.14409C 2.26825 0.512224 1.76048 0 1.13412 0C 0.507764 0 0 0.512224 0 1.14409C 0 1.77595 0.507764 2.28817 1.13412 2.28817Z"/>
<path id="path4_fill" d="M 3.15934 0C 2.51127 0 1.8632 0.163441 1.21513 0.408602C 0.972105 0.490322 0.810087 0.572042 0.567061 0.653762L 3.09024e-07 0.898924L 0.648069 2.36989L 1.29614 2.04301C 1.45816 1.96129 1.62017 1.87957 1.78219 1.79785C 2.26824 1.63441 2.67329 1.55269 3.15934 1.47097L 3.15934 0Z"/>
<path id="path5_fill" d="M 2.02522 2.12473L 2.59228 2.36989L 3.24036 0.898924L 2.67329 0.653762C 2.43027 0.572042 2.26825 0.490322 2.02522 0.408602C 1.37715 0.163441 0.72908 0 0.0810083 0L 6.18049e-07 1.63441C 0.486054 1.63441 0.972107 1.79785 1.37715 1.96129C 1.70119 1.96129 1.86321 2.04301 2.02522 2.12473Z"/>
<path id="path6_fill" d="M 25.1241 39.6344C 24.557 39.3075 23.3419 36.3656 23.1799 33.8323C 23.3419 33.7505 23.5039 33.6688 23.6659 33.5054C 25.5291 33.6688 27.0683 33.7505 27.6353 33.7505L 27.7974 33.7505C 27.9594 33.7505 28.2024 33.7505 28.3644 33.7505C 30.7137 33.7505 32.5769 32.7699 33.873 30.8903C 37.8425 25.0065 35.2502 11.9312 34.1161 9.56129C 31.7668 4.33118 26.5012 0.245161 21.9647 0C 21.3977 0 20.9926 0.245161 20.5066 0.408602C 20.2635 0.572043 19.9395 0.653763 19.8585 0.653763C 19.7775 0.653763 19.4534 0.490323 19.2104 0.408602C 18.7244 0.163441 18.3193 0 17.9143 0C 14.8359 0 11.8386 0.735484 9.65137 2.12473C 1.7125 6.94624 -1.28483 15.2817 0.497366 26.8043C 0.90241 29.5011 2.03653 31.4624 3.89974 32.6065C 6.81606 34.486 10.5425 33.6688 12.0006 33.2602L 12.0006 33.1785C 12.2437 33.3419 12.5677 33.5871 12.8107 33.7505C 12.6487 36.2839 11.4336 39.471 10.7855 39.7979C 10.7855 39.7979 10.8665 39.7979 10.9475 39.7979L 10.9475 39.8796C 4.79084 41.5957 1.14544 45.6 1.14544 50.6667L 2.76561 50.6667C 2.76561 46.4172 5.76294 43.0667 11.0285 41.4323C 11.8386 43.3935 14.5929 44.8645 17.9953 44.8645C 21.4787 44.8645 24.395 43.3935 25.0431 41.2688C 30.7137 42.8215 33.954 46.2538 33.954 50.6667L 35.5742 50.6667C 35.5742 45.4366 31.6858 41.3505 25.1241 39.6344ZM 8.51725 24.9247L 8.35523 24.3527L 7.78817 24.3527C 7.54514 24.3527 6.65404 24.3527 6.16799 21.9828C 5.84395 20.5118 6.16799 19.3677 6.57303 18.7957C 6.81606 18.5505 6.97808 18.3871 7.14009 18.3871C 7.54514 18.3871 8.27422 18.4688 8.51725 18.5505L 8.76027 17.8151C 11.6766 13.8108 17.9953 11.4409 19.6965 10.9505C 19.8585 11.114 20.1015 11.4409 20.3445 11.686C 22.1267 13.729 25.5291 17.4065 28.5264 18.3054L 28.6075 18.3054C 28.8505 18.2237 29.0935 18.2237 29.3365 18.2237C 29.4985 18.2237 29.7416 18.3054 29.8226 18.4688C 29.9846 18.714 30.5517 19.6129 29.9846 21.9011C 29.4175 24.1892 28.7695 24.1892 28.3644 24.1892L 27.7164 24.1892L 27.5543 24.7613C 26.4202 29.0108 22.9368 33.5054 17.9953 33.5054C 13.1348 33.6688 9.65137 29.0925 8.51725 24.9247ZM 21.8837 1.63441C 25.9342 1.87957 30.5517 5.55699 32.7389 10.2151C 33.873 12.6667 36.0603 24.9247 32.6579 29.9914C 31.6048 31.5441 30.0656 32.2796 27.9594 32.1161C 27.9594 32.1161 27.8784 32.1161 27.7164 32.1161C 27.3923 32.1161 26.5822 32.1161 25.5291 32.0344C 27.2303 30.3183 28.5264 28.0301 29.1745 25.8237C 30.7947 25.4968 31.3618 23.7806 31.7668 22.3097C 32.2528 20.2667 32.0908 18.5505 31.2807 17.4882C 30.7947 16.9161 30.2276 16.5892 29.4986 16.5892C 29.2555 16.5892 29.0125 16.5892 28.7695 16.671C 26.2582 15.6903 23.1799 12.3398 21.7217 10.6237C 21.0736 9.96989 20.8306 9.56129 20.5876 9.39785C 20.1015 8.4172 19.8585 7.35484 19.9395 6.12903C 20.0205 4.82151 20.3445 3.51398 20.9926 1.96129C 21.1546 1.87957 21.2356 1.79785 21.3977 1.79785C 21.3977 1.79785 21.7217 1.63441 21.8837 1.63441ZM 20.5066 2.20645C 20.5876 2.20645 20.6686 2.12473 20.7496 2.12473C 20.6686 2.20645 20.5876 2.28817 20.5066 2.28817L 20.5066 2.20645ZM 4.79084 31.2172C 3.41369 30.3183 2.52259 28.7656 2.11754 26.5591C 0.416357 15.6903 3.17066 8.0086 10.4615 3.51398C 12.4867 2.28817 15.079 1.63441 17.8333 1.63441C 17.9143 1.63441 18.3193 1.79785 18.4813 1.87957C 18.6434 1.96129 18.8054 2.04301 18.9674 2.12473C 18.4003 3.51398 18.0763 4.82151 18.0763 6.12903C 17.9953 7.35484 18.2383 8.58065 18.6434 9.64301C 16.1321 10.4602 10.4615 12.8301 7.46413 16.8344C 7.30211 16.8344 7.14009 16.8344 7.05909 16.8344C 6.41101 16.8344 5.76294 17.1613 5.27689 17.8151C 4.38579 18.8774 4.14277 20.5935 4.54781 22.3097C 5.03386 24.3527 5.84395 25.5785 7.14009 25.8237C 7.78817 27.9484 9.0033 30.1548 10.6235 31.7892C 9.16532 32.1978 6.65404 32.443 4.79084 31.2172ZM 17.9953 43.2301C 14.7549 43.2301 12.4057 41.6774 12.4057 40.3699C 13.3778 38.9806 14.1069 36.3656 14.3499 34.486C 15.484 34.9763 16.7802 35.3032 18.1573 35.3032C 19.4534 35.3032 20.5876 35.0581 21.6407 34.6495C 21.8837 36.529 22.6128 39.0624 23.5849 40.3699L 23.5039 40.3699C 23.5849 41.7591 21.3167 43.2301 17.9953 43.2301Z"/>
</defs>
</svg>
