<svg width="80" height="80" viewBox="0 0 80 80" version="1.1" xmlns="http://www.w3.org/2000/svg" xmlns:xlink="http://www.w3.org/1999/xlink">
<title>&#208;&#176;&#208;&#178;&#209;&#130;&#208;&#176;&#209;&#128;&#208;&#186;&#208;&#176; &#208;&#188;&#209;&#131;&#208;&#182;&#208;&#184;&#208;&#186;</title>
<desc>Created using Figma</desc>
<g id="Canvas" transform="translate(-30444 -40388)">
<g id="&#208;&#176;&#208;&#178;&#209;&#130;&#208;&#176;&#209;&#128;&#208;&#186;&#208;&#176; &#208;&#188;&#209;&#131;&#208;&#182;&#208;&#184;&#208;&#186;">
<g id="Ellipse">
<use xlink:href="#path0_fill" transform="translate(30444 40388)" fill="#F7FAF0"/>
</g>
<g id="Group">
<g id="Group">
<g id="Vector">
<use xlink:href="#path1_fill" transform="translate(30481 40429.5)" fill="#27AE60"/>
</g>
<g id="Vector">
<use xlink:href="#path2_fill" transform="translate(30478.5 40421.1)" fill="#27AE60"/>
</g>
<g id="Vector">
<use xlink:href="#path3_fill" transform="translate(30487.7 40421.1)" fill="#27AE60"/>
</g>
<g id="Vector">
<use xlink:href="#path4_fill" transform="translate(30476.3 40417.8)" fill="#27AE60"/>
</g>
<g id="Vector">
<use xlink:href="#path5_fill" transform="translate(30488 40417.8)" fill="#27AE60"/>
</g>
<g id="Vector">
<use xlink:href="#path6_fill" transform="translate(30466.7 40402.7)" fill="#27AE60"/>
</g>
</g>
</g>
</g>
</g>
<defs>
<path id="path0_fill" d="M 80 40C 80 62.0914 62.0914 80 40 80C 17.9086 80 0 62.0914 0 40C 0 17.9086 17.9086 0 40 0C 62.0914 0 80 17.9086 80 40Z"/>
<path id="path1_fill" d="M 3.22236 2.72662C 4.95748 2.72662 6.44473 1.48725 6.44473 0L 4.79223 0C 4.79223 0.578374 4.04861 1.07412 3.22236 1.07412C 2.39612 1.07412 1.65249 0.578374 1.65249 0L -3.15188e-07 0C -3.15188e-07 1.48725 1.40462 2.72662 3.22236 2.72662Z"/>
<path id="path2_fill" d="M 1.15674 2.31349C 1.7956 2.31349 2.31349 1.7956 2.31349 1.15675C 2.31349 0.517893 1.7956 0 1.15674 0C 0.517892 0 0 0.517893 0 1.15675C 0 1.7956 0.517892 2.31349 1.15674 2.31349Z"/>
<path id="path3_fill" d="M 1.15675 2.31349C 1.7956 2.31349 2.3135 1.7956 2.3135 1.15675C 2.3135 0.517893 1.7956 0 1.15675 0C 0.517893 0 0 0.517893 0 1.15675C 0 1.7956 0.517893 2.31349 1.15675 2.31349Z"/>
<path id="path4_fill" d="M 1.90037 1.983C 2.39612 1.81775 2.80924 1.73512 3.30499 1.65249L 3.22236 -6.30377e-07C 2.56137 -6.30377e-07 1.90037 0.165249 1.23937 0.413123C 0.991496 0.495748 0.826247 0.578374 0.578373 0.660998L -1.57594e-07 0.908872L 0.660998 2.39612L 1.322 2.14824C 1.56987 2.14824 1.73512 2.06562 1.90037 1.983Z"/>
<path id="path5_fill" d="M 2.14824 2.23087L 2.72661 2.47874L 3.38761 0.991496L 2.72661 0.660998C 2.56136 0.578373 2.31349 0.495748 2.06561 0.413123C 1.40462 0.165249 0.743621 -6.30376e-07 0.0826243 -6.30376e-07L -6.30375e-07 1.65249C 0.495747 1.65249 0.991495 1.81774 1.40462 1.98299C 1.81774 2.06562 1.98299 2.14824 2.14824 2.23087Z"/>
<path id="path6_fill" d="M 25.2832 38.273C 24.87 37.8598 24.209 35.5464 24.1264 32.2414C 26.2747 30.4236 27.8445 27.8623 28.5881 25.3009C 30.2406 24.9704 30.819 23.2353 31.2321 21.748C 31.6453 19.9303 31.3974 18.3604 30.5711 17.2863C 30.4885 17.121 30.3233 17.0384 30.2406 16.9558C 30.2406 16.8732 30.3233 16.7905 30.3233 16.7905C 31.48 9.68482 30.0754 6.95821 29.3318 6.13196C 29.2491 4.97522 28.6708 3.81847 27.6793 2.9096C 25.6137 0.843982 22.1434 -0.147514 17.6817 0.0177355C 13.9636 0.182985 8.92347 0.926607 6.52735 4.06635C 5.86635 4.89259 5.61848 5.80146 5.28798 6.71034C 5.20536 6.95821 5.12273 7.28871 5.04011 7.53658C 4.29648 9.68482 4.29648 11.7504 4.37911 13.8987C 4.37911 14.3944 4.37911 14.8902 4.37911 15.3859C 4.37911 15.8817 4.37911 16.46 4.46173 16.9558C 4.37911 17.0384 4.29648 17.121 4.29648 17.121C 3.38761 18.1952 3.13974 19.9303 3.55286 21.6654C 4.04861 23.731 4.87486 24.9704 6.19685 25.2183C 6.94047 27.6144 8.34509 30.0105 10.3281 31.8282C 10.3281 35.2159 9.58447 37.9425 9.17134 38.4382C 9.00609 38.5208 8.84084 38.6035 8.67559 38.6861L 8.51034 38.6861L 8.51034 38.7687C 3.63549 40.9996 0 45.9571 0 50.584L 1.65249 50.584C 1.65249 46.7007 4.87486 42.3216 8.92347 40.3386C 10.1628 42.0737 13.3852 43.3131 17.2686 43.3131C 21.3172 43.3131 24.5395 42.0737 25.6963 40.256C 29.9928 42.239 33.3804 46.6181 33.3804 50.6667L 35.0329 50.6667C 35.1155 45.5439 30.819 40.1733 25.2832 38.273ZM 28.4229 7.86708C 28.9186 8.9412 29.4144 11.3373 28.6708 16.0469C 28.3403 16.1295 27.9271 16.1295 27.6793 16.1295C 27.3488 15.5512 26.6052 13.8161 26.1094 12.7419C 25.6963 11.8331 25.4484 11.1721 25.2005 10.6763C 26.9357 9.6022 27.9271 8.69333 28.4229 7.86708ZM 6.94047 7.20608C 7.18835 6.37984 7.43622 5.71884 7.93197 5.05784C 9.91496 2.49648 14.3767 1.83548 17.8469 1.67023C 23.2175 1.50498 25.6137 3.07485 26.6052 3.98372C 27.0183 4.39684 27.3488 4.89259 27.514 5.38834C 27.5966 6.04934 27.5966 7.45396 23.8785 9.6022C 23.7959 9.68482 23.7133 9.68482 23.548 9.76745C 19.2516 12.2462 13.0547 12.6593 8.59297 12.5767C 8.09722 12.2462 6.52735 10.2632 6.6926 8.03233L 6.60998 8.03233C 6.77523 7.70183 6.85785 7.45396 6.94047 7.20608ZM 6.85785 13.2377C 6.94047 13.3203 7.0231 13.4856 7.18835 13.5682C 6.94047 14.3118 6.60998 15.3033 6.52735 16.1295C 6.44473 16.1295 6.3621 16.1295 6.19685 16.1295C 6.19685 16.1295 6.19685 16.1295 6.11423 16.1295C 6.11423 15.8817 6.11423 15.6338 6.11423 15.3859C 6.11423 14.8902 6.11423 14.3944 6.11423 13.8987C 6.11423 13.3203 6.11423 12.7419 6.11423 12.1636C 6.27948 12.4941 6.52735 12.9072 6.85785 13.2377ZM 7.60147 24.3094L 7.43622 23.6484L 6.77523 23.6484C 6.52735 23.6484 5.61848 23.6484 5.12273 21.2523C 4.79223 19.765 5.12273 18.6083 5.53585 18.0299C 5.78373 17.782 5.94898 17.6168 6.11423 17.6168C 6.44473 17.6168 6.77523 17.6994 7.10572 17.782L 7.43622 16.9558L 7.93197 16.8732C 7.84935 16.46 8.26247 14.8902 8.59297 14.0639C 13.1373 14.1466 19.3342 13.7334 23.7959 11.3373C 24.0438 11.8331 24.3743 12.5767 24.6222 13.2377C 26.1094 16.7905 26.4399 17.4515 27.1009 17.6168C 27.1835 17.6168 27.2661 17.6168 27.3488 17.6168L 27.4314 17.782C 27.6793 17.6994 27.9271 17.6994 28.175 17.6168C 28.2576 17.6168 28.2576 17.6168 28.3403 17.6168C 28.6708 17.6168 29.0013 17.782 29.2491 18.1125C 29.5796 18.5257 29.9928 19.4345 29.5796 21.1697C 29.0013 23.4831 28.3403 23.4831 27.9271 23.4831L 27.2661 23.4831L 27.1009 24.0615C 26.0268 28.5233 22.4739 33.0676 17.3512 33.0676C 12.3111 33.0676 8.75822 28.5233 7.60147 24.3094ZM 17.3512 41.6606C 13.9636 41.6606 11.3196 40.6691 10.4107 39.5123C 11.4848 38.1077 11.8153 34.968 11.898 33.0676C 13.4678 34.0591 15.2856 34.7201 17.3512 34.7201C 19.2516 34.7201 20.9867 34.1417 22.4739 33.3155C 22.6392 35.2985 22.9697 38.4382 24.209 39.5123C 23.3828 40.6691 20.7388 41.6606 17.3512 41.6606Z"/>
</defs>
</svg>
