<svg width="757" height="296" viewBox="0 0 757 296" fill="none" xmlns="http://www.w3.org/2000/svg">
<mask id="mask0" mask-type="alpha" maskUnits="userSpaceOnUse" x="0" y="0" width="757" height="296">
<rect x="0.851624" y="0.0219727" width="755.436" height="295.5" fill="#C4C4C4"/>
</mask>
<g mask="url(#mask0)">
<path d="M701.611 273.616L703.381 272.882L701.719 268.824L702.992 267.184L704.244 270.205L706.014 269.471L704.719 266.32L708.863 266.881L706.791 269.558L708.324 270.745L710.331 268.155L711.13 270.076L708.453 273.551L709.986 274.738L711.993 272.148L712.748 274.004L714.54 273.27L713.784 271.414L717.022 271.846L717.281 269.946L712.943 269.364L712.144 267.443L715.382 267.874L715.641 265.975L712.381 265.543L714.864 262.327L716.094 265.37L717.885 264.637L716.655 261.593L718.706 261.874L720.368 265.932L722.159 265.198L720.886 262.176L722.871 262.457L723.13 260.557L721.145 260.277L723.152 257.687L721.619 256.499L718.921 259.974L716.871 259.694L718.878 257.104L717.367 255.917L715.36 258.507L713.892 254.924L716.914 255.334L717.173 253.434L713.935 253.003L715.209 251.362L719.569 251.945L719.828 250.046L716.59 249.614L717.821 248.017L716.288 246.851L715.058 248.448L713.806 245.427L712.036 246.161L713.698 250.218L712.381 251.816L711.13 248.794L709.36 249.528L710.568 252.463L706.877 251.967L708.82 249.441L707.288 248.254L705.28 250.844L704.482 248.923L707.18 245.47L705.647 244.283L703.64 246.873L702.884 245.017L701.093 245.75L701.848 247.607L698.611 247.175L698.373 249.074L702.712 249.657L703.51 251.578L700.273 251.146L700.014 253.046L703.273 253.478L700.92 256.499L699.668 253.499L697.877 254.233L699.107 257.276L697.057 256.996L695.395 252.938L693.625 253.629L694.855 256.672L692.869 256.391L692.61 258.291L694.596 258.571L692.589 261.162L694.121 262.349L696.819 258.874L698.87 259.154L696.862 261.744L698.395 262.931L700.402 260.341L701.956 264.14L698.481 263.687L698.222 265.586L701.46 266.018L700.186 267.658L695.826 267.076L695.567 268.975L698.805 269.407L697.575 271.004L699.107 272.17L700.337 270.572L701.611 273.616ZM707.503 261.313L709.014 264.982L705.108 264.442L707.503 261.313ZM709.273 260.579L713.31 261.14L710.827 264.356L709.273 260.579ZM709.532 258.679L712.036 255.442L713.59 259.241L709.532 258.679ZM708 257.492L706.489 253.823L710.396 254.363L708 257.492ZM706.23 258.226L702.431 257.708L704.784 254.686L706.23 258.226ZM705.971 260.126L703.618 263.19L702.15 259.608L705.971 260.126Z" fill="white"/>
<path d="M124.916 129.403L126.887 127.542L122.648 123.012L123.506 120.202L126.682 123.568L128.654 121.707L125.355 118.192L131.118 116.849L129.724 121.431L132.348 122.229L133.7 117.794L135.722 119.933L133.931 125.875L136.555 126.674L137.906 122.239L139.839 124.313L141.839 122.441L139.906 120.367L144.405 119.309L143.792 116.667L137.761 118.079L135.739 115.94L140.237 114.882L139.624 112.24L135.097 113.309L136.761 107.807L139.919 111.213L141.919 109.341L138.761 105.936L141.614 105.275L145.853 109.805L147.853 107.933L144.649 104.578L147.416 103.95L146.803 101.308L144.035 101.936L145.387 97.5007L142.763 96.7019L140.944 102.655L138.091 103.315L139.442 98.8803L136.847 98.0707L135.496 102.506L131.752 98.5061L135.954 97.5281L135.341 94.886L130.843 95.9441L131.701 93.1342L137.76 91.7112L137.147 89.0691L132.648 90.1272L133.472 87.3961L130.859 86.6259L130.035 89.357L126.86 85.9909L124.888 87.8519L129.128 92.3816L128.19 95.1562L125.014 91.7902L123.043 93.6511L126.118 96.9247L120.988 98.1252L122.286 93.8084L119.662 93.0096L118.311 97.4447L116.289 95.3062L118.119 89.382L115.495 88.5832L114.144 93.0182L112.211 90.9437L110.211 92.8155L112.144 94.89L107.645 95.9481L108.287 98.5793L114.317 97.1671L116.34 99.3056L111.841 100.364L112.454 103.006L116.982 101.937L115.391 107.116L112.226 103.779L110.226 105.651L113.384 109.056L110.532 109.717L106.292 105.187L104.299 106.991L107.457 110.396L104.69 111.024L105.303 113.666L108.07 113.038L106.719 117.473L109.343 118.272L111.162 112.319L114.015 111.659L112.664 116.094L115.288 116.893L116.639 112.458L120.605 116.699L115.782 117.848L116.395 120.49L120.894 119.432L120.035 122.242L113.976 123.665L114.589 126.307L119.088 125.249L118.265 127.98L120.877 128.75L121.701 126.019L124.916 129.403ZM126.518 110.169L130.362 114.261L124.924 115.513L126.518 110.169ZM128.489 108.308L134.109 107.02L132.445 112.521L128.489 108.308ZM127.876 105.666L129.558 100.125L133.524 104.367L127.876 105.666ZM125.252 104.867L121.408 100.775L126.846 99.5233L125.252 104.867ZM123.281 106.728L117.997 107.955L119.588 102.775L123.281 106.728ZM123.894 109.37L122.325 114.607L118.582 110.608L123.894 109.37Z" fill="white"/>
<path d="M48.0062 107.238L49.4141 102.056L37.5686 98.7826L36.1155 93.1467L44.9611 95.5527L46.3689 90.3707L37.1623 87.8383L45.5122 79.6134L47.8927 88.7962L53.1521 87.4343L50.852 78.5432L56.48 80.0666L59.5946 91.9585L64.854 90.5966L62.5539 81.7055L67.9643 83.2135L69.4092 77.9837L63.9988 76.4756L70.5072 70.0383L66.7405 66.2073L58.0097 74.8259L52.3817 73.3025L58.8901 66.8652L55.1235 63.0342L48.578 69.5193L45.7045 58.5022L54.5609 60.993L56.0057 55.7632L47.1494 53.2723L51.2873 49.2077L63.1328 52.481L64.5777 47.2511L55.6952 44.893L59.7221 40.9719L55.9554 37.1409L51.9285 41.0619L49.6284 32.1708L44.369 33.5326L47.4466 45.4723L43.3087 49.537L41.0086 40.6458L35.7862 41.9598L38.0863 50.8509L27.6266 47.9612L33.717 41.9654L29.9503 38.1343L23.4419 44.5716L21.9889 38.9358L30.7567 30.2694L26.9901 26.4383L20.4817 32.8756L19.0503 27.4095L13.8388 28.8083L15.2701 34.2744L6.42458 31.8684L5.01671 37.0504L16.8622 40.3238L18.1455 45.9813L9.3 43.5753L7.89212 48.7573L16.4722 51.111L9.04308 58.4421L6.77549 49.8055L1.51608 51.1673L3.81618 60.0585L-1.8118 58.5351L-4.8416 46.6324L-10.101 47.9942L-7.8009 56.8854L-13.2113 55.3773L-14.6562 60.6071L-9.24579 62.1152L-15.7542 68.5525L-11.9505 72.3357L-3.21968 63.7171L2.40831 65.2405L-4.1001 71.6778L-0.333419 75.5088L6.212 69.0237L8.87696 79.4206L0.0792786 77.0516L-1.36561 82.2815L7.49076 84.7724L3.35282 88.837L-8.49268 85.5637L-9.99625 90.6716L-1.13989 93.1625L-5.1668 97.0836L-1.40012 100.915L2.62679 96.9936L4.9269 105.885L10.1863 104.523L7.10866 92.5831L11.2466 88.5185L13.5467 97.4097L18.8061 96.0479L16.506 87.1567L27.5923 90.2252L20.6289 97.1518L24.3956 100.983L30.904 94.5455L32.357 100.181L23.5892 108.848L27.3559 112.679L33.8643 106.242L35.2956 111.708L40.5072 110.309L39.0758 104.843L48.0062 107.238ZM30.8353 73.0795L41.5605 76.0216L33.6655 83.7572L30.8353 73.0795ZM32.2432 67.8975L40.4081 59.9118L43.2816 70.929L32.2432 67.8975ZM28.4765 64.0665L25.5922 52.9645L36.6784 56.033L28.4765 64.0665ZM23.2171 65.4283L12.492 62.4862L20.3869 54.7506L23.2171 65.4283ZM21.8093 70.6103L14.1472 78.1437L11.4822 67.7467L21.8093 70.6103ZM25.5759 74.4413L28.3366 84.9123L17.8769 82.0225L25.5759 74.4413Z" fill="white"/>
<path d="M480.232 300.215L488.877 303.581L496.667 283.828L506.615 282.362L500.864 297.119L509.51 300.486L515.544 285.131L528.148 300.981L511.937 303.391L513.315 312.676L529.011 310.35L525.365 319.741L504.364 322.918L505.742 332.203L521.438 329.877L517.858 338.897L526.579 342.335L530.159 333.315L540.029 345.674L547.3 339.903L534.089 323.327L537.735 313.937L547.605 326.296L554.876 320.525L544.93 308.093L564.384 305.171L558.485 319.931L567.206 323.37L573.105 308.609L579.332 316.462L571.542 336.215L580.263 339.653L585.939 324.824L591.939 332.459L599.21 326.688L593.209 319.053L608.906 316.726L607.527 307.441L586.451 310.546L580.225 302.694L595.921 300.368L594.618 291.155L578.922 293.481L585.799 276.039L594.987 287.599L602.258 281.828L592.388 269.469L602.336 268.003L615.623 284.651L622.893 278.88L613.024 266.522L622.676 265.062L621.226 255.852L611.573 257.312L617.324 242.555L608.678 239.188L600.889 258.941L590.934 260.112L596.685 245.354L588.04 241.988L582.427 256.299L571.19 242.195L586.443 239.878L585.065 230.593L569.368 232.919L573.015 223.528L594.018 220.499L592.64 211.214L576.944 213.54L580.524 204.521L571.803 201.082L568.223 210.102L558.353 197.743L551.158 203.586L564.369 220.162L560.723 229.553L550.853 217.194L543.582 222.965L553.528 235.396L535.178 238.074L540.856 223.392L532.135 219.953L526.237 234.714L520.01 226.861L527.799 207.109L519.298 203.591L513.4 218.352L507.399 210.716L500.129 216.487L506.129 224.123L490.433 226.449L491.811 235.734L512.887 232.629L519.114 240.482L503.418 242.808L504.796 252.093L520.492 249.767L513.193 268.253L502.566 255.023L495.295 260.794L505.165 273.153L495.216 274.619L481.93 257.97L474.659 263.741L484.529 276.1L474.876 277.56L476.327 286.769L485.98 285.31L480.232 300.215ZM542.058 276.959L535.042 294.848L523.195 279.87L542.058 276.959ZM550.703 280.326L562.93 295.813L543.477 298.736L550.703 280.326ZM557.974 274.555L577.575 271.629L570.276 290.115L557.974 274.555ZM556.596 265.27L563.611 247.381L575.458 262.359L556.596 265.27ZM547.95 261.903L536.408 247.362L554.758 244.684L547.95 261.903ZM540.679 267.674L522.185 270.503L529.062 253.061L540.679 267.674Z" fill="white"/>
</g>
</svg>
