<svg width="734" height="299" viewBox="0 0 734 299" fill="none" xmlns="http://www.w3.org/2000/svg">
<mask id="mask0" mask-type="alpha" maskUnits="userSpaceOnUse" x="0" y="0" width="734" height="299">
<rect x="0.0605469" y="0.165283" width="733.083" height="298.709" fill="#C4C4C4"/>
</mask>
<g mask="url(#mask0)">
<path d="M567.063 112.883L571.963 114.91L576.652 103.716L582.355 102.997L578.891 111.362L583.792 113.389L587.425 104.687L594.437 113.896L585.143 115.079L585.819 120.402L594.817 119.261L592.621 124.584L580.581 126.147L581.257 131.47L590.255 130.329L588.1 135.441L593.043 137.511L595.198 132.399L600.689 139.581L604.914 136.37L597.563 126.739L599.76 121.416L605.252 128.597L609.476 125.387L603.942 118.163L615.095 116.727L611.546 125.091L616.489 127.161L620.037 118.797L623.501 123.359L618.812 134.554L623.755 136.624L627.176 128.217L630.514 132.653L634.738 129.442L631.401 125.007L640.399 123.866L639.723 118.543L627.641 120.064L624.177 115.502L633.175 114.361L632.541 109.081L623.543 110.221L627.683 100.336L632.795 107.053L637.019 103.842L631.528 96.6607L637.231 95.9426L644.623 105.617L648.848 102.406L643.356 95.2244L648.89 94.5063L648.172 89.2257L642.638 89.9439L646.102 81.5795L641.202 79.5518L636.512 90.7465L630.809 91.2957L634.273 82.9313L629.373 80.9036L625.994 89.0145L619.741 80.8191L628.486 79.6785L627.81 74.3558L618.812 75.4963L621.009 70.1736L633.048 68.695L632.372 63.3722L623.374 64.5128L625.529 59.4013L620.586 57.3313L618.432 62.4429L612.94 55.2613L608.758 58.5141L616.108 68.1458L613.912 73.4686L608.42 66.2871L604.196 69.4977L609.73 76.7214L599.211 78.031L602.633 69.7089L597.69 67.6389L594.141 76.0033L590.677 71.4409L595.366 60.2462L590.551 58.134L587.002 66.4983L583.665 62.0627L579.44 65.2732L582.778 69.7089L573.78 70.8495L574.456 76.1723L586.537 74.6515L590.001 79.2138L581.003 80.3544L581.679 85.6772L590.677 84.5366L586.284 95.0132L580.37 87.3247L576.145 90.5353L581.637 97.7168L575.934 98.435L568.541 88.761L564.317 91.9716L569.809 99.1531L564.275 99.8713L564.993 105.152L570.527 104.434L567.063 112.883ZM602.675 100.336L598.45 110.475L591.86 101.772L602.675 100.336ZM607.575 102.364L614.376 111.362L603.224 112.798L607.575 102.364ZM611.8 99.1531L623.036 97.7168L618.643 108.193L611.8 99.1531ZM611.124 93.8304L615.348 83.6917L621.938 92.3941L611.124 93.8304ZM606.223 91.8026L599.802 83.3538L610.321 82.0442L606.223 91.8026ZM601.999 95.0132L591.396 96.4073L595.535 86.5221L601.999 95.0132Z" fill="white"/>
<path d="M245.976 252.918L249.455 251.476L246.188 243.501L248.691 240.277L251.151 246.216L254.63 244.774L252.085 238.581L260.229 239.684L256.157 244.943L259.168 247.276L263.113 242.186L264.683 245.961L259.423 252.791L262.435 255.124L266.38 250.034L267.864 253.682L271.385 252.239L269.9 248.591L276.263 249.44L276.772 245.707L268.246 244.562L266.676 240.786L273.039 241.635L273.548 237.902L267.143 237.054L272.021 230.733L274.439 236.714L277.96 235.272L275.542 229.291L279.572 229.843L282.838 237.817L286.359 236.375L283.856 230.436L287.758 230.988L288.267 227.255L284.365 226.704L288.31 221.613L285.298 219.28L279.996 226.11L275.966 225.558L279.911 220.468L276.942 218.135L272.997 223.225L270.112 216.184L276.051 216.99L276.56 213.257L270.197 212.409L272.7 209.185L281.268 210.33L281.777 206.597L275.415 205.749L277.832 202.61L274.821 200.319L272.403 203.458L269.943 197.52L266.464 198.962L269.731 206.937L267.143 210.076L264.683 204.137L261.205 205.579L263.58 211.348L256.326 210.373L260.144 205.41L257.132 203.077L253.187 208.167L251.618 204.392L256.92 197.605L253.909 195.272L249.964 200.362L248.479 196.714L244.958 198.156L246.443 201.804L240.08 200.956L239.614 204.689L248.14 205.834L249.709 209.609L243.346 208.761L242.837 212.494L249.243 213.342L244.619 219.28L242.159 213.384L238.638 214.827L241.056 220.807L237.026 220.256L233.76 212.281L230.282 213.639L232.7 219.62L228.797 219.068L228.288 222.801L232.19 223.353L228.246 228.443L231.257 230.776L236.56 223.946L240.589 224.498L236.644 229.588L239.656 231.921L243.601 226.831L246.655 234.296L239.826 233.406L239.317 237.138L245.679 237.987L243.177 241.211L234.608 240.065L234.099 243.798L240.462 244.646L238.044 247.785L241.056 250.076L243.474 246.937L245.976 252.918ZM257.557 228.74L260.526 235.951L252.848 234.89L257.557 228.74ZM261.035 227.297L268.967 228.4L264.089 234.721L261.035 227.297ZM261.544 223.565L266.464 217.202L269.518 224.668L261.544 223.565ZM258.532 221.232L255.563 214.021L263.241 215.081L258.532 221.232ZM255.054 222.674L247.588 221.656L252.212 215.717L255.054 222.674ZM254.545 226.407L249.921 232.43L247.037 225.389L254.545 226.407Z" fill="white"/>
<path d="M535.377 188.671L537.147 187.937L535.485 183.88L536.758 182.239L538.01 185.261L539.78 184.527L538.485 181.376L542.629 181.937L540.557 184.613L542.09 185.801L544.097 183.211L544.896 185.132L542.219 188.607L543.752 189.794L545.759 187.204L546.514 189.06L548.306 188.326L547.55 186.47L550.788 186.901L551.047 185.002L546.709 184.419L545.91 182.498L549.148 182.93L549.407 181.031L546.147 180.599L548.63 177.383L549.86 180.426L551.651 179.692L550.421 176.649L552.472 176.93L554.134 180.987L555.925 180.253L554.652 177.232L556.637 177.512L556.896 175.613L554.911 175.332L556.918 172.742L555.386 171.555L552.687 175.03L550.637 174.75L552.644 172.159L551.133 170.972L549.126 173.562L547.658 169.979L550.68 170.389L550.939 168.49L547.702 168.058L548.975 166.418L553.335 167.001L553.594 165.101L550.356 164.67L551.587 163.072L550.054 161.907L548.824 163.504L547.572 160.482L545.802 161.216L547.464 165.274L546.147 166.871L544.896 163.849L543.126 164.583L544.334 167.519L540.643 167.022L542.586 164.497L541.054 163.31L539.046 165.9L538.248 163.979L540.946 160.526L539.413 159.338L537.406 161.928L536.65 160.072L534.859 160.806L535.614 162.662L532.377 162.231L532.139 164.13L536.478 164.713L537.276 166.634L534.039 166.202L533.78 168.102L537.039 168.533L534.686 171.555L533.434 168.555L531.643 169.289L532.873 172.332L530.823 172.051L529.161 167.994L527.391 168.684L528.621 171.728L526.635 171.447L526.376 173.347L528.362 173.627L526.355 176.217L527.887 177.404L530.585 173.929L532.636 174.21L530.628 176.8L532.161 177.987L534.168 175.397L535.722 179.196L532.247 178.743L531.988 180.642L535.226 181.074L533.952 182.714L529.592 182.131L529.333 184.031L532.571 184.462L531.341 186.06L532.873 187.225L534.103 185.628L535.377 188.671ZM541.269 176.368L542.78 180.038L538.874 179.498L541.269 176.368ZM543.039 175.634L547.076 176.196L544.593 179.412L543.039 175.634ZM543.298 173.735L545.802 170.497L547.356 174.296L543.298 173.735ZM541.766 172.548L540.255 168.879L544.162 169.418L541.766 172.548ZM539.996 173.282L536.197 172.764L538.55 169.742L539.996 173.282ZM539.737 175.181L537.384 178.246L535.917 174.663L539.737 175.181Z" fill="white"/>
<path d="M671.364 39.0174L672.686 38.4693L671.445 35.4391L672.396 34.214L673.331 36.4706L674.652 35.9226L673.685 33.5693L676.78 33.9884L675.233 35.9871L676.377 36.8736L677.876 34.9394L678.473 36.3739L676.474 38.969L677.618 39.8555L679.117 37.9213L679.681 39.3075L681.019 38.7595L680.455 37.3733L682.873 37.6956L683.066 36.2772L679.827 35.842L679.23 34.4075L681.648 34.7298L681.841 33.3114L679.407 32.989L681.261 30.5874L682.18 32.8601L683.518 32.3121L682.599 30.0394L684.13 30.2489L685.371 33.2792L686.709 32.7311L685.758 30.4746L687.241 30.6841L687.434 29.2657L685.952 29.0561L687.451 27.1219L686.306 26.2354L684.291 28.8305L682.76 28.6209L684.259 26.6867L683.131 25.8002L681.632 27.7344L680.536 25.0587L682.792 25.365L682.986 23.9466L680.568 23.6242L681.519 22.3992L684.775 22.8344L684.968 21.4159L682.551 21.0936L683.469 19.9008L682.325 19.0304L681.406 20.2232L680.471 17.9666L679.15 18.5146L680.391 21.5449L679.407 22.7377L678.473 20.4811L677.151 21.0291L678.053 23.2212L675.297 22.8505L676.748 20.9646L675.603 20.0781L674.104 22.0123L673.508 20.5778L675.523 17.9988L674.378 17.1123L672.879 19.0465L672.315 17.6603L670.977 18.2084L671.542 19.5946L669.124 19.2722L668.947 20.6906L672.186 21.1258L672.783 22.5604L670.365 22.238L670.172 23.6564L672.605 23.9788L670.849 26.2354L669.914 23.9949L668.576 24.5429L669.495 26.8156L667.963 26.6061L666.722 23.5758L665.4 24.0916L666.319 26.3643L664.836 26.1548L664.643 27.5732L666.126 27.7828L664.627 29.717L665.771 30.6035L667.786 28.0084L669.317 28.218L667.818 30.1522L668.963 31.0387L670.462 29.1045L671.622 31.9413L669.027 31.6028L668.834 33.0213L671.251 33.3436L670.3 34.5687L667.045 34.1335L666.851 35.5519L669.269 35.8743L668.35 37.067L669.495 37.9374L670.413 36.7447L671.364 39.0174ZM675.765 29.8298L676.893 32.57L673.976 32.167L675.765 29.8298ZM677.086 29.2818L680.101 29.7009L678.247 32.1025L677.086 29.2818ZM677.28 27.8634L679.15 25.4456L680.31 28.2824L677.28 27.8634ZM676.135 26.9768L675.007 24.2367L677.925 24.6396L676.135 26.9768ZM674.814 27.5249L671.977 27.138L673.734 24.8814L674.814 27.5249ZM674.62 28.9433L672.863 31.2321L671.767 28.5564L674.62 28.9433Z" fill="white"/>
<path d="M126.246 257.59L128.015 256.856L126.354 252.798L127.627 251.158L128.879 254.179L130.649 253.446L129.354 250.294L133.498 250.856L131.426 253.532L132.958 254.719L134.966 252.129L135.764 254.05L133.088 257.525L134.62 258.712L136.628 256.122L137.383 257.978L139.175 257.244L138.419 255.388L141.657 255.82L141.916 253.92L137.577 253.338L136.779 251.417L140.016 251.848L140.275 249.949L137.016 249.517L139.498 246.301L140.729 249.345L142.52 248.611L141.29 245.567L143.34 245.848L145.002 249.906L146.794 249.172L145.52 246.15L147.506 246.431L147.765 244.531L145.779 244.251L147.787 241.661L146.254 240.474L143.556 243.949L141.506 243.668L143.513 241.078L142.002 239.891L139.995 242.481L138.527 238.898L141.549 239.308L141.808 237.409L138.57 236.977L139.844 235.336L144.204 235.919L144.463 234.02L141.225 233.588L142.455 231.991L140.923 230.825L139.693 232.423L138.441 229.401L136.671 230.135L138.333 234.192L137.016 235.79L135.764 232.768L133.994 233.502L135.203 236.437L131.512 235.941L133.455 233.415L131.922 232.228L129.915 234.818L129.116 232.897L131.814 229.444L130.282 228.257L128.275 230.847L127.519 228.991L125.728 229.725L126.483 231.581L123.245 231.149L123.008 233.049L127.346 233.631L128.145 235.552L124.907 235.121L124.648 237.02L127.908 237.452L125.555 240.474L124.303 237.473L122.512 238.207L123.742 241.251L121.691 240.97L120.029 236.912L118.259 237.603L119.49 240.646L117.504 240.366L117.245 242.265L119.231 242.546L117.223 245.136L118.756 246.323L121.454 242.848L123.504 243.128L121.497 245.718L123.03 246.906L125.037 244.315L126.591 248.114L123.116 247.661L122.857 249.56L126.094 249.992L124.821 251.633L120.461 251.05L120.202 252.949L123.44 253.381L122.209 254.978L123.742 256.144L124.972 254.546L126.246 257.59ZM132.138 245.287L133.649 248.956L129.742 248.416L132.138 245.287ZM133.908 244.553L137.944 245.114L135.462 248.33L133.908 244.553ZM134.167 242.654L136.671 239.416L138.225 243.215L134.167 242.654ZM132.635 241.466L131.124 237.797L135.03 238.337L132.635 241.466ZM130.865 242.2L127.066 241.682L129.418 238.66L130.865 242.2ZM130.606 244.1L128.253 247.165L126.785 243.582L130.606 244.1Z" fill="white"/>
<path d="M533.848 339.216L535.34 333.724L522.785 330.254L521.245 324.281L530.62 326.831L532.112 321.339L522.354 318.655L531.204 309.937L533.727 319.67L539.302 318.227L536.864 308.803L542.829 310.417L546.13 323.022L551.705 321.578L549.267 312.155L555.001 313.753L556.533 308.21L550.798 306.611L557.696 299.789L553.704 295.728L544.45 304.863L538.485 303.248L545.383 296.425L541.391 292.365L534.454 299.238L531.408 287.561L540.795 290.201L542.326 284.658L532.939 282.018L537.325 277.71L549.88 281.18L551.412 275.637L541.997 273.137L546.265 268.981L542.273 264.921L538.005 269.077L535.567 259.653L529.993 261.096L533.254 273.751L528.869 278.059L526.431 268.636L520.896 270.028L523.334 279.452L512.247 276.389L518.703 270.034L514.71 265.974L507.812 272.797L506.272 266.823L515.565 257.638L511.573 253.577L504.674 260.4L503.157 254.606L497.634 256.089L499.151 261.883L489.775 259.332L488.283 264.825L500.838 268.294L502.198 274.291L492.823 271.74L491.331 277.233L500.425 279.728L492.551 287.498L490.147 278.344L484.573 279.787L487.011 289.211L481.046 287.596L477.834 274.981L472.26 276.424L474.698 285.848L468.963 284.249L467.432 289.792L473.166 291.391L466.268 298.214L470.3 302.224L479.553 293.089L485.519 294.703L478.62 301.526L482.613 305.587L489.55 298.713L492.375 309.733L483.05 307.222L481.519 312.765L490.905 315.405L486.52 319.713L473.965 316.244L472.371 321.658L481.758 324.298L477.49 328.454L481.482 332.514L485.75 328.358L488.188 337.782L493.762 336.339L490.5 323.684L494.886 319.376L497.324 328.799L502.899 327.356L500.461 317.932L512.211 321.185L504.83 328.526L508.823 332.587L515.721 325.764L517.261 331.737L507.968 340.923L511.96 344.983L518.859 338.16L520.376 343.954L525.899 342.471L524.382 336.678L533.848 339.216ZM515.648 303.012L527.016 306.13L518.648 314.329L515.648 303.012ZM517.14 297.52L525.794 289.056L528.84 300.733L517.14 297.52ZM513.148 293.459L510.091 281.692L521.841 284.944L513.148 293.459ZM507.574 294.902L496.206 291.784L504.574 283.585L507.574 294.902ZM506.082 300.395L497.961 308.379L495.136 297.36L506.082 300.395ZM510.074 304.455L513 315.553L501.914 312.491L510.074 304.455Z" fill="white"/>
<path d="M749.848 129.571L750.906 125.679L742.011 123.221L740.919 118.989L747.562 120.796L748.619 116.905L741.705 115.003L747.976 108.827L749.763 115.722L753.713 114.7L751.985 108.023L756.212 109.167L758.55 118.097L762.5 117.074L760.773 110.398L764.835 111.53L765.92 107.603L761.858 106.471L766.745 101.637L763.916 98.7598L757.36 105.232L753.134 104.088L758.021 99.2538L755.193 96.377L750.278 101.247L748.12 92.9738L754.77 94.8443L755.855 90.9171L749.205 89.0466L752.312 85.9944L761.207 88.4524L762.292 84.5252L755.622 82.7544L758.646 79.81L755.818 76.9332L752.794 79.8776L751.067 73.201L747.117 74.2236L749.428 83.1895L746.321 86.2417L744.594 79.5651L740.672 80.5518L742.399 87.2284L734.545 85.0584L739.118 80.556L736.29 77.6792L731.403 82.5131L730.311 78.281L736.895 71.7732L734.067 68.8964L729.18 73.7303L728.105 69.6256L724.191 70.676L725.266 74.7807L718.624 72.9739L717.567 76.8652L726.462 79.3233L727.425 83.5716L720.783 81.7649L719.726 85.6562L726.169 87.4236L720.59 92.9287L718.887 86.4433L714.938 87.4659L716.665 94.1425L712.439 92.9986L710.164 84.0605L706.214 85.0832L707.942 91.7597L703.879 90.6273L702.794 94.5545L706.857 95.687L701.969 100.521L704.826 103.362L711.382 96.8899L715.608 98.0338L710.721 102.868L713.549 105.745L718.464 100.875L720.465 108.682L713.859 106.903L712.774 110.83L719.424 112.701L716.317 115.753L707.422 113.295L706.293 117.131L712.943 119.001L709.92 121.946L712.748 124.822L715.772 121.878L717.499 128.555L721.449 127.532L719.137 118.566L722.245 115.514L723.972 122.19L727.921 121.168L726.194 114.491L734.519 116.795L729.29 121.997L732.119 124.874L737.006 120.04L738.097 124.272L731.513 130.78L734.342 133.656L739.229 128.822L740.304 132.927L744.217 131.877L743.142 127.772L749.848 129.571ZM736.954 103.92L745.008 106.13L739.08 111.938L736.954 103.92ZM738.012 100.029L744.143 94.0324L746.301 102.305L738.012 100.029ZM735.183 97.1522L733.017 88.8155L741.342 91.1197L735.183 97.1522ZM731.234 98.1749L723.18 95.9656L729.108 90.1567L731.234 98.1749ZM730.177 102.066L724.423 107.723L722.422 99.9158L730.177 102.066ZM733.005 104.943L735.078 112.806L727.224 110.636L733.005 104.943Z" fill="white"/>
<path d="M597.174 288.722L607.035 292.561L615.919 270.032L627.265 268.36L620.706 285.191L630.566 289.031L637.448 271.518L651.824 289.595L633.334 292.345L634.906 302.934L652.808 300.281L648.649 310.992L624.697 314.615L626.269 325.205L644.171 322.552L640.088 332.839L650.034 336.761L654.118 326.473L665.374 340.569L673.666 333.987L658.599 315.082L662.758 304.372L674.014 318.467L682.307 311.885L670.964 297.707L693.151 294.374L686.423 311.208L696.37 315.13L703.098 298.296L710.199 307.251L701.315 329.78L711.262 333.702L717.735 316.788L724.578 325.497L732.871 318.915L726.027 310.206L743.929 307.553L742.357 296.964L718.319 300.505L711.218 291.549L729.119 288.896L727.634 278.389L709.732 281.042L717.576 261.148L728.054 274.333L736.346 267.751L725.09 253.656L736.436 251.984L751.59 270.971L759.882 264.389L748.625 250.294L759.635 248.629L757.98 238.125L746.971 239.79L753.53 222.959L743.67 219.12L734.786 241.648L723.432 242.983L729.991 226.152L720.131 222.313L713.729 238.635L700.913 222.549L718.31 219.907L716.738 209.317L698.836 211.97L702.995 201.26L726.95 197.805L725.378 187.215L707.476 189.868L711.559 179.581L701.613 175.659L697.53 185.946L686.273 171.851L678.067 178.515L693.134 197.42L688.976 208.131L677.719 194.035L669.427 200.617L680.769 214.795L659.841 217.849L666.317 201.104L656.371 197.182L649.643 214.017L642.542 205.061L651.426 182.532L641.73 178.521L635.003 195.356L628.159 186.647L619.867 193.229L626.71 201.937L608.809 204.59L610.38 215.18L634.418 211.639L641.52 220.595L623.618 223.248L625.19 233.838L643.091 231.185L634.767 252.268L622.646 237.179L614.354 243.761L625.611 257.857L614.264 259.529L599.111 240.541L590.819 247.123L602.075 261.218L591.066 262.883L592.72 273.387L603.73 271.722L597.174 288.722ZM667.687 262.198L659.686 282.601L646.174 265.517L667.687 262.198ZM677.548 266.038L691.493 283.702L669.306 287.035L677.548 266.038ZM685.84 259.456L708.196 256.119L699.871 277.202L685.84 259.456ZM684.268 248.866L692.27 228.464L705.781 245.547L684.268 248.866ZM674.408 245.027L661.244 228.442L682.173 225.388L674.408 245.027ZM666.116 251.609L645.022 254.835L652.866 234.942L666.116 251.609Z" fill="white"/>
</g>
</svg>
