<svg width="16" height="16" viewBox="0 0 16 16" fill="none" xmlns="http://www.w3.org/2000/svg">
<path d="M14.9659 12.2265L12.7092 9.9695C12.2597 9.52181 11.5153 9.53541 11.0501 10.0007L9.91319 11.1374C9.84136 11.0978 9.76701 11.0565 9.68884 11.0126C8.97087 10.6148 7.9882 10.0695 6.95416 9.03474C5.91704 7.99776 5.37128 7.01358 4.97225 6.29515C4.93014 6.21904 4.88979 6.14565 4.84995 6.07596L5.61301 5.31404L5.98816 4.93843C6.45403 4.47244 6.46688 3.72827 6.01843 3.27928L3.76171 1.02205C3.31326 0.57369 2.56855 0.587292 2.10268 1.05329L1.46666 1.69296L1.48404 1.71022C1.27077 1.98234 1.09256 2.29619 0.95994 2.63465C0.83769 2.95682 0.761577 3.26425 0.726774 3.57231C0.428789 6.04267 1.55767 8.3004 4.62132 11.3641C8.85622 15.5987 12.269 15.2788 12.4162 15.2632C12.7369 15.2248 13.0442 15.1482 13.3565 15.0269C13.692 14.8959 14.0056 14.7179 14.2776 14.5051L14.2915 14.5175L14.9358 13.8865C15.4007 13.4206 15.4141 12.6762 14.9659 12.2265Z" fill="#27AE60"/>
</svg>
