<svg width="44" height="44" viewBox="0 0 44 44" version="1.1" xmlns="http://www.w3.org/2000/svg" xmlns:xlink="http://www.w3.org/1999/xlink">
<title>Group</title>
<desc>Created using Figma</desc>
<g id="Canvas" transform="translate(-13738 -39084)">
<rect x="13738" y="39084" width="44" height="44" fill="#333333"/>
<clipPath id="clip-0" clip-rule="evenodd">
<path d="M 11934 39073L 13854 39073L 13854 45095L 11934 45095L 11934 39073Z" fill="#FFFFFF"/>
</clipPath>
<g id="&#208;&#179;&#208;&#187;&#208;&#176;&#208;&#178;&#208;&#189;&#208;&#176;&#209;&#143; 4" clip-path="url(#clip-0)">
<path d="M 11934 39073L 13854 39073L 13854 45095L 11934 45095L 11934 39073Z" fill="#FFFFFF"/>
<g id="&#208;&#188;&#208;&#181;&#208;&#189;&#209;&#142;">
<g id="Rectangle" filter="url(#filter0_d)">
<use xlink:href="#path0_fill" transform="translate(11934 39073)" fill="#FFFFFF"/>
</g>
<g id="Group">
<g id="Vector">
<mask id="mask0_outline_ins">
<use xlink:href="#path1_fill" fill="white" transform="translate(13738 39084)"/>
</mask>
<g mask="url(#mask0_outline_ins)">
<use xlink:href="#path2_stroke_2x" transform="translate(13738 39084)" fill="#353535"/>
</g>
</g>
<g id="if_share_227561">
<g id="Vector">
<use xlink:href="#path3_fill" transform="translate(13747.3 39094.4)" fill="#353535"/>
</g>
</g>
</g>
</g>
</g>
</g>
<defs>
<filter id="filter0_d" filterUnits="userSpaceOnUse" x="11904" y="39047" width="1980" height="130" color-interpolation-filters="sRGB">
<feFlood flood-opacity="0" result="BackgroundImageFix"/>
<feColorMatrix in="SourceAlpha" type="matrix" values="0 0 0 0 0 0 0 0 0 0 0 0 0 0 0 0 0 0 255 0"/>
<feOffset dx="0" dy="4"/>
<feGaussianBlur stdDeviation="15"/>
<feColorMatrix type="matrix" values="0 0 0 0 0 0 0 0 0 0 0 0 0 0 0 0 0 0 0.2 0"/>
<feBlend mode="normal" in2="BackgroundImageFix" result="effect1_dropShadow"/>
<feBlend mode="normal" in="SourceGraphic" in2="effect1_dropShadow" result="shape"/>
</filter>
<path id="path0_fill" d="M 0 0L 1920 0L 1920 70L 0 70L 0 0Z"/>
<path id="path1_fill" d="M 22 44C 34.1503 44 44 34.1503 44 22C 44 9.84974 34.1503 0 22 0C 9.84974 0 0 9.84974 0 22C 0 34.1503 9.84974 44 22 44Z"/>
<path id="path2_stroke_2x" d="M 42 22C 42 33.0457 33.0457 42 22 42L 22 46C 35.2548 46 46 35.2548 46 22L 42 22ZM 22 42C 10.9543 42 2 33.0457 2 22L -2 22C -2 35.2548 8.74517 46 22 46L 22 42ZM 2 22C 2 10.9543 10.9543 2 22 2L 22 -2C 8.74517 -2 -2 8.74517 -2 22L 2 22ZM 22 2C 33.0457 2 42 10.9543 42 22L 46 22C 46 8.74517 35.2548 -2 22 -2L 22 2Z"/>
<path id="path3_fill" d="M 18.5263 13.8947C 17.1331 13.8947 15.8863 14.5133 15.037 15.4871L 9.15982 12.5487C 9.2264 12.2358 9.26316 11.9116 9.26316 11.5789C 9.26316 11.2463 9.2264 10.9221 9.15982 10.6095L 15.037 7.67076C 15.886 8.64484 17.1331 9.26316 18.5263 9.26316C 21.0841 9.26316 23.1579 7.18937 23.1579 4.63158C 23.1579 2.07379 21.0841 0 18.5263 0C 15.9685 0 13.8947 2.07379 13.8947 4.63158C 13.8947 4.96418 13.9315 5.28839 13.9981 5.60103L 8.1209 8.53976C 7.27187 7.56568 6.02511 6.94737 4.63158 6.94737C 2.07379 6.94737 0 9.02116 0 11.5789C 0 14.1367 2.07379 16.2105 4.63158 16.2105C 6.02511 16.2105 7.27158 15.5919 8.1209 14.6181L 13.9984 17.5569C 13.9315 17.8695 13.8947 18.1937 13.8947 18.5263C 13.8947 21.0841 15.9685 23.1579 18.5263 23.1579C 21.0841 23.1579 23.1579 21.0841 23.1579 18.5263C 23.1579 15.9685 21.0841 13.8947 18.5263 13.8947ZM 18.5263 2.31579C 19.8052 2.31579 20.8421 3.35268 20.8421 4.63158C 20.8421 5.91047 19.8052 6.94737 18.5263 6.94737C 17.2474 6.94737 16.2105 5.91047 16.2105 4.63158C 16.2105 3.35268 17.2474 2.31579 18.5263 2.31579ZM 4.63158 13.8947C 3.35268 13.8947 2.31579 12.8578 2.31579 11.5789C 2.31579 10.3001 3.35268 9.26316 4.63158 9.26316C 5.91047 9.26316 6.94737 10.3001 6.94737 11.5789C 6.94737 12.8578 5.91047 13.8947 4.63158 13.8947ZM 18.5263 20.8421C 17.2474 20.8421 16.2105 19.8052 16.2105 18.5263C 16.2105 17.2474 17.2474 16.2105 18.5263 16.2105C 19.8052 16.2105 20.8421 17.2474 20.8421 18.5263C 20.8421 19.8052 19.8052 20.8421 18.5263 20.8421Z"/>
</defs>
</svg>
