<svg width="23" height="28" viewBox="0 0 23 28" fill="none" xmlns="http://www.w3.org/2000/svg">
<path fill-rule="evenodd" clip-rule="evenodd" d="M14.1136 0.699951H2.56714C1.46257 0.699951 0.567139 1.59538 0.567139 2.69995V25.389C0.567139 26.4935 1.46257 27.389 2.56714 27.389H20.0295C21.134 27.389 22.0295 26.4935 22.0295 25.389V8.01913L14.1136 0.699951ZM18.002 7.01913L15.1136 4.34848V7.01913L18.002 7.01913ZM13.1136 2.69995L2.56714 2.69995L2.56714 25.389H20.0295V9.01913H15.1136C14.009 9.01913 13.1136 8.1237 13.1136 7.01913V2.69995ZM5.1407 7.77065C5.1407 7.21837 5.58842 6.77065 6.1407 6.77065H10.397C10.9493 6.77065 11.397 7.21837 11.397 7.77065C11.397 8.32294 10.9493 8.77065 10.397 8.77065H6.1407C5.58842 8.77065 5.1407 8.32294 5.1407 7.77065ZM5.1407 12.5023C5.1407 11.95 5.58842 11.5023 6.1407 11.5023H16.6133C17.1656 11.5023 17.6133 11.95 17.6133 12.5023C17.6133 13.0546 17.1656 13.5023 16.6133 13.5023H6.1407C5.58842 13.5023 5.1407 13.0546 5.1407 12.5023ZM5.1407 16.7388C5.1407 16.1865 5.58842 15.7388 6.1407 15.7388H16.6133C17.1656 15.7388 17.6133 16.1865 17.6133 16.7388C17.6133 17.2911 17.1656 17.7388 16.6133 17.7388H6.1407C5.58842 17.7388 5.1407 17.2911 5.1407 16.7388ZM5.1407 20.9589C5.1407 20.4066 5.58842 19.9589 6.1407 19.9589H16.6133C17.1656 19.9589 17.6133 20.4066 17.6133 20.9589C17.6133 21.5112 17.1656 21.9589 16.6133 21.9589H6.1407C5.58842 21.9589 5.1407 21.5112 5.1407 20.9589Z" fill="#FF5919"/>
</svg>
