<svg width="23" height="28" viewBox="0 0 23 28" fill="none" xmlns="http://www.w3.org/2000/svg">
<path fill-rule="evenodd" clip-rule="evenodd" d="M14.4771 0.699951H2.93066C1.82609 0.699951 0.930664 1.59538 0.930664 2.69995V25.389C0.930664 26.4935 1.82609 27.389 2.93066 27.389H20.393C21.4976 27.389 22.393 26.4935 22.393 25.389V8.01913L14.4771 0.699951ZM18.3655 7.01913L15.4771 4.34848V7.01913L18.3655 7.01913ZM13.4771 2.69995L2.93066 2.69995L2.93066 25.389H20.393V9.01913H15.4771C14.3725 9.01913 13.4771 8.1237 13.4771 7.01913V2.69995ZM5.50423 7.77065C5.50423 7.21837 5.95194 6.77065 6.50423 6.77065H10.7606C11.3129 6.77065 11.7606 7.21837 11.7606 7.77065C11.7606 8.32294 11.3129 8.77065 10.7606 8.77065H6.50423C5.95194 8.77065 5.50423 8.32294 5.50423 7.77065ZM5.50423 12.5023C5.50423 11.95 5.95194 11.5023 6.50423 11.5023H16.9768C17.5291 11.5023 17.9768 11.95 17.9768 12.5023C17.9768 13.0546 17.5291 13.5023 16.9768 13.5023H6.50423C5.95194 13.5023 5.50423 13.0546 5.50423 12.5023ZM5.50423 16.7388C5.50423 16.1865 5.95194 15.7388 6.50423 15.7388H16.9768C17.5291 15.7388 17.9768 16.1865 17.9768 16.7388C17.9768 17.2911 17.5291 17.7388 16.9768 17.7388H6.50423C5.95194 17.7388 5.50423 17.2911 5.50423 16.7388ZM5.50423 20.9589C5.50423 20.4066 5.95194 19.9589 6.50423 19.9589H16.9768C17.5291 19.9589 17.9768 20.4066 17.9768 20.9589C17.9768 21.5112 17.5291 21.9589 16.9768 21.9589H6.50423C5.95194 21.9589 5.50423 21.5112 5.50423 20.9589Z" fill="white"/>
</svg>
