<svg width="16" height="16" viewBox="0 0 16 16" fill="none" xmlns="http://www.w3.org/2000/svg">
<rect x="1.14209" y="0.561035" width="14.3579" height="14.3579" rx="7.17896" stroke="#736F6F"/>
<path d="M9.02617 6.64785V6.54785H8.92617H7.65752H7.55752V6.64785V11.8964V11.9964H7.65752H8.92617H9.02617V11.8964V6.64785ZM8.53819 5.21568L8.53821 5.21572L8.54086 5.21453C8.64971 5.16574 8.74499 5.10131 8.82562 5.02088C8.90944 4.94068 8.97613 4.8471 9.02548 4.7408C9.07617 4.63163 9.10128 4.51489 9.10128 4.39175C9.10128 4.26567 9.07636 4.14595 9.02603 4.03368C8.9768 3.92387 8.91004 3.82807 8.82562 3.74728C8.74469 3.66657 8.64895 3.60362 8.53953 3.55815C8.42765 3.50823 8.30838 3.4835 8.18279 3.4835C8.05994 3.4835 7.94223 3.50849 7.83059 3.55841C7.72403 3.60419 7.63003 3.66745 7.54937 3.7481C7.46856 3.82891 7.40386 3.92447 7.3549 4.03368L7.35486 4.03367L7.35375 4.03635C7.30755 4.148 7.28477 4.26678 7.28477 4.39175C7.28477 4.51373 7.30771 4.62952 7.35424 4.73808L7.3542 4.7381L7.35545 4.7408C7.40452 4.84649 7.46914 4.93983 7.54937 5.02006C7.6296 5.10029 7.72294 5.16491 7.82863 5.21398L7.82859 5.21406L7.83251 5.21568C7.94377 5.26172 8.0608 5.28467 8.18279 5.28467C8.30777 5.28467 8.42655 5.26188 8.53819 5.21568Z" fill="#736F6F" stroke="#736F6F" stroke-width="0.2"/>
</svg>
