<svg width="20" height="20" viewBox="0 0 20 20" fill="none" xmlns="http://www.w3.org/2000/svg">
<g id="Vector">
<path d="M10.155 4.78232C7.4607 4.78232 5.22829 6.97624 5.22829 9.70901C5.22829 12.4418 7.42221 14.6357 10.155 14.6357C12.8878 14.6357 15.0817 12.4033 15.0817 9.70901C15.0817 7.01473 12.8493 4.78232 10.155 4.78232ZM10.155 12.8652C8.42294 12.8652 6.99882 11.441 6.99882 9.70901C6.99882 7.97697 8.42294 6.55285 10.155 6.55285C11.887 6.55285 13.3111 7.97697 13.3111 9.70901C13.3111 11.441 11.887 12.8652 10.155 12.8652Z" fill="#353535"/>
<path d="M15.274 5.77893C15.8905 5.77893 16.3903 5.27919 16.3903 4.66273C16.3903 4.04627 15.8905 3.54653 15.274 3.54653C14.6576 3.54653 14.1578 4.04627 14.1578 4.66273C14.1578 5.27919 14.6576 5.77893 15.274 5.77893Z" fill="#353535"/>
<path d="M18.1607 1.77943C17.16 0.740211 15.7358 0.201355 14.1193 0.201355H6.19039C2.84178 0.201355 0.609375 2.43376 0.609375 5.78237V13.6728C0.609375 15.3278 1.14823 16.7519 2.22594 17.7912C3.26517 18.7919 4.6508 19.2923 6.22888 19.2923H14.0808C15.7358 19.2923 17.1215 18.7534 18.1222 17.7912C19.1614 16.7904 19.7003 15.3663 19.7003 13.7113V5.78237C19.7003 4.1658 19.1614 2.78017 18.1607 1.77943ZM18.0067 13.7113C18.0067 14.9044 17.5833 15.8667 16.8905 16.521C16.1977 17.1753 15.2355 17.5217 14.0808 17.5217H6.22888C5.07418 17.5217 4.11194 17.1753 3.41913 16.521C2.72631 15.8282 2.3799 14.8659 2.3799 13.6728V5.78237C2.3799 4.62767 2.72631 3.66543 3.41913 2.97262C4.07345 2.31829 5.07418 1.97188 6.22888 1.97188H14.1578C15.3125 1.97188 16.2747 2.31829 16.9675 3.01111C17.6218 3.70392 18.0067 4.66616 18.0067 5.78237V13.7113Z" fill="#353535"/>
</g>
</svg>
