<svg width="154" height="115" viewBox="0 0 154 115" version="1.1" xmlns="http://www.w3.org/2000/svg" xmlns:xlink="http://www.w3.org/1999/xlink">
<title>Group</title>
<desc>Created using Figma</desc>
<g id="Canvas" transform="translate(-12184 -39073)">
<g id="Group">
<g id="Vector">
<use xlink:href="#path0_fill" transform="translate(12187 39073)" fill="#FF5919"/>
</g>
<g id="Vector">
<use xlink:href="#path1_fill" transform="translate(12330 39109)" fill="#939598"/>
</g>
<g id="Vector">
<use xlink:href="#path2_fill" transform="translate(12209.2 39159.4)" fill="#FFFFFF"/>
</g>
<g id="Vector">
<use xlink:href="#path3_fill" transform="translate(12218.2 39159.1)" fill="#FFFFFF"/>
</g>
<g id="Vector">
<use xlink:href="#path4_fill" transform="translate(12226.5 39159.3)" fill="#FFFFFF"/>
</g>
<g id="Vector">
<use xlink:href="#path5_fill" transform="translate(12231.8 39159.2)" fill="#FFFFFF"/>
</g>
<g id="Vector">
<use xlink:href="#path6_fill" transform="translate(12237.7 39159.2)" fill="#FFFFFF"/>
</g>
<g id="Vector">
<use xlink:href="#path7_fill" transform="translate(12246.4 39159.3)" fill="#FFFFFF"/>
</g>
<g id="Vector">
<use xlink:href="#path8_fill" transform="translate(12257.4 39159.3)" fill="#FFFFFF"/>
</g>
<g id="Vector">
<use xlink:href="#path9_fill" transform="translate(12264.6 39159.3)" fill="#FFFFFF"/>
</g>
<g id="Vector">
<use xlink:href="#path10_fill" transform="translate(12270 39159.2)" fill="#FFFFFF"/>
</g>
<g id="Vector">
<use xlink:href="#path11_fill" transform="translate(12278.2 39159.1)" fill="#FFFFFF"/>
</g>
<g id="Vector">
<use xlink:href="#path12_fill" transform="translate(12285.9 39159.3)" fill="#FFFFFF"/>
</g>
<g id="Vector">
<use xlink:href="#path13_fill" transform="translate(12291.6 39159.4)" fill="#FFFFFF"/>
</g>
<g id="Vector">
<use xlink:href="#path14_fill" transform="translate(12297.1 39159.4)" fill="#FFFFFF"/>
</g>
<g id="Vector">
<use xlink:href="#path15_fill" transform="translate(12246 39081.4)" fill="#2A7D4D"/>
</g>
<g id="Vector">
<use xlink:href="#path16_fill" transform="translate(12240 39077)" fill="#27AE60"/>
</g>
<g id="Vector">
<use xlink:href="#path17_fill" transform="translate(12184 39104)" fill="#939598"/>
</g>
<g id="Vector">
<use xlink:href="#path18_fill" transform="translate(12246.6 39111.4)" fill="#939598"/>
</g>
<g id="Vector">
<use xlink:href="#path19_fill" transform="translate(12297.5 39111.4)" fill="#939598"/>
</g>
<g id="Vector">
<use xlink:href="#path20_fill" transform="translate(12222.2 39111.4)" fill="#939598"/>
</g>
<g id="Vector">
<use xlink:href="#path21_fill" transform="translate(12258.7 39111.4)" fill="#939598"/>
</g>
<g id="Vector">
<use xlink:href="#path22_fill" transform="translate(12185 39104.8)" fill="#FFFFFF"/>
</g>
<g id="Vector">
<use xlink:href="#path23_fill" transform="translate(12247.6 39112.3)" fill="#FFFFFF"/>
</g>
<g id="Vector">
<use xlink:href="#path24_fill" transform="translate(12298.4 39112.3)" fill="#FFFFFF"/>
</g>
<g id="Vector">
<use xlink:href="#path25_fill" transform="translate(12223.1 39112.3)" fill="#FFFFFF"/>
</g>
<g id="Vector">
<use xlink:href="#path26_fill" transform="translate(12259.6 39112.2)" fill="#FFFFFF"/>
</g>
</g>
</g>
<defs>
<path id="path0_fill" d="M 139.857 0L 0.0716845 0L 0 0L 11.2545 99.4684C 11.2545 99.4684 11.5412 115 28.8172 115L 57.2043 115L 61.2903 115L 64.5878 115L 78.7814 115L 111.183 115C 128.459 115 128.746 99.4684 128.746 99.4684L 140 0L 139.857 0Z"/>
<path id="path1_fill" d="M 3.9982 0C 1.80871 0 0 1.80952 0 4C 0 6.19048 1.80871 8 3.9982 8C 6.18769 8 7.99641 6.19048 7.99641 4C 8.0916 1.80952 6.28288 0 3.9982 0ZM 3.9982 7.42857C 2.09429 7.42857 0.571177 5.90476 0.571177 4C 0.571177 2.09524 2.09429 0.571431 3.9982 0.571431C 5.9021 0.571431 7.42523 2.09524 7.42523 4C 7.42523 5.90476 5.9021 7.42857 3.9982 7.42857ZM 5.14055 4.38095C 5.23575 4.38095 5.33093 4.28572 5.42613 4.19048C 5.71171 3.90476 5.9021 3.52381 5.9021 3.2381C 5.9021 2.76191 5.71171 2.38096 5.42613 2.19048C 5.14054 2 4.75977 1.90476 4.37899 1.90476L 2.57027 1.90476C 2.47507 1.90476 2.47508 2 2.47508 2L 2.47508 5.80952C 2.47508 5.90476 2.57027 5.90477 2.57027 5.90477L 3.42703 5.90477C 3.52223 5.90477 3.52222 5.90476 3.52222 5.80952L 3.52222 4.57143L 4.1886 4.57143L 4.85496 5.80952C 4.85496 5.90476 4.95015 5.90477 5.04535 5.90477L 5.9973 5.90477C 6.0925 5.90477 6.0925 5.80952 6.0925 5.71428L 5.14055 4.38095ZM 4.56937 3.61905C 4.47418 3.71429 4.28379 3.71429 4.1886 3.71429L 3.52222 3.71429L 3.52222 2.76191L 4.28379 2.76191C 4.37898 2.76191 4.56938 2.7619 4.66457 2.85714C 4.75977 2.95238 4.85496 3.04762 4.85496 3.2381C 4.75977 3.42857 4.66457 3.61905 4.56937 3.61905Z"/>
<path id="path2_fill" d="M 3.81815 3.52011C 3.67407 3.44827 3.60203 3.3046 3.38591 3.23276C 3.52999 3.08908 3.60203 3.01724 3.67407 2.87357C 3.81815 2.58621 3.89019 2.22701 3.89019 1.93966C 3.89019 1.58046 3.81815 1.22127 3.60203 0.933912C 3.38591 0.646556 3.16979 0.3592 2.80959 0.215522C 2.52142 0.0718435 2.08918 2.19235e-06 1.51285 2.19235e-06L 0 2.19235e-06L 0 7.32759L 2.08918 7.32759C 2.80959 7.32759 3.38591 7.11207 3.81815 6.68104C 4.2504 6.25 4.46652 5.74712 4.46652 5.10057C 4.46652 4.81321 4.39448 4.52586 4.2504 4.2385C 4.17836 3.95115 4.03427 3.73563 3.81815 3.52011ZM 1.22469 4.02298C 1.80102 4.02298 2.16122 4.02299 2.37734 4.09483C 2.6655 4.16667 2.88163 4.31034 3.02571 4.45402C 3.16979 4.5977 3.24183 4.81322 3.24183 5.02874C 3.24183 5.24426 3.16979 5.38793 3.09775 5.53161C 3.02571 5.67529 2.88163 5.81897 2.6655 5.8908C 2.52142 5.96264 2.3053 6.03448 1.72898 6.03448L 1.22469 6.03448L 1.22469 4.02298L 1.22469 4.02298ZM 2.52142 2.37069C 2.44938 2.51437 2.3053 2.58621 2.16122 2.65805C 2.01714 2.72989 1.80102 2.72989 1.29673 2.72989L 1.22469 2.72989L 1.22469 1.22126L 1.65693 1.22126C 2.01714 1.22126 2.3053 1.29311 2.44938 1.43678C 2.59346 1.58046 2.6655 1.72414 2.6655 1.93966C 2.6655 2.08333 2.6655 2.22702 2.52142 2.37069Z"/>
<path id="path3_fill" d="M 5.90733 5.53161C 5.33101 6.17817 4.68264 6.53736 3.81815 6.53736C 3.09775 6.53736 2.44938 6.32184 1.9451 5.81897C 1.44081 5.31609 1.22469 4.74137 1.22469 3.95115C 1.22469 3.44827 1.36877 3.01724 1.58489 2.58621C 1.80102 2.22701 2.08918 1.86781 2.52142 1.6523C 3.31387 1.22126 4.2504 1.22127 4.9708 1.58046C 5.33101 1.79598 5.61917 2.01149 5.90733 2.37069L 6.12345 2.58621L 7.05998 1.79597L 6.9159 1.58046C 6.5557 1.07759 6.12345 0.718391 5.61917 0.431035C 5.11488 0.143678 4.46652 -4.38471e-06 3.81815 -4.38471e-06C 2.73754 -4.38471e-06 1.80102 0.359191 1.08061 1.07758C 0.360203 1.79597 5.11879e-15 2.72988 5.11879e-15 3.80747C 5.11879e-15 4.81322 0.288163 5.67529 0.864488 6.39368C 1.58489 7.25575 2.52142 7.68679 3.74611 7.68679C 4.39448 7.68679 4.9708 7.54311 5.47509 7.32759C 5.97937 7.11207 6.41162 6.68104 6.77182 6.25L 6.9159 6.03449L 5.97937 5.24425L 5.90733 5.53161Z"/>
<path id="path4_fill" d="M 0 7.39943L 4.2504 7.39943L 4.2504 6.10632L 1.22469 6.10632L 1.22469 4.02299L 4.2504 4.02299L 4.2504 2.80173L 1.22469 2.80173L 1.22469 1.2931L 4.32244 1.2931L 4.32244 -2.19235e-06L 0 -2.19235e-06L 0 7.39943Z"/>
<path id="path5_fill" d="M 4.03428 3.52011C 4.46652 3.16092 4.68264 2.65805 4.68264 2.0115C 4.68264 1.43678 4.46652 0.93391 4.03428 0.574715C 3.67407 0.215519 3.09775 0 2.52142 0C 1.80102 0 1.15265 0.287359 0.576324 0.93391L 0.432245 1.14943L 1.29673 1.93965L 1.51285 1.72413C 1.87306 1.36494 2.16122 1.22126 2.52142 1.22126C 2.80959 1.22126 2.95366 1.2931 3.16979 1.43678C 3.31387 1.58046 3.38591 1.79598 3.38591 2.15517C 3.38591 2.58621 3.24183 3.08908 2.23326 3.08908L 1.72897 3.08908L 1.72897 4.2385L 2.16122 4.2385C 2.59346 4.2385 2.80959 4.23851 2.88163 4.31034C 3.02571 4.31034 3.16979 4.38218 3.31387 4.45402C 3.45795 4.52586 3.52999 4.66954 3.60203 4.81322C 3.67407 4.95689 3.74611 5.10057 3.74611 5.31609C 3.74611 5.74712 3.67407 6.03449 3.38591 6.17817C 2.95367 6.53736 2.37734 6.6092 1.87306 6.32184C 1.72898 6.25 1.44081 6.03448 1.15265 5.53161L 1.00857 5.31609L 2.19851e-06 5.8908L 0.144081 6.17817C 0.504284 6.75288 0.864488 7.11207 1.22469 7.32758C 1.58489 7.5431 2.08918 7.68678 2.59346 7.68678C 3.31387 7.68678 3.96224 7.47127 4.39448 7.04023C 4.82672 6.6092 5.04285 6.03448 5.04285 5.38793C 5.04285 4.52586 4.68264 3.87931 4.03428 3.52011Z"/>
<path id="path6_fill" d="M 3.67407 0C 3.02571 0 2.37734 0.143676 1.87306 0.502871C 1.29673 0.862067 0.864485 1.2931 0.504282 1.93965C 0.21612 2.51437 1.02376e-14 3.16092 1.02376e-14 3.87931C 1.02376e-14 4.95689 0.360203 5.81897 1.08061 6.53736C 1.80102 7.25575 2.6655 7.68678 3.74611 7.68678C 4.75468 7.68678 5.69121 7.32759 6.41162 6.53736C 7.13202 5.81897 7.49223 4.88506 7.49223 3.80747C 7.49223 2.72989 7.13202 1.79598 6.41162 1.07759C 5.61917 0.359195 4.75468 0 3.67407 0ZM 6.12345 3.80747C 6.12345 4.31035 6.05141 4.74138 5.83529 5.17241C 5.61917 5.53161 5.33101 5.8908 4.9708 6.10632C 4.6106 6.32184 4.17835 6.46552 3.74611 6.46552C 3.09774 6.46552 2.52142 6.25 2.01714 5.74713C 1.51286 5.24425 1.29673 4.66954 1.29673 3.87931C 1.29673 3.37643 1.44081 2.9454 1.65694 2.51437C 1.87306 2.15517 2.16122 1.79597 2.52142 1.58046C 2.88162 1.36494 3.31387 1.22126 3.74611 1.22126C 4.17835 1.22126 4.6106 1.36494 4.9708 1.58046C 5.40305 1.79597 5.69121 2.15517 5.90733 2.51437C 6.05141 2.9454 6.12345 3.37644 6.12345 3.80747Z"/>
<path id="path7_fill" d="M 3.96223 2.87356L 1.22469 2.87356L 1.22469 -2.19235e-06L -1.09925e-06 -2.19235e-06L -1.09925e-06 7.39943L 1.22469 7.39943L 1.22469 4.09482L 3.96223 4.09482L 3.96223 7.39943L 5.18693 7.39943L 5.18693 -2.19235e-06L 3.96223 -2.19235e-06L 3.96223 2.87356Z"/>
<path id="path8_fill" d="M 1.09925e-06 7.39943L 1.22469 7.39943L 1.22469 1.22126L 3.96224 1.22126L 3.96224 7.39943L 5.18692 7.39943L 5.18692 -2.19235e-06L 1.09925e-06 -2.19235e-06L 1.09925e-06 7.39943Z"/>
<path id="path9_fill" d="M 3.16979 0.143674C 2.88163 0.0718347 2.37734 -2.19235e-06 1.58489 -2.19235e-06L 1.09925e-06 -2.19235e-06L 1.09925e-06 7.32758L 1.22469 7.32758L 1.22469 4.16667L 1.36877 4.16667C 2.23326 4.16667 2.73754 4.09483 3.09774 4.02299C 3.60203 3.87931 3.96223 3.6638 4.17835 3.3046C 4.46652 2.9454 4.6106 2.51437 4.6106 2.01149C 4.6106 1.50862 4.46652 1.07758 4.17835 0.718389C 3.96223 0.502871 3.60203 0.287352 3.16979 0.143674ZM 3.38591 2.15517C 3.38591 2.37069 3.31387 2.51436 3.24183 2.65804C 3.16979 2.80172 3.02571 2.87357 2.88163 2.9454C 2.73754 3.01724 2.52142 3.01724 2.01714 3.01724L 1.22469 3.01724L 1.22469 1.2931L 2.08918 1.2931C 2.59346 1.2931 2.80958 1.36495 2.95367 1.36495C 3.09775 1.43679 3.16979 1.50862 3.31387 1.6523C 3.38591 1.79598 3.38591 1.93965 3.38591 2.15517Z"/>
<path id="path10_fill" d="M 3.74611 0C 3.09775 0 2.44938 0.143676 1.87306 0.502871C 1.29673 0.862067 0.864486 1.2931 0.504283 1.93965C 0.216121 2.51437 1.09925e-06 3.16092 1.09925e-06 3.87931C 1.09925e-06 4.88505 0.360204 5.81897 1.08061 6.53736C 1.80102 7.25575 2.6655 7.68678 3.74611 7.68678C 4.75468 7.68678 5.69121 7.32759 6.33957 6.53736C 7.05998 5.81897 7.42018 4.88506 7.42018 3.80747C 7.42018 2.72989 7.05998 1.79598 6.33957 1.07759C 5.69121 0.359195 4.82672 0 3.74611 0ZM 6.26754 3.80747C 6.26754 4.31035 6.12345 4.74138 5.90733 5.17241C 5.69121 5.53161 5.40305 5.8908 5.04284 6.10632C 4.68264 6.32184 4.25039 6.46552 3.81815 6.46552C 3.16979 6.46552 2.59346 6.25 2.08918 5.74713C 1.5849 5.24425 1.36877 4.66954 1.36877 3.87931C 1.36877 3.37643 1.51286 2.9454 1.72898 2.51437C 1.9451 2.08333 2.23326 1.79597 2.6655 1.58046C 3.02571 1.36494 3.45795 1.22126 3.8902 1.22126C 4.32244 1.22126 4.75468 1.36494 5.11488 1.58046C 5.54713 1.79597 5.83529 2.15517 6.05141 2.51437C 6.12346 2.9454 6.26754 3.37644 6.26754 3.80747Z"/>
<path id="path11_fill" d="M 5.90733 5.53161C 5.33101 6.17817 4.68264 6.53736 3.81816 6.53736C 3.09775 6.53736 2.44938 6.32184 1.9451 5.81897C 1.44081 5.31609 1.22469 4.74137 1.22469 3.95115C 1.22469 3.44827 1.36877 3.01724 1.58489 2.58621C 1.80102 2.22701 2.08918 1.86781 2.52142 1.6523C 3.31387 1.22126 4.25039 1.22127 4.9708 1.58046C 5.331 1.79598 5.61917 2.01149 5.90733 2.37069L 6.12346 2.58621L 7.05999 1.79597L 6.9159 1.58046C 6.55569 1.07759 6.12346 0.718391 5.61917 0.431035C 5.11489 0.143678 4.46652 -4.38471e-06 3.81816 -4.38471e-06C 2.73755 -4.38471e-06 1.80102 0.359191 1.08061 1.07758C 0.360205 1.79597 2.19851e-06 2.72988 2.19851e-06 3.80747C 2.19851e-06 4.81322 0.288163 5.67529 0.864488 6.39368C 1.58489 7.25575 2.52143 7.68679 3.81816 7.68679C 4.46652 7.68679 5.04284 7.54311 5.54713 7.32759C 6.05141 7.11207 6.5557 6.68104 6.84386 6.25L 6.98794 6.03449L 6.05141 5.24425L 5.90733 5.53161Z"/>
<path id="path12_fill" d="M 0 1.2931L 1.51286 1.2931L 1.51286 7.39943L 2.73755 7.39943L 2.73755 1.2931L 4.17836 1.2931L 4.17836 -2.19235e-06L 0 -2.19235e-06L 0 1.2931Z"/>
<path id="path13_fill" d="M 3.09775 4.09483L 1.36877 2.19235e-06L 2.19851e-06 2.19235e-06L 2.52142 5.74713C 2.37734 6.10632 2.23326 6.17816 2.23326 6.25C 2.08917 6.32184 1.94509 6.39368 1.72897 6.32184C 1.72897 6.32184 1.58489 6.25 1.15265 5.81896L 0.936533 5.60345L 2.19851e-06 6.39368L 0.216126 6.60919C 0.576329 7.04023 0.86449 7.25575 1.08061 7.39943C 1.29673 7.54311 1.58489 7.54311 1.87305 7.54311C 2.59346 7.54311 3.09775 7.1839 3.38591 6.53735L 6.05141 0.0718347L 4.68264 0.0718347L 3.09775 4.09483Z"/>
<path id="path14_fill" d="M 6.48366 6.10632L 3.81816 2.19235e-06L 3.16978 2.19235e-06L 0.648361 6.10632L 0 6.10632L 0 8.33333L 1.22469 8.33333L 1.22469 7.32759L 5.83529 7.32759L 5.83529 8.33333L 7.05998 8.33333L 7.05998 6.10632L 6.48366 6.10632ZM 5.11489 6.10632L 2.01714 6.10632L 3.52999 2.44253L 5.11489 6.10632Z"/>
<path id="path15_fill" d="M 44.0001 3.06834e-07C 44.0001 3.06834e-07 43.1837 20.6717 22.449 26.1413C 12.7347 28.313 4.81633 25.0152 0 22.0391C 2.93878 18.5804 6.04082 14.8 14.449 13.1109C 21.6327 11.7435 29.3062 12.387 35.347 8.60652"/>
<path id="path16_fill" d="M 0.774904 37C -4.28633 12.7891 17.1015 9.81304 17.1015 9.81304C 31.5505 7.72174 39.4688 8.52609 47.3872 3.06834e-07C 47.3872 3.06834e-07 48.6933 20.6717 28.6117 28.1522C 19.2239 31.2891 10.979 28.7957 5.91777 26.3022C 8.44839 22.6022 11.1423 18.5 19.3872 16.0065C 26.326 13.9152 34.0811 13.7543 39.7137 9.4913C 39.7137 9.4913 35.4688 12.4674 24.4484 13.513C 13.9994 14.4783 8.85655 18.7413 5.67287 23.0848C 5.67287 23.0848 2.40756 26.9457 0.774904 37Z"/>
<path id="path17_fill" d="M 36.8848 0.359194L 36.9568 -1.09618e-06L 24.6379 -1.09618e-06C 16.2812 -1.09618e-06 10.9502 4.5977 9.86957 12.6437L 8.71692 22.773C 8.28467 26.2931 7.70835 28.0891 5.69121 29.5259L 1.72898 29.5259L 0 43.1753L 8.861 43.1753L 9.5814 37.4282L 28.312 37.4282L 27.5916 43.1753L 36.4526 43.1753L 38.1815 29.5259L 33.2828 29.5259L 36.8848 0.359194ZM 17.65 22.5575L 18.7306 12.7874C 19.2348 8.90805 20.8197 8.11782 23.4852 8.11782L 27.0152 8.11782L 24.4218 29.454L 15.921 29.454C 16.7134 27.5862 17.2898 25.2874 17.65 22.5575Z"/>
<path id="path18_fill" d="M 3.8902 1.09618e-06L 1.09925e-06 29.9569L 8.86099 29.9569L 12.7512 1.09618e-06L 3.8902 1.09618e-06Z"/>
<path id="path19_fill" d="M 21.0839 1.09618e-06L 18.2743 21.7672L 12.1508 21.7672C 10.8541 21.7672 10.0617 21.5517 9.62943 20.977C 8.98106 20.2586 8.83699 18.8218 9.05311 16.7385L 11.2143 1.09618e-06L 5.45108 1.09618e-06L 5.37903 1.09618e-06C 3.57802 0.215518 2.49741 1.36494 1.92108 3.52012L 0.192111 16.6667C -0.384214 21.0489 0.336192 24.4253 2.35333 26.6523C 4.29843 28.8075 7.32413 29.9569 11.2864 29.9569L 25.6225 29.9569L 29.5126 1.09618e-06L 21.0839 1.09618e-06L 21.0839 1.09618e-06Z"/>
<path id="path20_fill" d="M 23.4628 10.4885C 21.3737 8.11782 17.9878 6.89655 13.5212 6.89655L 10.4955 6.89655L 11.36 1.09618e-06L 5.52473 1.09618e-06C 3.72371 0.215518 2.6431 1.36494 1.99473 3.66379L 0.193719 17.8879C -0.382606 22.0546 0.3378 25.2874 2.21086 27.3707C 4.01187 29.454 7.03758 30.5316 11.1439 30.5316C 19.1404 30.5316 24.6875 26.0057 25.552 18.75C 25.9843 15.3736 25.2639 12.5718 23.4628 10.4885ZM 11.7923 22.2701C 10.6396 22.2701 9.99125 22.0546 9.559 21.6236C 9.05472 21.0489 8.91063 19.8276 9.12675 18.1753L 9.559 15.0862L 12.5127 15.0862C 14.5298 15.0862 15.8265 15.4454 16.4029 16.092C 16.8351 16.5948 16.9792 17.3132 16.7631 18.5345C 16.4029 20.977 14.7459 22.2701 11.7923 22.2701Z"/>
<path id="path21_fill" d="M 30.5933 1.09618e-06L 27.7837 21.7672L 22.5247 21.7672L 25.3343 1.09618e-06L 16.4733 1.09618e-06L 13.6637 21.7672L 12.1509 21.7672C 10.8541 21.7672 10.1337 21.5517 9.62943 20.977C 8.98106 20.2586 8.83699 18.8218 9.05311 16.7385L 11.2143 1.09618e-06L 5.45108 1.09618e-06L 5.37903 1.09618e-06C 3.50598 0.215518 2.42537 1.43678 1.84905 3.80747L 0.192108 16.6667C -0.384217 21.0489 0.33619 24.4253 2.35333 26.6523C 4.29842 28.8075 7.32413 29.9569 11.2864 29.9569L 35.7081 29.9569L 39.5983 1.09618e-06L 30.5933 1.09618e-06L 30.5933 1.09618e-06Z"/>
<path id="path22_fill" d="M 34.9397 5.48089e-07L 23.6293 5.48089e-07C 15.7769 5.48089e-07 10.7341 4.31034 9.72548 11.8534L 8.57284 21.9828C 8.06855 25.7902 7.42018 27.8736 4.9708 29.5259L 1.51285 29.5259L -1.71758e-08 41.4511L 7.13202 41.4511L 7.85243 35.704L 28.312 35.704L 27.5916 41.4511L 34.7236 41.4511L 36.2364 29.5259L 31.3377 29.5259L 34.9397 5.48089e-07ZM 24.2057 29.5259L 13.5436 29.5259C 14.6242 27.5144 15.3447 24.9282 15.7769 21.6954L 16.8575 11.9253C 17.4338 7.47127 19.523 6.53736 22.4767 6.53736L 27.0152 6.53736L 24.2057 29.5259Z"/>
<path id="path23_fill" d="M 2.19851e-06 28.2328L 7.13202 28.2328L 10.7341 -1.09618e-06L 3.60203 -1.09618e-06L 2.19851e-06 28.2328Z"/>
<path id="path24_fill" d="M 20.9956 -1.09618e-06L 18.186 21.7672L 11.2701 21.7672C 8.82069 21.7672 6.65948 21.0488 7.30784 15.8046L 9.32498 -1.09618e-06L 4.57031 -1.09618e-06C 3.27357 0.143677 2.33704 0.862069 1.83276 2.80172L 0.175823 15.9483C -1.12091 26.1494 5.00254 28.2328 10.4056 28.2328L 24.0213 28.2328L 27.6233 -1.09618e-06L 20.9956 -1.09618e-06L 20.9956 -1.09618e-06Z"/>
<path id="path25_fill" d="M 12.6394 6.89655L 8.60514 6.89655L 9.46963 -1.09618e-06L 4.71494 -1.09618e-06C 3.41821 0.143677 2.48169 0.933906 1.9774 2.9454L 0.176385 17.0977C -0.832183 24.9282 2.48169 28.7356 10.19 28.7356C 17.6823 28.7356 22.9412 24.4971 23.8057 17.7443C 24.6702 10.9914 20.5639 6.89655 12.6394 6.89655ZM 16.6737 17.7443C 16.3135 20.6897 14.2243 22.2701 10.8384 22.2701C 8.67718 22.2701 6.73208 21.6236 7.30841 17.2414L 7.81269 13.3621L 11.4868 13.3621C 16.2414 13.3621 17.0339 15.0862 16.6737 17.7443Z"/>
<path id="path26_fill" d="M 30.4328 0.071838L 27.6232 21.8391L 23.3008 21.8391C 23.1567 21.8391 23.0847 21.8391 22.9406 21.8391L 21.86 21.8391L 20.7073 21.8391L 23.5169 0.071838L 16.3849 0.071838L 13.5753 21.8391L 11.3421 21.8391C 8.89268 21.8391 6.73146 21.1207 7.37983 15.8764L 9.39697 0.071838L 4.64229 0.071838C 3.27352 0.287355 2.40903 1.00575 1.8327 3.08908L 0.175765 15.9483C -1.12097 26.1494 5.00249 28.2328 10.4776 28.2328L 21.1396 28.2328L 22.1482 28.2328L 34.1069 28.2328L 37.781 -1.02089e-14L 30.4328 -1.02089e-14L 30.4328 0.071838Z"/>
</defs>
</svg>
