<svg width="85" height="27" viewBox="0 0 85 27" fill="none" xmlns="http://www.w3.org/2000/svg">
<path d="M84.7168 3.5C84.7168 1.84315 83.3737 0.5 81.7168 0.5L13.2241 0.5C12.3716 0.5 11.5593 0.862729 10.9902 1.49755L2.43871 11.0374C1.44862 12.1419 1.41437 13.8042 2.35811 14.9486L10.9845 25.4087C11.5543 26.0998 12.4032 26.5 13.2989 26.5H81.7168C83.3736 26.5 84.7168 25.1569 84.7168 23.5V3.5Z" fill="#FF8351"/>
<path d="M30.7808 16.5H29.6168V12.588H24.9788V16.5H23.8148V7.902H24.9788V11.736H29.6168V7.902H30.7808V16.5ZM35.1014 10.326C35.5454 10.326 35.9454 10.4 36.3014 10.548C36.6574 10.696 36.9614 10.906 37.2134 11.178C37.4654 11.45 37.6574 11.78 37.7894 12.168C37.9254 12.552 37.9934 12.982 37.9934 13.458C37.9934 13.938 37.9254 14.37 37.7894 14.754C37.6574 15.138 37.4654 15.466 37.2134 15.738C36.9614 16.01 36.6574 16.22 36.3014 16.368C35.9454 16.512 35.5454 16.584 35.1014 16.584C34.6534 16.584 34.2494 16.512 33.8894 16.368C33.5334 16.22 33.2294 16.01 32.9774 15.738C32.7254 15.466 32.5314 15.138 32.3954 14.754C32.2634 14.37 32.1974 13.938 32.1974 13.458C32.1974 12.982 32.2634 12.552 32.3954 12.168C32.5314 11.78 32.7254 11.45 32.9774 11.178C33.2294 10.906 33.5334 10.696 33.8894 10.548C34.2494 10.4 34.6534 10.326 35.1014 10.326ZM35.1014 15.75C35.7014 15.75 36.1494 15.55 36.4454 15.15C36.7414 14.746 36.8894 14.184 36.8894 13.464C36.8894 12.74 36.7414 12.176 36.4454 11.772C36.1494 11.368 35.7014 11.166 35.1014 11.166C34.7974 11.166 34.5314 11.218 34.3034 11.322C34.0794 11.426 33.8914 11.576 33.7394 11.772C33.5914 11.968 33.4794 12.21 33.4034 12.498C33.3314 12.782 33.2954 13.104 33.2954 13.464C33.2954 14.184 33.4434 14.746 33.7394 15.15C34.0394 15.55 34.4934 15.75 35.1014 15.75ZM39.348 10.422H41.574C41.95 10.422 42.272 10.46 42.54 10.536C42.808 10.612 43.028 10.716 43.2 10.848C43.372 10.976 43.498 11.128 43.578 11.304C43.658 11.48 43.698 11.668 43.698 11.868C43.698 12 43.68 12.138 43.644 12.282C43.608 12.426 43.544 12.564 43.452 12.696C43.364 12.828 43.242 12.948 43.086 13.056C42.934 13.16 42.742 13.242 42.51 13.302C42.97 13.382 43.326 13.544 43.578 13.788C43.834 14.028 43.962 14.346 43.962 14.742C43.962 15.038 43.902 15.296 43.782 15.516C43.666 15.732 43.504 15.914 43.296 16.062C43.092 16.21 42.852 16.32 42.576 16.392C42.3 16.464 42.004 16.5 41.688 16.5H39.348V10.422ZM40.374 13.728V15.75H41.682C42.082 15.75 42.398 15.658 42.63 15.474C42.862 15.286 42.978 15.03 42.978 14.706C42.978 14.562 42.956 14.432 42.912 14.316C42.868 14.196 42.796 14.092 42.696 14.004C42.596 13.916 42.462 13.848 42.294 13.8C42.13 13.752 41.928 13.728 41.688 13.728H40.374ZM40.374 13.05H41.544C41.72 13.05 41.882 13.026 42.03 12.978C42.182 12.926 42.312 12.856 42.42 12.768C42.528 12.676 42.612 12.568 42.672 12.444C42.732 12.316 42.762 12.176 42.762 12.024C42.762 11.912 42.742 11.804 42.702 11.7C42.662 11.592 42.594 11.498 42.498 11.418C42.402 11.334 42.276 11.268 42.12 11.22C41.964 11.168 41.772 11.142 41.544 11.142H40.374V13.05ZM45.3011 16.506V10.428H46.3751V14.556C46.3751 14.632 46.3711 14.716 46.3631 14.808C46.3551 14.896 46.3451 14.986 46.3331 15.078C46.3651 14.998 46.3991 14.926 46.4351 14.862C46.4751 14.798 46.5131 14.738 46.5491 14.682C46.5531 14.674 46.5991 14.612 46.6871 14.496C46.7751 14.376 46.8871 14.222 47.0231 14.034C47.1631 13.842 47.3211 13.628 47.4971 13.392C47.6731 13.152 47.8511 12.908 48.0311 12.66C48.4551 12.08 48.9391 11.424 49.4831 10.692C49.5271 10.628 49.5831 10.568 49.6511 10.512C49.7191 10.452 49.7931 10.422 49.8731 10.422H50.5151V16.5H49.4471V12.372C49.4471 12.296 49.4511 12.212 49.4591 12.12C49.4671 12.028 49.4771 11.936 49.4891 11.844C49.4531 11.924 49.4151 11.998 49.3751 12.066C49.3391 12.13 49.3031 12.19 49.2671 12.246C49.2591 12.254 49.2111 12.318 49.1231 12.438C49.0391 12.558 48.9271 12.712 48.7871 12.9C48.6471 13.088 48.4891 13.302 48.3131 13.542C48.1371 13.778 47.9591 14.02 47.7791 14.268C47.3551 14.848 46.8731 15.504 46.3331 16.236C46.2891 16.3 46.2331 16.362 46.1651 16.422C46.1011 16.478 46.0291 16.506 45.9491 16.506H45.3011ZM57.2674 10.422V16.5H56.1934V13.656H53.2774V16.5H52.2034V10.422H53.2774V12.846H56.1934V10.422H57.2674ZM62.6551 10.722C62.7111 10.634 62.7851 10.562 62.8771 10.506C62.9691 10.45 63.0671 10.422 63.1711 10.422H64.0051L62.4271 12.738C62.3311 12.886 62.2311 13.008 62.1271 13.104C62.0231 13.196 61.8951 13.268 61.7431 13.32C61.9351 13.372 62.0971 13.454 62.2291 13.566C62.3611 13.674 62.4791 13.814 62.5831 13.986L64.1791 16.5H63.4351C63.2431 16.5 63.0951 16.468 62.9911 16.404C62.8871 16.34 62.7971 16.248 62.7211 16.128L61.5391 14.238C61.3511 13.926 61.0691 13.77 60.6931 13.77H60.0391V16.506H58.9651V10.422H60.0391V13.05H60.6151C60.9351 13.05 61.1851 12.914 61.3651 12.642L62.6551 10.722ZM69.0401 16.5C68.9361 16.5 68.8561 16.484 68.8001 16.452C68.7441 16.416 68.7001 16.348 68.6681 16.248L68.5481 15.678C68.3881 15.822 68.2301 15.952 68.0741 16.068C67.9221 16.18 67.7621 16.276 67.5941 16.356C67.4301 16.432 67.2521 16.49 67.0601 16.53C66.8721 16.574 66.6621 16.596 66.4301 16.596C66.1941 16.596 65.9721 16.564 65.7641 16.5C65.5561 16.432 65.3741 16.332 65.2181 16.2C65.0661 16.068 64.9441 15.902 64.8521 15.702C64.7641 15.498 64.7201 15.258 64.7201 14.982C64.7201 14.742 64.7861 14.512 64.9181 14.292C65.0501 14.068 65.2641 13.87 65.5601 13.698C65.8561 13.526 66.2421 13.386 66.7181 13.278C67.1941 13.166 67.7781 13.102 68.4701 13.086V12.612C68.4701 12.14 68.3681 11.784 68.1641 11.544C67.9601 11.3 67.6621 11.178 67.2701 11.178C67.0061 11.178 66.7841 11.212 66.6041 11.28C66.4281 11.344 66.2741 11.418 66.1421 11.502C66.0141 11.582 65.9021 11.656 65.8061 11.724C65.7141 11.788 65.6221 11.82 65.5301 11.82C65.4581 11.82 65.3961 11.802 65.3441 11.766C65.2921 11.726 65.2481 11.678 65.2121 11.622L65.0201 11.28C65.3561 10.956 65.7181 10.714 66.1061 10.554C66.4941 10.394 66.9241 10.314 67.3961 10.314C67.7361 10.314 68.0381 10.37 68.3021 10.482C68.5661 10.594 68.7881 10.75 68.9681 10.95C69.1481 11.15 69.2841 11.392 69.3761 11.676C69.4681 11.96 69.5141 12.272 69.5141 12.612V16.5H69.0401ZM66.7481 15.846C66.9361 15.846 67.1081 15.828 67.2641 15.792C67.4201 15.752 67.5661 15.698 67.7021 15.63C67.8421 15.558 67.9741 15.472 68.0981 15.372C68.2261 15.268 68.3501 15.152 68.4701 15.024V13.764C67.9781 13.78 67.5581 13.82 67.2101 13.884C66.8661 13.944 66.5841 14.024 66.3641 14.124C66.1481 14.224 65.9901 14.342 65.8901 14.478C65.7941 14.614 65.7461 14.766 65.7461 14.934C65.7461 15.094 65.7721 15.232 65.8241 15.348C65.8761 15.464 65.9461 15.56 66.0341 15.636C66.1261 15.708 66.2321 15.762 66.3521 15.798C66.4761 15.83 66.6081 15.846 66.7481 15.846ZM72.4249 7.902V11.334C72.4249 11.514 72.4209 11.69 72.4129 11.862C72.4049 12.034 72.3949 12.208 72.3829 12.384C72.3709 12.556 72.3549 12.734 72.3349 12.918C72.3189 13.098 72.2989 13.292 72.2749 13.5H71.5549C71.5309 13.292 71.5089 13.098 71.4889 12.918C71.4729 12.734 71.4589 12.556 71.4469 12.384C71.4349 12.208 71.4249 12.034 71.4169 11.862C71.4089 11.69 71.4049 11.514 71.4049 11.334V7.902H72.4249ZM71.1469 15.84C71.1469 15.736 71.1649 15.638 71.2009 15.546C71.2409 15.454 71.2949 15.374 71.3629 15.306C71.4309 15.238 71.5089 15.184 71.5969 15.144C71.6889 15.104 71.7889 15.084 71.8969 15.084C72.0009 15.084 72.0969 15.104 72.1849 15.144C72.2769 15.184 72.3569 15.238 72.4249 15.306C72.4929 15.374 72.5469 15.454 72.5869 15.546C72.6269 15.638 72.6469 15.736 72.6469 15.84C72.6469 15.948 72.6269 16.048 72.5869 16.14C72.5469 16.228 72.4929 16.306 72.4249 16.374C72.3569 16.442 72.2769 16.494 72.1849 16.53C72.0969 16.57 72.0009 16.59 71.8969 16.59C71.7889 16.59 71.6889 16.57 71.5969 16.53C71.5089 16.494 71.4309 16.442 71.3629 16.374C71.2949 16.306 71.2409 16.228 71.2009 16.14C71.1649 16.048 71.1469 15.948 71.1469 15.84Z" fill="white"/>
</svg>
