<svg width="13" height="20" viewBox="0 0 13 20" fill="none" xmlns="http://www.w3.org/2000/svg">
<g id="odnoklass">
<path id="Vector" d="M6.29117 9.74399C7.20131 9.74399 8.09101 9.4642 8.84775 8.93998C9.6045 8.41577 10.1943 7.67069 10.5426 6.79896C10.8909 5.92722 10.982 4.96799 10.8045 4.04257C10.6269 3.11714 10.1886 2.26708 9.54508 1.59989C8.90152 0.93269 8.08157 0.478324 7.18893 0.294246C6.29628 0.110167 5.37103 0.204643 4.53017 0.565726C3.68932 0.92681 2.97063 1.53828 2.46498 2.32282C1.95934 3.10736 1.68945 4.02973 1.68945 4.97329C1.68945 6.23856 2.17428 7.452 3.03727 8.34669C3.90026 9.24137 5.07072 9.74399 6.29117 9.74399ZM6.29117 2.58793C6.74624 2.58793 7.19109 2.72783 7.56946 2.98994C7.94784 3.25204 8.24275 3.62458 8.41689 4.06045C8.59104 4.49632 8.6366 4.97593 8.54783 5.43865C8.45905 5.90136 8.23991 6.32639 7.91813 6.65999C7.59635 6.99358 7.18637 7.22077 6.74005 7.31281C6.29373 7.40485 5.8311 7.35761 5.41067 7.17707C4.99025 6.99652 4.6309 6.69079 4.37808 6.29852C4.12526 5.90625 3.99031 5.44506 3.99031 4.97329C3.99031 4.34065 4.23272 3.73393 4.66422 3.28659C5.09572 2.83925 5.68095 2.58793 6.29117 2.58793Z" fill="#353535"/>
<path id="Vector_2" d="M11.5069 12.5425C11.7893 12.3503 12.0212 12.0884 12.1819 11.7803C12.3425 11.4722 12.4268 11.1276 12.4273 10.7773C12.4337 10.5667 12.3983 10.357 12.3235 10.161C12.2487 9.9651 12.1359 9.78714 11.9922 9.63814C11.8485 9.48913 11.6768 9.37223 11.4878 9.29466C11.2988 9.21709 11.0965 9.18048 10.8934 9.1871C10.558 9.18766 10.232 9.30217 9.96534 9.5131C8.89685 10.341 7.59871 10.7883 6.26479 10.7883C4.93087 10.7883 3.63274 10.341 2.56424 9.5131C2.30777 9.3275 2.00269 9.22763 1.68992 9.22686C1.48675 9.22024 1.28443 9.25684 1.09544 9.33441C0.906451 9.41199 0.734796 9.52888 0.591066 9.67789C0.447337 9.8269 0.334581 10.0049 0.259756 10.2008C0.18493 10.3967 0.149621 10.6065 0.156008 10.8171C0.156454 11.1673 0.24078 11.5119 0.401417 11.82C0.562053 12.1281 0.793971 12.39 1.07635 12.5823C1.82124 13.0759 2.62933 13.4587 3.47692 13.7193L3.96777 13.8624L1.45216 16.4227C1.30004 16.5787 1.17928 16.7644 1.09686 16.9692C1.01444 17.1739 0.972006 17.3935 0.972006 17.6154C0.972006 17.8372 1.01444 18.0568 1.09686 18.2615C1.17928 18.4663 1.30004 18.652 1.45216 18.808C1.76005 19.1189 2.17283 19.2928 2.60259 19.2928C3.03235 19.2928 3.44513 19.1189 3.75302 18.808L6.29164 16.049L8.84559 18.7921C9.15071 19.1084 9.56453 19.2861 9.99602 19.2861C10.4275 19.2861 10.8413 19.1084 11.1465 18.7921C11.4516 18.4758 11.623 18.0468 11.623 17.5995C11.623 17.1521 11.4516 16.7231 11.1465 16.4068L8.5925 13.8703L9.09102 13.7272C9.94651 13.4533 10.76 13.0544 11.5069 12.5425Z" fill="#353535"/>
</g>
</svg>
