<svg width="128" height="128" viewBox="0 0 128 128" version="1.1" xmlns="http://www.w3.org/2000/svg" xmlns:xlink="http://www.w3.org/1999/xlink">
<title>Group 2</title>
<desc>Created using Figma</desc>
<g id="Canvas" transform="translate(-15503 -33634)">
<g id="Group 2">
<g id="Group">
<g id="Group">
<g id="Vector">
<use xlink:href="#path0_fill" transform="translate(15503 33634)" fill="#E8F0D5"/>
</g>
<g id="Vector">
<use xlink:href="#path1_fill" transform="translate(15523.6 33700.1)" fill="#E8F0D5"/>
</g>
<g id="Vector">
<use xlink:href="#path2_fill" transform="translate(15540.1 33700)" fill="#E8F0D5"/>
</g>
<g id="Vector">
<use xlink:href="#path3_fill" transform="translate(15560.3 33700.1)" fill="#E8F0D5"/>
</g>
</g>
</g>
</g>
</g>
<defs>
<path id="path0_fill" d="M 122.815 32.4948L 97.2425 4.94845L 92.6907 0L 31.0348 0L 31.0348 48.6598L 0 48.6598L 0 103.67L 31.0348 103.67L 31.0348 128L 127.781 128L 127.781 37.9381L 127.781 37.8557L 122.815 32.4948ZM 91.3666 6.35052L 116.36 32.9897L 91.3666 32.9897L 91.3666 6.35052ZM 4.96557 98.7216L 4.96557 53.6082L 82.7596 53.6082L 82.7596 98.7216L 4.96557 98.7216ZM 122.815 123.052L 36.0004 123.052L 36.0004 103.67L 87.7251 103.67L 87.7251 48.6598L 36.0004 48.6598L 36.0004 4.94845L 86.401 4.94845L 86.401 37.9381L 122.815 37.9381L 122.815 123.052Z"/>
<path id="path1_fill" d="M 11.9174 1.64948C 11.3381 1.07216 10.5105 0.659793 9.60011 0.41237C 8.68975 0.082473 7.53112 -1.25846e-06 6.28973 -1.25846e-06L -3.15703e-07 -1.25846e-06L -3.15703e-07 19.2165L 3.55866 19.2165L 3.55866 12.4536L 6.20697 12.4536C 7.44836 12.4536 8.52424 12.2887 9.51735 11.9588C 10.4277 11.6289 11.2553 11.2165 11.8346 10.6392C 12.4139 10.0619 12.9105 9.40206 13.2415 8.65979C 13.5726 7.91752 13.7381 7.01031 13.7381 6.10309C 13.7381 5.19588 13.5726 4.37113 13.3243 3.62887C 12.9105 2.8866 12.4967 2.2268 11.9174 1.64948ZM 9.84839 7.58763C 9.68287 8 9.43459 8.41237 9.10355 8.74226C 8.77252 9.07216 8.35872 9.31959 7.86216 9.48453C 7.3656 9.64948 6.78628 9.73196 6.12421 9.73196L 3.4759 9.73196L 3.4759 2.80412L 6.12421 2.80412C 6.78628 2.80412 7.3656 2.8866 7.86216 3.05155C 8.35872 3.2165 8.77252 3.46392 9.10355 3.71134C 9.43459 4.04124 9.68287 4.37114 9.84839 4.78351C 10.0139 5.19588 10.0967 5.69072 10.0967 6.18557C 10.0967 6.59794 10.0139 7.09279 9.84839 7.58763Z"/>
<path id="path2_fill" d="M 14.4002 2.72165C 13.5726 1.89691 12.4967 1.23711 11.3381 0.742269C 10.1794 0.247424 8.77252 1.17203e-14 7.3656 1.17203e-14L -6.31405e-07 1.17203e-14L -6.31405e-07 19.2165L 7.3656 19.2165C 8.85527 19.2165 10.1794 18.9691 11.3381 18.4742C 12.4967 17.9794 13.5726 17.3196 14.4002 16.4948C 15.2278 15.6701 15.8898 14.5979 16.3864 13.4433C 16.883 12.2887 17.1312 10.9691 17.1312 9.56701C 17.1312 8.16495 16.883 6.84536 16.3864 5.69072C 15.8898 4.61856 15.2278 3.54639 14.4002 2.72165ZM 12.9933 12.4536C 12.745 13.2783 12.3312 14.0206 11.7519 14.5979C 11.2553 15.1753 10.5932 15.5876 9.84839 15.9175C 9.10355 16.2474 8.27596 16.4124 7.28284 16.4124L 3.55866 16.4124L 3.55866 2.8866L 7.28284 2.8866C 8.1932 2.8866 9.10355 3.05155 9.84839 3.38144C 10.5932 3.71134 11.2553 4.12371 11.7519 4.70103C 12.2484 5.27835 12.6622 6.02062 12.9933 6.84536C 13.3243 7.67011 13.4071 8.65979 13.4071 9.64948C 13.4071 10.6392 13.2415 11.6289 12.9933 12.4536Z"/>
<path id="path3_fill" d="M -2.52562e-06 19.134L 3.64142 19.134L 3.64142 11.299L 10.8415 11.299L 10.8415 8.49485L 3.64142 8.49485L 3.64142 2.80412L 12.1657 2.80412L 12.1657 -1.25846e-06L -2.52562e-06 -1.25846e-06L -2.52562e-06 19.134Z"/>
</defs>
</svg>
