<svg width="128" height="128" viewBox="0 0 128 128" version="1.1" xmlns="http://www.w3.org/2000/svg" xmlns:xlink="http://www.w3.org/1999/xlink">
<title>Group 3</title>
<desc>Created using Figma</desc>
<g id="Canvas" transform="translate(-15486 -33797)">
<g id="Group 3">
<g id="RAR">
<use xlink:href="#path0_fill" transform="translate(15508 33864)" fill="#E8F0D5"/>
<use xlink:href="#path1_fill" transform="translate(15508 33864)" fill="#E8F0D5"/>
<use xlink:href="#path2_fill" transform="translate(15508 33864)" fill="#E8F0D5"/>
</g>
<g id="Group 3.8">
<g id="Group 3.5">
<g id="Group">
<g id="Group">
<g id="Vector">
<use xlink:href="#path3_fill" transform="translate(15486 33797)" fill="#E8F0D5"/>
</g>
</g>
</g>
</g>
</g>
</g>
</g>
<defs>
<path id="path0_fill" d="M 6.26953 10.4883L 2.96484 10.4883L 2.96484 17.0625L 0 17.0625L 0 0L 6 0C 7.96875 0 9.48828 0.441406 10.5586 1.32422C 11.6289 2.20703 12.1641 3.48438 12.1641 5.15625C 12.1641 6.29688 11.8867 7.25391 11.332 8.02734C 10.7852 8.79297 10.0195 9.38281 9.03516 9.79688L 12.8672 16.9102L 12.8672 17.0625L 9.69141 17.0625L 6.26953 10.4883ZM 2.96484 8.10938L 6.01172 8.10938C 7.01172 8.10938 7.79297 7.85938 8.35547 7.35938C 8.91797 6.85156 9.19922 6.16016 9.19922 5.28516C 9.19922 4.37109 8.9375 3.66406 8.41406 3.16406C 7.89844 2.66406 7.125 2.40625 6.09375 2.39062L 2.96484 2.39062L 2.96484 8.10938Z"/>
<path id="path1_fill" d="M 24.5273 13.0898L 17.918 13.0898L 16.5352 17.0625L 13.4531 17.0625L 19.8984 0L 22.5586 0L 29.0156 17.0625L 25.9219 17.0625L 24.5273 13.0898ZM 18.75 10.6992L 23.6953 10.6992L 21.2227 3.62109L 18.75 10.6992Z"/>
<path id="path2_fill" d="M 37.2305 10.4883L 33.9258 10.4883L 33.9258 17.0625L 30.9609 17.0625L 30.9609 0L 36.9609 0C 38.9297 0 40.4492 0.441406 41.5195 1.32422C 42.5898 2.20703 43.125 3.48438 43.125 5.15625C 43.125 6.29688 42.8477 7.25391 42.293 8.02734C 41.7461 8.79297 40.9805 9.38281 39.9961 9.79688L 43.8281 16.9102L 43.8281 17.0625L 40.6523 17.0625L 37.2305 10.4883ZM 33.9258 8.10938L 36.9727 8.10938C 37.9727 8.10938 38.7539 7.85938 39.3164 7.35938C 39.8789 6.85156 40.1602 6.16016 40.1602 5.28516C 40.1602 4.37109 39.8984 3.66406 39.375 3.16406C 38.8594 2.66406 38.0859 2.40625 37.0547 2.39062L 33.9258 2.39062L 33.9258 8.10938Z"/>
<path id="path3_fill" d="M 122.815 32.4948L 97.2425 4.94845L 92.6907 0L 31.0348 0L 31.0348 48.6598L 0 48.6598L 0 103.67L 31.0348 103.67L 31.0348 128L 127.781 128L 127.781 37.9381L 127.781 37.8557L 122.815 32.4948ZM 91.3666 6.35052L 116.36 32.9897L 91.3666 32.9897L 91.3666 6.35052L 91.3666 6.35052ZM 4.96557 98.7216L 4.96557 53.6082L 82.7596 53.6082L 82.7596 98.7216L 4.96557 98.7216ZM 122.815 123.052L 36.0004 123.052L 36.0004 103.67L 87.7251 103.67L 87.7251 48.6598L 36.0004 48.6598L 36.0004 4.94845L 86.401 4.94845L 86.401 37.9381L 122.815 37.9381L 122.815 123.052Z"/>
</defs>
</svg>
