<svg width="40" height="40" viewBox="0 0 40 40" version="1.1" xmlns="http://www.w3.org/2000/svg" xmlns:xlink="http://www.w3.org/1999/xlink">
<title>Group</title>
<desc>Created using Figma</desc>
<g id="Canvas" transform="translate(-18019 -24293)">
<g id="Group">
<g id="Vector">
<use xlink:href="#path0_stroke" transform="translate(18020 24294)" fill="#353535"/>
</g>
<g id="if_share_227561">
<g id="Vector">
<use xlink:href="#path1_fill" transform="translate(18028 24303)" fill="#353535"/>
</g>
</g>
</g>
</g>
<defs>
<path id="path0_stroke" d="M 37 19C 37 28.9411 28.9411 37 19 37L 19 39C 30.0457 39 39 30.0457 39 19L 37 19ZM 19 37C 9.05888 37 1 28.9411 1 19L -1 19C -1 30.0457 7.95431 39 19 39L 19 37ZM 1 19C 1 9.05888 9.05888 1 19 1L 19 -1C 7.95431 -1 -1 7.95431 -1 19L 1 19ZM 19 1C 28.9411 1 37 9.05888 37 19L 39 19C 39 7.95431 30.0457 -1 19 -1L 19 1Z"/>
<path id="path1_fill" d="M 16 12C 14.7968 12 13.72 12.5343 12.9865 13.3752L 7.91075 10.8375C 7.96825 10.5672 8 10.2872 8 10C 8 9.71275 7.96825 9.43275 7.91075 9.16275L 12.9865 6.62475C 13.7197 7.466 14.7968 8 16 8C 18.209 8 20 6.209 20 4C 20 1.791 18.209 0 16 0C 13.791 0 12 1.791 12 4C 12 4.28725 12.0317 4.56725 12.0892 4.83725L 7.0135 7.37525C 6.28025 6.534 5.2035 6 4 6C 1.791 6 0 7.791 0 10C 0 12.209 1.791 14 4 14C 5.2035 14 6.28 13.4657 7.0135 12.6248L 12.0895 15.1628C 12.0318 15.4328 12 15.7128 12 16C 12 18.209 13.791 20 16 20C 18.209 20 20 18.209 20 16C 20 13.791 18.209 12 16 12ZM 16 2C 17.1045 2 18 2.8955 18 4C 18 5.1045 17.1045 6 16 6C 14.8955 6 14 5.1045 14 4C 14 2.8955 14.8955 2 16 2ZM 4 12C 2.8955 12 2 11.1045 2 10C 2 8.8955 2.8955 8 4 8C 5.1045 8 6 8.8955 6 10C 6 11.1045 5.1045 12 4 12ZM 16 18C 14.8955 18 14 17.1045 14 16C 14 14.8955 14.8955 14 16 14C 17.1045 14 18 14.8955 18 16C 18 17.1045 17.1045 18 16 18Z"/>
</defs>
</svg>
