<?xml version="1.0" standalone="no"?><!-- Generator: Gravit.io --><svg xmlns="http://www.w3.org/2000/svg" xmlns:xlink="http://www.w3.org/1999/xlink" style="isolation:isolate" viewBox="0 0 284 168" width="284" height="168"><defs><clipPath id="_clipPath_Y7lket2w69zkpTCYbpyBwHaGOvYtw01c"><rect width="284" height="168"/></clipPath></defs><g clip-path="url(#_clipPath_Y7lket2w69zkpTCYbpyBwHaGOvYtw01c)"><g filter="url(#IjSD51jNAHDHUeGHMKT0fSMiammoED7U)"><path d=" M 241.945 52.528 C 242.122 52.616 202.479 51.879 202.479 51.879 C 202.479 51.879 193.896 74.945 175.107 79.693 C 175.137 79.693 176.199 80.372 178.057 81.463 C 180.122 81.787 182.245 81.846 184.281 81.64 C 183.219 82.23 182.068 82.702 180.918 83.115 C 198.556 92.966 249.849 116.828 241.945 52.528 Z " fill="rgb(214,165,43)"/><path d=" M 237.462 61.552 C 236.843 64.649 238.495 67.598 241.12 68.1 C 243.745 68.601 246.37 66.536 246.96 63.439 C 247.579 60.342 245.957 57.393 243.302 56.891 C 240.707 56.39 238.082 58.455 237.462 61.552 Z " fill="rgb(249,209,197)"/><path d=" M 226.902 39.693 C 226.902 39.693 229.498 49.249 241.975 50.665 C 241.975 50.547 243.538 37.038 235.279 34 L 226.902 39.693 Z " fill="rgb(214,165,43)"/><path d=" M 235.28 34.005 C 235.28 34.005 231.74 56.657 202.48 51.849 C 202.48 51.879 211.86 17.104 235.28 34.005 Z " fill="rgb(242,206,92)"/><path d=" M 244.658 50.554 C 242.358 46.72 231.68 48.873 227.846 51.174 C 226.784 51.823 225.929 52.648 225.309 53.592 C 224.66 52.619 223.805 51.793 222.773 51.174 C 218.938 48.873 208.231 46.72 205.96 50.554 C 203.66 54.389 210.65 62.795 214.514 65.096 C 218.201 67.308 222.979 66.216 225.339 62.677 C 227.728 66.216 232.477 67.308 236.164 65.096 C 239.969 62.795 246.93 54.418 244.658 50.554 Z " fill="rgb(173,229,65)"/></g><defs><filter id="IjSD51jNAHDHUeGHMKT0fSMiammoED7U" x="-200%" y="-200%" width="400%" height="400%" filterUnits="objectBoundingBox" color-interpolation-filters="sRGB"><feGaussianBlur xmlns="http://www.w3.org/2000/svg" in="SourceGraphic" stdDeviation="2.146804531419514"/><feOffset xmlns="http://www.w3.org/2000/svg" dx="0" dy="0" result="pf_100_offsetBlur"/><feFlood xmlns="http://www.w3.org/2000/svg" flood-color="#000000" flood-opacity="0.65"/><feComposite xmlns="http://www.w3.org/2000/svg" in2="pf_100_offsetBlur" operator="in" result="pf_100_dropShadow"/><feBlend xmlns="http://www.w3.org/2000/svg" in="SourceGraphic" in2="pf_100_dropShadow" mode="normal"/></filter></defs><defs><filter id="SVinlhq6XwFZp9Q6RRbwsyWeA86pd2Bb" x="-200%" y="-200%" width="400%" height="400%" filterUnits="objectBoundingBox" color-interpolation-filters="sRGB"><feGaussianBlur xmlns="http://www.w3.org/2000/svg" in="SourceGraphic" stdDeviation="2.146804531419514"/><feOffset xmlns="http://www.w3.org/2000/svg" dx="0" dy="0" result="pf_100_offsetBlur"/><feFlood xmlns="http://www.w3.org/2000/svg" flood-color="#000000" flood-opacity="0.65"/><feComposite xmlns="http://www.w3.org/2000/svg" in2="pf_100_offsetBlur" operator="in" result="pf_100_dropShadow"/><feBlend xmlns="http://www.w3.org/2000/svg" in="SourceGraphic" in2="pf_100_dropShadow" mode="normal"/></filter></defs><g filter="url(#SVinlhq6XwFZp9Q6RRbwsyWeA86pd2Bb)"><path d=" M 69.273 173.551 L 18.396 173.551 L -6.363 173.551 L -6.363 161.027 C -6.363 161.027 -6.363 161.027 -6.363 152.809 L -6.363 137.155 L -6.363 119.544 L -6.363 90.975 L -6.363 15.908 L 128.856 15.908 C 207.955 15.908 209.295 81.736 209.295 81.736 L 209.295 173.551 L 69.273 173.551 L 69.273 173.551 Z " fill="rgb(39,174,96)"/></g><path d=" M 157.199 45.172 C 157.199 45.172 154.596 56.672 142.593 57.702 C 136.987 57.971 132.929 55.35 130.569 53.222 C 132.524 51.607 134.646 49.769 139.516 49.686 C 143.62 49.593 147.822 50.72 151.543 49.23" fill="rgb(42,125,77)"/><path d=" M 126.541 58.52 C 126.222 44.474 138.402 44.931 138.402 44.931 C 146.657 45.197 150.971 46.407 156.223 42.467 C 156.223 42.467 154.807 54.116 142.963 56.377 C 137.392 57.158 133.12 55.006 130.531 53.089 C 132.333 51.258 134.231 49.253 139.065 48.657 C 143.175 48.186 147.455 48.884 150.995 46.981 C 150.995 46.981 148.343 48.219 142.106 47.742 C 136.19 47.26 132.909 49.145 130.742 51.228 C 130.669 51.278 128.484 53.105 126.541 58.52 Z " fill="rgb(62,224,130)"/><g filter="url(#kfqvdl8eTjb1QQDfcvgPhXQeLJsKJsds)"><path d=" M 43.958 38.433 L 43.419 42.558 L 37.428 42.577 L 35.084 61.748 L 29.838 61.765 L 32.15 42.594 L 26.127 42.614 L 26.444 40.034 C 26.444 40.034 26.466 39.492 26.851 39.017 C 27.384 38.359 28.765 38.436 28.765 38.436 L 43.958 38.433 L 43.958 38.433 Z " fill="rgb(255,255,255)"/><path d=" M 60.205 42.392 L 51.478 42.42 L 50.781 48.048 L 57.468 48.027 L 56.96 51.896 L 50.305 51.918 L 49.609 57.69 L 58.4 57.662 L 57.893 61.675 L 43.807 61.72 L 46.285 40.906 C 46.285 40.906 46.432 39.889 47.168 39.162 C 48.052 38.29 49.524 38.379 49.524 38.379 L 60.712 38.379 L 60.205 42.392 L 60.205 42.392 Z " fill="rgb(255,255,255)"/><path d=" M 70.949 57.605 C 71.542 57.603 72.055 57.559 72.486 57.472 C 72.929 57.375 73.306 57.257 73.619 57.117 C 73.931 56.978 74.196 56.828 74.411 56.667 C 74.626 56.496 74.82 56.341 74.993 56.202 C 75.165 56.063 75.327 55.95 75.477 55.865 C 75.628 55.768 75.79 55.72 75.963 55.719 C 76.135 55.719 76.276 55.75 76.384 55.814 C 76.503 55.867 76.589 55.93 76.644 56.005 L 78.495 58.188 C 77.473 59.396 76.256 60.316 74.843 60.949 C 73.442 61.572 71.845 61.886 70.053 61.892 C 68.564 61.896 67.241 61.645 66.085 61.137 C 64.939 60.619 63.971 59.908 63.181 59.005 C 62.39 58.102 61.788 57.033 61.375 55.798 C 60.972 54.553 60.769 53.211 60.765 51.772 C 60.761 50.44 60.909 49.177 61.208 47.983 C 61.507 46.789 61.93 45.684 62.478 44.67 C 63.026 43.656 63.682 42.743 64.446 41.931 C 65.221 41.119 66.077 40.429 67.015 39.861 C 67.953 39.293 68.961 38.858 70.039 38.557 C 71.118 38.244 72.245 38.086 73.422 38.082 C 74.307 38.079 75.111 38.162 75.835 38.33 C 76.569 38.488 77.229 38.715 77.812 39.011 C 78.407 39.297 78.936 39.641 79.402 40.045 C 79.867 40.448 80.273 40.894 80.62 41.383 L 78.78 43.499 C 78.65 43.649 78.5 43.782 78.327 43.9 C 78.155 44.018 77.928 44.077 77.648 44.078 C 77.464 44.079 77.297 44.037 77.145 43.952 C 76.994 43.867 76.837 43.766 76.675 43.65 C 76.524 43.522 76.351 43.384 76.156 43.236 C 75.961 43.087 75.729 42.955 75.459 42.839 C 75.188 42.712 74.864 42.606 74.486 42.522 C 74.119 42.438 73.682 42.397 73.174 42.398 C 72.181 42.402 71.254 42.612 70.391 43.031 C 69.54 43.449 68.796 44.048 68.162 44.828 C 67.538 45.597 67.049 46.536 66.696 47.646 C 66.343 48.744 66.168 49.975 66.172 51.339 C 66.174 52.33 66.295 53.214 66.535 53.991 C 66.785 54.768 67.122 55.428 67.544 55.97 C 67.966 56.501 68.469 56.91 69.053 57.196 C 69.637 57.471 70.269 57.607 70.949 57.605 Z " fill="rgb(255,255,255)"/><path d=" M 100.198 38.437 L 99.659 42.562 L 93.668 42.582 L 91.323 61.753 L 86.078 61.77 L 88.39 42.599 L 82.367 42.618 L 82.684 40.039 C 82.684 40.039 82.706 39.496 83.091 39.021 C 83.624 38.364 85.005 38.44 85.005 38.44 L 100.198 38.437 L 100.198 38.437 Z " fill="rgb(255,255,255)"/><path d=" M 33.659 80.668 C 34.048 80.668 34.384 80.641 34.667 80.585 C 34.957 80.523 35.205 80.446 35.41 80.356 C 35.616 80.265 35.789 80.168 35.931 80.063 C 36.072 79.952 36.2 79.85 36.313 79.76 C 36.427 79.669 36.533 79.596 36.632 79.54 C 36.731 79.478 36.837 79.446 36.951 79.446 C 37.064 79.447 37.156 79.468 37.226 79.51 C 37.304 79.545 37.361 79.587 37.396 79.636 L 38.602 81.072 C 37.929 81.86 37.129 82.459 36.201 82.87 C 35.281 83.274 34.234 83.475 33.059 83.474 C 32.083 83.472 31.217 83.304 30.461 82.968 C 29.712 82.625 29.08 82.156 28.565 81.562 C 28.049 80.968 27.658 80.265 27.391 79.455 C 27.131 78.638 27.002 77.758 27.004 76.815 C 27.006 75.943 27.106 75.115 27.306 74.334 C 27.505 73.552 27.786 72.829 28.148 72.167 C 28.51 71.504 28.943 70.907 29.446 70.377 C 29.957 69.847 30.52 69.398 31.136 69.028 C 31.752 68.659 32.414 68.377 33.122 68.183 C 33.829 67.981 34.569 67.881 35.34 67.882 C 35.92 67.883 36.446 67.939 36.92 68.051 C 37.401 68.157 37.832 68.307 38.214 68.503 C 38.602 68.692 38.948 68.92 39.252 69.186 C 39.556 69.451 39.82 69.745 40.046 70.066 L 38.834 71.447 C 38.749 71.545 38.649 71.632 38.536 71.709 C 38.423 71.785 38.274 71.824 38.09 71.823 C 37.97 71.823 37.861 71.795 37.762 71.739 C 37.663 71.683 37.56 71.617 37.454 71.54 C 37.355 71.456 37.242 71.365 37.115 71.267 C 36.988 71.169 36.836 71.082 36.66 71.005 C 36.483 70.921 36.271 70.85 36.023 70.794 C 35.783 70.738 35.497 70.71 35.164 70.709 C 34.514 70.709 33.905 70.844 33.339 71.116 C 32.779 71.387 32.29 71.777 31.872 72.287 C 31.461 72.789 31.138 73.403 30.903 74.129 C 30.668 74.848 30.55 75.654 30.548 76.548 C 30.547 77.197 30.623 77.777 30.778 78.286 C 30.94 78.796 31.158 79.23 31.433 79.586 C 31.708 79.935 32.037 80.205 32.418 80.394 C 32.8 80.576 33.214 80.667 33.659 80.668 Z " fill="rgb(255,255,255)"/><path d=" M 42.299 80.804 C 42.476 80.805 42.639 80.794 42.787 80.774 C 42.936 80.753 43.077 80.704 43.212 80.627 C 43.354 80.551 43.488 80.439 43.616 80.293 C 43.751 80.146 43.892 79.951 44.041 79.707 L 44.606 78.713 L 40.213 68.066 L 43.385 68.07 C 43.683 68.071 43.909 68.141 44.064 68.281 C 44.219 68.413 44.343 68.592 44.434 68.815 L 45.825 73.572 C 45.945 73.956 46.054 74.337 46.152 74.714 C 46.25 75.084 46.327 75.461 46.383 75.845 C 46.54 75.468 46.71 75.092 46.895 74.715 C 47.079 74.338 47.275 73.958 47.481 73.574 L 49.824 68.822 C 49.938 68.641 50.097 68.473 50.303 68.32 C 50.508 68.16 50.756 68.08 51.046 68.08 L 53.974 68.084 L 46.606 81.124 C 46.322 81.606 46.031 82 45.734 82.306 C 45.443 82.606 45.146 82.847 44.841 83.028 C 44.537 83.202 44.232 83.32 43.928 83.383 C 43.624 83.452 43.319 83.487 43.015 83.486 C 42.372 83.486 41.901 83.422 41.605 83.296 C 41.315 83.163 41.188 82.939 41.224 82.625 L 41.461 80.803 L 42.299 80.804 L 42.299 80.804 Z " fill="rgb(255,255,255)"/><path d=" M 65.381 83.348 L 61.901 83.343 L 63.507 70.631 L 58.35 70.624 L 56.744 83.337 L 53.275 83.332 L 55.204 68.085 L 67.31 68.101 L 65.381 83.348 L 65.381 83.348 Z " fill="rgb(255,255,255)"/><path d=" M 78.989 70.734 L 73.271 70.727 L 72.796 74.413 L 77.178 74.419 L 76.834 76.953 L 72.473 76.947 L 71.999 80.727 L 77.76 80.735 L 77.415 83.363 L 68.185 83.351 L 70.125 68.094 L 79.334 68.106 L 78.989 70.734 L 78.989 70.734 Z " fill="rgb(255,255,255)"/><path d=" M 83.625 78.229 L 82.978 83.37 L 79.541 83.366 L 81.459 68.109 L 86.573 68.115 C 87.493 68.116 88.278 68.229 88.928 68.453 C 89.585 68.671 90.122 68.975 90.539 69.367 C 90.962 69.751 91.273 70.209 91.47 70.74 C 91.667 71.264 91.765 71.829 91.763 72.437 C 91.762 73.268 91.629 74.039 91.366 74.751 C 91.11 75.456 90.716 76.066 90.185 76.582 C 89.653 77.098 88.981 77.502 88.167 77.795 C 87.353 78.087 86.39 78.232 85.28 78.231 L 83.625 78.229 L 83.625 78.229 Z  M 84.595 70.658 L 83.959 75.663 L 85.625 75.665 C 86.12 75.666 86.534 75.597 86.866 75.457 C 87.206 75.311 87.479 75.109 87.684 74.851 C 87.897 74.586 88.05 74.272 88.143 73.909 C 88.235 73.546 88.282 73.148 88.283 72.715 C 88.283 72.415 88.242 72.139 88.157 71.888 C 88.08 71.636 87.957 71.42 87.787 71.238 C 87.618 71.056 87.402 70.916 87.141 70.818 C 86.886 70.713 86.582 70.66 86.229 70.66 L 84.595 70.658 L 84.595 70.658 Z " fill="rgb(255,255,255)"/><path d=" M 100.596 76.69 C 100.743 77.13 100.87 77.581 100.975 78.041 C 101.089 77.811 101.206 77.584 101.326 77.361 C 101.447 77.138 101.578 76.915 101.72 76.691 L 106.468 68.664 C 106.575 68.553 106.67 68.462 106.755 68.392 C 106.84 68.323 106.925 68.271 107.01 68.236 C 107.095 68.201 107.191 68.177 107.297 68.163 C 107.403 68.149 107.53 68.142 107.679 68.142 L 110.331 68.146 L 108.391 83.403 L 105.357 83.399 L 106.457 74.519 C 106.485 74.331 106.521 74.125 106.564 73.901 C 106.607 73.671 106.657 73.434 106.714 73.189 L 102.051 81.059 C 101.902 81.289 101.714 81.464 101.488 81.582 C 101.268 81.701 101.024 81.76 100.755 81.759 L 100.289 81.759 C 100.02 81.758 99.787 81.699 99.589 81.58 C 99.391 81.461 99.25 81.286 99.165 81.055 L 96.465 73.155 C 96.45 73.392 96.436 73.623 96.421 73.846 C 96.414 74.07 96.399 74.272 96.378 74.454 L 95.299 83.386 L 92.243 83.382 L 94.183 68.125 L 96.814 68.128 C 96.963 68.129 97.087 68.136 97.186 68.15 C 97.292 68.164 97.384 68.188 97.461 68.223 C 97.539 68.258 97.61 68.311 97.673 68.381 C 97.744 68.451 97.818 68.542 97.896 68.653 L 100.596 76.69 L 100.596 76.69 Z " fill="rgb(255,255,255)"/><path d=" M 124.127 83.423 L 121.453 83.42 C 121.156 83.419 120.923 83.353 120.753 83.22 C 120.591 83.08 120.478 82.898 120.415 82.675 L 119.943 79.93 L 114.691 79.923 L 113.54 82.666 C 113.44 82.854 113.281 83.025 113.061 83.178 C 112.849 83.332 112.604 83.408 112.329 83.408 L 109.613 83.404 L 117.027 68.154 L 120.571 68.159 L 124.127 83.423 L 124.127 83.423 Z  M 115.661 77.6 L 119.544 77.604 L 118.8 73.247 C 118.743 72.974 118.68 72.653 118.61 72.283 C 118.548 71.913 118.485 71.511 118.422 71.078 C 118.251 71.511 118.081 71.916 117.91 72.292 C 117.747 72.662 117.605 72.987 117.484 73.266 L 115.661 77.6 L 115.661 77.6 Z " fill="rgb(255,255,255)"/><path d=" M 133.71 76.732 C 133.858 77.173 133.984 77.623 134.089 78.084 C 134.203 77.854 134.32 77.627 134.441 77.404 C 134.561 77.18 134.693 76.957 134.834 76.734 L 139.582 68.707 C 139.689 68.595 139.784 68.505 139.869 68.435 C 139.954 68.365 140.039 68.313 140.124 68.278 C 140.209 68.243 140.305 68.219 140.411 68.205 C 140.517 68.191 140.644 68.185 140.793 68.185 L 143.445 68.188 L 141.505 83.445 L 138.471 83.442 L 139.571 74.562 C 139.599 74.373 139.635 74.167 139.678 73.944 C 139.721 73.713 139.771 73.476 139.828 73.232 L 135.165 81.102 C 135.016 81.332 134.829 81.506 134.602 81.625 C 134.382 81.743 134.138 81.802 133.87 81.802 L 133.403 81.801 C 133.134 81.801 132.901 81.741 132.703 81.622 C 132.505 81.503 132.364 81.329 132.279 81.098 L 129.579 73.198 C 129.564 73.435 129.55 73.665 129.535 73.889 C 129.528 74.112 129.513 74.315 129.492 74.496 L 128.413 83.429 L 125.357 83.425 L 127.297 68.168 L 129.929 68.171 C 130.077 68.171 130.201 68.178 130.3 68.192 C 130.406 68.206 130.498 68.231 130.576 68.266 C 130.653 68.301 130.724 68.353 130.787 68.423 C 130.858 68.493 130.932 68.584 131.01 68.696 L 133.71 76.732 L 133.71 76.732 Z " fill="rgb(255,255,255)"/><path d=" M 149.685 68.207 L 148.898 74.354 L 150.744 74.356 C 151.65 74.357 152.417 74.459 153.046 74.663 C 153.675 74.859 154.188 75.128 154.583 75.471 C 154.978 75.807 155.264 76.202 155.44 76.656 C 155.616 77.103 155.703 77.574 155.702 78.07 C 155.701 78.866 155.558 79.595 155.274 80.258 C 154.99 80.914 154.582 81.479 154.05 81.953 C 153.526 82.427 152.885 82.797 152.128 83.061 C 151.37 83.325 150.521 83.457 149.581 83.456 L 144.307 83.449 L 146.237 68.202 L 149.685 68.207 L 149.685 68.207 Z  M 148.575 76.919 L 148.079 80.888 L 149.925 80.89 C 150.35 80.891 150.71 80.835 151.008 80.724 C 151.305 80.606 151.542 80.442 151.72 80.233 C 151.904 80.024 152.035 79.772 152.114 79.479 C 152.199 79.186 152.242 78.861 152.243 78.505 C 152.243 78.275 152.215 78.062 152.159 77.866 C 152.103 77.671 152.004 77.503 151.863 77.363 C 151.729 77.223 151.542 77.115 151.301 77.038 C 151.061 76.961 150.761 76.922 150.4 76.921 L 148.575 76.919 L 148.575 76.919 Z  M 159.681 83.469 L 156.201 83.464 L 158.12 68.207 L 161.6 68.212 L 159.681 83.469 L 159.681 83.469 Z " fill="rgb(255,255,255)"/><path d=" M 105.687 53.832 L 103.445 53.832 C 101.885 53.832 100.891 54.676 100.696 56.155 L 100.462 58.132 C 100.364 58.881 100.228 59.284 99.741 59.611 L 99.058 59.611 L 98.746 61.934 L 100.17 61.934 L 100.325 60.82 L 104.381 60.82 L 104.225 61.934 L 105.648 61.934 L 105.94 59.611 L 104.966 59.611 L 105.687 53.832 L 105.687 53.832 Z  M 103.562 59.611 L 101.437 59.611 C 101.651 59.207 101.788 58.708 101.885 58.075 L 102.1 56.155 C 102.217 55.272 102.626 55.099 103.211 55.099 L 104.108 55.099 L 103.562 59.611 L 103.562 59.611 Z " fill="rgb(255,255,255)"/><path d=" M 108.769 57.104 C 108.912 56.521 109.085 56.024 109.288 55.612 C 109.492 55.2 109.746 54.865 110.051 54.607 C 110.362 54.344 110.732 54.153 111.164 54.034 C 111.6 53.91 112.123 53.85 112.732 53.852 L 114.573 53.858 L 113.658 61.012 L 111.796 61.005 L 112.536 55.241 L 112.332 55.24 C 112.089 55.239 111.876 55.269 111.693 55.328 C 111.514 55.388 111.357 55.494 111.221 55.646 C 111.084 55.794 110.966 55.995 110.867 56.25 C 110.767 56.499 110.675 56.819 110.589 57.208 C 110.431 57.953 110.253 58.575 110.054 59.075 C 109.856 59.57 109.634 59.968 109.389 60.268 C 109.144 60.568 108.874 60.783 108.578 60.911 C 108.283 61.035 107.959 61.097 107.608 61.096 C 107.327 61.095 107.133 61.071 107.025 61.024 C 106.913 60.978 106.864 60.892 106.879 60.767 L 107.016 59.704 L 107.234 59.705 C 107.445 59.705 107.618 59.664 107.755 59.581 C 107.895 59.498 108.02 59.358 108.129 59.159 C 108.242 58.955 108.346 58.687 108.441 58.354 C 108.536 58.021 108.646 57.604 108.769 57.104 Z " fill="rgb(255,255,255)"/><path d=" M 120.933 61.036 L 119.162 61.03 L 119.525 58.196 L 118.879 58.194 C 118.752 58.198 118.647 58.217 118.562 58.249 C 118.478 58.276 118.403 58.315 118.337 58.366 C 118.276 58.417 118.222 58.477 118.175 58.546 C 118.127 58.611 118.08 58.683 118.033 58.761 L 117.269 60.107 C 117.146 60.324 117.012 60.499 116.866 60.633 C 116.725 60.763 116.575 60.862 116.415 60.931 C 116.26 61 116.099 61.043 115.93 61.061 C 115.766 61.084 115.6 61.095 115.431 61.094 C 115.136 61.093 114.934 61.069 114.827 61.023 C 114.719 60.976 114.67 60.89 114.68 60.765 L 114.825 59.702 L 115.057 59.703 C 115.235 59.704 115.39 59.667 115.521 59.593 C 115.657 59.52 115.78 59.402 115.888 59.24 L 116.305 58.575 C 116.428 58.381 116.567 58.223 116.722 58.104 C 116.882 57.984 117.067 57.892 117.278 57.827 C 117.011 57.771 116.787 57.687 116.605 57.575 C 116.427 57.459 116.282 57.328 116.17 57.185 C 116.059 57.036 115.977 56.876 115.926 56.704 C 115.88 56.533 115.858 56.359 115.858 56.183 C 115.859 55.914 115.919 55.643 116.037 55.37 C 116.156 55.093 116.337 54.843 116.581 54.622 C 116.826 54.4 117.138 54.221 117.518 54.083 C 117.898 53.941 118.35 53.87 118.875 53.872 L 121.854 53.882 L 120.933 61.036 L 120.933 61.036 Z  M 117.727 56.245 C 117.726 56.523 117.798 56.729 117.942 56.864 C 118.092 56.999 118.293 57.067 118.546 57.067 L 119.663 57.071 L 119.924 55.057 L 118.884 55.053 C 118.66 55.053 118.472 55.091 118.322 55.17 C 118.176 55.248 118.059 55.347 117.969 55.467 C 117.88 55.583 117.816 55.712 117.778 55.856 C 117.745 55.995 117.728 56.124 117.727 56.245 Z " fill="rgb(255,255,255)"/></g><defs><filter id="kfqvdl8eTjb1QQDfcvgPhXQeLJsKJsds" x="-200%" y="-200%" width="400%" height="400%" filterUnits="objectBoundingBox" color-interpolation-filters="sRGB"><feGaussianBlur xmlns="http://www.w3.org/2000/svg" in="SourceGraphic" stdDeviation="0.721482"/><feOffset xmlns="http://www.w3.org/2000/svg" dx="2.88593" dy="2.88593" result="pf_100_offsetBlur"/><feFlood xmlns="http://www.w3.org/2000/svg" flood-color="#000000" flood-opacity="0"/><feComposite xmlns="http://www.w3.org/2000/svg" in2="pf_100_offsetBlur" operator="in" result="pf_100_dropShadow"/><feBlend xmlns="http://www.w3.org/2000/svg" in="SourceGraphic" in2="pf_100_dropShadow" mode="normal"/></filter></defs><path d=" M 241.945 52.528 C 242.122 52.616 202.479 51.879 202.479 51.879 C 202.479 51.879 193.896 74.945 175.107 79.693 C 175.137 79.693 176.199 80.372 178.057 81.463 C 180.122 81.788 182.245 81.847 184.281 81.64 C 183.219 82.23 182.068 82.702 180.918 83.115 C 198.556 92.966 249.849 116.828 241.945 52.528 Z " fill="rgb(214,165,43)"/><path d=" M 206.963 56.891 C 204.338 57.393 202.687 60.342 203.306 63.439 C 203.896 66.537 206.521 68.601 209.146 68.1 C 211.771 67.598 213.423 64.649 212.804 61.552 C 212.184 58.455 209.559 56.39 206.963 56.891 Z " fill="rgb(249,209,197)"/><path d=" M 206.256 66.129 C 206.757 66.129 207.141 65.746 207.141 65.244 C 207.141 64.743 206.757 64.359 206.256 64.359 C 205.755 64.359 205.371 64.743 205.371 65.244 C 205.371 65.746 205.755 66.129 206.256 66.129 Z " fill="rgb(255,255,255)"/><path d=" M 205.105 59.666 C 205.194 59.607 205.282 59.548 205.371 59.518 C 205.459 59.489 205.577 59.459 205.666 59.43 L 205.813 59.489 C 205.931 59.518 206.049 59.577 206.167 59.636 C 206.285 59.695 206.403 59.754 206.492 59.843 C 206.58 59.931 206.669 60.02 206.787 60.108 L 206.846 60.167 C 206.875 60.256 206.846 60.197 206.875 60.226 L 206.875 60.256 L 206.905 60.285 L 206.993 60.403 C 207.052 60.492 207.111 60.58 207.17 60.669 C 207.229 60.787 207.259 60.905 207.318 61.052 C 207.377 61.17 207.406 61.288 207.406 61.406 C 207.436 61.524 207.465 61.642 207.465 61.73 C 207.495 61.848 207.495 61.937 207.495 62.055 C 207.495 62.173 207.495 62.261 207.524 62.379 C 207.524 62.468 207.524 62.586 207.524 62.674 C 207.524 62.792 207.524 62.881 207.495 62.969 C 207.495 63.058 207.465 63.176 207.465 63.264 C 207.465 63.353 207.436 63.471 207.436 63.559 C 207.436 63.618 207.406 63.677 207.406 63.707 C 207.406 63.766 207.406 63.825 207.406 63.884 C 207.406 64.001 207.377 64.12 207.377 64.238 C 207.259 64.179 207.17 64.12 207.052 64.061 C 206.934 64.001 206.846 63.913 206.757 63.825 C 206.669 63.736 206.61 63.648 206.521 63.53 C 206.462 63.441 206.403 63.323 206.344 63.235 C 206.285 63.146 206.226 63.028 206.197 62.91 C 206.167 62.822 206.108 62.704 206.079 62.615 C 206.049 62.497 206.02 62.409 205.99 62.32 C 205.961 62.232 205.931 62.114 205.902 62.025 C 205.872 61.937 205.843 61.848 205.843 61.76 L 205.813 61.612 C 205.813 61.553 205.784 61.524 205.784 61.494 C 205.784 61.406 205.754 61.347 205.754 61.258 C 205.754 61.17 205.695 61.052 205.695 60.964 L 205.666 60.816 L 205.666 60.787 L 205.666 60.757 C 205.666 60.787 205.636 60.698 205.695 60.787 L 205.666 60.728 C 205.636 60.639 205.607 60.551 205.607 60.462 C 205.607 60.374 205.548 60.285 205.518 60.197 C 205.489 60.108 205.459 60.02 205.43 59.902 L 205.577 59.961 L 205.371 59.784 C 205.282 59.784 205.194 59.725 205.105 59.666 Z " fill="rgb(196,148,138)"/><path d=" M 159.711 140.482 C 159.799 140.423 159.888 140.364 159.976 140.335 C 160.065 140.305 160.183 140.276 160.271 140.246 L 160.419 140.305 C 160.537 140.335 160.655 140.394 160.773 140.453 C 160.891 140.512 161.009 140.571 161.097 140.659 C 161.186 140.748 161.274 140.836 161.392 140.924 L 161.451 140.983 C 161.481 141.072 161.451 141.013 161.481 141.042 L 161.481 141.072 L 161.51 141.101 L 161.599 141.219 C 161.658 141.308 161.717 141.396 161.776 141.485 C 161.835 141.603 161.864 141.721 161.923 141.868 C 161.982 141.986 162.012 142.104 162.012 142.222 C 162.041 142.34 162.071 142.458 162.071 142.547 C 162.1 142.665 162.1 142.753 162.1 142.871 C 162.1 142.989 162.1 143.078 162.13 143.196 C 162.13 143.284 162.13 143.402 162.13 143.491 C 162.13 143.609 162.13 143.697 162.1 143.786 C 162.1 143.874 162.071 143.992 162.071 144.081 C 162.071 144.169 162.041 144.287 162.041 144.375 C 162.041 144.434 162.012 144.493 162.012 144.523 C 162.012 144.582 162.012 144.641 162.012 144.7 C 162.012 144.818 161.982 144.936 161.982 145.054 C 161.864 144.995 161.776 144.936 161.658 144.877 C 161.54 144.818 161.451 144.729 161.363 144.641 C 161.274 144.552 161.215 144.464 161.127 144.346 C 161.068 144.257 161.009 144.14 160.95 144.051 C 160.891 143.963 160.832 143.845 160.802 143.727 C 160.773 143.638 160.714 143.52 160.684 143.432 C 160.655 143.314 160.625 143.225 160.596 143.137 C 160.566 143.048 160.537 142.93 160.507 142.842 C 160.478 142.753 160.448 142.665 160.448 142.576 L 160.419 142.429 C 160.419 142.37 160.389 142.34 160.389 142.311 C 160.389 142.222 160.36 142.163 160.36 142.075 C 160.36 141.986 160.301 141.868 160.301 141.78 L 160.271 141.632 L 160.271 141.603 L 160.271 141.573 C 160.271 141.603 160.242 141.514 160.301 141.603 L 160.271 141.544 C 160.242 141.455 160.212 141.367 160.212 141.278 C 160.212 141.19 160.153 141.101 160.124 141.013 C 160.094 140.924 160.065 140.836 160.035 140.718 L 160.183 140.777 L 159.976 140.6 C 159.888 140.6 159.799 140.541 159.711 140.482 Z " fill="rgb(196,148,138)"/><path d=" M 237.462 61.552 C 236.843 64.649 238.495 67.598 241.12 68.1 C 243.745 68.601 246.37 66.537 246.96 63.439 C 247.579 60.342 245.957 57.393 243.302 56.891 C 240.707 56.39 238.082 58.455 237.462 61.552 Z " fill="rgb(249,209,197)"/><path d=" M 244.01 66.129 C 244.511 66.129 244.895 65.746 244.895 65.244 C 244.895 64.743 244.511 64.359 244.01 64.359 C 243.508 64.359 243.125 64.743 243.125 65.244 C 243.125 65.746 243.508 66.129 244.01 66.129 Z " fill="rgb(255,255,255)"/><path d=" M 245.161 59.665 C 245.072 59.724 245.013 59.783 244.925 59.842 L 244.718 60.019 L 244.866 59.96 C 244.836 60.078 244.807 60.167 244.777 60.255 C 244.748 60.344 244.718 60.432 244.689 60.521 C 244.659 60.609 244.659 60.698 244.63 60.786 L 244.6 60.845 C 244.63 60.757 244.6 60.816 244.63 60.816 L 244.63 60.845 L 244.63 60.875 L 244.6 61.022 C 244.571 61.111 244.541 61.229 244.541 61.317 C 244.541 61.406 244.512 61.465 244.512 61.553 C 244.512 61.583 244.482 61.612 244.482 61.671 L 244.453 61.818 C 244.423 61.907 244.423 61.995 244.394 62.084 C 244.364 62.172 244.335 62.29 244.305 62.379 C 244.276 62.467 244.246 62.585 244.217 62.674 C 244.187 62.792 244.128 62.88 244.099 62.969 C 244.069 63.057 244.01 63.175 243.951 63.293 C 243.892 63.411 243.833 63.5 243.774 63.588 C 243.686 63.677 243.627 63.795 243.538 63.883 C 243.45 63.972 243.361 64.06 243.243 64.119 C 243.155 64.178 243.037 64.267 242.919 64.296 C 242.889 64.149 242.889 64.031 242.889 63.942 C 242.889 63.883 242.889 63.824 242.889 63.765 C 242.889 63.706 242.86 63.647 242.86 63.618 C 242.83 63.5 242.83 63.411 242.83 63.323 C 242.83 63.234 242.801 63.116 242.801 63.028 C 242.801 62.939 242.801 62.851 242.771 62.733 C 242.771 62.644 242.771 62.526 242.771 62.438 C 242.771 62.349 242.771 62.231 242.801 62.113 C 242.801 61.995 242.83 61.907 242.83 61.789 C 242.86 61.671 242.86 61.553 242.889 61.465 C 242.919 61.347 242.948 61.258 242.978 61.111 C 243.037 60.993 243.066 60.875 243.125 60.727 C 243.184 60.609 243.243 60.55 243.302 60.462 L 243.391 60.344 L 243.42 60.314 L 243.42 60.285 C 243.42 60.255 243.391 60.314 243.45 60.226 L 243.509 60.167 C 243.597 60.078 243.686 59.99 243.804 59.901 C 243.892 59.813 244.01 59.754 244.128 59.695 C 244.246 59.636 244.364 59.577 244.482 59.547 L 244.63 59.488 C 244.748 59.518 244.836 59.547 244.925 59.577 C 244.984 59.547 245.072 59.606 245.161 59.665 Z " fill="rgb(224,176,164)"/><path d=" M 148.711 164.166 L 237.611 164.166 C 245.162 151.041 259.85 117.799 233.806 90.25 L 209.56 90.25 L 120.041 105.765 C 120.041 105.765 119.982 141.985 148.711 164.166 Z " fill="rgb(224,61,11)"/><path d=" M 110.424 170.009 L 197.849 170.009 C 205.282 157.119 219.706 124.438 194.103 97.391 L 170.271 97.391 L 82.256 112.61 C 82.256 112.61 82.197 148.212 110.424 170.009 Z " fill="rgb(224,61,11)"/><defs><filter id="argHq7BU9qmTY7eigazpQ7QHdwQKqbdY" x="-200%" y="-200%" width="400%" height="400%" filterUnits="objectBoundingBox" color-interpolation-filters="sRGB"><feGaussianBlur xmlns="http://www.w3.org/2000/svg" in="SourceGraphic" stdDeviation="2.146804531419514"/><feOffset xmlns="http://www.w3.org/2000/svg" dx="0" dy="0" result="pf_100_offsetBlur"/><feFlood xmlns="http://www.w3.org/2000/svg" flood-color="#000000" flood-opacity="0.65"/><feComposite xmlns="http://www.w3.org/2000/svg" in2="pf_100_offsetBlur" operator="in" result="pf_100_dropShadow"/><feBlend xmlns="http://www.w3.org/2000/svg" in="SourceGraphic" in2="pf_100_dropShadow" mode="normal"/></filter></defs><g filter="url(#argHq7BU9qmTY7eigazpQ7QHdwQKqbdY)"><path d=" M 193.219 170.072 L 238.17 170.072 C 245.574 155.914 259.997 119.959 234.425 90.168 L 210.622 90.168 L 155.199 99.902 C 155.406 105.034 157.824 149.041 193.219 170.072 Z " fill="rgb(255,89,25)"/></g><path d=" M 225.279 78.012 L 221.031 78.012 L 221.031 83.557 C 222.388 83.881 223.804 84.029 225.279 84.029 L 225.279 78.012 L 225.279 78.012 Z " fill="rgb(249,209,197)"/><path d=" M 239.586 89.958 L 232.271 88.689 C 230.678 88.394 229.498 87.008 229.498 85.386 L 229.498 78.012 L 221.033 78.012 L 221.033 85.386 C 221.033 87.008 219.853 88.394 218.261 88.689 L 210.946 89.987 C 210.326 89.987 209.677 90.016 209.058 90.046 C 209.146 92.258 208.085 94.146 207.023 96.034 C 206.964 96.358 206.934 96.653 206.905 96.977 C 206.905 97.095 206.875 97.213 206.846 97.331 C 208.173 97.125 209.559 97.007 210.946 97.007 L 225.251 97.007 L 225.251 96.771 L 225.28 97.007 L 239.586 97.007 C 240.264 97.007 240.972 97.036 241.651 97.095 C 241.828 94.765 242.24 92.435 242.594 90.164 C 241.592 90.016 240.589 89.958 239.586 89.958 Z " fill="rgb(255,233,225)"/><path d=" M 221.031 83.557 C 222.388 83.881 223.804 84.029 225.279 84.029 C 226.753 84.029 228.14 83.881 229.526 83.557 L 229.526 78.012 L 221.061 78.012 L 221.061 83.557 L 221.031 83.557 L 221.031 83.557 Z " fill="rgb(249,209,197)"/><path d=" M 203.809 170.008 L 246.725 170.008 L 235.988 142.843 L 233.422 121.399 C 236.313 119.276 237.345 109.808 237.345 105.944 C 237.345 99.986 240.206 96.122 234.425 95.473 L 234.425 92.848 L 216.049 92.848 L 216.049 95.473 C 210.268 96.151 212.923 103.437 212.923 109.365 C 212.923 113.229 213.483 115.766 216.374 117.889 L 214.457 142.872 L 203.809 170.008 L 203.809 170.008 Z " fill="rgb(255,233,225)"/><path d=" M 225.281 81.67 C 216.078 81.67 208.557 74.119 208.557 64.887 L 208.557 47.455 C 208.557 38.223 216.078 30.672 225.281 30.672 C 234.483 30.672 242.005 38.223 242.005 47.455 L 242.005 64.887 C 242.005 74.09 234.454 81.67 225.281 81.67 Z " fill="rgb(255,233,225)"/><path d=" M 208.557 47.457 L 208.557 64.889 C 208.557 74.121 216.078 81.672 225.281 81.672 L 225.281 30.645 C 216.078 30.645 208.557 38.195 208.557 47.457 Z " fill="rgb(255,233,225)"/><path d=" M 225.279 68.869 C 223.834 68.869 222.654 68.486 222.654 68.044 L 222.654 67.041 C 222.654 66.598 223.834 66.215 225.279 66.215 C 226.725 66.215 227.905 66.598 227.905 67.041 L 227.905 68.044 C 227.875 68.516 226.695 68.869 225.279 68.869 Z " fill="rgb(249,209,197)"/><path d=" M 225.279 66.242 C 223.834 66.242 222.654 66.626 222.654 67.068 L 222.654 68.071 C 222.654 68.513 223.834 68.897 225.279 68.897 L 225.279 66.242 L 225.279 66.242 Z " fill="rgb(249,209,197)"/><path d=" M 226.902 39.693 C 226.902 39.693 229.498 49.249 241.975 50.665 C 241.975 50.547 243.538 37.038 235.279 34 L 226.902 39.693 L 226.902 39.693 Z " fill="rgb(214,165,43)"/><path d=" M 235.28 34.005 C 235.28 34.005 231.74 56.657 202.48 51.849 C 202.48 51.879 211.86 17.104 235.28 34.005 Z " fill="rgb(242,206,92)"/><path d=" M 244.658 50.554 C 242.358 46.72 231.68 48.873 227.846 51.174 C 226.784 51.823 225.929 52.648 225.309 53.592 C 224.66 52.619 223.805 51.793 222.773 51.174 C 218.938 48.873 208.231 46.72 205.96 50.554 C 203.66 54.389 210.65 62.795 214.514 65.096 C 218.201 67.308 222.979 66.216 225.339 62.677 C 227.728 66.216 232.477 67.308 236.164 65.096 C 239.969 62.795 246.93 54.418 244.658 50.554 Z " fill="rgb(173,229,65)"/><path d=" M 225.28 53.592 C 224.631 52.619 223.776 51.793 222.743 51.174 C 218.909 48.873 208.202 46.72 205.931 50.554 C 203.63 54.389 210.621 62.795 214.485 65.096 C 218.172 67.308 222.95 66.216 225.31 62.677 L 225.28 53.592 L 225.28 53.592 Z " fill="rgb(88,212,13)"/><path d=" M 221.889 60.754 C 221.741 60.754 221.594 60.724 221.476 60.606 C 218.025 58.099 215.488 60.459 215.37 60.547 C 215.105 60.813 214.662 60.813 214.397 60.518 C 214.131 60.252 214.131 59.81 214.426 59.544 C 214.456 59.515 217.936 56.3 222.302 59.485 C 222.597 59.721 222.685 60.134 222.449 60.459 C 222.302 60.636 222.095 60.754 221.889 60.754 Z " fill="rgb(104,59,50)"/><path d=" M 235.662 60.754 C 235.515 60.754 235.367 60.724 235.249 60.606 C 231.828 58.099 229.262 60.459 229.144 60.547 C 228.878 60.813 228.436 60.783 228.17 60.518 C 227.905 60.252 227.905 59.81 228.2 59.544 C 228.229 59.515 231.71 56.3 236.075 59.485 C 236.37 59.721 236.458 60.134 236.222 60.459 C 236.075 60.636 235.869 60.754 235.662 60.754 Z " fill="rgb(104,59,50)"/><defs><filter id="f9gNkxIh3lBlebV0ZocCynNPc3HZaKEu" x="-200%" y="-200%" width="400%" height="400%" filterUnits="objectBoundingBox" color-interpolation-filters="sRGB"><feGaussianBlur xmlns="http://www.w3.org/2000/svg" in="SourceGraphic" stdDeviation="2.146804531419514"/><feOffset xmlns="http://www.w3.org/2000/svg" dx="0" dy="0" result="pf_100_offsetBlur"/><feFlood xmlns="http://www.w3.org/2000/svg" flood-color="#000000" flood-opacity="0.65"/><feComposite xmlns="http://www.w3.org/2000/svg" in2="pf_100_offsetBlur" operator="in" result="pf_100_dropShadow"/><feBlend xmlns="http://www.w3.org/2000/svg" in="SourceGraphic" in2="pf_100_dropShadow" mode="normal"/></filter></defs><g filter="url(#f9gNkxIh3lBlebV0ZocCynNPc3HZaKEu)"><linearGradient id="_lgradient_0" x1="-0.0009521542489885348" y1="0.4947933280512018" x2="0.9996191383004032" y2="0.4947933280512018" gradientTransform="matrix(21.005,0,0,19.437,240.588,90.191)" gradientUnits="userSpaceOnUse"><stop offset="0%" stop-opacity="1" style="stop-color:rgb(173,229,65)"/><stop offset="100%" stop-opacity="1" style="stop-color:rgb(88,212,13)"/></linearGradient><path d=" M 261.593 106.826 C 259.837 103.169 257.125 99.659 253.459 96.591 C 250.25 93.878 246.916 91.843 243.365 90.191 C 242.384 90.369 242.582 90.255 242.544 90.284 C 242.353 90.461 242.549 90.529 242.396 90.735 C 242.358 90.706 243.032 90.633 242.994 90.604 C 242.956 90.633 242.956 90.663 242.918 90.692 C 242.154 91.459 241.619 92.285 241.199 93.111 C 241.084 94.231 240.855 95.382 240.588 96.503 C 242.879 97.741 244.445 99.334 246.851 101.34 C 249.792 103.818 251.969 106.649 253.344 109.628 C 255.406 109.333 257.507 108.891 259.378 108.153 C 259.913 107.947 260.41 107.681 260.868 107.445 C 260.83 107.386 260.791 107.328 260.791 107.269 C 261.059 107.092 261.326 106.974 261.593 106.826 Z " fill="url(#_lgradient_0)"/></g><path d=" M 225.28 104.059 C 219.44 104.059 214.691 108.778 214.691 114.677 C 214.691 120.517 219.411 125.295 225.28 125.295 L 225.28 104.059 L 225.28 104.059 Z " fill="rgb(224,61,11)"/><path d=" M 215.665 58.813 C 215.4 58.872 215.164 58.931 214.898 58.99 C 214.574 59.078 214.249 59.137 213.895 59.166 C 213.571 59.166 213.217 59.137 212.922 58.96 C 212.951 59.402 213.217 59.756 213.482 60.11 C 213.541 60.169 213.571 60.258 213.659 60.317 C 213.718 60.346 213.777 60.405 213.836 60.435 C 214.19 60.612 214.603 60.73 214.987 60.73" fill="rgb(104,59,50)"/><path d=" M 234.955 58.867 C 235.221 58.926 235.456 58.985 235.722 59.044 C 236.046 59.133 236.371 59.192 236.725 59.221 C 237.049 59.221 237.403 59.192 237.698 59.015 C 237.669 59.457 237.403 59.811 237.138 60.165 C 237.079 60.224 237.049 60.313 236.961 60.372 C 236.902 60.401 236.843 60.46 236.784 60.489 C 236.43 60.666 236.017 60.784 235.633 60.784" fill="rgb(104,59,50)"/><g opacity="0.28"><path d=" M 205.018 50.133 C 205.018 50.133 205.106 50.103 205.254 50.015 C 205.401 49.926 205.578 49.779 205.814 49.572 C 206.286 49.159 206.964 48.569 207.79 47.862 C 208.587 47.154 209.53 46.328 210.533 45.413 C 211.035 44.971 211.536 44.499 212.067 44.027 C 212.598 43.555 213.129 43.083 213.66 42.611 C 214.191 42.139 214.722 41.667 215.223 41.196 C 215.489 40.96 215.724 40.724 215.99 40.488 C 216.226 40.252 216.491 40.016 216.727 39.78 C 217.199 39.308 217.671 38.865 218.114 38.452 C 218.556 38.01 218.94 37.627 219.323 37.214 C 219.706 36.83 220.031 36.476 220.326 36.152 C 220.621 35.827 220.857 35.532 221.063 35.296 C 221.27 35.06 221.417 34.854 221.535 34.707 C 221.653 34.559 221.712 34.5 221.712 34.5 C 221.712 34.5 221.683 34.589 221.624 34.766 C 221.565 34.913 221.506 35.178 221.388 35.473 C 221.329 35.621 221.27 35.798 221.181 35.975 C 221.093 36.152 221.004 36.329 220.916 36.535 C 220.709 36.948 220.473 37.391 220.178 37.863 C 219.588 38.806 218.822 39.839 217.907 40.871 C 216.993 41.903 215.96 42.936 214.899 43.939 C 213.807 44.912 212.686 45.826 211.566 46.652 C 210.474 47.449 209.383 48.157 208.439 48.687 C 207.967 48.953 207.525 49.189 207.112 49.395 C 206.728 49.602 206.345 49.749 206.05 49.867 C 205.755 49.985 205.519 50.074 205.342 50.103 C 205.106 50.162 205.018 50.133 205.018 50.133 Z " fill="rgb(201,160,45)"/></g><g opacity="0.28"><path d=" M 209.766 50.668 C 209.766 50.668 209.884 50.638 210.031 50.579 C 210.208 50.52 210.444 50.373 210.768 50.225 C 211.093 50.078 211.447 49.871 211.889 49.635 C 212.332 49.4 212.804 49.134 213.335 48.839 C 213.866 48.544 214.426 48.22 215.016 47.866 C 215.606 47.512 216.225 47.158 216.874 46.774 C 218.142 46.008 219.499 45.152 220.797 44.267 C 222.095 43.382 223.363 42.439 224.513 41.495 C 225.664 40.551 226.667 39.607 227.463 38.752 C 227.669 38.545 227.846 38.309 228.023 38.132 C 228.2 37.926 228.377 37.749 228.525 37.542 C 228.849 37.159 229.085 36.834 229.292 36.539 C 229.498 36.244 229.646 36.008 229.764 35.861 C 229.882 35.714 229.941 35.625 229.941 35.625 C 229.941 35.625 229.911 35.714 229.852 35.92 C 229.793 36.097 229.734 36.392 229.616 36.716 C 229.498 37.041 229.351 37.483 229.115 37.926 C 228.908 38.398 228.613 38.87 228.289 39.4 C 228.112 39.666 227.935 39.931 227.728 40.197 C 227.522 40.462 227.316 40.757 227.08 41.023 C 226.608 41.583 226.106 42.144 225.546 42.675 C 225.28 42.94 224.985 43.205 224.69 43.471 C 224.543 43.589 224.395 43.736 224.248 43.884 C 224.101 44.002 223.924 44.149 223.776 44.267 C 223.157 44.798 222.478 45.27 221.8 45.742 C 221.121 46.184 220.414 46.656 219.706 47.04 C 219.352 47.246 218.998 47.453 218.644 47.63 C 218.29 47.807 217.936 47.984 217.611 48.161 C 216.225 48.839 214.898 49.37 213.748 49.783 C 213.158 49.989 212.627 50.137 212.155 50.284 C 211.683 50.432 211.24 50.52 210.886 50.579 C 210.533 50.668 210.238 50.697 210.061 50.697 C 209.972 50.697 209.884 50.697 209.825 50.697 C 209.766 50.668 209.766 50.668 209.766 50.668 Z " fill="rgb(201,160,45)"/></g><g opacity="0.28"><path d=" M 188.086 80.487 C 188.086 80.487 188.145 80.458 188.233 80.399 C 188.322 80.34 188.469 80.222 188.676 80.133 C 189.059 79.897 189.59 79.603 190.239 79.249 C 190.564 79.072 190.918 78.895 191.301 78.718 C 191.684 78.541 192.068 78.334 192.481 78.157 C 192.894 77.951 193.307 77.774 193.72 77.567 C 194.133 77.361 194.575 77.154 194.988 76.977 C 195.401 76.771 195.843 76.564 196.256 76.358 C 196.463 76.24 196.669 76.152 196.876 76.063 C 197.082 75.945 197.259 75.857 197.466 75.768 C 197.849 75.562 198.232 75.355 198.586 75.178 C 198.94 74.972 199.294 74.795 199.589 74.618 C 199.737 74.529 199.884 74.441 200.032 74.352 C 200.179 74.264 200.297 74.175 200.445 74.116 C 200.71 73.969 200.917 73.851 201.094 73.733 C 201.27 73.615 201.418 73.526 201.536 73.467 C 201.654 73.408 201.683 73.379 201.683 73.379 C 201.683 73.379 201.654 73.438 201.595 73.526 C 201.536 73.615 201.447 73.792 201.329 73.969 C 201.212 74.146 201.064 74.382 200.887 74.618 C 200.799 74.736 200.681 74.883 200.592 75.001 C 200.474 75.119 200.356 75.267 200.238 75.414 C 200.12 75.562 199.973 75.709 199.825 75.827 C 199.678 75.975 199.53 76.122 199.353 76.24 C 199.029 76.535 198.675 76.8 198.291 77.095 C 197.908 77.361 197.495 77.626 197.082 77.892 C 196.669 78.157 196.197 78.364 195.755 78.6 C 195.312 78.806 194.84 79.013 194.398 79.19 C 193.956 79.367 193.484 79.514 193.041 79.662 C 192.599 79.78 192.156 79.927 191.743 80.015 C 191.33 80.104 190.947 80.192 190.564 80.251 C 189.826 80.399 189.207 80.458 188.794 80.487 C 188.587 80.517 188.41 80.517 188.292 80.517 C 188.145 80.487 188.086 80.487 188.086 80.487 Z " fill="rgb(165,124,33)"/></g><g opacity="0.28"><path d=" M 194.84 87.007 C 194.84 87.007 194.899 86.977 195.017 86.889 C 195.135 86.83 195.312 86.712 195.577 86.594 C 195.813 86.476 196.108 86.329 196.462 86.211 C 196.816 86.063 197.199 85.916 197.642 85.768 C 198.497 85.473 199.5 85.178 200.562 84.854 C 201.093 84.706 201.624 84.529 202.155 84.323 C 202.686 84.146 203.217 83.939 203.748 83.703 C 204.278 83.497 204.78 83.232 205.252 82.966 C 205.724 82.701 206.196 82.406 206.609 82.111 C 207.022 81.816 207.434 81.491 207.788 81.167 C 207.965 81.019 208.142 80.842 208.29 80.665 C 208.437 80.488 208.614 80.341 208.762 80.193 C 209.057 79.869 209.322 79.574 209.529 79.279 C 209.765 79.014 209.942 78.748 210.089 78.542 C 210.384 78.099 210.591 77.863 210.591 77.863 C 210.591 77.863 210.591 77.952 210.561 78.07 C 210.532 78.217 210.502 78.424 210.443 78.689 C 210.355 78.955 210.296 79.279 210.148 79.633 C 210.089 79.81 210.001 79.987 209.912 80.193 C 209.824 80.4 209.706 80.577 209.617 80.813 C 209.499 81.019 209.381 81.226 209.234 81.462 C 209.086 81.668 208.939 81.904 208.762 82.111 C 208.437 82.553 208.024 82.966 207.582 83.379 C 207.14 83.792 206.638 84.175 206.107 84.5 C 205.576 84.824 205.016 85.119 204.426 85.385 C 203.836 85.621 203.246 85.857 202.656 86.004 C 202.066 86.181 201.476 86.299 200.916 86.417 C 199.795 86.624 198.733 86.742 197.848 86.83 C 196.049 86.918 194.84 87.007 194.84 87.007 Z " fill="rgb(165,124,33)"/></g><g><defs><filter id="a5UOxKCqYWeTcnLsWMkMVUyif7Qr0iEL" x="-200%" y="-200%" width="400%" height="400%" filterUnits="objectBoundingBox" color-interpolation-filters="sRGB"><feGaussianBlur xmlns="http://www.w3.org/2000/svg" in="SourceGraphic" stdDeviation="2.146804531419514"/><feOffset xmlns="http://www.w3.org/2000/svg" dx="0" dy="0" result="pf_100_offsetBlur"/><feFlood xmlns="http://www.w3.org/2000/svg" flood-color="#000000" flood-opacity="0.65"/><feComposite xmlns="http://www.w3.org/2000/svg" in2="pf_100_offsetBlur" operator="in" result="pf_100_dropShadow"/><feBlend xmlns="http://www.w3.org/2000/svg" in="SourceGraphic" in2="pf_100_dropShadow" mode="normal"/></filter></defs><g filter="url(#a5UOxKCqYWeTcnLsWMkMVUyif7Qr0iEL)"><linearGradient id="_lgradient_1" x1="0.48988625437657607" y1="0.12551361926523574" x2="0.4898862543765759" y2="1.0722471319150426" gradientTransform="matrix(53.567,0,0,23.591,200.45,145.109)" gradientUnits="userSpaceOnUse"><stop offset="0%" stop-opacity="1" style="stop-color:rgb(173,229,65)"/><stop offset="100%" stop-opacity="1" style="stop-color:rgb(88,212,13)"/></linearGradient><path d=" M 200.45 168.701 L 254.017 168.042 C 254.017 168.042 249.987 151.035 245.877 145.109" fill="url(#_lgradient_1)"/></g></g><linearGradient id="_lgradient_2" x1="0.48988625437657607" y1="0.12551361926523574" x2="0.4898862543765759" y2="1.0722471319150426" gradientTransform="matrix(55.123,0,0,80.045,199.729,89.988)" gradientUnits="userSpaceOnUse"><stop offset="0%" stop-opacity="1" style="stop-color:rgb(173,229,65)"/><stop offset="100%" stop-opacity="1" style="stop-color:rgb(88,212,13)"/></linearGradient><path d=" M 238.289 117.862 C 241.18 115.738 244.631 110.93 244.631 107.066 C 244.631 105.768 244.731 102.365 244.318 101.186 C 241.674 93.849 240.56 93.852 243.362 90.195 C 242.124 90.047 240.855 89.988 239.557 89.988 L 238.348 89.988 C 236.667 96.271 231.446 100.843 225.252 100.843 C 219.058 100.843 213.837 96.271 212.156 89.988 L 210.947 89.988 C 210.298 89.988 209.649 90.018 209 90.047 C 208.794 91.788 208.204 93.439 207.614 95.091 C 207.348 95.828 207.053 96.566 206.817 97.333 C 208.174 97.126 209.531 97.008 210.947 97.008 L 211.625 97.008 C 208.174 99.014 205.844 102.76 205.844 107.096 C 205.844 110.96 209.383 115.738 212.274 117.862 C 212.274 117.862 214.516 130.692 212.362 133.937 C 206.08 143.375 199.729 170.033 199.729 170.033 L 254.852 169.355 C 254.852 169.355 249.114 145.145 238.673 133.937 C 235.9 130.958 238.289 117.862 238.289 117.862 Z " fill="url(#_lgradient_2)"/><path d=" M 222.507 71.521 C 224.07 71.02 225.722 70.902 227.256 71.344 C 227.964 71.551 228.642 71.875 229.262 72.288 C 230.176 72.878 229.999 72.76 230.707 73.616 C 230.766 74.028 230.737 75.297 230.383 75.533 C 227.875 77.214 225.752 77.981 222.95 77.244 C 222.212 77.037 221.209 76.595 220.649 76.064 C 220.118 75.533 219.764 74.707 219.882 73.911 C 220.118 72.672 221.357 71.905 222.507 71.521 Z " fill="rgb(255,125,125)"/><path d=" M 228.427 75.497 C 228.502 75.164 228.176 74.806 227.699 74.699 C 227.222 74.593 226.775 74.777 226.7 75.11 C 226.625 75.444 226.951 75.801 227.428 75.908 C 227.905 76.015 228.352 75.831 228.427 75.497 Z " fill="rgb(255,222,224)"/><path d=" M 219.619 72.469 C 219.619 72.469 219.796 72.557 220.121 72.705 C 220.209 72.734 220.268 72.793 220.386 72.852 C 220.475 72.882 220.592 72.941 220.681 72.97 C 220.887 73.059 221.094 73.147 221.359 73.236 C 221.477 73.265 221.625 73.324 221.743 73.383 C 221.89 73.442 222.038 73.442 222.185 73.501 C 222.333 73.531 222.48 73.59 222.628 73.619 C 222.805 73.649 222.982 73.708 223.129 73.708 C 223.277 73.708 223.424 73.737 223.601 73.767 C 223.778 73.767 223.925 73.796 224.102 73.796 C 224.279 73.796 224.456 73.796 224.604 73.826 L 225.135 73.826 C 225.312 73.826 225.489 73.826 225.666 73.796 C 225.843 73.767 226.02 73.767 226.197 73.767 L 226.462 73.737 L 226.669 73.708 C 226.846 73.678 227.023 73.649 227.2 73.619 C 227.376 73.59 227.553 73.56 227.73 73.531 C 227.878 73.501 228.025 73.472 228.173 73.442 C 228.468 73.383 228.763 73.354 229.028 73.265 C 229.294 73.206 229.559 73.147 229.795 73.088 C 230.031 73.029 230.208 72.97 230.385 72.941 C 230.71 72.852 230.916 72.823 230.916 72.823 C 230.916 72.823 230.798 72.97 230.533 73.206 C 230.415 73.324 230.238 73.472 230.061 73.619 C 229.854 73.767 229.648 73.914 229.382 74.091 C 229.146 74.268 228.851 74.416 228.527 74.563 C 228.379 74.651 228.202 74.71 228.025 74.799 C 227.878 74.858 227.701 74.917 227.524 74.976 C 227.347 75.035 227.17 75.094 226.993 75.153 L 226.964 75.153 L 226.905 75.153 L 226.875 75.153 L 226.816 75.182 L 226.669 75.212 L 226.374 75.271 C 226.167 75.3 225.961 75.33 225.754 75.359 C 225.548 75.389 225.341 75.389 225.135 75.389 C 224.928 75.389 224.722 75.389 224.515 75.389 C 224.309 75.389 224.102 75.359 223.896 75.33 C 223.69 75.3 223.483 75.241 223.306 75.212 C 223.1 75.153 222.893 75.094 222.716 75.035 C 222.539 74.976 222.392 74.917 222.215 74.828 L 222.156 74.799 L 222.126 74.799 C 222.067 74.769 222.097 74.799 222.097 74.799 L 222.067 74.769 L 221.949 74.71 C 221.861 74.681 221.802 74.622 221.713 74.592 C 221.566 74.504 221.389 74.416 221.271 74.327 C 221.153 74.239 221.005 74.121 220.887 74.032 C 220.651 73.855 220.445 73.619 220.268 73.442 C 220.18 73.354 220.091 73.265 220.032 73.177 C 219.973 73.088 219.914 73 219.885 72.941 C 219.737 72.646 219.619 72.469 219.619 72.469 Z " fill="rgb(113,54,57)"/><path d=" M 235.811 114.677 C 235.811 120.517 231.091 125.295 225.222 125.295 C 219.382 125.295 214.633 120.576 214.633 114.677 C 214.633 108.837 219.352 104.059 225.222 104.059 C 231.091 104.059 235.811 108.837 235.811 114.677 Z " fill="rgb(255,89,25)"/><path d=" M 228.2 109.336 L 225.486 109.631 C 223.599 109.837 222.478 111.017 222.448 112.846 L 222.419 115.324 C 222.389 116.267 222.271 116.769 221.741 117.241 L 220.915 117.329 L 220.826 120.249 L 222.566 120.072 L 222.596 118.686 L 227.522 118.155 L 227.492 119.541 L 229.232 119.364 L 229.291 116.444 L 228.112 116.562 L 228.2 109.336 L 228.2 109.336 Z  M 226.371 116.739 L 223.776 117.005 C 223.982 116.474 224.071 115.854 224.13 115.058 L 224.13 112.669 C 224.159 111.548 224.631 111.283 225.339 111.224 L 226.43 111.106 L 226.371 116.739 L 226.371 116.739 Z " fill="rgb(255,255,255)"/><path d=" M 243.837 141.241 C 242.481 138.321 240.674 136.124 238.638 133.941 C 238.461 133.764 238.314 133.558 238.196 133.292 C 231.707 134.03 222.711 134.443 212.712 133.086 C 212.594 133.41 212.476 133.705 212.299 133.941 C 211.06 135.8 209.647 138.304 208.703 141.165 C 221.209 144.793 235.549 142.834 243.837 141.241 Z " fill="rgb(224,61,11)"/><path d=" M 216.727 92.816 C 217.287 92.787 217.847 92.846 218.378 92.934 C 218.909 93.023 219.44 93.17 219.971 93.318 C 220.502 93.495 220.974 93.672 221.505 93.967 C 221.741 94.114 222.006 94.291 222.213 94.527 C 222.419 94.763 222.567 95.058 222.567 95.353 C 222.124 94.969 221.682 94.852 221.18 94.704 C 220.708 94.586 220.148 94.468 219.647 94.291 C 219.145 94.114 218.644 93.937 218.142 93.672 C 217.641 93.465 217.169 93.2 216.727 92.816 Z " fill="rgb(249,209,197)"/><path d=" M 233.657 92.816 C 233.214 93.2 232.742 93.465 232.241 93.701 C 231.769 93.937 231.267 94.143 230.736 94.32 C 230.235 94.497 229.675 94.615 229.203 94.733 C 228.701 94.881 228.259 94.969 227.816 95.382 C 227.816 95.087 227.964 94.792 228.17 94.556 C 228.377 94.32 228.613 94.143 228.878 93.996 C 229.38 93.701 229.881 93.524 230.412 93.347 C 230.943 93.17 231.444 93.052 232.005 92.964 C 232.506 92.846 233.067 92.787 233.657 92.816 Z " fill="rgb(249,209,197)"/><defs><filter id="X6KqaTbHqoSLM8ZAu867IYuxAuzU37aN" x="-200%" y="-200%" width="400%" height="400%" filterUnits="objectBoundingBox" color-interpolation-filters="sRGB"><feGaussianBlur xmlns="http://www.w3.org/2000/svg" in="SourceGraphic" stdDeviation="2.146804531419514"/><feOffset xmlns="http://www.w3.org/2000/svg" dx="0" dy="0" result="pf_100_offsetBlur"/><feFlood xmlns="http://www.w3.org/2000/svg" flood-color="#000000" flood-opacity="0.65"/><feComposite xmlns="http://www.w3.org/2000/svg" in2="pf_100_offsetBlur" operator="in" result="pf_100_dropShadow"/><feBlend xmlns="http://www.w3.org/2000/svg" in="SourceGraphic" in2="pf_100_dropShadow" mode="normal"/></filter></defs><g filter="url(#X6KqaTbHqoSLM8ZAu867IYuxAuzU37aN)"><linearGradient id="_lgradient_3" x1="-0.033525320582482365" y1="0.5000856436733798" x2="1.00103238426429" y2="0.5000856436733798" gradientTransform="matrix(18.404,0,0,40.867,245.178,105.797)" gradientUnits="userSpaceOnUse"><stop offset="0%" stop-opacity="1" style="stop-color:rgb(249,209,197)"/><stop offset="100%" stop-opacity="1" style="stop-color:rgb(255,233,225)"/></linearGradient><path d=" M 245.178 142.414 C 247.584 143.644 248.878 144.968 250.826 146.664 C 258.655 140.413 263.582 131.235 263.582 120.993 C 263.582 115.241 263.085 110.552 260.297 105.797 C 257.891 106.961 255.943 108.756 254.072 110.452 C 256.02 114.043 256.283 116.904 256.283 121.194 C 256.283 129.673 251.9 137.493 245.178 142.414 Z " fill="url(#_lgradient_3)"/></g><path d=" M 235.34 142.219 C 234.897 142.484 234.986 143.163 235.487 143.251 C 235.87 143.31 236.342 143.34 236.814 143.281 C 239.439 142.838 242.124 141.836 242.124 141.836 C 242.124 141.836 237.935 144.785 235.222 146.289 C 234.809 146.525 234.72 147.086 235.045 147.41 C 235.428 147.764 236.254 147.587 237.109 147.351 C 240 146.496 243.628 144.166 243.628 144.166 C 243.628 144.166 238.997 148.266 236.401 150.035 C 236.077 150.242 236.077 150.714 236.372 150.92 C 236.873 151.274 237.67 151.628 238.466 151.245 C 241.15 150.035 245.073 147.056 245.073 147.056 C 245.073 147.056 241.976 150.684 239.616 152.454 C 239.321 152.66 239.321 153.132 239.587 153.398 C 239.911 153.693 240.383 153.929 241.003 153.663 C 243.598 152.572 246.961 149.032 246.961 149.032 C 246.961 149.032 251.562 149.18 250.5 145.434 C 249.556 142.16 247.049 141.393 244.395 139.948 C 241.74 138.444 237.817 140.774 235.34 142.219 Z " fill="rgb(255,233,225)"/><path d=" M 253.428 108.078 L 259.067 104.303 C 260.269 103.509 261.91 103.825 262.704 105.027 C 263.498 106.229 263.183 107.87 261.98 108.664 L 256.343 112.403 C 255.141 113.197 253.5 112.882 252.706 111.679 C 251.91 110.513 252.261 108.874 253.428 108.078 Z " fill="rgb(224,61,11)"/><linearGradient id="_lgradient_4" x1="0.9651667700529654" y1="0.4982054938006142" x2="0.00019086701340675916" y2="0.4982054938006141" gradientTransform="matrix(20.957,0,0,19.534,191.41,90.07)" gradientUnits="userSpaceOnUse"><stop offset="0%" stop-opacity="1" style="stop-color:rgb(173,229,65)"/><stop offset="100%" stop-opacity="1" style="stop-color:rgb(88,212,13)"/></linearGradient><path d=" M 191.41 106.802 C 193.101 103.144 195.71 99.634 199.238 96.567 C 202.325 93.853 204.637 91.743 208.055 90.091 C 208.092 90.121 208.682 90.048 208.719 90.078 C 208.903 90.255 209.05 90.431 209.197 90.638 C 209.233 90.608 209.27 90.608 209.307 90.579 C 209.344 90.608 209.344 90.638 209.38 90.667 C 210.115 91.434 210.63 92.26 211.034 93.086 C 211.144 94.207 212.11 95.516 212.367 96.637 C 210.162 97.876 207.91 99.31 205.595 101.315 C 202.766 103.793 200.671 106.625 199.348 109.604 C 197.363 109.309 195.342 108.866 193.542 108.129 C 193.027 107.922 192.549 107.657 192.108 107.421 C 192.145 107.362 192.182 107.303 192.182 107.244 C 191.925 107.096 191.667 106.949 191.41 106.802 Z " fill="url(#_lgradient_4)"/><linearGradient id="_lgradient_5" x1="1.015369488718692" y1="0.4954882895493289" x2="-0.00020699648105981794" y2="0.4954882895493288" gradientTransform="matrix(19.324,0,0,40.007,187.738,107.156)" gradientUnits="userSpaceOnUse"><stop offset="0%" stop-opacity="1" style="stop-color:rgb(249,209,197)"/><stop offset="100%" stop-opacity="1" style="stop-color:rgb(255,233,225)"/></linearGradient><path d=" M 207.062 141.873 C 204.582 143.066 205.273 145.52 203.266 147.163 C 195.196 141.104 187.738 131.811 187.738 121.885 C 187.738 116.309 188.25 111.765 191.124 107.156 C 193.604 108.284 195.611 110.025 197.54 111.668 C 195.533 115.149 195.05 117.799 195.05 121.956 C 195.859 130.296 200.134 137.103 207.062 141.873 Z " fill="url(#_lgradient_5)"/><path d=" M 218.107 142.223 C 218.549 142.488 218.461 143.166 217.959 143.255 C 217.576 143.314 217.104 143.343 216.632 143.284 C 214.007 142.842 211.323 141.839 211.323 141.839 C 211.323 141.839 215.511 144.789 218.225 146.293 C 218.638 146.529 218.726 147.089 218.402 147.414 C 218.018 147.768 217.193 147.591 216.337 147.355 C 213.447 146.499 209.819 144.169 209.819 144.169 C 209.819 144.169 214.449 148.269 217.045 150.039 C 217.37 150.245 217.37 150.717 217.075 150.924 C 216.573 151.278 215.777 151.632 214.98 151.248 C 212.296 150.039 208.373 147.06 208.373 147.06 C 208.373 147.06 211.47 150.688 213.83 152.458 C 214.125 152.664 214.125 153.136 213.86 153.401 C 213.535 153.696 213.063 153.932 212.444 153.667 C 209.848 152.576 206.486 149.036 206.486 149.036 C 206.486 149.036 201.884 149.184 202.946 145.438 C 203.89 142.164 206.397 141.397 209.052 139.951 C 211.706 138.477 215.629 140.777 218.107 142.223 Z " fill="rgb(255,233,225)"/><path d=" M 199.49 108.112 L 194.264 104.14 C 193.149 103.304 191.546 103.513 190.71 104.628 C 189.874 105.743 190.083 107.345 191.198 108.182 L 196.424 112.119 C 197.539 112.955 199.142 112.746 199.978 111.631 C 200.814 110.551 200.57 108.948 199.49 108.112 Z " fill="rgb(224,61,11)"/></g></svg>