<svg width="15" height="12" viewBox="0 0 15 12" version="1.1" xmlns="http://www.w3.org/2000/svg" xmlns:xlink="http://www.w3.org/1999/xlink">
<title>Vector</title>
<desc>Created using Figma</desc>
<g id="Canvas" transform="translate(-17971 -552)">
<g id="Vector">
<use xlink:href="#path0_fill" transform="translate(17971.2 552.546)" fill="#353535"/>
</g>
</g>
<defs>
<path id="path0_fill" d="M 14 1.30181C 13.4849 1.52308 12.9318 1.67242 12.3502 1.73885C 12.9432 1.39531 13.3987 0.851231 13.6136 0.203077C 13.0583 0.520808 12.4439 0.752654 11.7896 0.876615C 11.2654 0.337192 10.5188 0 9.69217 0C 8.10584 0 6.82058 1.243 6.82058 2.77665C 6.82058 2.99412 6.84552 3.2065 6.89454 3.40958C 4.50738 3.29365 2.3911 2.18815 0.974119 0.508115C 0.727307 0.9185 0.585521 1.39531 0.585521 1.90427C 0.585521 2.86804 1.09271 3.71758 1.8629 4.21596C 1.39247 4.20115 0.949612 4.07677 0.562328 3.86862C 0.56189 3.88004 0.56189 3.89231 0.56189 3.90331C 0.56189 5.24912 1.55176 6.37154 2.8659 6.62665C 2.62522 6.68969 2.37141 6.72396 2.10928 6.72396C 1.92373 6.72396 1.74431 6.70661 1.56927 6.67446C 1.93423 7.777 2.99544 8.58 4.25181 8.60285C 3.26938 9.34746 2.03095 9.79212 0.685296 9.79212C 0.453363 9.79212 0.224494 9.779 2.07861e-11 9.75319C 1.27082 10.5401 2.78057 11 4.40279 11C 9.68561 11 12.5751 6.76881 12.5751 3.09904C 12.5751 2.97888 12.5716 2.85873 12.5664 2.73942C 13.1278 2.34808 13.6145 1.85942 14 1.30181Z"/>
</defs>
</svg>
