<svg width="21" height="12" viewBox="0 0 21 12" fill="none" xmlns="http://www.w3.org/2000/svg">
<path d="M5.09011 9.36257C7.46598 11.677 10.1611 11.5253 10.1611 11.5253H11.3856C11.3856 11.5253 11.7572 11.4862 11.9456 11.2954C12.1183 11.1192 12.1131 10.7914 12.1131 10.7914C12.1131 10.7914 12.0869 9.25981 12.8509 9.02983C13.5993 8.80964 14.5674 10.5125 15.5879 11.1681C16.3624 11.6623 16.9485 11.5547 16.9485 11.5547L19.675 11.5204C19.675 11.5204 21.1037 11.4373 20.4286 10.3901C20.3711 10.302 20.0361 9.61212 18.3981 8.1931C16.6869 6.70559 16.9171 6.94535 18.979 4.37645C20.235 2.81064 20.7374 1.85647 20.5804 1.44545C20.4286 1.054 19.5076 1.15675 19.5076 1.15675L16.4305 1.17633C16.4305 1.17633 16.2002 1.14697 16.0327 1.23994C15.8653 1.33291 15.7606 1.54821 15.7606 1.54821C15.7606 1.54821 15.2739 2.76171 14.625 3.78927C13.2539 5.96183 12.7096 6.07926 12.4846 5.94225C11.9665 5.62909 12.0921 4.67982 12.0921 4.00457C12.0921 1.89562 12.4323 1.01975 11.4275 0.789768C11.0926 0.716371 10.8466 0.662546 9.99362 0.657653C8.89464 0.647867 7.96837 0.662546 7.43981 0.902311C7.08919 1.06378 6.8223 1.42098 6.98452 1.44056C7.18862 1.46502 7.64914 1.55799 7.88987 1.86626C8.20386 2.2675 8.19339 3.16784 8.19339 3.16784C8.19339 3.16784 8.37656 5.64866 7.76951 5.95693C7.35608 6.16734 6.78566 5.73674 5.56633 3.7648C4.93834 2.75681 4.46735 1.63628 4.46735 1.63628C4.46735 1.63628 4.37839 1.42588 4.21616 1.31823C4.0173 1.18122 3.74517 1.14207 3.74517 1.14207L0.825045 1.16165C0.825045 1.16165 0.385456 1.17143 0.223227 1.35248C0.0766969 1.50417 0.21276 1.83201 0.21276 1.83201C0.21276 1.83201 2.49967 6.8377 5.09011 9.36257Z" fill="#353535"/>
</svg>
