<svg width="128" height="128" viewBox="0 0 128 128" version="1.1" xmlns="http://www.w3.org/2000/svg" xmlns:xlink="http://www.w3.org/1999/xlink">
<title>Group 3</title>
<desc>Created using Figma</desc>
<g id="Canvas" transform="translate(-15786 -33797)">
<g id="Group 3">
<g id="xlsx">
<use xlink:href="#path0_fill" transform="translate(15803 33864)" fill="#E8F0D5"/>
<use xlink:href="#path1_fill" transform="translate(15803 33864)" fill="#E8F0D5"/>
<use xlink:href="#path2_fill" transform="translate(15803 33864)" fill="#E8F0D5"/>
<use xlink:href="#path3_fill" transform="translate(15803 33864)" fill="#E8F0D5"/>
</g>
<g id="Group 3.7">
<g id="Group 3.5">
<g id="Group">
<g id="Group">
<g id="Vector">
<use xlink:href="#path4_fill" transform="translate(15786 33797)" fill="#E8F0D5"/>
</g>
</g>
</g>
</g>
</g>
</g>
</g>
<defs>
<path id="path0_fill" d="M 7.125 6.39844L 10.7109 0.234375L 14.1328 0.234375L 8.97656 8.69531L 14.25 17.2969L 10.793 17.2969L 7.125 11.0391L 3.44531 17.2969L 0 17.2969L 5.28516 8.69531L 0.117188 0.234375L 3.53906 0.234375L 7.125 6.39844Z"/>
<path id="path1_fill" d="M 19.4062 14.9297L 27.1523 14.9297L 27.1523 17.2969L 16.4414 17.2969L 16.4414 0.234375L 19.4062 0.234375L 19.4062 14.9297Z"/>
<path id="path2_fill" d="M 38.3438 12.9023C 38.3438 12.1523 38.0781 11.5742 37.5469 11.168C 37.0234 10.7617 36.0742 10.3516 34.6992 9.9375C 33.3242 9.52344 32.2305 9.0625 31.418 8.55469C 29.8633 7.57812 29.0859 6.30469 29.0859 4.73438C 29.0859 3.35938 29.6445 2.22656 30.7617 1.33594C 31.8867 0.445312 33.3438 0 35.1328 0C 36.3203 0 37.3789 0.21875 38.3086 0.65625C 39.2383 1.09375 39.9688 1.71875 40.5 2.53125C 41.0312 3.33594 41.2969 4.23047 41.2969 5.21484L 38.3438 5.21484C 38.3438 4.32422 38.0625 3.62891 37.5 3.12891C 36.9453 2.62109 36.1484 2.36719 35.1094 2.36719C 34.1406 2.36719 33.3867 2.57422 32.8477 2.98828C 32.3164 3.40234 32.0508 3.98047 32.0508 4.72266C 32.0508 5.34766 32.3398 5.87109 32.918 6.29297C 33.4961 6.70703 34.4492 7.11328 35.7773 7.51172C 37.1055 7.90234 38.1719 8.35156 38.9766 8.85938C 39.7812 9.35938 40.3711 9.9375 40.7461 10.5938C 41.1211 11.2422 41.3086 12.0039 41.3086 12.8789C 41.3086 14.3008 40.7617 15.4336 39.668 16.2773C 38.582 17.1133 37.1055 17.5312 35.2383 17.5312C 34.0039 17.5312 32.8672 17.3047 31.8281 16.8516C 30.7969 16.3906 29.9922 15.7578 29.4141 14.9531C 28.8438 14.1484 28.5586 13.2109 28.5586 12.1406L 31.5234 12.1406C 31.5234 13.1094 31.8438 13.8594 32.4844 14.3906C 33.125 14.9219 34.043 15.1875 35.2383 15.1875C 36.2695 15.1875 37.043 14.9805 37.5586 14.5664C 38.082 14.1445 38.3438 13.5898 38.3438 12.9023Z"/>
<path id="path3_fill" d="M 49.7812 6.39844L 53.3672 0.234375L 56.7891 0.234375L 51.6328 8.69531L 56.9062 17.2969L 53.4492 17.2969L 49.7812 11.0391L 46.1016 17.2969L 42.6562 17.2969L 47.9414 8.69531L 42.7734 0.234375L 46.1953 0.234375L 49.7812 6.39844Z"/>
<path id="path4_fill" d="M 122.815 32.4948L 97.2425 4.94845L 92.6907 0L 31.0348 0L 31.0348 48.6598L 0 48.6598L 0 103.67L 31.0348 103.67L 31.0348 128L 127.781 128L 127.781 37.9381L 127.781 37.8557L 122.815 32.4948ZM 91.3666 6.35052L 116.36 32.9897L 91.3666 32.9897L 91.3666 6.35052L 91.3666 6.35052ZM 4.96557 98.7216L 4.96557 53.6082L 82.7596 53.6082L 82.7596 98.7216L 4.96557 98.7216ZM 122.815 123.052L 36.0004 123.052L 36.0004 103.67L 87.7251 103.67L 87.7251 48.6598L 36.0004 48.6598L 36.0004 4.94845L 86.401 4.94845L 86.401 37.9381L 122.815 37.9381L 122.815 123.052Z"/>
</defs>
</svg>
