<svg width="128" height="128" viewBox="0 0 128 128" version="1.1" xmlns="http://www.w3.org/2000/svg" xmlns:xlink="http://www.w3.org/1999/xlink">
<title>Group 3</title>
<desc>Created using Figma</desc>
<g id="Canvas" transform="translate(-15658 -33637)">
<g id="Group 3">
<g id="zip">
<use xlink:href="#path0_fill" transform="translate(15681.3 33702.6)" fill="#E8F0D5"/>
<use xlink:href="#path1_fill" transform="translate(15681.3 33702.6)" fill="#E8F0D5"/>
<use xlink:href="#path2_fill" transform="translate(15681.3 33702.6)" fill="#E8F0D5"/>
</g>
<g id="Group 3.5">
<g id="Group">
<g id="Group">
<g id="Vector">
<use xlink:href="#path3_fill" transform="translate(15658 33637)" fill="#E8F0D5"/>
</g>
</g>
</g>
</g>
</g>
</g>
<defs>
<path id="path0_fill" d="M 15.4165 0L 15.4165 1.29759C 15.4165 1.69953 15.2969 2.06653 15.0576 2.39857L 4.81679 16.1346L 15.1818 16.1346L 15.1818 18.9526L 0 18.9526L 0 17.5633C 0 17.3885 0.0322039 17.2225 0.0966118 17.0652C 0.16102 16.8992 0.24383 16.7463 0.345042 16.6065L 10.6135 2.80488L 0.648679 2.80488L 0.648679 0L 15.4165 0Z"/>
<path id="path1_fill" d="M 22.1094 18.9526L 18.383 18.9526L 18.383 0L 22.1094 0L 22.1094 18.9526Z"/>
<path id="path2_fill" d="M 30.2904 12.2812L 30.2904 18.9526L 26.5777 18.9526L 26.5777 0L 33.0645 0C 34.3987 0 35.5534 0.148545 36.5287 0.445636C 37.5041 0.742726 38.3091 1.15778 38.944 1.69079C 39.5789 2.22381 40.0482 2.86168 40.3518 3.60441C 40.6646 4.34713 40.8211 5.15976 40.8211 6.0423C 40.8211 6.95978 40.66 7.803 40.338 8.57194C 40.016 9.33214 39.5329 9.98749 38.8888 10.538C 38.2447 11.0885 37.435 11.5166 36.4597 11.8225C 35.4936 12.1283 34.3619 12.2812 33.0645 12.2812L 30.2904 12.2812ZM 30.2904 9.52874L 33.0645 9.52874C 33.7454 9.52874 34.3389 9.4501 34.8449 9.29282C 35.351 9.1268 35.7696 8.89524 36.1009 8.59815C 36.4413 8.29232 36.6944 7.92533 36.86 7.49717C 37.0256 7.06027 37.1084 6.57531 37.1084 6.0423C 37.1084 5.5355 37.0256 5.07675 36.86 4.66607C 36.6944 4.25539 36.4459 3.90587 36.1147 3.61751C 35.7834 3.32916 35.3648 3.11071 34.8587 2.96217C 34.3527 2.80488 33.7546 2.72624 33.0645 2.72624L 30.2904 2.72624L 30.2904 9.52874Z"/>
<path id="path3_fill" d="M 122.815 32.4948L 97.2425 4.94845L 92.6907 0L 31.0348 0L 31.0348 48.6598L 0 48.6598L 0 103.67L 31.0348 103.67L 31.0348 128L 127.781 128L 127.781 37.9381L 127.781 37.8557L 122.815 32.4948ZM 91.3666 6.35052L 116.36 32.9897L 91.3666 32.9897L 91.3666 6.35052ZM 4.96557 98.7216L 4.96557 53.6082L 82.7596 53.6082L 82.7596 98.7216L 4.96557 98.7216ZM 122.815 123.052L 36.0004 123.052L 36.0004 103.67L 87.7251 103.67L 87.7251 48.6598L 36.0004 48.6598L 36.0004 4.94845L 86.401 4.94845L 86.401 37.9381L 122.815 37.9381L 122.815 123.052Z"/>
</defs>
</svg>
