<svg width="35" height="37" viewBox="0 0 35 37" version="1.1" xmlns="http://www.w3.org/2000/svg" xmlns:xlink="http://www.w3.org/1999/xlink">
<title>Group 2.1</title>
<desc>Created using Figma</desc>
<g id="Canvas" transform="translate(-12305 -35187)">
<g id="Group 2.1">
<g id="Group">
<g id="Group">
<g id="Vector">
<use xlink:href="#path0_stroke" transform="translate(12328.9 35188.8)" fill="#27AE60"/>
</g>
<g id="Vector">
<use xlink:href="#path1_stroke" transform="translate(12327.7 35214.7)" fill="#27AE60"/>
</g>
</g>
<g id="Group">
<g id="Vector">
<use xlink:href="#path2_stroke" transform="translate(12306.6 35188.8)" fill="#27AE60"/>
</g>
<g id="Vector">
<use xlink:href="#path3_stroke" transform="translate(12312.7 35214.7)" fill="#27AE60"/>
</g>
</g>
</g>
</g>
</g>
<defs>
<path id="path0_stroke" d="M 1.29124 -0.150687C 1.20802 -0.863817 0.562444 -1.37446 -0.150687 -1.29124C -0.863817 -1.20802 -1.37446 -0.562444 -1.29124 0.150687L 1.29124 -0.150687ZM 1.06259 9.10532L 2.35388 8.95516L 2.35382 8.95464L 1.06259 9.10532ZM 3.96055 16.0062L 2.95327 16.828L 2.98531 16.8673L 3.02031 16.904L 3.96055 16.0062ZM 7.4381 19.6483L 8.38614 18.7587L 8.37834 18.7506L 7.4381 19.6483ZM 8.30749 29.808L 9.36677 30.5616L 9.37685 30.5474L 9.38654 30.533L 8.30749 29.808ZM 4.92984 32.3131C 4.51364 32.8981 4.65049 33.7098 5.23552 34.126C 5.82054 34.5422 6.6322 34.4053 7.04841 33.8203L 4.92984 32.3131ZM -1.29124 0.150687L -0.228651 9.25601L 2.35382 8.95464L 1.29124 -0.150687L -1.29124 0.150687ZM -0.228711 9.25549C 0.0926336 11.9183 1.19922 14.6549 2.95327 16.828L 4.96783 15.1844C 3.43753 13.332 2.61213 11.2763 2.35388 8.95516L -0.228711 9.25549ZM 3.02031 16.904L 6.49787 20.5461L 8.37834 18.7506L 4.90078 15.1085L 3.02031 16.904ZM 6.49011 20.5379C 8.69298 22.8855 9.00812 26.4342 7.22844 29.0829L 9.38654 30.533C 11.8572 26.8559 11.3996 21.9702 8.3861 18.7588L 6.49011 20.5379ZM 7.24821 29.0544L 4.92984 32.3131L 7.04841 33.8203L 9.36677 30.5616L 7.24821 29.0544Z"/>
<path id="path1_stroke" d="M -0.987363 5.7581C -0.801013 6.45147 -0.087863 6.86249 0.605502 6.67614C 1.29887 6.48978 1.70988 5.77663 1.52353 5.08327L -0.987363 5.7581ZM 4.11654 1.72913C 4.72445 2.11113 5.52693 1.928 5.90894 1.32009C 6.29095 0.712187 6.10782 -0.0902977 5.49991 -0.472304L 4.11654 1.72913ZM 1.52353 5.08327C 1.01645 3.19655 1.46182 2.10183 1.91998 1.65921C 2.31288 1.27963 3.05345 1.06109 4.11654 1.72913L 5.49991 -0.472304C 3.66504 -1.62533 1.55595 -1.60426 0.113474 -0.210697C -1.26374 1.11982 -1.63947 3.33178 -0.987363 5.7581L 1.52353 5.08327Z"/>
<path id="path2_stroke" d="M 10.9702 0.150687C 11.0534 -0.562444 10.5428 -1.20802 9.82964 -1.29124C 9.11651 -1.37446 8.47093 -0.863817 8.38771 -0.150687L 10.9702 0.150687ZM 8.61636 9.10532L 7.32513 8.95464L 7.32507 8.95516L 8.61636 9.10532ZM 5.7184 16.0062L 6.65864 16.904L 6.69364 16.8673L 6.72568 16.828L 5.7184 16.0062ZM 2.24085 19.6483L 1.30058 18.7505L 1.29285 18.7588L 2.24085 19.6483ZM 1.37146 29.808L 0.292409 30.533L 0.309139 30.5579L 0.326999 30.582L 1.37146 29.808ZM 2.74197 33.8407C 3.16945 34.4176 3.98361 34.5386 4.56045 34.1112C 5.13728 33.6837 5.25836 32.8695 4.83089 32.2927L 2.74197 33.8407ZM 8.38771 -0.150687L 7.32513 8.95464L 9.9076 9.25601L 10.9702 0.150687L 8.38771 -0.150687ZM 7.32507 8.95516C 7.06682 11.2763 6.24143 13.332 4.71112 15.1844L 6.72568 16.828C 8.47974 14.6549 9.58632 11.9183 9.90766 9.25549L 7.32507 8.95516ZM 4.77817 15.1085L 1.30061 18.7506L 3.18108 20.5461L 6.65864 16.904L 4.77817 15.1085ZM 1.29285 18.7588C -1.72061 21.9702 -2.17826 26.8559 0.292409 30.533L 2.45051 29.0829C 0.67083 26.4342 0.985972 22.8855 3.18884 20.5379L 1.29285 18.7588ZM 0.326999 30.582L 2.74197 33.8407L 4.83089 32.2927L 2.41592 29.0339L 0.326999 30.582Z"/>
<path id="path3_stroke" d="M 3.28469 5.08327C 3.09834 5.77663 3.50936 6.48978 4.20272 6.67614C 4.89609 6.86249 5.60924 6.45147 5.79559 5.7581L 3.28469 5.08327ZM -0.691684 -0.472304C -1.29959 -0.0902977 -1.48272 0.712187 -1.10072 1.32009C -0.718709 1.928 0.0837755 2.11113 0.691684 1.72913L -0.691684 -0.472304ZM 5.79559 5.7581C 6.44769 3.33178 6.07197 1.11982 4.69475 -0.210697C 3.25228 -1.60426 1.14319 -1.62533 -0.691684 -0.472304L 0.691684 1.72913C 1.75477 1.06109 2.49535 1.27963 2.88825 1.65921C 3.34641 2.10183 3.79177 3.19655 3.28469 5.08327L 5.79559 5.7581Z"/>
</defs>
</svg>
