<svg width="48" height="51" viewBox="0 0 48 51" version="1.1" xmlns="http://www.w3.org/2000/svg" xmlns:xlink="http://www.w3.org/1999/xlink">
<title>Group</title>
<desc>Created using Figma</desc>
<g id="Canvas" transform="translate(-12459 -34917)">
<g id="Group">
<g id="Vector">
<use xlink:href="#path0_stroke" transform="translate(12461.3 34921.1)" fill="#FFFFFF"/>
</g>
<g id="Group 2">
<g id="Vector">
<use xlink:href="#path1_fill" transform="translate(12488.8 34939.3)" fill="#FFFFFF"/>
</g>
<g id="Vector">
<use xlink:href="#path2_fill" transform="translate(12471.1 34941.4)" fill="#FFFFFF"/>
</g>
<g id="Vector">
<use xlink:href="#path3_fill" transform="translate(12495.3 34938.6)" fill="#FFFFFF"/>
</g>
<g id="Vector">
<use xlink:href="#path4_fill" transform="translate(12484.3 34934.5)" fill="#FFFFFF"/>
</g>
<g id="Vector">
<use xlink:href="#path5_fill" transform="translate(12481.5 34948.8)" fill="#FFFFFF"/>
</g>
<g id="Group">
<g id="Vector">
<use xlink:href="#path6_fill" transform="matrix(-0.373758 0.927526 -0.927616 -0.373534 12495.7 34931.7)" fill="#FFFFFF"/>
</g>
<g id="Vector">
<use xlink:href="#path7_fill" transform="translate(12471.1 34941.4)" fill="#FFFFFF"/>
</g>
<g id="Vector">
<use xlink:href="#path8_fill" transform="translate(12484.3 34934.5)" fill="#FFFFFF"/>
</g>
<g id="Vector">
<use xlink:href="#path9_fill" transform="translate(12495.3 34938.7)" fill="#FFFFFF"/>
</g>
<g id="Vector">
<use xlink:href="#path10_fill" transform="translate(12488.7 34939.1)" fill="#FFFFFF"/>
</g>
<g id="Vector">
<use xlink:href="#path11_fill" transform="translate(12474.1 34931.5)" fill="#FFFFFF"/>
</g>
</g>
<g id="Group">
<g id="Vector">
<use xlink:href="#path12_fill" transform="translate(12485.9 34943.8)" fill="#FFFFFF"/>
</g>
</g>
</g>
<g id="Vector 2.1">
<use xlink:href="#path13_stroke" transform="translate(12462.3 34918.9)" fill="#FFFFFF"/>
</g>
</g>
</g>
<defs>
<path id="path0_stroke" d="M 0 23.0321L -1.23303 22.6202L -1.3 22.8207L -1.3 23.0321L 0 23.0321ZM 0.25386 22.2722L -0.952805 21.7885L -0.967042 21.824L -0.979165 21.8603L 0.25386 22.2722ZM 3.04632 20.0767L 3.20723 21.3667L 3.21852 21.3653L 3.22979 21.3637L 3.04632 20.0767ZM 6.93885 18.8101L 8.07468 19.4425L 8.08844 19.4178L 8.10111 19.3925L 6.93885 18.8101ZM 6.76961 16.2769L 5.68865 16.9991L 5.71506 17.0386L 5.74428 17.0761L 6.76961 16.2769ZM 5.58493 14.757L 6.66589 14.0348L 6.62225 13.9695L 6.57107 13.9099L 5.58493 14.757ZM 4.82335 12.646L 6.11536 12.7898L 6.11735 12.772L 6.11884 12.7542L 4.82335 12.646ZM 6.17727 10.4505L 6.84507 11.5659L 6.87159 11.55L 6.89732 11.5329L 6.17727 10.4505ZM 9.56207 9.52167L 9.6545 10.8184L 9.70019 10.8151L 9.74554 10.8087L 9.56207 9.52167ZM 11.2545 9.26835L 11.4379 10.5553L 11.4623 10.5519L 11.4865 10.5475L 11.2545 9.26835ZM 13.1161 4.96189L 11.8596 4.62857L 11.8493 4.66721L 11.8415 4.70641L 13.1161 4.96189ZM 20.4781 3.01976L 21.3963 2.09954L 20.4781 3.01976ZM 23.1013 6.22849L 24.0196 5.30828L 23.1013 6.22849ZM 26.063 4.03304L 24.8563 4.51674L 24.8598 4.52537L 24.8634 4.53395L 26.063 4.03304ZM 26.9938 0.655427L 27.7854 1.68665L 27.8155 1.66354L 27.8442 1.63872L 26.9938 0.655427ZM 30.8017 1.24651L 29.6693 1.88488L 29.6934 1.92775L 29.7208 1.96868L 30.8017 1.24651ZM 31.2248 2.17535L 29.9638 2.49128L 29.9691 2.51233L 29.975 2.53319L 31.2248 2.17535ZM 33.5942 3.27308L 33.8913 4.53866L 33.9486 4.52521L 34.0045 4.50663L 33.5942 3.27308ZM 35.1174 2.85088L 35.3306 4.13326L 35.3817 4.12476L 35.432 4.11222L 35.1174 2.85088ZM 36.1328 2.85088L 35.8181 4.11222L 35.8831 4.12842L 35.9493 4.13787L 36.1328 2.85088ZM 37.3175 4.20192L 36.0255 4.34579L 36.0264 4.35465L 36.0276 4.36351L 37.3175 4.20192ZM 37.8252 7.74842L 37.6819 6.45634L 37.5453 6.47149L 37.4149 6.51487L 37.8252 7.74842ZM 40.1099 7.32622L 39.9265 6.03923L 39.8771 6.04626L 39.8285 6.05705L 40.1099 7.32622ZM 41.9716 7.0729L 41.9716 8.3729L 42.0434 8.3729L 42.1148 8.36498L 41.9716 7.0729ZM 43.7486 8.08618L 45.0486 8.08618L 45.0486 7.80977L 44.9361 7.55726L 43.7486 8.08618ZM 43.7486 9.01503L 44.9616 9.48256L 45.0486 9.25689L 45.0486 9.01503L 43.7486 9.01503ZM 41.8023 11.9704L 42.7838 12.8229L 42.7959 12.809L 42.8076 12.7947L 41.8023 11.9704ZM 40.7869 16.3613L 39.5298 16.6929L 39.5329 16.7041L 40.7869 16.3613ZM 41.7177 19.0634L 42.96 18.6804L 42.9443 18.6293L 42.9244 18.5797L 41.7177 19.0634ZM 42.0562 22.3566L 43.3309 22.6121L 43.3366 22.5835L 43.341 22.5547L 42.0562 22.3566ZM 40.8715 24.3832L 39.9533 23.463L 39.8878 23.5282L 39.8323 23.6021L 40.8715 24.3832ZM 40.1099 25.3965L 39.0707 24.6154L 39.049 24.6443L 39.029 24.6743L 40.1099 25.3965ZM 40.2792 26.072L 39.5591 27.1544L 39.5788 27.1674L 39.5989 27.1798L 40.2792 26.072ZM 42.4793 28.8585L 43.7403 28.5426L 43.7379 28.5327L 43.7352 28.5229L 42.4793 28.8585ZM 37.9944 33.7561L 38.1947 32.4716L 38.1663 32.4672L 38.1377 32.464L 37.9944 33.7561ZM 35.8789 32.9117L 35.1589 33.994L 35.1748 34.0046L 35.191 34.0147L 35.8789 32.9117ZM 34.3558 31.8984L 35.0758 30.816L 35.0085 30.7712L 34.9362 30.7351L 34.3558 31.8984ZM 32.748 31.4762L 32.5645 30.1892L 31.556 30.3329L 31.4545 31.3465L 32.748 31.4762ZM 33.1711 33.8405L 31.9381 34.2524L 31.9502 34.2887L 31.9644 34.3242L 33.1711 33.8405ZM 33.7634 35.0227L 34.9421 34.4743L 34.913 34.4118L 34.8775 34.3528L 33.7634 35.0227ZM 30.8863 39.0758L 30.7868 40.372L 30.7905 40.3723L 30.8863 39.0758ZM 26.6553 35.5293L 25.3807 35.7848L 25.3923 35.8427L 25.4091 35.8993L 26.6553 35.5293ZM 24.6245 33.6716L 24.7419 34.9663L 24.7637 34.9643L 24.7854 34.9616L 24.6245 33.6716ZM 22.509 35.0227L 21.428 34.3005L 21.4203 34.312L 21.4129 34.3237L 22.509 35.0227ZM 19.1241 40.258L 18.2615 39.2854L 18.2437 39.3012L 18.2266 39.3176L 19.1241 40.258ZM 12.9469 40.0891L 13.8854 39.1895L 13.8754 39.1791L 13.8651 39.1689L 12.9469 40.0891ZM 11.6776 35.6982L 12.9631 35.8914L 12.9655 35.8756L 12.9675 35.8598L 11.6776 35.6982ZM 13.2854 32.2361L 14.2832 33.0694L 14.3142 33.0322L 14.3425 32.9928L 13.2854 32.2361ZM 14.5547 30.4629L 13.4482 29.7805L 13.437 29.7985L 13.4265 29.8169L 14.5547 30.4629ZM 13.9623 27.6764L 13.1834 28.7171L 13.9623 27.6764ZM 8.03891 27.5919L 8.29334 28.8668L 8.30206 28.865L 8.31075 28.8632L 8.03891 27.5919ZM 4.31563 27.9297L 4.10235 29.2121L 4.12321 29.2155L 4.14417 29.2183L 4.31563 27.9297ZM 0.0846201 24.5521L -1.2053 24.7136L -1.19025 24.8338L -1.15329 24.949L 0.0846201 24.5521ZM 1.23303 23.444C 1.31765 23.1907 1.40227 22.9374 1.48689 22.6841L -0.979165 21.8603C -1.06379 22.1136 -1.14841 22.3669 -1.23303 22.6202L 1.23303 23.444ZM 1.46053 22.7559C 1.80296 21.9016 2.35043 21.4736 3.20723 21.3667L 2.88542 18.7867C 1.03437 19.0176 -0.279801 20.1095 -0.952805 21.7885L 1.46053 22.7559ZM 3.22979 21.3637C 3.73063 21.289 4.231 21.2923 4.82335 21.2923L 4.82335 18.6923C 4.23101 18.6923 3.5467 18.6955 2.86286 18.7897L 3.22979 21.3637ZM 4.82335 21.2923C 6.17933 21.2923 7.40036 20.6537 8.07468 19.4425L 5.80302 18.1778C 5.63114 18.4865 5.32901 18.6923 4.82335 18.6923L 4.82335 21.2923ZM 8.10111 19.3925C 8.70122 18.1948 8.75602 16.7108 7.79494 15.4777L 5.74428 17.0761C 5.96788 17.363 6.02269 17.7366 5.77659 18.2277L 8.10111 19.3925ZM 7.85057 15.5547C 7.64124 15.2447 7.38664 14.937 7.17509 14.6837C 6.96354 14.4303 6.79504 14.2315 6.66589 14.0348L 4.50397 15.4791C 4.7133 15.7891 4.9679 16.0969 5.17945 16.3502C 5.391 16.6035 5.5595 16.8024 5.68865 16.9991L 7.85057 15.5547ZM 6.57107 13.9099C 6.21022 13.4898 6.08349 13.076 6.11536 12.7898L 3.53133 12.5021C 3.39396 13.7358 3.94419 14.842 4.59878 15.604L 6.57107 13.9099ZM 6.11884 12.7542C 6.16912 12.1521 6.36319 11.8544 6.84507 11.5659L 5.50947 9.33515C 4.29895 10.0599 3.64682 11.1133 3.52786 12.5378L 6.11884 12.7542ZM 6.89732 11.5329C 7.65591 10.9897 8.51542 10.8988 9.6545 10.8184L 9.46965 8.22496C 8.23936 8.31346 6.72951 8.56031 5.45722 9.36814L 6.89732 11.5329ZM 9.74554 10.8087C 10.3528 10.722 10.8605 10.6376 11.4379 10.5553L 11.071 7.98136C 10.4638 8.06801 9.95603 8.15246 9.37861 8.23468L 9.74554 10.8087ZM 11.4865 10.5475C 12.3074 10.3985 12.9162 9.96233 13.3236 9.38161C 13.6469 8.89449 13.8673 8.24163 13.9677 7.75057L 11.4184 7.23963C 11.3471 7.59519 11.2646 7.78938 11.1951 7.88848C 11.1669 7.92867 11.1472 7.94388 11.1361 7.95109C 11.1262 7.95761 11.0958 7.97591 11.0224 7.98923L 11.4865 10.5475ZM 13.9677 7.75057C 14.1479 6.84348 14.2325 5.99907 14.3908 5.21736L 11.8415 4.70641C 11.6613 5.61351 11.5766 6.45791 11.4184 7.23963L 13.9677 7.75057ZM 14.3727 5.29521C 14.6274 4.33506 15.452 3.5048 16.4954 3.17066C 17.4925 2.85139 18.6232 3.00536 19.5598 3.93997L 21.3963 2.09954C 19.7097 0.416506 17.5403 0.106048 15.7025 0.694513C 13.9112 1.26811 12.3665 2.71774 11.8596 4.62857L 14.3727 5.29521ZM 19.5598 3.93997C 19.9693 4.33674 20.3567 4.96536 20.8342 5.54185L 22.8298 3.87528C 22.4611 3.43849 22.0023 2.71606 21.3963 2.09954L 19.5598 3.93997ZM 20.8342 5.54185C 21.2269 6.01074 21.6871 6.6476 22.183 7.14871L 24.0196 5.30828C 23.6692 4.96498 23.2833 4.41968 22.8298 3.87528L 20.8342 5.54185ZM 22.183 7.14871C 22.7176 7.68215 23.3836 8.0745 24.1842 8.11769C 24.9667 8.15989 25.6533 7.85556 26.2151 7.46312L 24.7262 5.33163C 24.4418 5.53027 24.3245 5.52148 24.3243 5.52146C 24.3222 5.52135 24.3053 5.52133 24.2637 5.50018C 24.2173 5.47651 24.1348 5.42326 24.0196 5.30828L 22.183 7.14871ZM 26.2151 7.46312C 26.8239 7.03783 27.3169 6.45646 27.5058 5.68141C 27.6893 4.92873 27.5372 4.18983 27.2626 3.53214L 24.8634 4.53395C 25.0119 4.88954 24.9867 5.03726 24.9798 5.06566C 24.9783 5.07168 24.9636 5.16584 24.7262 5.33163L 26.2151 7.46312ZM 27.2697 3.54935C 26.9782 2.82236 27.1487 2.17535 27.7854 1.68665L 26.2023 -0.375798C 24.6388 0.824316 24.1323 2.71051 24.8563 4.51674L 27.2697 3.54935ZM 27.8442 1.63872C 28.5075 1.06509 29.3211 1.26721 29.6693 1.88488L 31.9342 0.60814C 30.7592 -1.47629 28.0188 -1.94969 26.1434 -0.327864L 27.8442 1.63872ZM 29.7208 1.96868C 29.8472 2.15337 29.9213 2.28945 29.9638 2.49128L 32.4859 1.85943C 32.3592 1.38574 32.0948 0.846296 31.8827 0.524338L 29.7208 1.96868ZM 29.975 2.53319C 30.182 3.25612 30.5686 4.07146 31.4574 4.47694C 32.2528 4.83974 33.1397 4.71515 33.8913 4.53866L 33.297 2.0075C 32.9831 2.08121 32.7747 2.10783 32.6386 2.11056C 32.4968 2.11907 32.5101 2.08719 32.5365 2.11144C 32.685 2.17915 32.6061 2.27675 32.4746 1.81751L 29.975 2.53319ZM 34.0045 4.50663C 34.5122 4.33775 34.9224 4.19714 35.3306 4.13326L 34.9041 1.56849C 34.2969 1.6735 33.6916 1.87065 33.1839 2.03953L 34.0045 4.50663ZM 35.432 4.11222C 35.6143 4.05674 35.6358 4.05674 35.8181 4.11222L 36.4475 1.58953C 35.9528 1.47614 35.2973 1.47614 34.8027 1.58953L 35.432 4.11222ZM 35.9493 4.13787C 35.9329 4.13552 35.9371 4.12942 35.9545 4.14857C 35.9704 4.16596 36.0117 4.22193 36.0255 4.34579L 38.6095 4.05806C 38.467 2.77813 37.5618 1.74145 36.3163 1.56389L 35.9493 4.13787ZM 36.0276 4.36351C 36.1046 4.9584 36.1021 5.55297 36.1021 6.22849L 38.7021 6.22849C 38.7021 5.55297 38.6996 4.7965 38.6074 4.04034L 36.0276 4.36351ZM 36.1021 6.22849C 36.1021 6.65069 36.1021 6.98846 36.1021 7.41066L 38.7021 7.41066C 38.7021 6.98846 38.7021 6.65069 38.7021 6.22849L 36.1021 6.22849ZM 36.1021 7.41066C 36.1021 7.80629 36.2358 8.31978 36.6735 8.69412C 37.1536 9.10476 37.7561 9.14145 38.2355 8.98197L 37.4149 6.51487C 37.6405 6.43984 38.0314 6.4343 38.3634 6.71828C 38.653 6.96596 38.7021 7.26835 38.7021 7.41066L 36.1021 7.41066ZM 37.9685 9.0405C 38.7994 8.94647 39.6298 8.76427 40.3914 8.59539L 39.8285 6.05705C 39.0669 6.22593 38.3741 6.38149 37.6819 6.45634L 37.9685 9.0405ZM 40.2934 8.61321C 40.9729 8.51331 41.4746 8.36038 41.9716 8.3729L 41.9716 5.7729C 41.1147 5.78541 40.4317 5.97025 39.9265 6.03923L 40.2934 8.61321ZM 42.1148 8.36498C 42.2632 8.34853 42.3481 8.37765 42.3918 8.4017C 42.4304 8.42295 42.4976 8.47267 42.5611 8.6151L 44.9361 7.55726C 44.3524 6.24665 43.1147 5.63818 41.8283 5.78081L 42.1148 8.36498ZM 42.4486 8.08618C 42.4486 8.42394 42.4486 8.67727 42.4486 9.01503L 45.0486 9.01503C 45.0486 8.67727 45.0486 8.42394 45.0486 8.08618L 42.4486 8.08618ZM 42.5356 8.54749C 42.2021 9.45856 41.5586 10.2173 40.7971 11.1462L 42.8076 12.7947C 43.5692 11.8659 44.4489 10.7669 44.9616 9.48256L 42.5356 8.54749ZM 40.8208 11.118C 39.4343 12.7145 38.9988 14.6792 39.5299 16.6928L 42.0439 16.0298C 41.7288 14.8348 41.9703 13.7596 42.7838 12.8229L 40.8208 11.118ZM 39.5329 16.7041C 39.802 17.6844 40.165 18.6835 40.5111 19.5471L 42.9244 18.5797C 42.5934 17.7546 42.2795 16.8959 42.0409 16.0186L 39.5329 16.7041ZM 40.4754 19.4465C 40.7893 20.4525 40.9254 21.2589 40.7714 22.1585L 43.341 22.5547C 43.5254 21.2589 43.3231 19.8698 42.96 18.6804L 40.4754 19.4465ZM 40.7816 22.1011C 40.6945 22.6834 40.4728 22.9508 39.9533 23.463L 41.7898 25.3034C 42.4549 24.6334 43.0795 23.7186 43.3309 22.6121L 40.7816 22.1011ZM 39.8323 23.6021C 39.5785 23.9399 39.3246 24.2776 39.0707 24.6154L 41.1491 26.1775C 41.403 25.8398 41.6569 25.502 41.9107 25.1642L 39.8323 23.6021ZM 39.029 24.6743C 38.7663 25.0676 38.637 25.5785 38.7819 26.1086C 38.9181 26.6069 39.2483 26.9476 39.5591 27.1544L 40.9992 24.9896C 41.0562 25.0275 41.2172 25.1571 41.2899 25.4232C 41.3713 25.7211 41.2844 25.9787 41.1909 26.1186L 39.029 24.6743ZM 39.5989 27.1798C 40.4884 27.726 40.9907 28.3235 41.2234 29.1941L 43.7352 28.5229C 43.2909 26.8604 42.27 25.769 40.9595 24.9642L 39.5989 27.1798ZM 41.2183 29.1744C 41.6648 30.9569 40.0003 32.7531 38.1947 32.4716L 37.7942 35.0405C 41.4043 35.6034 44.6477 32.1643 43.7403 28.5426L 41.2183 29.1744ZM 38.1377 32.464C 37.6004 32.4247 37.1908 32.1994 36.5669 31.8086L 35.191 34.0147C 35.921 34.4683 36.8653 34.9186 37.8512 35.0481L 38.1377 32.464ZM 36.599 31.8293C 36.0913 31.4915 35.5835 31.1538 35.0758 30.816L 33.6357 32.9807C 34.1434 33.3185 34.6512 33.6563 35.1589 33.994L 36.599 31.8293ZM 34.9362 30.7351C 34.49 30.5125 33.6206 30.0386 32.5645 30.1892L 32.9315 32.7632C 32.9844 32.7556 33.0568 32.7571 33.1882 32.799C 33.3408 32.8478 33.5049 32.9267 33.7754 33.0616L 34.9362 30.7351ZM 31.4545 31.3465C 31.3714 32.4649 31.6842 33.4924 31.9381 34.2524L 34.4041 33.4286C 34.1503 32.6687 33.9553 32.1762 34.0415 31.6058L 31.4545 31.3465ZM 31.9644 34.3242C 32.1548 34.7962 32.3705 35.2271 32.6493 35.6926L 34.8775 34.3528C 34.6486 33.9739 34.5258 33.7292 34.3778 33.3568L 31.9644 34.3242ZM 32.5848 35.5711C 32.9586 36.3745 32.8 36.901 32.5657 37.2041C 32.3019 37.5453 31.7598 37.8368 30.9822 37.7793L 30.7905 40.3723C 32.2976 40.4837 33.7441 39.9308 34.6227 38.7943C 35.5307 37.6197 35.6684 36.0352 34.9421 34.4743L 32.5848 35.5711ZM 30.9858 37.7796C 30.0566 37.7198 29.5415 37.5453 29.0309 37.0946C 28.5835 36.7226 28.1895 36.1291 27.9016 35.1593L 25.4091 35.8993C 25.7981 37.2094 26.4196 38.3047 27.3685 39.0937C 28.2541 39.8042 29.5159 40.263 30.7868 40.372L 30.9858 37.7796ZM 27.93 35.2738C 27.8001 34.6844 27.5637 34.187 27.3945 33.8492L 25.07 35.014C 25.2392 35.3517 25.3414 35.5298 25.3807 35.7848L 27.93 35.2738ZM 27.3945 33.8492C 27.0982 33.2578 26.6439 32.8151 26.0609 32.569C 25.5804 32.3856 24.9255 32.3299 24.4635 32.3816L 24.7854 34.9616C 24.9841 34.9368 25.0529 34.9656 25.0497 34.9643C 25.0446 34.9621 25.0362 34.9568 25.0316 34.9524C 25.0282 34.949 25.0443 34.9628 25.07 35.014L 27.3945 33.8492ZM 24.507 32.3769C 23.0929 32.5052 22.0967 33.2995 21.428 34.3005L 23.5899 35.7448C 23.9366 35.2259 24.2944 35.0069 24.7419 34.9663L 24.507 32.3769ZM 21.4129 34.3237C 20.7976 35.2899 20.2682 36.2568 19.7605 37.1857L 22.0419 38.4327C 22.5496 37.5039 23.0356 36.6132 23.605 35.7217L 21.4129 34.3237ZM 19.7605 37.1857C 19.2658 38.0912 18.8858 38.7517 18.2615 39.2854L 19.9868 41.2305C 20.8856 40.4132 21.5211 39.3849 22.0419 38.4327L 19.7605 37.1857ZM 18.2266 39.3176C 17.4547 40.0543 16.6994 40.3185 16.0423 40.299C 15.3817 40.2795 14.631 39.9674 13.8854 39.1895L 12.0084 40.9887C 13.1244 42.1529 14.4892 42.8541 15.9653 42.8979C 17.4448 42.9417 18.8473 42.3193 20.0217 41.1984L 18.2266 39.3176ZM 13.8651 39.1689C 12.9693 38.2749 12.7514 37.3001 12.9631 35.8914L 10.392 35.505C 10.0961 37.4739 10.3859 39.3701 12.0286 41.0093L 13.8651 39.1689ZM 12.9675 35.8598C 13.085 34.7434 13.5155 33.9784 14.2832 33.0694L 12.2875 31.4029C 11.3628 32.5204 10.6087 33.9509 10.3877 35.5366L 12.9675 35.8598ZM 14.3425 32.9928C 14.7311 32.4477 15.2781 31.8039 15.6828 31.1089L 13.4265 29.8169C 13.1543 30.3041 12.6858 30.8424 12.2283 31.4795L 14.3425 32.9928ZM 15.6612 31.1453C 16.1248 30.3935 16.3622 29.539 16.1607 28.6543C 15.9637 27.7895 15.3994 27.1281 14.7413 26.6356L 13.1834 28.7171C 13.5407 28.9845 13.611 29.1676 13.6256 29.2317C 13.6356 29.2758 13.6615 29.4346 13.4482 29.7805L 15.6612 31.1453ZM 14.7413 26.6356C 13.8277 25.9882 12.6653 25.7086 11.593 25.7008L 11.593 28.3008C 12.3822 28.2931 12.743 28.3512 13.1834 28.7171L 14.7413 26.6356ZM 11.593 25.7008C 10.2283 25.7133 8.90928 26.0772 7.76708 26.3207L 8.31075 28.8632C 9.53791 28.6 10.5882 28.2883 11.593 28.3008L 11.593 25.7008ZM 7.78448 26.3171C 6.50647 26.5721 5.53399 26.7996 4.48708 26.641L 4.14417 29.2183C 5.63586 29.3976 7.03275 29.1183 8.29334 28.8668L 7.78448 26.3171ZM 4.5289 26.6473C 3.62631 26.5024 3.02626 26.2986 2.47134 25.865C 1.89969 25.4557 1.58308 25.0207 1.32253 24.1551L -1.15329 24.949C -0.736874 26.1945 0.0465747 27.2794 0.913464 27.9466C 1.79709 28.5897 2.97406 29.0192 4.10235 29.2121L 4.5289 26.6473ZM 1.37454 24.3905C 1.29748 23.7956 1.3 23.4543 1.3 23.0321L -1.3 23.0321C -1.3 23.4543 -1.29748 23.9575 -1.2053 24.7136L 1.37454 24.3905Z"/>
<path id="path1_fill" d="M 1.01887 2.61765C 0.51115 2.61765 0.257288 2.44877 0.0880475 2.11101C -0.0811927 1.77325 0.00342801 1.43549 0.257288 1.18217C 0.595769 0.844404 0.849631 0.506642 1.18811 0.253321C 1.52659 -0.0844407 2.03431 -0.0844407 2.37279 0.253321C 2.71127 0.506642 2.79589 1.09772 2.54203 1.43549C 2.20355 1.85769 1.78045 2.19545 1.44197 2.61765C 1.27273 2.61765 1.10349 2.61765 1.01887 2.61765Z"/>
<path id="path2_fill" d="M 3.228e-07 1.43549C 3.228e-07 1.26661 3.228e-07 1.09773 3.228e-07 0.928845C 3.228e-07 0.337762 0.338481 3.22115e-07 0.846202 3.22115e-07C 1.35392 3.22115e-07 1.77702 0.337762 1.86164 0.844404C 1.86164 1.26661 1.86164 1.68881 1.86164 2.11101C 1.77702 2.61765 1.43854 2.95541 0.846202 2.87097C 0.338481 2.87097 3.228e-07 2.53321 3.228e-07 2.02657C 3.228e-07 1.85769 3.228e-07 1.60437 3.228e-07 1.43549Z"/>
<path id="path3_fill" d="M 0.0376096 1.51993C 0.0376096 1.35105 0.0376096 1.18217 0.0376096 0.928844C 0.0376096 0.337761 0.37609 0.0844398 0.883811 -6.44229e-07C 1.39153 -6.44229e-07 1.81463 0.337761 1.81463 0.844403C 1.81463 1.26661 1.81463 1.68881 1.81463 2.11101C 1.81463 2.61765 1.39153 2.95541 0.883811 2.87097C 0.37609 2.87097 0.0376096 2.53321 0.0376096 2.11101C -0.0470105 1.94213 0.0376096 1.68881 0.0376096 1.51993Z"/>
<path id="path4_fill" d="M 6.456e-07 1.43549C 6.456e-07 1.26661 6.456e-07 1.09773 6.456e-07 0.928845C 6.456e-07 0.337762 0.33848 -3.22115e-07 0.930821 -3.22115e-07C 1.52316 -3.22115e-07 1.86164 0.337762 1.86164 0.928845C 1.86164 1.35105 1.86164 1.68881 1.86164 2.11101C 1.86164 2.61765 1.43854 2.95541 0.930821 2.95541C 0.4231 2.95541 0.0846208 2.61765 6.456e-07 2.11101C 6.456e-07 1.85769 6.456e-07 1.68881 6.456e-07 1.43549Z"/>
<path id="path5_fill" d="M 1.77702 1.51993C 1.77702 1.68881 1.77702 1.85769 1.77702 2.11101C 1.6924 2.70209 1.43854 2.95541 0.846202 2.95541C 0.253861 2.95541 6.456e-07 2.61765 6.456e-07 2.02657C 6.456e-07 1.60437 6.456e-07 1.2666 6.456e-07 0.844403C 6.456e-07 0.33776 0.338481 0.0844391 0.761581 -1.28846e-06C 1.2693 -1.28846e-06 1.6924 0.253323 1.77702 0.675525C 1.77702 0.928846 1.77702 1.18217 1.77702 1.51993Z"/>
<path id="path6_fill" d="M 1.6919 6.44422e-07C 1.18433 6.44422e-07 3.22704e-07 1.18252 3.22704e-07 1.94271C 3.22704e-07 2.11164 0.16919 2.44951 0.507569 2.53397C 0.845949 2.7029 1.18433 2.7029 1.43811 2.44951C 1.77649 2.11164 2.11487 1.77378 2.45325 1.43592C 2.70703 1.18252 2.70703 0.844656 2.53784 0.506793C 2.36865 0.168931 2.11487 6.44422e-07 1.6919 6.44422e-07Z"/>
<path id="path7_fill" d="M 0.846202 3.22115e-07C 0.338481 3.22115e-07 3.228e-07 0.337762 3.228e-07 0.928845C 3.228e-07 1.09773 3.228e-07 1.26661 3.228e-07 1.43549C 3.228e-07 1.60437 3.228e-07 1.85769 3.228e-07 2.02657C 3.228e-07 2.53321 0.338481 2.87097 0.846202 2.87097C 1.35392 2.87097 1.77702 2.61765 1.86164 2.11101C 1.94626 1.68881 1.94626 1.26661 1.86164 0.844404C 1.77702 0.337762 1.35392 3.22115e-07 0.846202 3.22115e-07Z"/>
<path id="path8_fill" d="M 1.86164 0.928845C 1.86164 0.337762 1.52316 -3.22115e-07 0.930821 -3.22115e-07C 0.33848 -3.22115e-07 6.456e-07 0.337762 6.456e-07 0.928845C 6.456e-07 1.09773 6.456e-07 1.26661 6.456e-07 1.43549C 6.456e-07 1.68881 6.456e-07 1.85769 6.456e-07 2.11101C 6.456e-07 2.61765 0.4231 2.95541 0.930821 2.95541C 1.43854 2.95541 1.77702 2.61765 1.86164 2.11101C 1.86164 1.77325 1.86164 1.35105 1.86164 0.928845Z"/>
<path id="path9_fill" d="M 0.846202 -3.22115e-07C 0.338481 -3.22115e-07 6.456e-07 0.337762 6.456e-07 0.928845C 6.456e-07 1.09773 6.456e-07 1.26661 6.456e-07 1.51993C 6.456e-07 1.77325 6.456e-07 1.94213 6.456e-07 2.19545C 6.456e-07 2.70209 0.423101 2.95541 0.846202 2.95541C 1.35392 2.95541 1.6924 2.70209 1.77702 2.19545C 1.77702 1.77325 1.77702 1.35105 1.77702 0.928845C 1.77702 0.337762 1.35392 -3.22115e-07 0.846202 -3.22115e-07Z"/>
<path id="path10_fill" d="M 1.10349 2.78653C 1.18811 2.78653 1.35735 2.78653 1.44197 2.61765C 1.86507 2.27989 2.20355 1.85769 2.54203 1.43549C 2.79589 1.09773 2.71127 0.591083 2.37279 0.253322C 2.03431 -0.0844398 1.52659 -0.0844398 1.18811 0.253322C 0.849629 0.506643 0.51115 0.844403 0.25729 1.18217C 0.0034293 1.43549 -0.0811915 1.77325 0.0880488 2.11101C 0.341909 2.61765 0.59577 2.78653 1.10349 2.78653Z"/>
<path id="path11_fill" d="M 7.70043 3.88426C 7.70043 1.77325 6.00803 0.0844401 3.89253 -3.22115e-07C 1.86164 -3.22115e-07 0.0846204 1.68881 3.228e-07 3.79982C 3.228e-07 5.82639 1.6924 7.59964 3.72329 7.59964C 5.92341 7.68408 7.70043 5.99527 7.70043 3.88426ZM 3.89253 5.74195C 2.79246 5.74195 1.94626 4.8131 1.94626 3.71538C 1.94626 2.61765 2.87708 1.77325 3.97715 1.77325C 5.07721 1.77325 5.92341 2.70209 5.92341 3.79982C 5.83879 4.89754 4.99259 5.82639 3.89253 5.74195Z"/>
<path id="path12_fill" d="M 3.21912 -3.22115e-07C 1.35747 -3.22115e-07 -0.08107 1.51993 0.0035501 3.37762C 0.0035501 5.15087 1.52671 6.58635 3.30373 6.50191C 5.16538 6.50191 6.60392 4.98198 6.60392 3.12429C 6.5193 1.43549 4.99614 -3.22115e-07 3.21912 -3.22115e-07ZM 3.21912 4.64422C 2.45753 4.64422 1.78057 3.9687 1.78057 3.20874C 1.78057 2.36433 2.45753 1.77325 3.21912 1.77325C 4.06532 1.77325 4.65766 2.36433 4.65766 3.20874C 4.65766 3.9687 3.9807 4.64422 3.21912 4.64422Z"/>
<path id="path13_stroke" d="M 42.5872 0.862468C 43.0636 0.325259 43.0142 -0.496374 42.477 -0.972702C 41.9398 -1.44903 41.1182 -1.39968 40.6418 -0.862468L 42.5872 0.862468ZM -0.972702 46.0709C -1.44903 46.6081 -1.39968 47.4298 -0.862468 47.9061C -0.325259 48.3824 0.496374 48.3331 0.972702 47.7959L -0.972702 46.0709ZM 40.6418 -0.862468L -0.972702 46.0709L 0.972702 47.7959L 42.5872 0.862468L 40.6418 -0.862468Z"/>
</defs>
</svg>
