<svg width="58" height="61" viewBox="0 0 58 61" version="1.1" xmlns="http://www.w3.org/2000/svg" xmlns:xlink="http://www.w3.org/1999/xlink">
<title>Group</title>
<desc>Created using Figma</desc>
<g id="Canvas" transform="translate(-12725 -34772)">
<g id="Group">
<g id="Group">
<g id="Vector">
<use xlink:href="#path0_stroke" transform="translate(12727 34773.9)" fill="#FFFFFF"/>
</g>
<g id="Vector">
<use xlink:href="#path1_stroke" transform="translate(12735.8 34788.8)" fill="#FFFFFF"/>
</g>
<g id="Group">
<g id="Vector">
<use xlink:href="#path2_fill" transform="translate(12733.9 34781.1)" fill="#FFFFFF"/>
</g>
<g id="Vector">
<use xlink:href="#path3_fill" transform="translate(12741.5 34781.1)" fill="#FFFFFF"/>
</g>
</g>
</g>
<g id="Group">
<g id="Vector">
<use xlink:href="#path4_fill" transform="translate(12737.5 34788.1)" fill="#FFFFFF"/>
</g>
<g id="Vector">
<use xlink:href="#path5_fill" transform="translate(12748.2 34800.5)" fill="#FFFFFF"/>
</g>
</g>
</g>
</g>
<defs>
<path id="path0_stroke" d="M 24.0283 12.4215C 24.0283 18.7224 18.8803 23.843 12.5142 23.843L 12.5142 25.843C 19.9708 25.843 26.0283 19.841 26.0283 12.4215L 24.0283 12.4215ZM 12.5142 23.843C 6.14804 23.843 1 18.7224 1 12.4215L -1 12.4215C -1 19.841 5.05751 25.843 12.5142 25.843L 12.5142 23.843ZM 1 12.4215C 1 6.12057 6.14804 1 12.5142 1L 12.5142 -1C 5.05751 -1 -1 5.00202 -1 12.4215L 1 12.4215ZM 12.5142 1C 18.8803 1 24.0283 6.12057 24.0283 12.4215L 26.0283 12.4215C 26.0283 5.00202 19.9708 -1 12.5142 -1L 12.5142 1Z"/>
<path id="path1_stroke" d="M -0.855798 1.31891C -1.1415 1.79156 -0.989953 2.40632 -0.517309 2.69202C -0.0446642 2.97772 0.570097 2.82618 0.855799 2.35353L -0.855798 1.31891ZM 6.59929 2.46861C 6.82924 2.97074 7.42271 3.1914 7.92485 2.96145C 8.42699 2.7315 8.64764 2.13803 8.41769 1.63589L 6.59929 2.46861ZM 0.855799 2.35353C 1.30024 1.61829 2.25246 1 3.69984 1L 3.69984 -1C 1.66501 -1 0.00559018 -0.106105 -0.855798 1.31891L 0.855799 2.35353ZM 3.69984 1C 5.167 1 6.26178 1.73158 6.59929 2.46861L 8.41769 1.63589C 7.66702 -0.00336703 5.71487 -1 3.69984 -1L 3.69984 1Z"/>
<path id="path2_fill" d="M 1.84992 3.67245C 2.8716 3.67245 3.69984 2.85034 3.69984 1.83622C 3.69984 0.822104 2.8716 0 1.84992 0C 0.828237 0 0 0.822104 0 1.83622C 0 2.85034 0.828237 3.67245 1.84992 3.67245Z"/>
<path id="path3_fill" d="M 1.84992 3.67245C 2.8716 3.67245 3.69984 2.85034 3.69984 1.83622C 3.69984 0.822104 2.8716 0 1.84992 0C 0.828237 0 0 0.822104 0 1.83622C 0 2.85034 0.828237 3.67245 1.84992 3.67245Z"/>
<path id="path4_fill" d="M 36.68 -2.06019e-07C 39.9445 0.216026 42.665 1.6202 44.0796 4.86059C 45.6031 8.10098 45.059 11.2334 42.7738 13.9337C 42.5562 14.2577 42.2297 14.4738 42.0121 14.6898C 34.9389 21.7106 27.9745 28.6235 20.9013 35.6443C 19.8131 36.7244 18.6161 37.1565 17.2014 37.2645C 15.7868 37.3725 14.2633 37.4805 12.8487 37.6966C 12.4134 37.8046 11.8693 38.0206 11.5428 38.3446C 9.80175 39.9648 8.27829 41.585 6.53719 43.2052C 5.449 44.2854 4.14318 44.7174 2.61971 44.1773C -0.100754 43.3132 -0.862485 40.0729 1.09625 37.9126C 2.61971 36.4004 4.03436 34.7802 5.66664 33.376C 6.53719 32.5119 6.86364 31.5398 6.97246 30.4597C 7.08128 29.0555 7.1901 27.7594 7.29892 26.3552C 7.40774 25.3831 7.95183 24.519 8.71356 23.7629C 13.828 18.7943 18.8337 13.7177 23.8394 8.74906C 25.9069 6.69681 28.0833 4.53655 30.1508 2.4843C 32.0008 0.864105 34.0683 -2.06019e-07 36.68 -2.06019e-07ZM 23.0776 13.2856C 23.4041 13.6096 23.8394 13.8257 24.1658 14.1497C 24.8187 14.7978 24.9275 15.5539 24.3835 15.9859C 23.8394 16.526 23.1864 16.418 22.5335 15.7699C 22.2071 15.4459 21.8806 15.1218 21.5542 14.7978C 20.6836 15.6619 19.9219 16.418 18.9425 17.2821C 19.269 17.6061 19.7043 17.9302 20.0307 18.2542C 20.5748 18.7943 20.5748 19.5504 20.1395 19.9824C 19.5954 20.5225 18.9425 20.5225 18.2896 19.8744C 17.9632 19.5504 17.6367 19.1183 17.3102 18.7943C 16.4397 19.6584 15.5691 20.5225 14.6986 21.3866C 15.025 21.7106 15.3515 21.9267 15.7868 22.3587C 16.3309 22.8988 16.4397 23.6549 15.8956 24.1949C 15.3515 24.735 14.6986 24.735 14.0457 24.0869C 13.7192 23.7629 13.3928 23.3308 12.9575 22.8988C 12.0869 23.7629 11.3252 24.627 10.4547 25.3831C 10.0194 25.8151 9.80175 26.2472 9.69293 26.8953C 9.58411 27.9754 9.47529 29.1635 9.47529 30.2437C 9.36647 32.0799 8.9312 33.7001 7.40774 34.9962C 5.88427 36.4004 4.46963 37.9126 3.05499 39.3168C 2.83735 39.5328 2.61971 39.8568 2.51089 40.1809C 2.40208 40.8289 2.61971 41.369 3.16381 41.693C 3.7079 42.0171 4.36081 41.9091 4.79609 41.369C 6.42837 39.7488 8.16947 38.0206 9.80175 36.4004C 10.4547 35.7523 11.2164 35.2123 12.1958 35.1043C 13.5016 34.8882 14.9162 34.7802 16.2221 34.7802C 17.5279 34.6722 18.6161 34.3482 19.5954 33.376C 26.451 26.4632 33.4154 19.6584 40.271 12.8536C 40.4886 12.6375 40.7063 12.4215 40.9239 12.0975C 42.3385 10.4773 42.7738 8.64105 42.2297 6.5888C 41.1415 2.16026 35.5918 0.648079 32.3272 3.78046C 30.6949 5.29264 29.1715 6.91284 27.5392 8.53303C 27.4304 8.64105 27.4304 8.64105 27.4304 8.74906C 27.4304 8.85707 27.4304 8.85707 27.5392 8.85707C 27.8657 9.18111 28.1921 9.50515 28.5186 9.82919C 29.0627 10.4773 29.1715 11.1253 28.6274 11.6654C 28.0833 12.2055 27.4304 12.2055 26.7775 11.5574C 26.451 11.2334 26.1246 10.8013 25.7981 10.4773C 24.8187 11.5574 24.057 12.4215 23.0776 13.2856Z"/>
<path id="path5_fill" d="M 21.8232 1.14906C 21.6056 1.58111 21.3879 1.90515 21.1703 2.12118C 20.0821 3.20131 19.1027 4.17343 18.0145 5.25356C 12.7912 10.4382 7.67677 15.5148 2.45347 20.6994C 2.23583 20.9155 2.12701 21.0235 1.90938 21.2395C 1.36528 21.5635 0.821189 21.5635 0.385914 21.1315C -0.0493608 20.6994 -0.15818 20.1594 0.277095 19.6193C 0.385914 19.4033 0.494734 19.2953 0.712371 19.1872C 6.91504 13.0305 13.2265 6.76574 19.4292 0.608996C 20.0821 -0.0390827 20.6262 -0.147097 21.1703 0.176942C 21.3879 0.392968 21.6056 0.825022 21.8232 1.14906Z"/>
</defs>
</svg>
