<svg width="47" height="42" viewBox="0 0 47 42" version="1.1" xmlns="http://www.w3.org/2000/svg" xmlns:xlink="http://www.w3.org/1999/xlink">
<title>Group 3</title>
<desc>Created using Figma</desc>
<g id="Canvas" transform="translate(-13019 -34774)">
<g id="Group 3">
<g id="Group 2.1">
<g id="Group">
<g id="Vector">
<use xlink:href="#path0_stroke" transform="translate(13020.4 34776)" fill="#FFFFFF"/>
</g>
</g>
<g id="Ellipse 2">
<use xlink:href="#path1_fill" transform="translate(13056.5 34799)" fill="#FFFFFF"/>
</g>
<g id="Ellipse 2.1">
<use xlink:href="#path1_fill" transform="translate(13061.9 34796.8)" fill="#FFFFFF"/>
</g>
<g id="Ellipse 2.3">
<use xlink:href="#path2_fill" transform="translate(13050.3 34783.5)" fill="#FFFFFF"/>
</g>
<g id="Ellipse 2.2">
<use xlink:href="#path1_fill" transform="translate(13061.9 34802.3)" fill="#FFFFFF"/>
</g>
</g>
</g>
</g>
<defs>
<path id="path0_stroke" d="M 41.4295 38.4C 41.4295 39.0628 41.9668 39.6 42.6295 39.6C 43.2923 39.6 43.8295 39.0628 43.8295 38.4L 41.4295 38.4ZM 29.713 29.2852L 28.6358 28.7564C 28.4857 29.0622 28.4726 29.4174 28.5999 29.7334C 28.7271 30.0494 28.9827 30.2964 29.3028 30.4129L 29.713 29.2852ZM 32.0615 24.5011L 33.1387 25.0299C 33.3213 24.6579 33.2991 24.2181 33.0799 23.8665C 32.8608 23.5148 32.4758 23.3011 32.0615 23.3011L 32.0615 24.5011ZM 30.4278 24.35L 30.6396 23.1689L 30.6382 23.1686L 30.4278 24.35ZM 31.6531 17.2495L 31.4584 18.4336C 31.4633 18.4344 31.4681 18.4351 31.473 18.4359L 31.6531 17.2495ZM 35.1247 18.4077L 34.5718 19.4727C 34.8569 19.6207 35.1894 19.6483 35.495 19.5491C 35.8006 19.45 36.0536 19.2325 36.1975 18.9453L 35.1247 18.4077ZM 37.32 14.0265L 38.52 14.0265C 38.52 13.4702 38.1376 12.9868 37.5962 12.8587C 37.0548 12.7307 36.4963 12.9915 36.2471 13.4889L 37.32 14.0265ZM 37.32 14.0769L 36.12 14.0769C 36.12 14.5338 36.3794 14.951 36.7892 15.1531L 37.32 14.0769ZM 38.5452 14.6308L 38.975 13.5104C 38.9706 13.5087 38.9661 13.507 38.9616 13.5053L 38.5452 14.6308ZM 37.4731 2.74619L 36.5717 3.53825C 36.6072 3.57868 36.6454 3.61668 36.686 3.65199L 37.4731 2.74619ZM 35.0736 0.933285L 35.6044 -0.142941C 35.554 -0.167814 35.5019 -0.189111 35.4484 -0.206675L 35.0736 0.933285ZM 34.9205 0.882927L 34.3559 1.94182C 34.4167 1.97424 34.4802 2.00136 34.5456 2.02289L 34.9205 0.882927ZM 24.5056 4.25695L 23.4352 3.71438L 23.4318 3.72128L 24.5056 4.25695ZM 22.9229 7.42954L 22.5024 8.55345C 23.0777 8.76867 23.7226 8.51481 23.9967 7.96521L 22.9229 7.42954ZM 18.4813 9.39352L 17.4642 8.75664L 17.4585 8.76592L 18.4813 9.39352ZM 19.145 14.5301L 19.9877 13.6758C 19.9249 13.6139 19.8555 13.5591 19.7808 13.5124L 19.145 14.5301ZM 19.4003 14.6308L 20.4782 15.1581C 20.6601 14.7861 20.6375 14.3467 20.4183 13.9955C 20.1991 13.6442 19.8143 13.4308 19.4003 13.4308L 19.4003 14.6308ZM 13.7844 26.1126L 14.8547 26.6551C 14.8573 26.65 14.8599 26.6449 14.8624 26.6398L 13.7844 26.1126ZM 13.376 27.2708L 13.7286 28.4178C 14.1622 28.2845 14.4836 27.9181 14.5592 27.4707L 13.376 27.2708ZM -1.2 38.3497C -1.2 39.0124 -0.662742 39.5497 0 39.5497C 0.662742 39.5497 1.2 39.0124 1.2 38.3497L -1.2 38.3497ZM 43.8295 38.4C 43.8295 36.5936 43.4292 35.1256 42.6162 33.9291C 41.8392 32.8164 40.6569 31.9317 39.398 31.3105C 38.1551 30.706 36.675 30.2251 35.1165 29.7522C 33.5598 29.28 31.8838 28.7987 30.1233 28.1574L 29.3028 30.4129C 31.1415 31.081 32.8797 31.5816 34.4197 32.0489C 35.958 32.5155 37.257 32.9316 38.3434 33.4664C 39.4138 33.9847 40.1109 34.4817 40.6311 35.2779C 41.1151 35.9902 41.4295 36.9584 41.4295 38.4L 43.8295 38.4ZM 30.7902 29.8139L 33.1387 25.0299L 30.9843 23.9723L 28.6358 28.7564L 30.7902 29.8139ZM 32.0615 23.3011C 31.6046 23.3023 31.149 23.2614 30.6396 23.1689L 30.2159 25.5312C 30.8297 25.6401 31.4973 25.6999 32.0615 25.7011L 32.0615 23.3011ZM 30.6382 23.1686C 28.947 22.8674 27.5278 22.2499 26.6062 21.5458C 25.6352 20.804 25.4756 20.1973 25.533 19.8815L 23.1718 19.4518C 22.8719 21.1001 23.912 22.5077 25.1491 23.4529C 26.4356 24.4358 28.2327 25.178 30.2174 25.5314L 30.6382 23.1686ZM 25.533 19.8815C 25.5944 19.5444 25.9746 19.0158 27.1331 18.6349C 28.3076 18.2387 29.7565 18.1459 31.4584 18.4336L 31.8477 16.0654C 29.8738 15.7487 27.851 15.8825 26.3835 16.355C 24.9 16.8428 23.4678 17.825 23.1718 19.4518L 25.533 19.8815ZM 31.473 18.4359C 32.6725 18.6107 33.6614 18.9981 34.5718 19.4727L 35.6776 17.3427C 34.6479 16.8102 33.2883 16.2911 31.8331 16.063L 31.473 18.4359ZM 36.1975 18.9453L 38.3928 14.5641L 36.2471 13.4889L 34.0518 17.8701L 36.1975 18.9453ZM 36.12 14.0265L 36.12 14.0769L 38.52 14.0769L 38.52 14.0265L 36.12 14.0265ZM 36.7892 15.1531C 37.1976 15.3545 37.6626 15.5821 38.1289 15.7563L 38.9616 13.5053C 38.611 13.3774 38.2592 13.2021 37.8508 13.0006L 36.7892 15.1531ZM 38.1155 15.7512C 39.8073 16.4002 41.6853 15.1338 41.6853 13.3215L 39.2853 13.3215C 39.2853 13.3552 39.2679 13.4185 39.1849 13.475C 39.104 13.53 39.0288 13.531 38.975 13.5104L 38.1155 15.7512ZM 41.6853 13.3215C 41.6853 11.7604 41.6853 10.1489 41.6853 8.58778L 39.2853 8.58778C 39.2853 10.1489 39.2853 11.7604 39.2853 13.3215L 41.6853 13.3215ZM 41.6853 8.58778C 41.6853 7.94731 41.397 6.77751 40.8855 5.58912C 40.3667 4.39038 39.4652 2.90732 38.2602 1.8404L 36.686 3.65199C 37.6253 4.44834 38.2299 5.4832 38.6811 6.538C 38.904 7.05307 39.0505 7.49757 39.1551 7.90036C 39.2061 8.09446 39.237 8.23879 39.2601 8.37917C 39.2821 8.50691 39.2838 8.62963 39.2853 8.58778L 41.6853 8.58778ZM 38.3746 1.95414C 37.6216 1.10743 36.6173 0.361957 35.6044 -0.142941L 34.5428 2.00951C 35.3679 2.41107 35.9973 2.8742 36.5717 3.53825L 38.3746 1.95414ZM 35.4484 -0.206675L 35.2953 -0.257033L 34.5456 2.02289L 34.6988 2.07325L 35.4484 -0.206675ZM 35.485 -0.175962C 31.0941 -2.51713 25.6692 -0.692668 23.4352 3.71439L 25.5759 4.7995C 27.2221 1.55207 31.1909 0.254299 34.3559 1.94182L 35.485 -0.175962ZM 23.4318 3.72128L 21.8491 6.89387L 23.9967 7.96521L 25.5794 4.79262L 23.4318 3.72128ZM 23.3434 6.30563C 21.1719 5.49313 18.7401 6.71902 17.4642 8.75667L 19.4984 10.0304C 20.3667 8.64364 21.7129 8.25805 22.5024 8.55345L 23.3434 6.30563ZM 17.4585 8.76592C 16.0642 11.0382 16.2363 14.1279 18.5092 15.5478L 19.7808 13.5124C 18.9905 13.0187 18.55 11.576 19.5041 10.0211L 17.4585 8.76592ZM 18.3023 15.3844C 18.5646 15.6431 18.9645 15.8308 19.4003 15.8308L 19.4003 13.4308C 19.5396 13.4308 19.6478 13.4632 19.7207 13.494C 19.7883 13.5226 19.8856 13.5751 19.9877 13.6758L 18.3023 15.3844ZM 18.3223 14.1036L 12.7064 25.5853L 14.8624 26.6398L 20.4782 15.1581L 18.3223 14.1036ZM 12.7141 25.57C 12.4128 26.176 12.2572 26.7013 12.1927 27.0709L 14.5592 27.4707C 14.5881 27.2997 14.6484 27.0621 14.8547 26.6551L 12.7141 25.57ZM 13.0233 26.1238C 9.14586 27.3159 5.60568 28.4221 3.06321 30.1572C 0.395791 31.9777 -1.2 34.5035 -1.2 38.3497L 1.2 38.3497C 1.2 35.3471 2.36109 33.5421 4.4161 32.1396C 6.59606 30.6518 9.74386 29.6429 13.7286 28.4178L 13.0233 26.1238Z"/>
<path id="path1_fill" d="M 3.27919 1.64572C 3.27919 2.55462 2.54512 3.29143 1.6396 3.29143C 0.734072 3.29143 0 2.55462 0 1.64572C 0 0.736812 0.734072 0 1.6396 0C 2.54512 0 3.27919 0.736812 3.27919 1.64572Z"/>
<path id="path2_fill" d="M 3.20112 1.6C 3.20112 2.48366 2.48452 3.2 1.60056 3.2C 0.716595 3.2 0 2.48366 0 1.6C 0 0.716345 0.716595 0 1.60056 0C 2.48452 0 3.20112 0.716345 3.20112 1.6Z"/>
</defs>
</svg>
