<svg width="51" height="49" viewBox="0 0 51 49" version="1.1" xmlns="http://www.w3.org/2000/svg" xmlns:xlink="http://www.w3.org/1999/xlink">
<title>Group</title>
<desc>Created using Figma</desc>
<g id="Canvas" transform="translate(-13280 -34921)">
<g id="Group">
<g id="Group">
<g id="Vector">
<use xlink:href="#path0_stroke" transform="translate(13281.8 34940.8)" fill="#27AE60"/>
</g>
<g id="Vector">
<use xlink:href="#path1_stroke" transform="translate(13289.5 34923.2)" fill="#27AE60"/>
</g>
<g id="Vector">
<use xlink:href="#path2_stroke" transform="translate(13305.7 34934.3)" fill="#27AE60"/>
</g>
<g id="Vector">
<use xlink:href="#path3_stroke" transform="translate(13303.9 34952)" fill="#27AE60"/>
</g>
<g id="Vector">
<use xlink:href="#path4_stroke" transform="translate(13297 34955.9)" fill="#27AE60"/>
</g>
<g id="Vector">
<use xlink:href="#path5_stroke" transform="translate(13297.1 34955.8)" fill="#27AE60"/>
</g>
</g>
</g>
</g>
<defs>
<path id="path0_stroke" d="M 9.09593 19.2572C 9.8139 19.2572 10.3959 18.6752 10.3959 17.9572C 10.3959 17.2393 9.8139 16.6572 9.09593 16.6572L 9.09593 19.2572ZM 7.45383 1.26785C 8.15404 1.10916 8.59303 0.412881 8.43434 -0.287333C 8.27565 -0.987546 7.57937 -1.42654 6.87916 -1.26785L 7.45383 1.26785ZM 9.09593 16.6572C 4.75714 16.6572 1.3 13.2046 1.3 8.887L -1.3 8.887C -1.3 14.6475 3.32814 19.2572 9.09593 19.2572L 9.09593 16.6572ZM 1.3 8.887C 1.3 5.13247 3.96771 2.05791 7.45383 1.26785L 6.87916 -1.26785C 2.28001 -0.225538 -1.3 3.84615 -1.3 8.887L 1.3 8.887Z"/>
<path id="path1_stroke" d="M 3.40033 25.9324C 3.90873 26.4394 4.73185 26.4382 5.23881 25.9298C 5.74577 25.4214 5.74461 24.5983 5.23621 24.0913L 3.40033 25.9324ZM 27.5993 10.9834C 27.7957 11.6739 28.5147 12.0746 29.2053 11.8782C 29.8959 11.6818 30.2965 10.9627 30.1002 10.2722L 27.5993 10.9834ZM 5.23621 24.0913C 2.80378 21.6658 1.3 18.3274 1.3 14.659L -1.3 14.659C -1.3 19.0529 0.503833 23.0441 3.40033 25.9324L 5.23621 24.0913ZM 1.3 14.659C 1.3 7.31797 7.32972 1.3 14.7005 1.3L 14.7005 -1.3C 5.90072 -1.3 -1.3 5.8751 -1.3 14.659L 1.3 14.659ZM 14.7005 1.3C 20.8177 1.3 26.0101 5.39517 27.5993 10.9834L 30.1002 10.2722C 28.198 3.58345 21.9975 -1.3 14.7005 -1.3L 14.7005 1.3Z"/>
<path id="path2_stroke" d="M -1.13302 5.68429C -1.48504 6.31003 -1.26314 7.10267 -0.637395 7.4547C -0.0116475 7.80672 0.780993 7.58483 1.13302 6.95908L -1.13302 5.68429ZM 10.7497 23.2538C 10.0318 23.2538 9.44974 23.8358 9.44974 24.5538C 9.44974 25.2718 10.0318 25.8538 10.7497 25.8538L 10.7497 23.2538ZM 1.13302 6.95908C 3.0277 3.59114 6.64895 1.3 10.7497 1.3L 10.7497 -1.3C 5.66272 -1.3 1.19869 1.5395 -1.13302 5.68429L 1.13302 6.95908ZM 10.7497 1.3C 16.8342 1.3 21.7614 6.21855 21.7614 12.2769L 24.3614 12.2769C 24.3614 4.77568 18.2632 -1.3 10.7497 -1.3L 10.7497 1.3ZM 21.7614 12.2769C 21.7614 18.3352 16.8342 23.2538 10.7497 23.2538L 10.7497 25.8538C 18.2632 25.8538 24.3614 19.7781 24.3614 12.2769L 21.7614 12.2769Z"/>
<path id="path3_stroke" d="M 1.3 1.39799e-06C 1.3 -0.717969 0.71797 -1.3 0 -1.3C -0.71797 -1.3 -1.3 -0.717969 -1.3 1.39799e-06L 1.3 1.39799e-06ZM -1.3 16.0333C -1.3 16.7512 -0.71797 17.3333 0 17.3333C 0.71797 17.3333 1.3 16.7512 1.3 16.0333L -1.3 16.0333ZM -1.3 1.39799e-06L -1.3 16.0333L 1.3 16.0333L 1.3 1.39799e-06L -1.3 1.39799e-06Z"/>
<path id="path4_stroke" d="M 13.1198 9.27289C 13.7377 9.63849 14.535 9.43394 14.9006 8.81602C 15.2662 8.1981 15.0616 7.40081 14.4437 7.03522L 13.1198 9.27289ZM 0.661968 -1.11884C 0.0440513 -1.48443 -0.753243 -1.27988 -1.11884 -0.661968C -1.48443 -0.0440506 -1.27989 0.753243 -0.661968 1.11884L 0.661968 -1.11884ZM 14.4437 7.03522L 0.661968 -1.11884L -0.661968 1.11884L 13.1198 9.27289L 14.4437 7.03522Z"/>
<path id="path5_stroke" d="M 14.366 1.1103C 14.9792 0.736852 15.1736 -0.062987 14.8001 -0.67619C 14.4267 -1.28939 13.6269 -1.48375 13.0137 -1.1103L 14.366 1.1103ZM -0.676188 7.22699C -1.28939 7.60044 -1.48375 8.40028 -1.1103 9.01348C -0.736853 9.62668 0.062986 9.82104 0.676189 9.44759L -0.676188 7.22699ZM 13.0137 -1.1103L -0.676188 7.22699L 0.676189 9.44759L 14.366 1.1103L 13.0137 -1.1103Z"/>
</defs>
</svg>
