<svg width="43" height="48" viewBox="0 0 43 48" version="1.1" xmlns="http://www.w3.org/2000/svg" xmlns:xlink="http://www.w3.org/1999/xlink">
<title>Group</title>
<desc>Created using Figma</desc>
<g id="Canvas" transform="translate(-13441 -36122)">
<g id="Group">
<g id="Group">
<g id="Vector">
<use xlink:href="#path0_fill" transform="translate(13441 36122)" fill="#27AE60"/>
</g>
</g>
<g id="Group">
<g id="Vector">
<use xlink:href="#path1_fill" transform="translate(13457.9 36157.9)" fill="#27AE60"/>
</g>
<g id="Vector">
<use xlink:href="#path2_fill" transform="translate(13453.7 36160.2)" fill="#27AE60"/>
</g>
<g id="Vector">
<use xlink:href="#path3_fill" transform="translate(13453.8 36160.2)" fill="#27AE60"/>
</g>
</g>
</g>
</g>
<defs>
<path id="path0_fill" d="M 1.47914 48C 1.28376 48 1.08838 48 0.892998 47.9049C 0.111478 47.6195 -0.181593 46.7634 0.111478 46.0024C 0.209168 45.717 0.209168 45.717 3.43294 42.0071C 4.60522 40.5803 6.07057 38.868 6.55902 38.3924C 8.12206 34.0167 7.43823 30.2117 4.40984 26.7872C 4.11677 26.5018 3.8237 26.1213 3.53063 25.7408C 1.08838 22.4115 0.0137875 19.5577 0.0137875 16.4186C 0.0137875 12.138 1.77221 8.33302 5.28905 5.1939C 8.70821 2.14991 12.9089 0.437669 17.8911 0.0571703C 23.7525 -0.323328 28.8324 1.19867 33.033 4.52803C 37.7222 8.33302 39.676 12.9941 38.8944 18.6065C 39.1875 18.987 39.4806 19.2724 39.7737 19.6528C 40.1644 20.1285 40.5552 20.6041 40.9459 21.1748C 41.5321 21.9358 42.1182 22.792 42.6067 23.8383C 43.2905 25.2652 43.0951 26.8823 41.9228 28.1189C 41.239 28.8799 40.3598 29.1653 39.5783 29.2604C 39.5783 29.6409 39.5783 30.0214 39.5783 30.3068C 39.5783 30.6873 39.676 31.0678 39.676 31.4483C 39.7737 32.2093 39.8713 32.9703 39.8713 33.7313C 39.8713 36.3948 38.406 38.3924 35.7684 39.0583C 34.6938 39.3437 33.5215 39.4388 32.4469 39.4388C 31.9585 39.4388 31.5677 39.4388 31.1769 39.4388C 30.9815 40.8657 30.7862 43.1486 31.0792 45.1463C 31.1769 45.9073 30.5908 46.6683 29.8093 46.7634C 29.0277 46.8585 28.2462 46.2878 28.1485 45.5268C 27.7578 43.0535 28.0508 40.39 28.2462 38.868C 28.2462 38.4875 28.3439 38.0119 28.3439 37.9168L 28.3439 36.3948L 29.907 36.3948C 30.2 36.3948 30.3954 36.3948 30.6885 36.4899C 31.1769 36.4899 31.6654 36.585 32.1538 36.585C 33.2284 36.4899 34.1076 36.4899 34.8892 36.2997C 36.2568 35.9192 36.843 35.063 36.843 33.6362C 36.843 32.9703 36.7453 32.3044 36.7453 31.6386C 36.7453 31.2581 36.6476 30.7824 36.6476 30.4019C 36.6476 29.9263 36.6476 29.4507 36.5499 28.9751L 36.5499 28.4043C 36.5499 27.6433 36.843 27.1677 37.136 26.8823C 37.5268 26.5018 38.0152 26.3116 38.6991 26.3116C 39.3829 26.3116 39.5783 26.2164 39.676 26.0262C 40.1644 25.5506 40.0667 25.1701 39.8713 24.8847C 39.4806 24.1237 38.9921 23.3627 38.5037 22.6968C 38.1129 22.2212 37.8199 21.7456 37.4291 21.3651C 37.136 20.9846 36.7453 20.509 36.4522 20.1285C 36.0614 19.6528 35.8661 18.8919 35.9637 18.226C 36.6476 13.5649 35.0845 9.75989 31.1769 6.62077C 27.5624 3.76703 23.1663 2.43529 18.0865 2.72066C 13.8858 3.00603 10.1736 4.4329 7.34054 7.0964C 4.40984 9.66476 3.04218 12.7087 3.04218 16.2284C 3.04218 18.7016 3.92139 21.0797 5.97288 23.8383C 6.16826 24.1237 6.46133 24.4091 6.65671 24.6945C 10.4666 28.9751 11.3458 33.9215 9.29435 39.3437C 9.19666 39.629 9.19666 39.629 5.7775 43.6243C 4.50753 45.0511 3.04218 46.8585 2.74911 47.1439C 2.45604 47.7146 1.96759 48 1.47914 48Z"/>
<path id="path1_fill" d="M 1.26997 11.8906C 0.586141 11.8906 -7.45316e-07 11.3198 -7.45316e-07 10.654L -7.45316e-07 1.23662C -7.45316e-07 0.570748 0.586141 7.25744e-07 1.26997 7.25744e-07C 1.9538 7.25744e-07 2.53994 0.570748 2.53994 1.23662L 2.53994 10.654C 2.53994 11.3198 1.9538 11.8906 1.26997 11.8906Z"/>
<path id="path2_fill" d="M 9.58154 7.33231C 9.38616 7.33231 9.09309 7.23718 8.89771 7.14206L 0.594057 2.2907C 0.00791683 1.9102 -0.187464 1.14921 0.203296 0.578457C 0.594057 0.00770927 1.37558 -0.182541 1.96172 0.197957L 10.2654 5.04932C 10.8515 5.42982 11.0469 6.19081 10.6561 6.76156C 10.4608 7.04693 10.07 7.33231 9.58154 7.33231Z"/>
<path id="path3_fill" d="M 1.27789 7.33231C 0.887127 7.33231 0.398677 7.14206 0.203297 6.76156C -0.187464 6.19081 0.00791625 5.42982 0.594057 5.04932L 8.80003 0.197957C 9.38617 -0.182541 10.1677 0.00770927 10.5584 0.578457C 10.9492 1.14921 10.7538 1.9102 10.1677 2.2907L 1.86403 7.14206C 1.66865 7.23718 1.47327 7.33231 1.27789 7.33231Z"/>
</defs>
</svg>
