<svg width="28" height="30" viewBox="0 0 28 30" version="1.1" xmlns="http://www.w3.org/2000/svg" xmlns:xlink="http://www.w3.org/1999/xlink">
<title>Vector</title>
<desc>Created using Figma</desc>
<g id="Canvas" transform="translate(-14398 -35868)">
<g id="Vector">
<use xlink:href="#path0_fill" transform="translate(14398 35868)" fill="#FFFFFF"/>
</g>
</g>
<defs>
<path id="path0_fill" d="M 27.597 0.798347C 27.4853 0.329956 27.0634 0 26.582 0C 26.5799 0 26.5778 0 26.5757 0C 21.0755 0.0343487 7.70052 0.953436 2.3006 8.72249C -0.504309 12.759 -0.745535 17.9998 1.58319 24.2991C 1.60094 24.348 1.63749 24.3813 1.66151 24.4261C 0.829224 26.4797 0.506545 27.8464 0.49819 27.8849C 0.377055 28.447 0.737328 29.0007 1.30123 29.1214C 1.37433 29.1371 1.44743 29.1443 1.52053 29.1443C 2.00194 29.1443 2.43531 28.8102 2.54078 28.3221C 2.56271 28.2159 5.22351 17.5251 14.6303 11.2747C 15.1107 10.9562 15.2402 10.3098 14.9196 9.83101C 14.599 9.35221 13.9515 9.2221 13.4712 9.54269C 8.13703 13.0869 4.85175 17.878 2.91985 21.6751C 1.53724 16.91 1.8996 12.9557 4.01843 9.90804C 8.1882 3.90846 18.0785 2.46166 24.0486 2.15564C 22.7641 4.03025 21.3606 7.4672 21.3606 13.5313C 21.3606 16.7788 20.4364 19.279 18.6152 20.9631C 15.6955 23.66 10.9524 23.9129 7.48331 23.6527C 6.90688 23.6059 6.40667 24.0389 6.36281 24.6124C 6.31895 25.1849 6.75024 25.6845 7.32458 25.7282C 8.01902 25.7813 8.76046 25.8136 9.53113 25.8136C 13.0628 25.8136 17.1825 25.1235 20.0344 22.489C 22.3005 20.3958 23.4492 17.3825 23.4492 13.5323C 23.4492 4.06147 27.031 1.98286 27.0488 1.97349C 27.4832 1.75595 27.7108 1.26882 27.597 0.798347Z"/>
</defs>
</svg>
