<svg width="77" height="73" viewBox="0 0 77 73" version="1.1" xmlns="http://www.w3.org/2000/svg" xmlns:xlink="http://www.w3.org/1999/xlink">
<title>Group 6</title>
<desc>Created using Figma</desc>
<g id="Canvas" transform="translate(-12129 -52955)">
<g id="Group 6">
<g id="Ellipse 4">
<use xlink:href="#path0_fill" transform="translate(12129.9 52955)" fill="#344E70"/>
</g>
<g id="Group">
<g id="Vector">
<use xlink:href="#path1_fill" transform="translate(12152.5 52984.1)" fill="#FFFFFF"/>
</g>
</g>
</g>
</g>
<defs>
<path id="path0_fill" d="M 75.5104 36.4135C 75.5104 56.5241 58.6068 72.827 37.7552 72.827C 16.9036 72.827 0 56.5241 0 36.4135C 0 16.3029 16.9036 0 37.7552 0C 58.6068 0 75.5104 16.3029 75.5104 36.4135Z"/>
<path id="path1_fill" d="M 7.09724 12.3092C 10.5142 15.5811 14.3903 15.3667 14.3903 15.3667L 16.1514 15.3667C 16.1514 15.3667 16.6858 15.3113 16.9568 15.0416C 17.2051 14.7925 17.1976 14.3291 17.1976 14.3291C 17.1976 14.3291 17.16 12.1639 18.2588 11.8388C 19.3351 11.5275 20.7275 13.9348 22.1951 14.8617C 23.309 15.5604 24.152 15.4082 24.152 15.4082L 28.0732 15.3598C 28.0732 15.3598 30.1279 15.2422 29.157 13.7618C 29.0742 13.6373 28.5925 12.662 26.2368 10.6559C 23.7756 8.55299 24.1068 8.89194 27.0722 5.26028C 28.8785 3.0467 29.601 1.69779 29.3753 1.11673C 29.157 0.563332 27.8324 0.708599 27.8324 0.708599L 23.4069 0.736269C 23.4069 0.736269 23.0757 0.694764 22.8349 0.826195C 22.594 0.957627 22.4435 1.26199 22.4435 1.26199C 22.4435 1.26199 21.7435 2.97752 20.8103 4.43019C 18.8384 7.50153 18.0556 7.66755 17.732 7.47386C 16.9869 7.03115 17.1675 5.68916 17.1675 4.73455C 17.1675 1.75313 17.6567 0.51491 16.2117 0.18979C 15.73 0.0860284 15.3762 0.00993641 14.1494 0.00301896C 12.5689 -0.0108159 11.2367 0.00993639 10.4766 0.348891C 9.97231 0.577167 9.58847 1.08214 9.82178 1.10981C 10.1153 1.1444 10.7776 1.27583 11.1238 1.71163C 11.5754 2.27886 11.5604 3.55167 11.5604 3.55167C 11.5604 3.55167 11.8238 7.05882 10.9507 7.49462C 10.3562 7.79207 9.53578 7.18333 7.78214 4.3956C 6.87898 2.9706 6.2016 1.38651 6.2016 1.38651C 6.2016 1.38651 6.07366 1.08906 5.84034 0.936875C 5.55434 0.743186 5.16297 0.687846 5.16297 0.687846L 0.963261 0.715516C 0.963261 0.715516 0.331047 0.729351 0.0977297 0.985297C -0.113008 1.19974 0.082677 1.66321 0.082677 1.66321C 0.082677 1.66321 3.3717 8.73976 7.09724 12.3092Z"/>
</defs>
</svg>
