<svg width="76" height="73" viewBox="0 0 76 73" version="1.1" xmlns="http://www.w3.org/2000/svg" xmlns:xlink="http://www.w3.org/1999/xlink">
<title>Group 7</title>
<desc>Created using Figma</desc>
<g id="Canvas" transform="translate(-12035 -52955)">
<g id="Group 7">
<g id="Group">
<g id="&#209;&#129;&#208;&#190;&#209;&#134; &#209;&#129;&#208;&#181;&#209;&#130;&#208;&#184;">
<g id="Ellipse 4">
<use xlink:href="#path0_fill" transform="translate(12035.5 52955)" fill="#385492"/>
</g>
</g>
</g>
<g id="Group 4">
<g id="Canvas">
<g id="Layer 1 3">
<g id="Vector">
<g id="Vector">
<use xlink:href="#path1_fill" transform="translate(12067.6 52980.5)" fill="#FFFFFF"/>
</g>
</g>
</g>
</g>
</g>
</g>
</g>
<defs>
<path id="path0_fill" d="M 75.5104 36.4135C 75.5104 56.5241 58.6068 72.827 37.7552 72.827C 16.9036 72.827 0 56.5241 0 36.4135C 0 16.3029 16.9036 0 37.7552 0C 58.6068 0 75.5104 16.3029 75.5104 36.4135Z"/>
<path id="path1_fill" d="M 10.6973 7.0745L 7.05418 7.0745L 7.05418 4.80693C 7.05418 3.95536 7.64889 3.75681 8.06777 3.75681C 8.48569 3.75681 10.6387 3.75681 10.6387 3.75681L 10.6387 0.013115L 7.09802 -3.90806e-16C 3.16754 -3.90806e-16 2.27308 2.79217 2.27308 4.57901L 2.27308 7.0745L 8.13697e-15 7.0745L 8.13697e-15 10.9322L 2.27308 10.9322C 2.27308 15.8829 2.27308 21.8481 2.27308 21.8481L 7.05418 21.8481C 7.05418 21.8481 7.05418 15.8242 7.05418 10.9322L 10.2803 10.9322L 10.6973 7.0745Z"/>
</defs>
</svg>
