<svg width="76" height="74" viewBox="0 0 76 74" version="1.1" xmlns="http://www.w3.org/2000/svg" xmlns:xlink="http://www.w3.org/1999/xlink">
<title>Group 5</title>
<desc>Created using Figma</desc>
<g id="Canvas" transform="translate(-12229 -52955)">
<g id="Group 5">
<g id="Ellipse 4">
<use xlink:href="#path0_fill" transform="translate(12229.5 52955.2)" fill="#EE8208"/>
</g>
<g id="1499302558_social_media_social_media_logo_Odnoklassniki">
<g id="Odnoklassniki">
<g id="Vector">
<use xlink:href="#path1_fill" transform="translate(12260.2 52975.2)" fill="#FFFFFF"/>
</g>
<g id="Vector">
<use xlink:href="#path2_fill" transform="translate(12257.8 52988.1)" fill="#FFFFFF"/>
</g>
</g>
</g>
</g>
</g>
<defs>
<path id="path0_fill" d="M 75.5103 36.4135C 75.5103 56.5241 58.6068 72.827 37.7552 72.827C 16.9036 72.827 0 56.5241 0 36.4135C 0 16.3029 16.9036 0 37.7552 0C 58.6068 0 75.5103 16.3029 75.5103 36.4135Z"/>
<path id="path1_fill" d="M 7.07824 13.6496C 8.47818 13.6496 9.84669 13.2493 11.0107 12.4994C 12.1747 11.7495 13.0819 10.6836 13.6177 9.43655C 14.1534 8.18948 14.2936 6.81724 14.0205 5.49336C 13.7474 4.16947 13.0732 2.95341 12.0833 1.99894C 11.0934 1.04448 9.83218 0.394477 8.45914 0.13114C 7.08609 -0.132197 5.66289 0.00295709 4.36951 0.519511C 3.07614 1.03606 1.97067 1.91082 1.1929 3.03315C 0.415132 4.15548 2.09558e-15 5.47499 1.04779e-15 6.82481C 4.19116e-15 8.63486 0.745741 10.3708 2.07317 11.6507C 3.4006 12.9306 5.20097 13.6496 7.07824 13.6496ZM 7.07824 3.41241C 7.77821 3.41241 8.46246 3.61254 9.04447 3.9875C 9.62648 4.36246 10.0801 4.8954 10.348 5.51894C 10.6158 6.14248 10.6859 6.8286 10.5494 7.49054C 10.4128 8.15248 10.0757 8.76051 9.58078 9.23774C 9.08582 9.71498 8.45521 10.04 7.76869 10.1716C 7.08217 10.3033 6.37057 10.2357 5.72388 9.97746C 5.07719 9.71918 4.52445 9.28181 4.13557 8.72064C 3.74669 8.15947 3.53912 7.49972 3.53912 6.82481C 3.53912 5.91978 3.91199 5.05183 4.5757 4.41188C 5.23942 3.77193 6.13961 3.41241 7.07824 3.41241Z"/>
<path id="path2_fill" d="M 17.4608 4.80123C 17.8952 4.52623 18.2519 4.15155 18.499 3.7108C 18.7461 3.27006 18.8758 2.77705 18.8765 2.27604C 18.8863 1.97472 18.832 1.67466 18.7169 1.39437C 18.6018 1.11408 18.4283 0.859494 18.2073 0.646327C 17.9862 0.433161 17.7221 0.265932 17.4314 0.154958C 17.1407 0.0439839 16.8295 -0.00838253 16.517 0.00108991C 16.0011 0.00189134 15.4997 0.165707 15.0896 0.467454C 13.4461 1.65176 11.4493 2.29169 9.39751 2.29169C 7.34571 2.29169 5.34895 1.65176 3.70541 0.467454C 3.31091 0.201943 2.84165 0.059062 2.36055 0.0579638C 2.04804 0.0484913 1.73684 0.100857 1.44614 0.211831C 1.15544 0.322805 0.891407 0.490034 0.670326 0.7032C 0.449244 0.916366 0.275806 1.17095 0.160712 1.45124C 0.0456169 1.73154 -0.008694 2.0316 0.00113016 2.33291C 0.00181626 2.83392 0.131524 3.32693 0.378611 3.76768C 0.625698 4.20842 0.982428 4.58311 1.41678 4.8581C 2.56255 5.56432 3.80552 6.11186 5.10927 6.48469L 5.86428 6.68943L 1.99484 10.3521C 1.76085 10.5753 1.5751 10.841 1.44833 11.1339C 1.32155 11.4267 1.25628 11.741 1.25628 12.0583C 1.25628 12.3757 1.32155 12.6899 1.44833 12.9827C 1.5751 13.2756 1.76085 13.5413 1.99484 13.7645C 2.46842 14.2092 3.10335 14.458 3.7644 14.458C 4.42545 14.458 5.06038 14.2092 5.53396 13.7645L 9.4388 9.81748L 13.3672 13.7418C 13.8365 14.1943 14.4731 14.4485 15.1368 14.4485C 15.8005 14.4485 16.437 14.1943 16.9063 13.7418C 17.3757 13.2892 17.6393 12.6755 17.6393 12.0356C 17.6393 11.3956 17.3757 10.7819 16.9063 10.3293L 12.9779 6.70081L 13.7447 6.49606C 15.0606 6.10416 16.3119 5.53348 17.4608 4.80123Z"/>
</defs>
</svg>
