<svg width="76" height="73" viewBox="0 0 76 73" version="1.1" xmlns="http://www.w3.org/2000/svg" xmlns:xlink="http://www.w3.org/1999/xlink">
<title>Group</title>
<desc>Created using Figma</desc>
<g id="Canvas" transform="translate(-11934 -52955)">
<rect x="11934" y="52955" width="76" height="73" fill="#262626"/>
<clipPath id="clip-0" clip-rule="evenodd">
<path d="M 11609 52228L 12633 52228L 12633 53148L 11609 53148L 11609 52228Z" fill="#FFFFFF"/>
</clipPath>
<g id="&#208;&#188;&#208;&#181;&#208;&#189;&#209;&#142;" clip-path="url(#clip-0)">
<path d="M 11609 52228L 12633 52228L 12633 53148L 11609 53148L 11609 52228Z" fill="#FFFFFF"/>
<g id="Rectangle" filter="url(#filter0_d)">
<use xlink:href="#path0_fill" transform="translate(11609 52228)" fill="#FFFFFF"/>
</g>
<g id="Group 7">
<g id="Group">
<g id="Vector">
<mask id="mask0_outline_ins">
<use xlink:href="#path1_fill" fill="white" transform="translate(11934 52955)"/>
</mask>
<g mask="url(#mask0_outline_ins)">
<use xlink:href="#path2_stroke_2x" transform="translate(11934 52955)" fill="#353535"/>
</g>
</g>
<g id="if_share_227561">
<g id="Vector">
<use xlink:href="#path3_fill" transform="translate(11949.9 52972.3)" fill="#353535"/>
</g>
</g>
</g>
</g>
</g>
</g>
<defs>
<filter id="filter0_d" filterUnits="userSpaceOnUse" x="11569" y="52193" width="1104" height="1199" color-interpolation-filters="sRGB">
<feFlood flood-opacity="0" result="BackgroundImageFix"/>
<feColorMatrix in="SourceAlpha" type="matrix" values="0 0 0 0 0 0 0 0 0 0 0 0 0 0 0 0 0 0 255 0"/>
<feOffset dx="0" dy="5"/>
<feGaussianBlur stdDeviation="20"/>
<feColorMatrix type="matrix" values="0 0 0 0 0.61 0 0 0 0 0.61 0 0 0 0 0.61 0 0 0 0.3 0"/>
<feBlend mode="normal" in2="BackgroundImageFix" result="effect1_dropShadow"/>
<feBlend mode="normal" in="SourceGraphic" in2="effect1_dropShadow" result="shape"/>
</filter>
<path id="path0_fill" d="M 0 0L 1024 0L 1024 1119L 0 1119L 0 0Z"/>
<path id="path1_fill" d="M 37.842 72.9945C 58.7416 72.9945 75.6841 56.6541 75.6841 36.4973C 75.6841 16.3404 58.7416 0 37.842 0C 16.9425 0 0 16.3404 0 36.4973C 0 56.6541 16.9425 72.9945 37.842 72.9945Z"/>
<path id="path2_stroke_2x" d="M 73.6841 36.4973C 73.6841 55.482 57.7059 70.9945 37.842 70.9945L 37.842 74.9945C 59.7774 74.9945 77.6841 57.8263 77.6841 36.4973L 73.6841 36.4973ZM 37.842 70.9945C 17.9782 70.9945 2 55.482 2 36.4973L -2 36.4973C -2 57.8263 15.9067 74.9945 37.842 74.9945L 37.842 70.9945ZM 2 36.4973C 2 17.5125 17.9782 2 37.842 2L 37.842 -2C 15.9067 -2 -2 15.1682 -2 36.4973L 2 36.4973ZM 37.842 2C 57.7059 2 73.6841 17.5125 73.6841 36.4973L 77.6841 36.4973C 77.6841 15.1682 59.7774 -2 37.842 -2L 37.842 2Z"/>
<path id="path3_fill" d="M 31.867 23.0509C 29.4705 23.0509 27.3259 24.0772 25.865 25.6926L 15.7557 20.8179C 15.8703 20.2987 15.9335 19.7609 15.9335 19.2091C 15.9335 18.6573 15.8703 18.1195 15.7557 17.6008L 25.865 12.7255C 27.3254 14.3415 29.4705 15.3673 31.867 15.3673C 36.2666 15.3673 39.8337 11.9269 39.8337 7.68364C 39.8337 3.44035 36.2666 0 31.867 0C 27.4673 0 23.9002 3.44035 23.9002 7.68364C 23.9002 8.23542 23.9635 8.77327 24.078 9.29192L 13.9687 14.1672C 12.5083 12.5512 10.3637 11.5255 7.96675 11.5255C 3.56711 11.5255 0 14.9658 0 19.2091C 0 23.4524 3.56711 26.8927 7.96675 26.8927C 10.3637 26.8927 12.5078 25.8665 13.9687 24.251L 24.0785 29.1263C 23.9635 29.6449 23.9002 30.1828 23.9002 30.7345C 23.9002 34.9778 27.4673 38.4182 31.867 38.4182C 36.2666 38.4182 39.8337 34.9778 39.8337 30.7345C 39.8337 26.4913 36.2666 23.0509 31.867 23.0509ZM 31.867 3.84182C 34.0668 3.84182 35.8504 5.56199 35.8504 7.68364C 35.8504 9.80528 34.0668 11.5255 31.867 11.5255C 29.6672 11.5255 27.8836 9.80528 27.8836 7.68364C 27.8836 5.56199 29.6672 3.84182 31.867 3.84182ZM 7.96675 23.0509C 5.76693 23.0509 3.98337 21.3307 3.98337 19.2091C 3.98337 17.0874 5.76693 15.3673 7.96675 15.3673C 10.1666 15.3673 11.9501 17.0874 11.9501 19.2091C 11.9501 21.3307 10.1666 23.0509 7.96675 23.0509ZM 31.867 34.5764C 29.6672 34.5764 27.8836 32.8562 27.8836 30.7345C 27.8836 28.6129 29.6672 26.8927 31.867 26.8927C 34.0668 26.8927 35.8504 28.6129 35.8504 30.7345C 35.8504 32.8562 34.0668 34.5764 31.867 34.5764Z"/>
</defs>
</svg>
