<svg width="95" height="96" viewBox="0 0 95 96" fill="none" xmlns="http://www.w3.org/2000/svg">
<circle cx="47.6949" cy="47.9625" r="47.2945" fill="#FF5919"/>
<path fill-rule="evenodd" clip-rule="evenodd" d="M68.6771 24.5918H26.4454V53.1916H11.7446L47.8292 78.8511L83.6452 53.1916H68.6771V24.5918Z" fill="white"/>
<path d="M36.5484 41.2594C36.6657 40.4821 36.8857 39.8001 37.2084 39.2134C37.531 38.6268 37.9344 38.1391 38.4184 37.7504C38.9024 37.3618 39.4524 37.0721 40.0684 36.8814C40.6917 36.6834 41.3627 36.5844 42.0814 36.5844C42.844 36.5844 43.526 36.6944 44.1274 36.9144C44.736 37.1271 45.2494 37.4204 45.6674 37.7944C46.0854 38.1684 46.4044 38.6048 46.6244 39.1034C46.8517 39.6021 46.9654 40.1374 46.9654 40.7094C46.9654 41.2154 46.9104 41.6628 46.8004 42.0514C46.6977 42.4328 46.54 42.7664 46.3274 43.0524C46.122 43.3384 45.8654 43.5804 45.5574 43.7784C45.2567 43.9764 44.9084 44.1414 44.5124 44.2734C46.3457 44.8748 47.2624 46.0958 47.2624 47.9364C47.2624 48.7504 47.112 49.4691 46.8114 50.0924C46.5107 50.7084 46.1074 51.2254 45.6014 51.6434C45.0954 52.0614 44.505 52.3768 43.8304 52.5894C43.163 52.7948 42.4627 52.8974 41.7294 52.8974C40.952 52.8974 40.2664 52.8094 39.6724 52.6334C39.0784 52.4574 38.554 52.1934 38.0994 51.8414C37.652 51.4894 37.267 51.0494 36.9444 50.5214C36.6217 49.9861 36.3394 49.3628 36.0974 48.6514L37.4394 48.1014C37.7914 47.9548 38.1177 47.9144 38.4184 47.9804C38.7264 48.0464 38.9464 48.2078 39.0784 48.4644C39.225 48.7431 39.379 48.9998 39.5404 49.2344C39.709 49.4691 39.896 49.6744 40.1014 49.8504C40.3067 50.0191 40.5377 50.1511 40.7944 50.2464C41.0584 50.3418 41.359 50.3894 41.6964 50.3894C42.1217 50.3894 42.492 50.3198 42.8074 50.1804C43.1227 50.0411 43.3867 49.8614 43.5994 49.6414C43.812 49.4141 43.9697 49.1611 44.0724 48.8824C44.1824 48.5964 44.2374 48.3141 44.2374 48.0354C44.2374 47.6688 44.2044 47.3388 44.1384 47.0454C44.0724 46.7448 43.9184 46.4918 43.6764 46.2864C43.4417 46.0738 43.0897 45.9124 42.6204 45.8024C42.1584 45.6851 41.5277 45.6264 40.7284 45.6264V43.4924C41.3957 43.4924 41.942 43.4374 42.3674 43.3274C42.7927 43.2174 43.1264 43.0634 43.3684 42.8654C43.6104 42.6674 43.7754 42.4291 43.8634 42.1504C43.9587 41.8718 44.0064 41.5674 44.0064 41.2374C44.0064 40.5408 43.823 40.0091 43.4564 39.6424C43.097 39.2758 42.5837 39.0924 41.9164 39.0924C41.623 39.0924 41.3517 39.1364 41.1024 39.2244C40.8604 39.3051 40.6404 39.4188 40.4424 39.5654C40.2517 39.7121 40.0867 39.8844 39.9474 40.0824C39.808 40.2804 39.7054 40.4968 39.6394 40.7314C39.5 41.0981 39.3204 41.3438 39.1004 41.4684C38.8804 41.5858 38.5614 41.6114 38.1434 41.5454L36.5484 41.2594ZM59.9361 52.7214H57.0211C56.8011 52.7214 56.6214 52.6664 56.4821 52.5564C56.3501 52.4464 56.2437 52.3181 56.1631 52.1714L53.9301 48.4424C53.8641 48.6918 53.7687 48.9118 53.6441 49.1024L51.7301 52.1714C51.6421 52.3108 51.5321 52.4391 51.4001 52.5564C51.2754 52.6664 51.1141 52.7214 50.9161 52.7214H48.2101L52.0601 46.8694L48.3641 41.3804H51.2791C51.4991 41.3804 51.6604 41.4098 51.7631 41.4684C51.8657 41.5271 51.9574 41.6224 52.0381 41.7544L54.2601 45.3514C54.2967 45.2268 54.3444 45.1021 54.4031 44.9774C54.4617 44.8454 54.5314 44.7171 54.6121 44.5924L56.3171 41.8094C56.4931 41.5234 56.7204 41.3804 56.9991 41.3804H59.7821L56.0861 46.7374L59.9361 52.7214Z" fill="#FF5919"/>
</svg>
