<svg width="95" height="95" viewBox="0 0 95 95" fill="none" xmlns="http://www.w3.org/2000/svg">
<circle cx="47.2945" cy="47.4742" r="47.2945" fill="#FF5919"/>
<path fill-rule="evenodd" clip-rule="evenodd" d="M68.2767 24.1035H26.045V52.7033H11.3442L47.4288 78.3628L83.2448 52.7033H68.2767V24.1035Z" fill="white"/>
<path d="M37.4432 49.8682C37.7092 49.8682 37.9402 49.8285 38.1362 49.7492C38.3369 49.6698 38.5025 49.5625 38.6332 49.4272C38.7639 49.2872 38.8619 49.1238 38.9272 48.9372C38.9925 48.7458 39.0252 48.5405 39.0252 48.3212C39.0252 47.8172 38.8945 47.4275 38.6332 47.1522C38.3765 46.8722 37.9799 46.7322 37.4432 46.7322C36.9065 46.7322 36.5075 46.8722 36.2462 47.1522C35.9895 47.4275 35.8612 47.8172 35.8612 48.3212C35.8612 48.5405 35.8939 48.7458 35.9592 48.9372C36.0245 49.1238 36.1225 49.2872 36.2532 49.4272C36.3839 49.5625 36.5472 49.6698 36.7432 49.7492C36.9439 49.8285 37.1772 49.8682 37.4432 49.8682ZM37.4432 42.3922C37.2052 42.3922 36.9999 42.4295 36.8272 42.5042C36.6592 42.5788 36.5192 42.6792 36.4072 42.8052C36.2999 42.9265 36.2205 43.0688 36.1692 43.2322C36.1179 43.3955 36.0922 43.5658 36.0922 43.7432C36.0922 43.9345 36.1132 44.1212 36.1552 44.3032C36.1972 44.4805 36.2695 44.6392 36.3722 44.7792C36.4749 44.9192 36.6125 45.0312 36.7852 45.1152C36.9579 45.1992 37.1772 45.2412 37.4432 45.2412C37.7092 45.2412 37.9285 45.1992 38.1012 45.1152C38.2739 45.0312 38.4115 44.9192 38.5142 44.7792C38.6169 44.6392 38.6892 44.4805 38.7312 44.3032C38.7732 44.1212 38.7942 43.9345 38.7942 43.7432C38.7942 43.5658 38.7685 43.3955 38.7172 43.2322C38.6659 43.0688 38.5842 42.9265 38.4722 42.8052C38.3649 42.6792 38.2249 42.5788 38.0522 42.5042C37.8842 42.4295 37.6812 42.3922 37.4432 42.3922ZM39.2492 45.9412C39.8652 46.1465 40.3132 46.4568 40.5932 46.8722C40.8732 47.2828 41.0132 47.7775 41.0132 48.3562C41.0132 48.8088 40.9269 49.2195 40.7542 49.5882C40.5815 49.9568 40.3389 50.2718 40.0262 50.5332C39.7135 50.7898 39.3379 50.9905 38.8992 51.1352C38.4605 51.2752 37.9752 51.3452 37.4432 51.3452C36.9112 51.3452 36.4259 51.2752 35.9872 51.1352C35.5485 50.9905 35.1729 50.7898 34.8602 50.5332C34.5475 50.2718 34.3049 49.9568 34.1322 49.5882C33.9595 49.2195 33.8732 48.8088 33.8732 48.3562C33.8732 47.7775 34.0132 47.2828 34.2932 46.8722C34.5732 46.4568 35.0212 46.1465 35.6372 45.9412C35.1565 45.7312 34.7972 45.4372 34.5592 45.0592C34.3259 44.6812 34.2092 44.2308 34.2092 43.7082C34.2092 43.3162 34.2885 42.9545 34.4472 42.6232C34.6059 42.2872 34.8275 41.9978 35.1122 41.7552C35.4015 41.5078 35.7445 41.3142 36.1412 41.1742C36.5379 41.0342 36.9719 40.9642 37.4432 40.9642C37.9145 40.9642 38.3485 41.0342 38.7452 41.1742C39.1419 41.3142 39.4825 41.5078 39.7672 41.7552C40.0565 41.9978 40.2805 42.2872 40.4392 42.6232C40.5979 42.9545 40.6772 43.3162 40.6772 43.7082C40.6772 44.2308 40.5582 44.6812 40.3202 45.0592C40.0869 45.4372 39.7299 45.7312 39.2492 45.9412ZM48.3573 49.4622C48.5673 49.4622 48.7306 49.5205 48.8473 49.6372C48.9686 49.7538 49.0293 49.9078 49.0293 50.0992V51.2332H41.9873V50.6032C41.9873 50.4818 42.0129 50.3512 42.0643 50.2112C42.1156 50.0665 42.2019 49.9358 42.3233 49.8192L45.3333 46.8022C45.5899 46.5455 45.8163 46.3005 46.0123 46.0672C46.2083 45.8292 46.3716 45.5982 46.5023 45.3742C46.6329 45.1455 46.7309 44.9145 46.7963 44.6812C46.8616 44.4478 46.8943 44.2028 46.8943 43.9462C46.8943 43.4935 46.7776 43.1505 46.5443 42.9172C46.3109 42.6792 45.9819 42.5602 45.5573 42.5602C45.3706 42.5602 45.1979 42.5882 45.0393 42.6442C44.8853 42.6955 44.7453 42.7678 44.6193 42.8612C44.4979 42.9545 44.3929 43.0642 44.3043 43.1902C44.2156 43.3162 44.1503 43.4538 44.1083 43.6032C44.0243 43.8365 43.9099 43.9928 43.7653 44.0722C43.6253 44.1468 43.4246 44.1632 43.1633 44.1212L42.1413 43.9392C42.2159 43.4445 42.3559 43.0105 42.5613 42.6372C42.7666 42.2638 43.0233 41.9535 43.3313 41.7062C43.6393 41.4588 43.9916 41.2745 44.3883 41.1532C44.7849 41.0272 45.2119 40.9642 45.6693 40.9642C46.1499 40.9642 46.5863 41.0365 46.9783 41.1812C47.3749 41.3212 47.7133 41.5195 47.9933 41.7762C48.2733 42.0282 48.4903 42.3338 48.6443 42.6932C48.7983 43.0525 48.8753 43.4492 48.8753 43.8832C48.8753 44.2565 48.8216 44.6018 48.7143 44.9192C48.6069 45.2365 48.4599 45.5398 48.2733 45.8292C48.0913 46.1138 47.8789 46.3915 47.6363 46.6622C47.3936 46.9328 47.1369 47.2058 46.8663 47.4812L44.7103 49.6862C44.9483 49.6162 45.1839 49.5625 45.4173 49.5252C45.6506 49.4832 45.8699 49.4622 46.0753 49.4622H48.3573ZM54.9104 43.5332C54.9104 43.9112 54.845 44.2542 54.7144 44.5622C54.5837 44.8702 54.4064 45.1362 54.1824 45.3602C53.963 45.5795 53.7087 45.7498 53.4194 45.8712C53.13 45.9878 52.829 46.0462 52.5164 46.0462C52.171 46.0462 51.8537 45.9878 51.5644 45.8712C51.275 45.7498 51.023 45.5795 50.8084 45.3602C50.5984 45.1362 50.4327 44.8702 50.3114 44.5622C50.1947 44.2542 50.1364 43.9112 50.1364 43.5332C50.1364 43.1412 50.1947 42.7888 50.3114 42.4762C50.4327 42.1588 50.5984 41.8905 50.8084 41.6712C51.023 41.4472 51.275 41.2745 51.5644 41.1532C51.8537 41.0318 52.171 40.9712 52.5164 40.9712C52.8617 40.9712 53.1814 41.0318 53.4754 41.1532C53.7694 41.2745 54.0214 41.4472 54.2314 41.6712C54.446 41.8905 54.6117 42.1588 54.7284 42.4762C54.8497 42.7888 54.9104 43.1412 54.9104 43.5332ZM53.4264 43.5332C53.4264 43.2812 53.403 43.0712 53.3564 42.9032C53.3097 42.7305 53.2444 42.5928 53.1604 42.4902C53.081 42.3875 52.9854 42.3152 52.8734 42.2732C52.7614 42.2265 52.6424 42.2032 52.5164 42.2032C52.3904 42.2032 52.2714 42.2265 52.1594 42.2732C52.052 42.3152 51.9587 42.3875 51.8794 42.4902C51.8047 42.5928 51.744 42.7305 51.6974 42.9032C51.6554 43.0712 51.6344 43.2812 51.6344 43.5332C51.6344 43.7805 51.6554 43.9858 51.6974 44.1492C51.744 44.3125 51.8047 44.4455 51.8794 44.5482C51.9587 44.6462 52.052 44.7162 52.1594 44.7582C52.2714 44.8002 52.3904 44.8212 52.5164 44.8212C52.6424 44.8212 52.7614 44.8002 52.8734 44.7582C52.9854 44.7162 53.081 44.6462 53.1604 44.5482C53.2444 44.4455 53.3097 44.3125 53.3564 44.1492C53.403 43.9858 53.4264 43.7805 53.4264 43.5332ZM58.2004 41.3702C58.2657 41.2955 58.3427 41.2278 58.4314 41.1672C58.5247 41.1065 58.653 41.0762 58.8164 41.0762H60.2234L52.6284 50.9532C52.563 51.0325 52.4837 51.1002 52.3904 51.1562C52.297 51.2075 52.1827 51.2332 52.0474 51.2332H50.6124L58.2004 41.3702ZM60.6924 48.8462C60.6924 49.2242 60.627 49.5672 60.4964 49.8752C60.3657 50.1832 60.1884 50.4492 59.9644 50.6732C59.745 50.8925 59.4907 51.0628 59.2014 51.1842C58.912 51.3008 58.611 51.3592 58.2984 51.3592C57.953 51.3592 57.6357 51.3008 57.3464 51.1842C57.057 51.0628 56.805 50.8925 56.5904 50.6732C56.3804 50.4492 56.2147 50.1832 56.0934 49.8752C55.9767 49.5672 55.9184 49.2242 55.9184 48.8462C55.9184 48.4542 55.9767 48.1018 56.0934 47.7892C56.2147 47.4718 56.3804 47.2035 56.5904 46.9842C56.805 46.7602 57.057 46.5898 57.3464 46.4732C57.6357 46.3518 57.953 46.2912 58.2984 46.2912C58.6437 46.2912 58.9634 46.3518 59.2574 46.4732C59.5514 46.5898 59.8034 46.7602 60.0134 46.9842C60.228 47.2035 60.3937 47.4718 60.5104 47.7892C60.6317 48.1018 60.6924 48.4542 60.6924 48.8462ZM59.2084 48.8462C59.2084 48.5942 59.185 48.3842 59.1384 48.2162C59.0917 48.0435 59.0264 47.9058 58.9424 47.8032C58.863 47.7005 58.7674 47.6282 58.6554 47.5862C58.5434 47.5395 58.4244 47.5162 58.2984 47.5162C58.1724 47.5162 58.0534 47.5395 57.9414 47.5862C57.834 47.6282 57.7407 47.7005 57.6614 47.8032C57.5867 47.9058 57.526 48.0435 57.4794 48.2162C57.4374 48.3842 57.4164 48.5942 57.4164 48.8462C57.4164 49.0935 57.4374 49.2988 57.4794 49.4622C57.526 49.6255 57.5867 49.7585 57.6614 49.8612C57.7407 49.9592 57.834 50.0292 57.9414 50.0712C58.0534 50.1132 58.1724 50.1342 58.2984 50.1342C58.4244 50.1342 58.5434 50.1132 58.6554 50.0712C58.7674 50.0292 58.863 49.9592 58.9424 49.8612C59.0264 49.7585 59.0917 49.6255 59.1384 49.4622C59.185 49.2988 59.2084 49.0935 59.2084 48.8462Z" fill="#FF5919"/>
</svg>
