<svg width="95" height="95" viewBox="0 0 95 95" fill="none" xmlns="http://www.w3.org/2000/svg">
<circle cx="47.2945" cy="47.2945" r="47.2945" fill="#FF5919"/>
<path d="M47.8667 19.6074V25.1519" stroke="white" stroke-width="3.43649" stroke-linecap="round" stroke-linejoin="round"/>
<path d="M47.8667 31.4178L47.8667 46.5454" stroke="white" stroke-width="3" stroke-linecap="round" stroke-linejoin="round"/>
<path d="M37.7549 56.6575L47.8669 46.5455" stroke="white" stroke-width="3" stroke-linecap="round" stroke-linejoin="round"/>
<path d="M47.8667 68.2578V73.8022" stroke="white" stroke-width="3.43649" stroke-linecap="round" stroke-linejoin="round"/>
<path d="M74.8047 46.5454L69.2603 46.5454" stroke="white" stroke-width="3.43649" stroke-linecap="round" stroke-linejoin="round"/>
<path d="M26.4731 46.5454L20.9287 46.5454" stroke="white" stroke-width="3.43649" stroke-linecap="round" stroke-linejoin="round"/>
<path d="M66.915 65.5934L62.9945 61.6729" stroke="white" stroke-width="3.43649" stroke-linecap="round" stroke-linejoin="round"/>
<path d="M32.7393 31.4178L28.8188 27.4973" stroke="white" stroke-width="3.43649" stroke-linecap="round" stroke-linejoin="round"/>
<path d="M28.8193 65.5934L32.7398 61.6729" stroke="white" stroke-width="3.43649" stroke-linecap="round" stroke-linejoin="round"/>
<path d="M62.9946 31.4178L66.9151 27.4973" stroke="white" stroke-width="3.43649" stroke-linecap="round" stroke-linejoin="round"/>
<circle cx="47.9762" cy="47.2557" r="28.7657" stroke="white" stroke-width="3.43649" stroke-linecap="round" stroke-linejoin="round"/>
<circle cx="47.8669" cy="46.5454" r="2.76391" fill="white"/>
<path opacity="0.3" d="M47.9107 46.5367L27.3409 67.1065C22.5649 64.5737 17.0296 50.3902 20.8281 38.6671C26.317 21.7275 41.4883 18.622 47.9107 19.02V46.5367Z" fill="white"/>
</svg>
