<svg width="95" height="96" viewBox="0 0 95 96" fill="none" xmlns="http://www.w3.org/2000/svg">
<circle cx="47.5377" cy="47.962" r="47.2945" fill="#FF5919"/>
<path fill-rule="evenodd" clip-rule="evenodd" d="M68.5199 24.5913H26.2882V53.1911H11.5874L47.672 78.8506L83.4879 53.1911H68.5199V24.5913Z" fill="white"/>
<path d="M55.6754 39.6439V37.4572C56.2805 37.0971 56.6926 36.4347 56.6926 35.6692V35.1501C56.6926 34.8631 56.4651 34.6309 56.184 34.6309H38.8914C38.6103 34.6309 38.3828 34.8631 38.3828 35.1501V35.6693C38.3828 36.4347 38.7949 37.0971 39.4 37.4573V39.6439C39.4 41.7014 40.2593 43.6707 41.7573 45.0468L43.9829 47.0917L41.7573 49.1365C40.2593 50.5126 39.4 52.4819 39.4 54.5394V56.7261C38.7949 57.0863 38.3828 57.7486 38.3828 58.5141V59.0333C38.3828 59.3203 38.6103 59.5525 38.8914 59.5525H56.184C56.4651 59.5525 56.6926 59.3203 56.6926 59.0333V58.5141C56.6926 57.7486 56.2806 57.0863 55.6754 56.7261V54.5394C55.6754 52.4819 54.8162 50.5126 53.3181 49.1365L51.0925 47.0917L53.3181 45.0468C54.8161 43.6707 55.6754 41.7014 55.6754 39.6439ZM51.9572 43.5034L48.8917 46.32C48.6771 46.5167 48.5549 46.7971 48.5549 47.0917C48.5549 47.3863 48.6771 47.6667 48.8917 47.8634L51.9572 50.68C53.0271 51.6631 53.641 53.0701 53.641 54.5394V56.4373H52.3692L47.9445 50.4148C47.7527 50.1531 47.3226 50.1531 47.1309 50.4148L42.7062 56.4373H41.4344V54.5394C41.4344 53.07 42.0483 51.663 43.1182 50.6799L46.1838 47.8633C46.3983 47.6666 46.5206 47.3862 46.5206 47.0916C46.5206 46.797 46.3983 46.5166 46.1838 46.3199L43.1182 43.5033C42.0483 42.5203 41.4344 41.1133 41.4344 39.6439V37.7461H53.641V39.6439C53.641 41.1133 53.0271 42.5203 51.9572 43.5034Z" fill="#FF5919"/>
<path d="M51.0432 41.8997H44.0315C43.8303 41.8997 43.648 42.0209 43.5666 42.2085C43.4852 42.3966 43.5194 42.6156 43.655 42.7677L47.1964 46.103C47.2932 46.1928 47.4154 46.2373 47.5376 46.2373C47.6597 46.2373 47.7819 46.1927 47.8788 46.103L51.4196 42.7677C51.5552 42.6156 51.5895 42.3966 51.508 42.2085C51.4266 42.0209 51.2443 41.8997 51.0432 41.8997Z" fill="#FF5919"/>
</svg>
