<svg width="95" height="96" viewBox="0 0 95 96" fill="none" xmlns="http://www.w3.org/2000/svg">
<circle cx="47.2945" cy="47.9713" r="47.2945" fill="#FF5919"/>
<path fill-rule="evenodd" clip-rule="evenodd" d="M68.2767 24.6006H26.045V53.2004H11.3442L47.4288 78.8599L83.2448 53.2004H68.2767V24.6006Z" fill="white"/>
<path d="M41.0622 41.5732V42.3992C41.0622 42.6419 41.0342 42.8379 40.9782 42.9872C40.9269 43.1366 40.8755 43.2626 40.8242 43.3652L37.1282 51.0862C37.0349 51.2636 36.9089 51.4152 36.7502 51.5412C36.5915 51.6672 36.3769 51.7302 36.1062 51.7302H34.7062L38.4932 44.1912C38.5865 44.0139 38.6822 43.8529 38.7802 43.7082C38.8782 43.5636 38.9879 43.4259 39.1092 43.2952H34.4262C34.3142 43.2952 34.2115 43.2509 34.1182 43.1622C34.0295 43.0736 33.9852 42.9732 33.9852 42.8612V41.5732H41.0622ZM48.7983 50.3092V51.7302H43.1003V50.3092H45.1163V44.7512C45.1163 44.6299 45.1186 44.5062 45.1233 44.3802C45.1279 44.2542 45.1349 44.1259 45.1443 43.9952L43.8143 45.1012C43.7209 45.1712 43.6299 45.2156 43.5413 45.2342C43.4526 45.2529 43.3686 45.2552 43.2893 45.2412C43.2099 45.2226 43.1399 45.1946 43.0793 45.1572C43.0186 45.1152 42.9719 45.0732 42.9393 45.0312L42.3303 44.2122L45.4523 41.5662H47.0413V50.3092H48.7983ZM54.9104 44.0302C54.9104 44.4082 54.845 44.7512 54.7144 45.0592C54.5837 45.3672 54.4064 45.6332 54.1824 45.8572C53.963 46.0766 53.7087 46.2469 53.4194 46.3682C53.13 46.4849 52.829 46.5432 52.5164 46.5432C52.171 46.5432 51.8537 46.4849 51.5644 46.3682C51.275 46.2469 51.023 46.0766 50.8084 45.8572C50.5984 45.6332 50.4327 45.3672 50.3114 45.0592C50.1947 44.7512 50.1364 44.4082 50.1364 44.0302C50.1364 43.6382 50.1947 43.2859 50.3114 42.9732C50.4327 42.6559 50.5984 42.3876 50.8084 42.1682C51.023 41.9442 51.275 41.7716 51.5644 41.6502C51.8537 41.5289 52.171 41.4682 52.5164 41.4682C52.8617 41.4682 53.1814 41.5289 53.4754 41.6502C53.7694 41.7716 54.0214 41.9442 54.2314 42.1682C54.446 42.3876 54.6117 42.6559 54.7284 42.9732C54.8497 43.2859 54.9104 43.6382 54.9104 44.0302ZM53.4264 44.0302C53.4264 43.7782 53.403 43.5682 53.3564 43.4002C53.3097 43.2276 53.2444 43.0899 53.1604 42.9872C53.081 42.8846 52.9854 42.8122 52.8734 42.7702C52.7614 42.7236 52.6424 42.7002 52.5164 42.7002C52.3904 42.7002 52.2714 42.7236 52.1594 42.7702C52.052 42.8122 51.9587 42.8846 51.8794 42.9872C51.8047 43.0899 51.744 43.2276 51.6974 43.4002C51.6554 43.5682 51.6344 43.7782 51.6344 44.0302C51.6344 44.2776 51.6554 44.4829 51.6974 44.6462C51.744 44.8096 51.8047 44.9426 51.8794 45.0452C51.9587 45.1432 52.052 45.2132 52.1594 45.2552C52.2714 45.2972 52.3904 45.3182 52.5164 45.3182C52.6424 45.3182 52.7614 45.2972 52.8734 45.2552C52.9854 45.2132 53.081 45.1432 53.1604 45.0452C53.2444 44.9426 53.3097 44.8096 53.3564 44.6462C53.403 44.4829 53.4264 44.2776 53.4264 44.0302ZM58.2004 41.8672C58.2657 41.7926 58.3427 41.7249 58.4314 41.6642C58.5247 41.6036 58.653 41.5732 58.8164 41.5732H60.2234L52.6284 51.4502C52.563 51.5296 52.4837 51.5972 52.3904 51.6532C52.297 51.7046 52.1827 51.7302 52.0474 51.7302H50.6124L58.2004 41.8672ZM60.6924 49.3432C60.6924 49.7212 60.627 50.0642 60.4964 50.3722C60.3657 50.6802 60.1884 50.9462 59.9644 51.1702C59.745 51.3896 59.4907 51.5599 59.2014 51.6812C58.912 51.7979 58.611 51.8562 58.2984 51.8562C57.953 51.8562 57.6357 51.7979 57.3464 51.6812C57.057 51.5599 56.805 51.3896 56.5904 51.1702C56.3804 50.9462 56.2147 50.6802 56.0934 50.3722C55.9767 50.0642 55.9184 49.7212 55.9184 49.3432C55.9184 48.9512 55.9767 48.5989 56.0934 48.2862C56.2147 47.9689 56.3804 47.7006 56.5904 47.4812C56.805 47.2572 57.057 47.0869 57.3464 46.9702C57.6357 46.8489 57.953 46.7882 58.2984 46.7882C58.6437 46.7882 58.9634 46.8489 59.2574 46.9702C59.5514 47.0869 59.8034 47.2572 60.0134 47.4812C60.228 47.7006 60.3937 47.9689 60.5104 48.2862C60.6317 48.5989 60.6924 48.9512 60.6924 49.3432ZM59.2084 49.3432C59.2084 49.0912 59.185 48.8812 59.1384 48.7132C59.0917 48.5406 59.0264 48.4029 58.9424 48.3002C58.863 48.1976 58.7674 48.1252 58.6554 48.0832C58.5434 48.0366 58.4244 48.0132 58.2984 48.0132C58.1724 48.0132 58.0534 48.0366 57.9414 48.0832C57.834 48.1252 57.7407 48.1976 57.6614 48.3002C57.5867 48.4029 57.526 48.5406 57.4794 48.7132C57.4374 48.8812 57.4164 49.0912 57.4164 49.3432C57.4164 49.5906 57.4374 49.7959 57.4794 49.9592C57.526 50.1226 57.5867 50.2556 57.6614 50.3582C57.7407 50.4562 57.834 50.5262 57.9414 50.5682C58.0534 50.6102 58.1724 50.6312 58.2984 50.6312C58.4244 50.6312 58.5434 50.6102 58.6554 50.5682C58.7674 50.5262 58.863 50.4562 58.9424 50.3582C59.0264 50.2556 59.0917 50.1226 59.1384 49.9592C59.185 49.7959 59.2084 49.5906 59.2084 49.3432Z" fill="#FF5919"/>
</svg>
