<svg width="178" height="181" viewBox="0 0 178 181" fill="none" xmlns="http://www.w3.org/2000/svg">
<path d="M55.7158 40.6182L56.8379 38.9585C58.4354 36.5956 58.6918 33.5728 57.5152 30.9745V30.9745C56.3901 28.4899 56.5725 25.6087 58.002 23.2859L59.4087 21" stroke="#70BF54" stroke-width="3" stroke-linecap="round"/>
<path d="M48.3301 40.6182L49.4521 38.9585C51.0496 36.5956 51.3061 33.5728 50.1295 30.9745V30.9745C49.0044 28.4899 49.1868 25.6087 50.6163 23.2859L52.0229 21" stroke="#70BF54" stroke-width="3" stroke-linecap="round"/>
<path d="M40.9443 40.6182L42.0664 38.9585C43.6639 36.5956 43.9203 33.5728 42.7437 30.9745V30.9745C41.6186 28.4899 41.801 25.6087 43.2305 23.2859L44.6372 21" stroke="#70BF54" stroke-width="3" stroke-linecap="round"/>
<path d="M130.82 42.8398L131.942 41.1802C133.54 38.8173 133.796 35.7945 132.62 33.1962V33.1962C131.495 30.7116 131.677 27.8304 133.106 25.5075L134.513 23.2217" stroke="#70BF54" stroke-width="3" stroke-linecap="round"/>
<path d="M123.435 42.8398L124.557 41.1802C126.154 38.8173 126.411 35.7945 125.234 33.1962V33.1962C124.109 30.7116 124.291 27.8304 125.721 25.5075L127.127 23.2217" stroke="#70BF54" stroke-width="3" stroke-linecap="round"/>
<path d="M116.049 42.8398L117.171 41.1802C118.768 38.8173 119.025 35.7945 117.848 33.1962V33.1962C116.723 30.7116 116.906 27.8304 118.335 25.5075L119.742 23.2217" stroke="#70BF54" stroke-width="3" stroke-linecap="round"/>
<path d="M136.815 105.469H116.424V99.9102C116.424 91.7928 111.966 78.7821 108.295 75.2337C108.607 71.6733 110.718 69.4472 111.734 68.7792C112.373 72.1135 116.29 78.6864 124.693 78.6864C135.196 78.6864 138.702 71.1965 139.743 68.7792C144.25 72.0302 145.903 104.966 146.238 109.766C146.506 113.607 143.67 114.716 142.219 114.79C141.158 114.995 138.863 114.246 138.595 111.076C137.534 95.3342 136.609 87.596 136.39 87.0343C136.172 86.4726 135.285 86.432 135.441 87.4931C135.815 92.3866 136.637 100.865 136.815 105.469Z" fill="#70BF54"/>
<circle cx="87.4386" cy="56.0529" r="13.213" fill="#70BF54"/>
<circle cx="51.2636" cy="62.8518" r="12.9564" fill="#70BF54"/>
<circle cx="125.484" cy="63.8443" r="12.9564" fill="#70BF54"/>
<path d="M41.1225 73.8877C44.9836 76.8689 49.4513 77.6957 51.2026 77.7365C57.8033 77.7365 60.2458 75.1497 61.2589 74.0003C61.7264 74.1561 63.053 74.4587 65.4583 76.7429C58.3799 86.0205 58.3303 98.3075 58.3303 112.518C58.3303 115.553 59.3248 121.67 63.9979 121.67C68.6711 121.67 70.8702 117.776 71.3857 115.829V127.426C68.9517 128.829 61.5076 131.635 51.2026 131.635C38.3213 131.635 34.6189 128.886 30.6674 126.481C30.4956 115.228 32.5573 105.005 35.3921 90.6593C31.9011 93.5937 29.9802 105.263 29.1211 110.675C28.8211 112.565 28.0866 115.863 24.9253 115.382C22.2486 114.975 21.5616 112.994 22.2489 108.527C25.685 81.4676 35.9907 76.6368 41.1225 73.8877Z" fill="#70BF54"/>
<path d="M73.1772 111.739H85.9875V158.372C85.9875 161.909 83.1198 164.777 79.5824 164.777V164.777C76.0449 164.777 73.1772 161.909 73.1772 158.372V111.739Z" fill="#70BF54"/>
<path d="M111.449 107.921H123.868V152.161C123.868 155.591 121.088 158.371 117.658 158.371V158.371C114.229 158.371 111.449 155.591 111.449 152.161V107.921Z" fill="#70BF54"/>
<path d="M38.373 132.169C38.373 132.169 41.5715 132.743 43.7236 132.946C45.8704 133.149 49.332 133.208 49.332 133.208V152.182C49.332 155.209 46.8788 157.662 43.8525 157.662V157.662C40.8263 157.662 38.373 155.209 38.373 152.182V132.169Z" fill="#70BF54"/>
<path d="M63.4414 132.169C63.4414 132.169 60.243 132.743 58.0908 132.946C55.944 133.149 52.4824 133.208 52.4824 133.208V152.182C52.4824 155.209 54.9357 157.662 57.9619 157.662V157.662C60.9882 157.662 63.4414 155.209 63.4414 152.182V132.169Z" fill="#70BF54"/>
<path d="M89.2627 111.739H102.073V158.372C102.073 161.909 99.2053 164.777 95.6678 164.777V164.777C92.1304 164.777 89.2627 161.909 89.2627 158.372V111.739Z" fill="#70BF54"/>
<path d="M127.044 107.921C127.044 107.921 133.814 107.921 137.378 107.921C137.378 115.361 139.463 115.361 139.463 115.361V152.161C139.463 155.591 136.683 158.371 133.254 158.371V158.371C129.824 158.371 127.044 155.591 127.044 152.161V107.921Z" fill="#70BF54"/>
<path fill-rule="evenodd" clip-rule="evenodd" d="M91.5878 111.739H83.3027V125.589H85.9878V125.486C85.9878 124.582 86.721 123.849 87.6255 123.849C88.53 123.849 89.2632 124.582 89.2632 125.486V125.589H91.5878V111.739Z" fill="#70BF54"/>
<path fill-rule="evenodd" clip-rule="evenodd" d="M129.297 107.921H121.265V121.881H123.868V121.579C123.868 120.702 124.579 119.991 125.456 119.991C126.333 119.991 127.044 120.702 127.044 121.579V121.881H129.297V107.921Z" fill="#70BF54"/>
<path d="M102.073 85.2752V109.608H87.6249H73.177V85.2752C70.8074 87.0475 69.3314 95.22 68.8895 99.0848V115.618C68.8895 118.007 66.9535 119.943 64.5653 119.943H64.3197C62.0672 119.943 60.2412 118.117 60.2412 115.864V115.864V99.0848C60.2412 96.0468 61.173 90.2412 63.9202 82.8137C66.6673 75.3863 72.7898 72.6733 75.3122 72.1222H87.6249H99.9376C102.46 72.6733 108.583 75.3863 111.33 82.8137C114.077 90.2412 115.009 96.0468 115.009 99.0848V115.864V115.864C115.009 118.117 113.183 119.943 110.93 119.943H110.684C108.296 119.943 106.36 118.007 106.36 115.618V99.0848C105.918 95.22 104.442 87.0475 102.073 85.2752Z" fill="#70BF54"/>
</svg>
