<svg width="178" height="181" viewBox="0 0 178 181" fill="none" xmlns="http://www.w3.org/2000/svg">
<path d="M138.81 106.588V127.074C138.81 128.178 137.915 129.067 136.81 129.067L42 129.067C40.8954 129.067 40 128.178 40 127.074V106.588C40.4274 107.825 42.5214 110.299 47.4786 110.299H80.8432C81.9478 110.299 82.8419 111.194 82.8419 112.299V114.721C82.8419 116.378 84.1851 117.721 85.842 117.721L90.4127 117.721H92.9682C94.6251 117.721 95.9682 116.378 95.9682 114.721V112.299C95.9682 111.194 96.8624 110.299 97.9669 110.299H131.332C136.289 110.299 138.383 107.825 138.81 106.588Z" fill="#70BF54"/>
<path d="M40 67.7468C40 65.5377 41.7909 63.7468 44 63.7468H134.81C137.019 63.7468 138.81 65.5377 138.81 67.7468V97.7467C138.81 103.27 134.333 107.747 128.81 107.747H50C44.4772 107.747 40 103.27 40 97.7467V67.7468Z" fill="#70BF54"/>
<path fill-rule="evenodd" clip-rule="evenodd" d="M72.8643 50C72.8643 49.4477 73.312 49 73.8643 49H74.1462H77.6149H100.991H103.404H104.742C105.294 49 105.742 49.4477 105.742 50V59.311C105.742 59.8633 105.294 60.311 104.742 60.311H101.991C101.439 60.311 100.991 59.8633 100.991 59.311V54.7506C100.991 54.1983 100.543 53.7506 99.991 53.7506L78.6149 53.7506C78.0626 53.7506 77.6149 54.1983 77.6149 54.7506V59.311C77.6149 59.8633 77.1672 60.311 76.6149 60.311H73.8643C73.312 60.311 72.8643 59.8633 72.8643 59.311V50Z" fill="#70BF54"/>
</svg>
