<svg width="178" height="181" viewBox="0 0 178 181" fill="none" xmlns="http://www.w3.org/2000/svg">
<path d="M97.1602 37.6182L98.2822 35.9585C99.8797 33.5956 100.136 30.5728 98.9596 27.9745V27.9745C97.8344 25.4899 98.0169 22.6087 99.4463 20.2859L100.853 18" stroke="#70BE54" stroke-width="3" stroke-linecap="round"/>
<path d="M89.7744 37.6182L90.8965 35.9585C92.494 33.5956 92.7504 30.5728 91.5738 27.9745V27.9745C90.4487 25.4899 90.6311 22.6087 92.0606 20.2859L93.4673 18" stroke="#70BE54" stroke-width="3" stroke-linecap="round"/>
<path d="M82.3887 37.6182L83.5107 35.9585C85.1082 33.5956 85.3647 30.5728 84.1881 27.9745V27.9745C83.063 25.4899 83.2454 22.6087 84.6748 20.2859L86.0815 18" stroke="#70BE54" stroke-width="3" stroke-linecap="round"/>
<path fill-rule="evenodd" clip-rule="evenodd" d="M91.4602 52.2763L78.498 58.7808C79.6149 65.4753 85.4346 70.578 92.4461 70.578C100.256 70.578 106.588 64.2467 106.588 56.4366C106.588 48.6265 100.256 42.2952 92.4461 42.2952C91.8258 42.2952 91.2149 42.3351 90.6157 42.4125C91.6163 42.7984 92.4302 43.4221 92.945 44.3573C95.3207 48.6732 92.945 51.4349 91.4602 52.2763ZM96.0885 57.5109C98.5015 57.4649 101.516 59.1177 101.243 60.8762C101.237 60.9153 101.231 60.9558 101.226 60.9974C101.154 61.5591 101.056 62.3193 98.4751 62.3193C94.4583 62.3193 92.4815 62.9114 88.5094 64.9625C84.386 67.0918 85.6304 57.7103 96.0885 57.5109Z" fill="#70BF54"/>
<path d="M105.375 109.647C105.375 119.238 105.86 119.811 107.238 121.438C107.431 121.666 107.642 121.915 107.871 122.212V157.319C107.871 161.196 104.728 164.329 100.851 164.329C96.9739 164.329 93.8308 161.186 93.8308 157.309V125.213C93.8308 124.222 93.0273 123.418 92.0359 123.418C91.0447 123.418 90.241 124.222 90.241 125.213V157.309C90.241 161.186 87.0979 164.329 83.2209 164.329C79.3438 164.329 76.2007 161.186 76.2007 157.309V109.647L105.375 109.647Z" fill="#70BF54"/>
<path d="M89.6287 51.4844L73.4663 60.012C72.8243 60.3507 72.7457 61.2389 73.3182 61.6851L81.5492 68.1009C83.1439 69.5436 87.5747 72.4292 92.5408 72.4292C97.507 72.4292 101.71 69.5436 103.191 68.1009H106.209C114.182 68.1009 116.214 86.1355 116.233 95.1527V117.193C116.233 119.426 114.422 121.236 112.189 121.236H111.221C108.988 121.236 107.177 119.426 107.177 117.193V85.8616C107.177 85.2999 106.722 84.8446 106.16 84.8446C105.599 84.8446 105.143 85.2999 105.143 85.8616V107.577H76.3854V76.6968C71.5447 71.8561 64.8475 65.448 63.7254 64.2851C61.0699 61.5329 61.3898 55.4577 65.3116 53.6922C69.7675 51.6862 79.8539 46.3325 84.2339 44.3079C86.6025 43.1831 90.0651 42.6146 91.6579 45.5947C93.3013 48.6694 91.4105 50.6925 89.6287 51.4844Z" fill="#70BF54"/>
</svg>
