<svg width="178" height="181" viewBox="0 0 178 181" fill="none" xmlns="http://www.w3.org/2000/svg">
<path fill-rule="evenodd" clip-rule="evenodd" d="M47.6455 115.943C47.9336 114.388 47.9763 110.326 45.8423 106.521C43.1748 101.764 41.4243 90.4326 42.1746 80.3463C42.7748 72.2772 46.072 62.4242 47.6455 58.5064C47.6922 58.3962 47.7405 58.2818 47.7904 58.1634C49.3282 54.5172 52.4577 47.097 58.9166 45.4823C65.5853 43.8151 71.0999 45.2246 72.267 45.9192C75.9903 42.7238 83.2703 37.2501 94.8571 37C102.812 37.5625 106.954 45.5187 109.521 52.2734C115.485 53.5474 124.799 61.9575 125.866 68.4261C126.933 74.8947 127.756 89.5714 128.034 96.1011L129.034 98.4351C130.451 98.9353 133.269 100.302 133.202 101.769C133.135 103.237 134.675 121.942 135.453 131.112C135.73 131.64 135.052 132.896 130.118 133.696C129.034 133.871 129.034 136.196 129.034 138.114C129.006 139.142 126.5 141.348 116.697 141.948C108.92 142.424 106.899 142.145 105.917 142.009C105.661 141.974 105.475 141.948 105.277 141.948C98.0803 143.171 82.9368 145.566 79.9359 145.366C79.0746 145.308 77.967 145.299 76.7244 145.289C72.5555 145.255 66.8659 145.208 63.8478 143.282C60.7135 141.281 52.2054 135.557 48.3431 132.946C47.5095 132.334 45.8423 130.712 45.8423 129.111C45.8423 128.929 45.8412 128.699 45.8399 128.429C45.8267 125.727 45.7944 119.085 46.6759 118.024C47.4516 117.091 47.6455 116.248 47.6455 115.943ZM51.4742 101.764C50.9111 98.9484 49.3572 91.3813 47.6455 83.6339C45.506 73.9498 45.0556 66.9681 47.6455 62.2387C50.2355 57.5092 59.5819 51.541 65.5501 50.5275C57.4424 64.1529 56.3163 66.4051 56.3163 76.0893C56.3163 77.4937 56.321 78.9029 56.3257 80.2907C56.3532 88.4724 56.3782 95.9115 55.4155 97.2593C54.5146 98.5205 52.4126 100.788 51.4742 101.764ZM105.107 46.7631L87.4496 43.108C87.8951 40.6779 92.4094 38.209 96.2774 38.8126C101.527 39.6319 104.704 44.1618 105.107 46.7631ZM69.6673 65.6876C67.2782 72.4537 66.3296 82.9515 66.3296 93.8902C66.4486 95.6198 65.3954 99.3819 61.2771 98.8793C56.4382 98.2887 58.4931 91.29 62.2305 90.9086C62.2305 84.4256 65.4445 66.9203 69.3648 61.3488C74.5885 53.9249 82.9314 48.9301 99.2016 50.2795C89.5378 49.8413 74.7946 51.1669 69.6673 65.6876ZM56.7213 114.142C61.8655 116.034 65.763 113.846 67.0687 112.516C65.8153 117.15 63.3084 127.245 63.3084 130.548C63.3084 131.084 63.2926 131.648 63.2764 132.228C63.1675 136.118 63.0381 140.736 67.5122 142.501C71.6253 144.124 78.4007 144.095 81.2743 143.878C76.2384 143.95 66.203 143.638 65.0117 139.06C63.8205 134.481 66.8206 122.314 68.307 117.509C69.1522 117.772 70.6181 116.744 71.4295 114.43C71.6736 117.115 76.1621 117.271 77.4686 115.257C78.6039 113.506 79.3416 110.914 77.4686 108.589C78.4549 93.8902 89.7116 80.3548 104.299 80.6812C125.345 81.1522 128.034 97.1651 129.034 105.719C129.519 109.862 129.681 114.011 129.814 117.406C129.901 119.618 129.975 121.51 130.118 122.872C130.118 101.718 128.534 97.2681 125.345 90.5641C122.156 83.8601 115.097 79.1549 101.841 79.1549C88.5852 79.1549 79.6625 91.5587 77.4686 97.2593C75.2748 102.96 74.5334 106.117 74.2998 108.09C71.6512 108.908 71.2602 112.244 71.2453 113.721C70.6185 114.02 69.3648 114.285 69.3648 112.96C69.3648 111.76 69.7172 110.303 70.1319 108.589C70.2897 107.937 70.4566 107.248 70.6164 106.521C73.0749 99.9912 73.595 91.4567 73.8505 83.0258C73.9637 79.2906 74.1167 75.6164 74.7025 72.02C76.9037 58.5064 85.905 54.333 91.6693 52.8115C97.0804 51.3833 104.299 52.6128 107.104 53.2786C96.6094 50.594 89.7708 49.8327 79.5579 58.1634C69.3449 66.494 75.391 92.9125 68.2933 108.405C64.2507 106.521 62.2305 110.978 62.9237 112.378C61.4919 112.822 59.08 113.283 57.3752 113.11C52.316 112.598 51.4742 107.917 51.4742 105.346C51.0798 107.49 51.5772 112.249 56.7213 114.142Z" fill="#70BF54"/>
<path d="M65.2115 92.0787C64.4818 91.2492 62.5258 91.3678 61.4375 92.9125C60.0771 94.8434 61.1589 96.2737 61.6569 96.524C62.155 96.7743 63.5439 97.1692 64.9043 95.2822C65.9926 93.7726 65.7905 92.7369 65.2115 92.0787Z" fill="#70BF54"/>
<path d="M76.6516 108.858C74.9094 108.408 73.7237 109.156 73.195 111.936C72.5103 115.535 76.9257 114.886 77.5829 112.986C77.9459 111.936 78.3366 109.294 76.6516 108.858Z" fill="#70BF54"/>
</svg>
