<svg width="95" height="95" viewBox="0 0 95 95" fill="none" xmlns="http://www.w3.org/2000/svg">
<circle cx="47.0737" cy="47.8004" r="47" fill="white"/>
<g clip-path="url(#clip0)">
<path d="M54.3231 43.2236C54.0382 43.2236 53.7533 43.1148 53.5359 42.8975L51.7241 41.0858C51.2892 40.651 51.2892 39.9461 51.724 39.5112C52.1587 39.0763 52.8638 39.0762 53.2986 39.5111L54.3232 40.5354L55.3478 39.5111C55.7827 39.0764 56.4878 39.0764 56.9224 39.5112C57.3572 39.946 57.3572 40.6509 56.9223 41.0858L55.1105 42.8975C54.8931 43.1148 54.608 43.2236 54.3231 43.2236V43.2236Z" fill="#71BF52"/>
<path d="M39.8242 43.2236C39.5393 43.2236 39.2543 43.1148 39.037 42.8975L37.2251 41.0858C36.7902 40.651 36.7902 39.9461 37.225 39.5112C37.6597 39.0763 38.3648 39.0762 38.7996 39.5111L39.8242 40.5354L40.8488 39.5111C41.2836 39.0764 41.9887 39.0764 42.4234 39.5112C42.8582 39.946 42.8582 40.6509 42.4233 41.0858L40.6115 42.8975C40.3941 43.1148 40.109 43.2236 39.8242 43.2236V43.2236Z" fill="#71BF52"/>
<path d="M63.0782 60.021H51.5709V57.9937C53.1171 57.6679 54.6363 57.172 56.1 56.5059L59.0043 55.1844C59.4015 55.0037 59.6565 54.6074 59.6565 54.1709V54.0644C61.9329 51.7765 63.2736 48.8179 63.4936 45.62C65.4537 45.2468 66.9399 43.5205 66.9399 41.4537C66.9399 39.4945 65.6045 37.8414 63.796 37.3565L63.8225 37.3216C65.9618 34.5122 66.6586 30.8585 65.6862 27.5472C65.6519 27.4308 65.6163 27.3148 65.579 27.1992C65.5446 27.0926 65.5089 26.9866 65.472 26.8805C64.6175 24.4347 63.0211 22.3668 60.8555 20.9003C58.8253 19.5256 56.4716 18.7968 54.0228 18.7809C49.3592 14.9966 45.644 15.286 43.3294 16.2164C41.3918 16.9951 39.9883 18.3806 39.1522 19.4059C38.7639 19.8819 38.3521 20.4689 38.0512 20.995C37.2797 20.9517 36.5067 21.0025 35.7437 21.1476C32.3133 21.7998 29.5227 24.2711 28.4619 27.5955L28.4119 27.7514C27.7769 29.741 27.8093 30.8379 28.5627 32.8542C28.5724 32.8802 28.583 32.9058 28.5946 32.9308L30.6083 37.2961C28.6707 37.6871 27.2072 39.4026 27.2072 41.4537C27.2072 43.6748 28.9233 45.5024 31.0994 45.6805C31.3186 48.6243 32.5015 51.3957 34.4906 53.5987V54.1709C34.4906 54.6083 34.7465 55.005 35.1449 55.1853L38.103 56.5241C39.5495 57.1788 41.0497 57.6675 42.5762 57.9903V60.0208H31.0689C27.2239 60.0208 24.0957 63.1487 24.0957 66.9934V71.507C24.0957 72.1219 24.5943 72.6205 25.2091 72.6205H42.0306C42.6454 72.6205 43.144 72.1219 43.144 71.507C43.144 70.8922 42.6454 70.3936 42.0306 70.3936H26.3228V66.9934C26.3228 64.3766 28.452 62.2476 31.0691 62.2476H63.0782C65.6953 62.2476 67.8245 64.3766 67.8245 66.9934V70.3936H52.1166C51.5018 70.3936 51.0032 70.8922 51.0032 71.507C51.0032 72.1219 51.5018 72.6205 52.1166 72.6205H68.938C69.5528 72.6205 70.0514 72.1219 70.0514 71.507V66.9934C70.0514 63.149 66.9232 60.021 63.0782 60.021ZM36.5363 45.7297L33.5897 38.8966C33.8586 38.844 34.178 38.7799 34.5543 38.695C37.2525 38.0862 37.4625 35.66 37.6312 33.7103C37.6962 32.9578 37.7627 32.1895 37.9494 31.5066C39.1251 32.2512 41.3868 33.4034 45.8816 35.26C47.1943 35.8025 48.648 35.5292 49.6747 34.5479C50.1983 34.0475 50.543 33.4281 50.6914 32.764C54.8886 35.8702 58.3644 37.7061 61.0623 38.2428L57.7973 45.8142L56.0722 45.0314C50.3534 42.4361 43.7938 42.4362 38.0754 45.0314L36.5363 45.7297ZM64.7132 41.4538C64.7132 42.5644 63.8095 43.468 62.6986 43.468H62.4126C61.7978 43.468 61.2992 43.9666 61.2992 44.5814V44.6791C61.2992 46.7739 60.7276 48.7699 59.6566 50.499V47.3755C59.6566 47.3059 59.6501 47.2373 59.6376 47.1704L62.9638 39.457C63.9498 39.5871 64.7132 40.433 64.7132 41.4538ZM30.5328 28.4301L30.5828 28.2742C31.3956 25.7273 33.5325 23.8348 36.1597 23.3354C36.9525 23.1845 37.7595 23.1665 38.5585 23.2816C38.8573 23.3244 39.162 23.2441 39.4009 23.0584C39.5941 22.9081 39.7311 22.6994 39.7933 22.4659C40.0448 21.8563 41.8545 18.8259 44.9202 18.032C47.342 17.4048 50.0294 18.3193 52.9086 20.7495C53.1175 20.9257 53.3826 21.0207 53.657 21.0116C58.0482 20.8973 61.9483 23.5464 63.3696 27.6144C63.4006 27.7036 63.4307 27.7931 63.4598 27.8833C63.4912 27.9806 63.5212 28.0785 63.5498 28.1756C64.3232 30.8095 63.763 33.7245 62.0508 35.9729L61.9294 36.1324C59.9452 35.8688 56.4084 34.461 50.329 29.6865C50.1733 29.5643 50.0512 29.4685 49.967 29.4044C49.153 28.784 48.5587 29.2385 48.3962 29.3926C48.0633 29.7079 47.9666 30.1923 48.125 30.6063L48.4638 31.5441C48.733 32.2896 48.2811 32.7996 48.1362 32.9381C47.9915 33.0762 47.4626 33.5034 46.7317 33.2019C39.6109 30.2605 38.6025 29.2664 38.4922 29.1351C38.2969 28.8227 37.9593 28.6268 37.5902 28.6127C37.2133 28.5995 36.8548 28.7761 36.6376 29.0844C35.6783 30.447 35.5371 32.0787 35.4126 33.5185C35.2251 35.6856 35.0361 36.3035 34.0641 36.5228C33.6366 36.6192 33.2795 36.6885 32.9924 36.7442C32.9335 36.7556 32.8764 36.7667 32.8215 36.7775L30.6344 32.0364C30.0619 30.4956 30.0489 29.9467 30.5328 28.4301ZM33.2892 44.6791V44.5814C33.2892 43.9665 32.7906 43.468 32.1757 43.468H31.4487C30.3378 43.468 29.4342 42.5644 29.4342 41.4538C29.4342 40.3597 30.311 39.4667 31.3989 39.4402L34.607 46.8798C34.5319 47.0308 34.4906 47.1999 34.4906 47.3755V49.7064C33.7056 48.1648 33.2892 46.449 33.2892 44.6791ZM36.7175 53.4529V48.0928L38.9955 47.0592C44.1292 44.7293 50.0179 44.7293 55.1519 47.0592L57.4298 48.0928V53.4543L55.1777 54.4791C50.0462 56.8141 44.1574 56.8199 39.0213 54.4954L36.7175 53.4529ZM44.8031 58.3421C45.5604 58.4217 46.321 58.4615 47.0814 58.4615C47.8367 58.4615 48.5919 58.4222 49.344 58.3436V60.021H44.8031V58.3421Z" fill="#71BF52" stroke="#71BF52" stroke-width="0.2"/>
<path d="M47.0938 72.6207C46.6223 72.6207 46.1944 72.3129 46.0413 71.8677C45.8903 71.4285 46.0365 70.9237 46.4018 70.6354C46.7628 70.3507 47.2713 70.3185 47.666 70.5531C48.0652 70.7903 48.2776 71.269 48.1862 71.7244C48.083 72.2383 47.6185 72.6207 47.0938 72.6207V72.6207Z" fill="#71BF52"/>
<rect x="26.3145" y="68.6207" width="41.5003" height="5" fill="white"/>
</g>
<path d="M67.4789 61.773H61.5928V66.2539H57.1118V72.1396H61.5928V76.6205H67.4789V72.1396H71.9593V66.2539H67.4789V61.773Z" stroke="white" stroke-width="8" stroke-miterlimit="10" stroke-linecap="round" stroke-linejoin="round"/>
<path d="M67.4789 61.773H61.5928V66.2539H57.1118V72.1396H61.5928V76.6205H67.4789V72.1396H71.9593V66.2539H67.4789V61.773Z" stroke="#71BF52" stroke-width="2.6" stroke-miterlimit="10" stroke-linecap="round" stroke-linejoin="round"/>
<defs>
<clipPath id="clip0">
<rect x="18.5737" y="15.6207" width="57" height="57" fill="white"/>
</clipPath>
</defs>
</svg>
